<?xml version="1.0" standalone="no"?>
<!DOCTYPE svg PUBLIC "-//W3C//DTD SVG 1.1//EN" "http://www.w3.org/Graphics/SVG/1.1/DTD/svg11.dtd" >
<svg xmlns="http://www.w3.org/2000/svg" xmlns:xlink="http://www.w3.org/1999/xlink" version="1.1">
<metadata>
Created by FontForge 20170731 at Wed Apr  8 16:31:28 2020
 By Aleksey,,,
Copyright (c) 2020 by Alfredo Marco Pradil. All rights reserved.
</metadata>
<defs>
<font id="OpenSauceSans-MediumItalic" horiz-adv-x="0" >
  <font-face 
    font-family="Open Sauce Sans Medium Italic"
    font-weight="500"
    font-style="italic"
    font-stretch="normal"
    units-per-em="1000"
    panose-1="0 0 6 0 0 0 0 0 0 0"
    ascent="763"
    descent="-237"
    x-height="557"
    cap-height="763"
    bbox="-780 -237 1272 1029"
    underline-thickness="50"
    underline-position="-150"
    slope="-10"
    unicode-range="U+0020-FB02"
  />
<missing-glyph horiz-adv-x="623" 
d="M14 0l98 557h460l-98 -557h-460zM61 40h380l84 477h-380z" />
    <glyph glyph-name="fi" unicode="fi" horiz-adv-x="633" 
d="M146 466h-88l16 91h88l10 59q14 72 58.5 109.5t116.5 37.5h78l-16 -91h-52q-64 0 -77 -71q-2 -12 -5 -21t-12 -22l8 -10q13 6 22.5 7.5t23.5 1.5h72l-17 -91h-115l-83 -466h-110zM397 0l98 557h110l-98 -557h-110zM520 651q-18 16 -18 41q0 34 26.5 58.5t60.5 24.5
q28 0 45.5 -16t17.5 -42q0 -34 -26.5 -58t-60.5 -24q-27 0 -45 16z" />
    <glyph glyph-name="fl" unicode="fl" horiz-adv-x="661" 
d="M146 466h-88l16 91h88l10 59q14 72 58.5 109.5t116.5 37.5h78l-16 -91h-52q-64 0 -77 -71q-2 -12 -5 -21t-12 -22l8 -10q13 6 22.5 7.5t23.5 1.5h72l-17 -91h-115l-83 -466h-110zM435 21q-28 21 -28 69q0 21 4 41l112 632h110l-108 -605q-3 -15 -3 -26q0 -20 11 -29.5
t37 -9.5h31l-16 -93h-67q-55 0 -83 21z" />
    <glyph glyph-name="s_a_u_c_e_l_o_g_o.liga" unicode="saucelogo" horiz-adv-x="926" 
d="M16 10l131 743q2 10 11 10h744q10 0 8 -10l-131 -743q-1 -4 -4 -7t-8 -3h-744q-9 0 -7 10zM207 94q13 11 22.5 25t17.5 28q19 36 45 69.5t82 82.5l29 26q5 4 9 4q5 0 8 -3q7 -4 16 -6q9 -3 8 -13l-6 -36q-8 -43 -17.5 -66t-23.5 -48q-14 -21 -17 -37q-2 -14 7 -25t23 -11
q15 0 28 11t15 25q1 4 1 12q0 7 -4 25q-7 28 -7 51q0 32 6 63l6 36q1 9 12 13q13 4 16 6q6 3 9 3q5 0 8 -4l22 -26q40 -48 54 -81.5t20 -69.5q4 -20 8 -31.5t13 -22.5q14 -15 37 -15q26 0 44 15q25 22 25 53q0 19 -10 29q-9 12 -19.5 18t-29.5 12q-35 14 -64.5 33t-68.5 67
l-21 26q-3 3 -3 9l4 7q8 12 11 18q5 11 13 11h36q45 0 68.5 -6t42.5 -16q3 -1 13 -5.5t23 -4.5q16 0 29.5 13.5t13.5 30.5q0 12 -8.5 21t-21.5 9t-25 -4.5t-14 -5.5q-22 -10 -48 -16t-71 -6h-36q-8 0 -10 11q-2 10 -4 15q-2 3 -2 8q3 6 6 8l30 26q57 48 94.5 68.5t74.5 31.5
q4 2 16.5 6.5t22.5 10t19 13.5q25 23 25 52q0 19 -10 30q-13 16 -39 16q-24 0 -42 -15q-13 -11 -21 -22.5t-20 -32.5q-19 -37 -44.5 -70t-82.5 -81l-29 -24q-3 -4 -9 -4q-4 0 -7 2q-6 4 -16 7q-9 3 -8 13l7 36q7 44 17 68t24 45q2 3 8 14.5t8 23.5q3 14 -6 25t-23 11
q-15 0 -28 -11t-16 -25q-1 -4 -1 -11q0 -8 4 -26q8 -24 8 -53q0 -22 -6 -61l-7 -36q-1 -9 -12 -13q-2 -1 -8 -2.5t-10 -4.5q-3 -2 -8 -2q-6 0 -9 4l-21 24q-40 48 -54.5 82.5t-19.5 69.5q-3 19 -7 31t-13 23q-13 16 -37 16q-22 0 -43 -16q-26 -23 -26 -52q0 -20 10 -31
q9 -11 19.5 -17t28.5 -13q33 -13 63 -33t70 -67l22 -25q3 -5 2 -8q0 -4 -4 -8q-2 -2 -10 -16q-5 -11 -14 -11h-36q-44 0 -68 6t-43 16q-2 1 -12 5.5t-23 4.5q-16 0 -29.5 -13t-13.5 -29q0 -14 8.5 -23t21.5 -9q12 0 23.5 4.5t15.5 5.5q22 10 47.5 16t70.5 6h36q9 0 11 -11
q2 -12 5 -17v-5q0 -6 -5 -11l-31 -27q-56 -49 -93 -68.5t-76 -31.5q-21 -7 -33.5 -13t-25.5 -17q-11 -9 -17.5 -23t-6.5 -28q0 -17 10 -30q13 -16 39 -16q25 0 43 15zM420.5 340.5q-13.5 13.5 -13.5 32.5q0 24 20.5 43.5t44.5 19.5q20 0 32.5 -13t12.5 -32
q0 -25 -19.5 -44.5t-44.5 -19.5q-19 0 -32.5 13.5zM489 354l-5 6q-11 -13 -28 -13q-12 0 -20 8.5t-8 21.5q0 15 12.5 27t27.5 12t25 -13l6 6q-7 15 -29 15q-19 0 -35.5 -15t-16.5 -34q0 -15 10.5 -25.5t26.5 -10.5q22 0 34 15z" />
    <glyph glyph-name=".notdef" horiz-adv-x="623" 
d="M14 0l98 557h460l-98 -557h-460zM61 40h380l84 477h-380z" />
    <glyph glyph-name=".null" 
 />
    <glyph glyph-name="nonmarkingreturn" horiz-adv-x="333" 
 />
    <glyph glyph-name="space" unicode=" " horiz-adv-x="280" 
 />
    <glyph glyph-name="exclam" unicode="!" horiz-adv-x="284" 
d="M106 484l50 279h109l-49 -279q-12 -68 -42 -206l-12 -54h-93q20 161 37 260zM32 5.5q-17 16.5 -17 41.5q0 32 25.5 56.5t58.5 24.5q25 0 41 -16t16 -40q0 -33 -25.5 -58t-56.5 -25q-25 0 -42 16.5z" />
    <glyph glyph-name="quotedbl" unicode="&#x22;" horiz-adv-x="372" 
d="M66 497l48 266h92l-47 -266h-93zM247 497l47 266h92l-47 -266h-92z" />
    <glyph glyph-name="numbersign" unicode="#" horiz-adv-x="758" 
d="M65 0l89 227h-129l13 76h146l64 170h-135l14 79h152l85 211h85l-85 -215h159l83 215h85l-86 -215h131l-14 -75h-147l-67 -170h138l-13 -76h-153l-89 -227h-84l89 227h-160l-86 -227h-85zM268 303h158l65 170h-159z" />
    <glyph glyph-name="dollar" unicode="$" horiz-adv-x="690" 
d="M79.5 65q-65.5 62 -61.5 174h120q5 -75 55 -114q14 -10 35 -20q4 -2 18 -9.5t26 -20.5l13 8q-2 48 7 101l29 163q-107 22 -164.5 59.5t-57.5 113.5q0 75 39.5 132.5t107.5 89.5t151 33l20 121h60l-21 -123q89 -18 142.5 -75t51.5 -153h-116q-3 51 -33 86q-7 9 -22 20
q-6 6 -15 14t-22 22l-13 -8q2 -22 2 -30q0 -11 -4 -41l-29 -164q107 -24 164 -63.5t57 -119.5q0 -79 -39 -139.5t-107 -94.5t-155 -38l-24 -131h-60l24 132q-113 13 -178.5 75zM348 481q0 26 5 46l15 86q3 18 7.5 33.5t15.5 40.5l-10 9q-31 -18 -53.5 -26t-29.5 -11
q-37 -16 -58 -43.5t-21 -63.5q0 -47 55 -73q3 -1 14 -5.5t23.5 -13.5t26.5 -21l12 9q-2 24 -2 33zM366 87.5q18 6.5 22 8.5t18.5 7.5t25.5 12.5q31 19 49 49t18 66q0 44 -39 75q-8 5 -26 14q-29 14 -51 32l-13 -8q1 -10 1 -26q0 -26 -6 -60l-15 -82q-4 -26 -9 -46t-17 -50
l9 -10q15 11 33 17.5z" />
    <glyph glyph-name="percent" unicode="%" horiz-adv-x="785" 
d="M118 460q-35 38 -35 99q0 56 25 105.5t69 80t96 30.5q57 0 91.5 -39t34.5 -100q0 -53 -25 -102.5t-68 -80.5t-93 -31q-60 0 -95 38zM47 0l593 763h96l-593 -763h-96zM270 523.5q20 15.5 32 42t12 56.5q0 31 -15 50t-41 19q-40 0 -64.5 -36t-24.5 -81q0 -31 15.5 -48.5
t43.5 -17.5q22 0 42 15.5zM421.5 26q-34.5 38 -34.5 99q0 55 25 105t68 80t95 30q58 0 92.5 -39t34.5 -101q0 -54 -25.5 -103t-68 -79t-92.5 -30q-60 0 -94.5 38zM573 87.5q20 15.5 32 41.5t12 57q0 32 -15 50.5t-41 18.5q-40 0 -64 -35t-24 -82q0 -31 15 -48.5t43 -17.5
q22 0 42 15.5z" />
    <glyph glyph-name="ampersand" unicode="&#x26;" horiz-adv-x="746" 
d="M77.5 30q-61.5 42 -61.5 117q0 66 38.5 121.5t101.5 94.5q30 18 50.5 25.5t50.5 8.5l6 14q-33 13 -58 44q-31 42 -31 98q0 63 33 113.5t89.5 79.5t122.5 29q75 0 122 -37t47 -104q0 -64 -37 -116.5t-98 -91.5q-21 -12 -37 -17t-40 -6l-5 -13q18 -7 27.5 -16t20.5 -27
l47 -74q10 -16 15 -29t4 -35l14 -3q30 41 48.5 82t33.5 91h105q-42 -149 -131 -247l83 -132h-139q-2 3 -11.5 20t-9.5 36q0 11 3 21l-12 4q-17 -34 -86 -65q-64 -28 -150 -28q-94 0 -155.5 42zM441.5 533q37.5 35 37.5 81q0 28 -21 48.5t-56 20.5q-48 0 -83 -33t-35 -84
q0 -56 55 -104q65 36 102.5 71zM338 97q43 14 78 39l-128 203q-76 -40 -118 -77.5t-42 -91.5q0 -41 34.5 -64t89.5 -23q43 0 86 14z" />
    <glyph glyph-name="quotesingle" unicode="'" horiz-adv-x="216" 
d="M79 497l47 266h92l-47 -266h-92z" />
    <glyph glyph-name="parenleft" unicode="(" horiz-adv-x="306" 
d="M50 184q0 177 60.5 360.5t169.5 327.5h99q-112 -149 -171 -326t-59 -358q0 -159 56 -299h-101q-54 133 -54 295z" />
    <glyph glyph-name="parenright" unicode=")" horiz-adv-x="306" 
d="M293 579q0 -177 -60.5 -360.5t-169.5 -327.5h-99q112 149 171 326t59 358q0 159 -56 299h101q54 -133 54 -295z" />
    <glyph glyph-name="asterisk" unicode="*" horiz-adv-x="431" 
d="M150 535.5q27 21.5 70 48.5l-2 13q-34 -2 -44 -2q-43 0 -99 10l46 86q33 -16 55 -30t50 -41l12 8q-6 43 -6 88l1 47h93q-10 -34 -21.5 -64t-32.5 -71l9 -8q38 27 66 40.5t67 30.5l14 -87q-58 -8 -100 -8q-30 0 -47 1l-6 -13q34 -26 53.5 -47.5t40.5 -50.5l-86 -53
q-22 72 -31 137h-14q-29 -59 -79 -137l-66 53q30 28 57 49.5z" />
    <glyph glyph-name="plus" unicode="+" horiz-adv-x="643" 
d="M271 59v236h-235v85h235v236h87v-236h236v-85h-236v-236h-87z" />
    <glyph glyph-name="comma" unicode="," horiz-adv-x="256" 
d="M67 -74.5q33 33.5 35 86.5h-12q-4 -11 -15 -16.5t-24 -5.5q-21 0 -35 14t-14 37q0 37 25.5 62t63.5 25q37 0 56.5 -24t19.5 -66q0 -55 -25.5 -101t-71 -74.5t-102.5 -33.5l10 58q56 5 89 38.5z" />
    <glyph glyph-name="hyphen" unicode="-" horiz-adv-x="372" 
d="M16 282l17 95h305l-17 -95h-305z" />
    <glyph glyph-name="period" unicode="." horiz-adv-x="225" 
d="M20 5.5q-17 16.5 -17 41.5q0 32 26 56.5t59 24.5q25 0 41 -16.5t16 -40.5q0 -31 -25.5 -56.5t-56.5 -25.5q-26 0 -43 16.5z" />
    <glyph glyph-name="slash" unicode="/" horiz-adv-x="484" 
d="M-88 -111l504 874h99l-502 -874h-101z" />
    <glyph glyph-name="zero" unicode="0" horiz-adv-x="669" 
d="M107 52q-56 63 -56 191q0 65 13 140q35 198 122.5 295t215.5 97q104 0 160 -63t56 -191q0 -60 -14 -142q-35 -197 -121.5 -293.5t-214.5 -96.5q-105 0 -161 63zM485 380q13 71 13 125q0 164 -117 164q-149 0 -199 -287q-13 -81 -13 -127q0 -83 29 -121.5t85 -38.5
q152 0 202 285z" />
    <glyph glyph-name="one" unicode="1" horiz-adv-x="451" 
d="M304 623l-11 5q-26 -36 -64 -63q-41 -30 -87.5 -50.5t-84.5 -26.5l20 111q74 15 140 61.5t106 102.5h114l-135 -763h-118l98 553q6 32 22 70z" />
    <glyph glyph-name="two" unicode="2" horiz-adv-x="655" 
d="M15 114l295 217q56 43 92.5 77.5t59 76t22.5 90.5q0 46 -27 71t-81 25q-67 0 -110.5 -44t-61.5 -125h-118q27 128 108 199.5t200 71.5q97 0 152.5 -48t55.5 -133q0 -171 -210 -330l-157 -117q-31 -24 -69 -45l4 -12q27 10 43.5 14t38.5 4h303l-19 -106h-540z" />
    <glyph glyph-name="three" unicode="3" horiz-adv-x="666" 
d="M92.5 45.5q-65.5 56.5 -65.5 160.5q0 19 1 29h119q-2 -73 34 -108t113 -35q50 0 89.5 20.5t61.5 57t22 82.5q0 51 -42 75.5t-112 24.5h-47l18 100h43q67 0 111.5 38.5t44.5 97.5q0 39 -26.5 61t-74.5 22q-58 0 -99.5 -32.5t-60.5 -97.5h-111q15 68 57 121t102.5 82.5
t127.5 29.5q94 0 148 -45.5t54 -120.5q0 -48 -21.5 -90.5t-58 -69t-80.5 -27.5l-3 -16q69 -3 108.5 -41t39.5 -102q0 -77 -42.5 -139.5t-114 -98t-154.5 -35.5q-116 0 -181.5 56.5z" />
    <glyph glyph-name="four" unicode="4" horiz-adv-x="659" 
d="M322 0l31 177h-342l20 115l427 471h117l-85 -480h107l-19 -106h-107l-31 -177h-118zM176.5 280q19.5 3 41.5 3h154l42 239q5 27 9.5 43t15.5 42l-11 4q-39 -49 -57 -69l-170 -193q-18 -20 -33 -34.5t-41 -34.5l4 -12q26 9 45.5 12z" />
    <glyph glyph-name="five" unicode="5" horiz-adv-x="658" 
d="M239 531q-14 -40 -31 -68l10 -7q70 65 161 65q93 0 147.5 -55t54.5 -147q0 -88 -43.5 -164t-117.5 -121t-163 -45q-72 0 -124.5 29t-78.5 81.5t-21 121.5h119q-1 -61 33.5 -93.5t94.5 -32.5q53 0 94 28.5t64 75.5t23 99q0 56 -33.5 88.5t-91.5 32.5q-45 0 -85 -22.5
t-68 -63.5h-121l155 430h412l-20 -106h-324z" />
    <glyph glyph-name="six" unicode="6" horiz-adv-x="668" 
d="M107.5 54.5q-57.5 66.5 -57.5 186.5q0 135 45 258t129 199.5t196 76.5q105 0 160 -58t53 -159h-108q-9 114 -123 114q-75 0 -123 -49t-77 -139q-11 -37 -35 -80l11 -7q80 104 202 104q95 0 149.5 -53t54.5 -143q0 -85 -40.5 -157.5t-111 -116t-154.5 -43.5
q-113 0 -170.5 66.5zM382.5 118.5q38.5 27.5 60 72.5t21.5 95q0 54 -29.5 85.5t-84.5 31.5q-52 0 -94 -26t-66 -69t-24 -93q0 -56 35 -90t94 -34q49 0 87.5 27.5z" />
    <glyph glyph-name="seven" unicode="7" horiz-adv-x="611" 
d="M478.5 633.5q15.5 15.5 46.5 39.5l-6 11q-32 -16 -55 -21.5t-51 -5.5h-328l18 106h529l-22 -125l-432 -638h-141l410 594q16 24 31.5 39.5z" />
    <glyph glyph-name="eight" unicode="8" horiz-adv-x="666" 
d="M93.5 41q-62.5 53 -62.5 141q0 85 49.5 148.5t129.5 81.5l2 12q-43 11 -65 42.5t-22 73.5q0 66 39 119.5t103 84.5t137 31q93 0 149.5 -46.5t56.5 -122.5q0 -67 -38.5 -117.5t-99.5 -64.5l-2 -12q56 -14 84 -53t28 -93q0 -79 -43 -142.5t-116.5 -99.5t-158.5 -36
q-108 0 -170.5 53zM452 492q40 37 40 94q0 41 -28 65t-78 24q-64 0 -105 -38t-41 -96q0 -40 27.5 -63t79.5 -23q65 0 105 37zM376.5 113.5q41.5 22.5 64.5 60.5t23 85q0 51 -34.5 81.5t-97.5 30.5q-52 0 -93.5 -22t-64.5 -60.5t-23 -86.5q0 -52 35.5 -81.5t96.5 -29.5
q52 0 93.5 22.5z" />
    <glyph glyph-name="nine" unicode="9" horiz-adv-x="668" 
d="M559 709q57 -66 57 -187q0 -135 -45 -258t-129 -199.5t-196 -76.5q-105 0 -160 58t-53 159h108q9 -114 123 -114q141 0 200 188q11 37 35 80l-11 7q-80 -104 -202 -104q-95 0 -149.5 53t-54.5 143q0 85 40.5 157.5t111 116t154.5 43.5q114 0 171 -66zM283.5 644.5
q-38.5 -27.5 -60 -72.5t-21.5 -95q0 -54 29.5 -85.5t84.5 -31.5q52 0 94 26t66 69t24 93q0 56 -35 90t-94 34q-49 0 -87.5 -27.5z" />
    <glyph glyph-name="colon" unicode=":" horiz-adv-x="226" 
d="M90.5 403.5q-16.5 16.5 -16.5 41.5q0 32 25.5 57t57.5 25q25 0 41.5 -17t16.5 -41q0 -32 -25.5 -57t-56.5 -25q-26 0 -42.5 16.5zM20 5.5q-17 16.5 -17 41.5q0 32 25.5 56.5t58.5 24.5q25 0 41.5 -16t16.5 -40q0 -33 -25.5 -58t-57.5 -25q-25 0 -42 16.5z" />
    <glyph glyph-name="semicolon" unicode=";" horiz-adv-x="257" 
d="M90.5 404q-16.5 17 -16.5 42q0 31 25.5 56t57.5 25q25 0 41.5 -16.5t16.5 -41.5q0 -32 -26 -57t-57 -25q-25 0 -41.5 17zM67.5 -74.5q32.5 33.5 34.5 86.5h-12q-4 -11 -14.5 -16.5t-24.5 -5.5q-20 0 -34 14t-14 37q0 38 25 62.5t64 24.5q37 0 56.5 -24t19.5 -66
q0 -55 -25.5 -101t-71 -74.5t-102.5 -33.5l10 58q56 5 88.5 38.5z" />
    <glyph glyph-name="less" unicode="&#x3c;" horiz-adv-x="598" 
d="M54 287v112l472 174v-100l-291 -104q-24 -9 -44 -12.5t-40 -6.5v-13q20 -3 40 -6.5t44 -12.5l291 -105v-99z" />
    <glyph glyph-name="equal" unicode="=" horiz-adv-x="579" 
d="M62 415v97h441v-97h-441zM62 182v98h441v-98h-441z" />
    <glyph glyph-name="greater" unicode="&#x3e;" horiz-adv-x="597" 
d="M71 213l292 105q24 9 43.5 12.5t39.5 6.5v13q-20 3 -39.5 6.5t-43.5 12.5l-292 104v100l473 -174v-112l-473 -173v99z" />
    <glyph glyph-name="question" unicode="?" horiz-adv-x="555" 
d="M229.5 351.5q21.5 37.5 46.5 58.5t64 46q51 32 75 62t24 78q0 43 -29.5 65t-80.5 22q-63 0 -106 -36t-59 -101h-100q24 106 100.5 167t178.5 61q89 0 144 -42t55 -121q0 -73 -30 -118.5t-95 -88.5q-33 -22 -53 -39t-37 -43.5t-25 -64.5l-10 -35h-100l6 36
q10 56 31.5 93.5zM158.5 6q-16.5 17 -16.5 41q0 32 25.5 56.5t57.5 24.5q25 0 41.5 -16t16.5 -41q0 -33 -25.5 -57.5t-57.5 -24.5q-25 0 -41.5 17z" />
    <glyph glyph-name="at" unicode="@" horiz-adv-x="1044" 
d="M208 -142q-90 46 -139 130.5t-49 196.5q0 156 78 291.5t211 216t288 80.5q118 0 207.5 -47.5t138.5 -133.5t49 -198q0 -108 -41 -208t-114 -163t-164 -63q-54 0 -79.5 25t-25.5 78q0 26 6 59l-9 3q-78 -104 -184 -104q-68 0 -108 41t-40 116q0 91 49 183.5t129 152.5
t166 60q46 0 74 -20t43 -68l13 1q0 21 1 29q2 14 9 31h81q-5 -13 -37 -98q-54 -140 -78.5 -208.5t-33.5 -111.5q-4 -26 -4 -35q0 -55 53 -55q60 0 108 52.5t75 132.5t27 157q0 93 -39.5 163t-112.5 108.5t-171 38.5q-132 0 -242.5 -67.5t-174.5 -181t-64 -243.5
q0 -92 40 -161t114 -106t174 -37q73 0 138 22l-16 -86q-60 -19 -137 -19q-119 0 -209 46zM518 151.5q57 47.5 92.5 119.5t35.5 137q0 83 -81 83q-64 0 -121.5 -46.5t-92.5 -117t-35 -137.5q0 -44 22 -65t61 -21q62 0 119 47.5z" />
    <glyph glyph-name="A" unicode="A" horiz-adv-x="709" 
d="M-47 0l410 763h131l140 -763h-117l-29 172h-321l-89 -172h-125zM470 276l-48 287q-1 9 -4 28t-3 32t3 25h-17q-8 -45 -33 -93l-147 -279h249z" />
    <glyph glyph-name="B" unicode="B" horiz-adv-x="703" 
d="M149 763h290q103 0 159 -42t56 -128q0 -46 -20 -89t-56.5 -69.5t-84.5 -26.5l-3 -16q65 0 102.5 -39t37.5 -108q0 -77 -38 -132t-105.5 -84t-155.5 -29h-317zM489.5 473q42.5 34 42.5 90q0 94 -130 94h-154l-39 -218h169q69 0 111.5 34zM463 142q52 36 52 106
q0 58 -37 75t-89 17h-197l-41 -234h171q89 0 141 36z" />
    <glyph glyph-name="C" unicode="C" horiz-adv-x="765" 
d="M174 29q-68 41 -101 111.5t-33 158.5q0 126 54 235t153 175t228 66q85 0 147.5 -30t95 -84t32.5 -123h-124q-2 61 -45.5 96t-118.5 35q-91 0 -160.5 -51.5t-106.5 -135t-37 -178.5q0 -96 49.5 -153.5t145.5 -57.5q75 0 132.5 38t85.5 108h128q-40 -119 -131.5 -185
t-224.5 -66q-101 0 -169 41z" />
    <glyph glyph-name="D" unicode="D" horiz-adv-x="740" 
d="M149 763h212q167 0 253 -77t86 -223q0 -139 -57 -244t-163 -162t-247 -57h-219zM423 149.5q79 43.5 119.5 122t40.5 184.5q0 201 -245 201h-90l-97 -551h82q111 0 190 43.5z" />
    <glyph glyph-name="E" unicode="E" horiz-adv-x="634" 
d="M14 0l135 763h501l-19 -106h-383l-39 -222h340l-18 -105h-341l-39 -224h383l-19 -106h-501z" />
    <glyph glyph-name="F" unicode="F" horiz-adv-x="617" 
d="M14 0l135 763h501l-19 -106h-383l-39 -222h340l-18 -105h-341l-58 -330h-118z" />
    <glyph glyph-name="G" unicode="G" horiz-adv-x="818" 
d="M175 30q-69 42 -102 113t-33 159q0 124 55 233t155 174.5t228 65.5q133 0 208.5 -64.5t85.5 -172.5h-126q-11 63 -56.5 97t-122.5 34q-91 0 -161.5 -50.5t-109 -132.5t-38.5 -175q0 -96 50.5 -157t149.5 -61q78 0 141 35.5t96 95.5q13 21 24 54q4 11 8.5 21t11.5 15l-7 8
q-15 -11 -26.5 -13t-45.5 -2h-109l18 100h292l-72 -407h-108l22 116h-18q-11 -61 -80 -94.5t-157 -33.5q-104 0 -173 42z" />
    <glyph glyph-name="H" unicode="H" horiz-adv-x="752" 
d="M14 0l135 763h118l-58 -327h354l58 327h118l-135 -763h-118l59 330h-355l-58 -330h-118z" />
    <glyph glyph-name="I" unicode="I" horiz-adv-x="280" 
d="M14 0l135 763h118l-135 -763h-118z" />
    <glyph glyph-name="J" unicode="J" horiz-adv-x="402" 
d="M-29 106h93q45 0 73.5 23.5t36.5 69.5l100 564h118l-101 -573q-12 -69 -37.5 -109.5t-73.5 -60.5t-127 -20h-101z" />
    <glyph glyph-name="K" unicode="K" horiz-adv-x="674" 
d="M149 763h118l-63 -352h17q3 19 14.5 35.5t27.5 33.5l295 283h154l-392 -371l261 -392h-145l-199 305q-17 27 -40 72l-21 -14q6 -10 8.5 -18t2.5 -19q0 -16 -4 -37l-51 -289h-118z" />
    <glyph glyph-name="L" unicode="L" horiz-adv-x="542" 
d="M14 0l135 763h118l-116 -657h332l-19 -106h-450z" />
    <glyph glyph-name="M" unicode="M" horiz-adv-x="930" 
d="M149 763h200l61 -527q5 -30 5 -53q0 -25 -8 -70h19q7 43 16 71t24 60l246 519h204l-135 -763h-118l99 561q11 58 24 107h-16q-21 -63 -45 -115l-269 -553h-116l-72 561q-7 47 -6 107h-18q-6 -63 -14 -115l-98 -553h-118z" />
    <glyph glyph-name="N" unicode="N" horiz-adv-x="756" 
d="M149 763h147l185 -520q9 -24 14.5 -43t8.5 -48h20q2 53 10 98l91 513h118l-135 -763h-148l-185 522q-10 27 -15 44t-8 45h-19q-2 -41 -5.5 -67t-4.5 -32l-91 -512h-118z" />
    <glyph glyph-name="O" unicode="O" horiz-adv-x="821" 
d="M173.5 29q-67.5 41 -100.5 111.5t-33 158.5q0 126 54.5 235t155 175t231.5 66q99 0 166.5 -41.5t100.5 -112t33 -158.5q0 -125 -54.5 -234t-155 -175t-230.5 -66q-100 0 -167.5 41zM519 145q69 51 107 134.5t38 176.5q0 96 -51.5 154.5t-150.5 58.5q-90 0 -159.5 -51
t-107 -134.5t-37.5 -176.5q0 -97 51 -155t151 -58q90 0 159 51z" />
    <glyph glyph-name="P" unicode="P" horiz-adv-x="669" 
d="M148 763h304q70 0 118 -26.5t71 -70.5t23 -97q0 -65 -29 -123t-93 -95t-163 -37h-191l-56 -314h-118zM507 457.5q39 40.5 39 97.5q0 44 -31.5 73t-90.5 29h-176l-42 -240h168q94 0 133 40.5z" />
    <glyph glyph-name="Q" unicode="Q" horiz-adv-x="819" 
d="M507 10q0 12 3 28l-11 -1q-31 -29 -65 -39q-30 -10 -91 -10q-101 0 -168.5 41t-100.5 111.5t-33 158.5q0 37 4 66q13 108 67.5 202t147.5 151t216 57q101 0 169 -41t101 -111.5t33 -158.5q0 -36 -4 -65q-12 -97 -57 -184t-120 -144l65 -158h-122l-23 52q-11 24 -11 45z
M502 134.5q65 41.5 105 111.5t51 155q4 27 4 57q0 96 -50.5 153.5t-146.5 57.5q-82 0 -147 -41t-105 -111t-51 -154q-4 -27 -4 -58q0 -97 50 -154.5t146 -57.5q83 0 148 41.5z" />
    <glyph glyph-name="R" unicode="R" horiz-adv-x="688" 
d="M148 763h304q70 0 118 -26.5t71 -70.5t23 -97q0 -57 -22 -107.5t-58.5 -81t-78.5 -30.5q-10 0 -24 3l-8 -17q13 -10 19 -23.5t11 -36.5l72 -276h-123l-73 315h-191l-56 -315h-118zM507 457.5q39 40.5 39 97.5q0 44 -31.5 73t-90.5 29h-176l-42 -240h168q94 0 133 40.5z
" />
    <glyph glyph-name="S" unicode="S" horiz-adv-x="691" 
d="M99 51.5q-83 63.5 -81 187.5h119q2 -82 54.5 -115.5t134.5 -33.5q77 0 124.5 35t47.5 102q0 37 -23 60t-58.5 36t-94.5 27q-65 16 -111.5 35t-79 57t-32.5 98q0 71 37 124.5t101 82t142 28.5t139.5 -25.5t96.5 -77.5t34 -128h-114q-1 68 -44.5 98t-116.5 30
q-69 0 -112.5 -30.5t-43.5 -84.5q0 -48 44 -72.5t130 -43.5q66 -15 114 -35.5t79.5 -60.5t31.5 -104q0 -78 -38.5 -135.5t-106 -87.5t-154.5 -30q-136 0 -219 63.5z" />
    <glyph glyph-name="T" unicode="T" horiz-adv-x="637" 
d="M188 0l115 657h-245l19 106h609l-19 -106h-246l-115 -657h-118z" />
    <glyph glyph-name="U" unicode="U" horiz-adv-x="732" 
d="M108 45q-64 57 -64 160q0 33 6 69l86 489h118l-87 -497q-5 -30 -5 -50q0 -123 144 -123q95 0 148.5 48.5t67.5 132.5l86 489h119l-87 -497q-24 -132 -107.5 -205t-230.5 -73q-130 0 -194 57z" />
    <glyph glyph-name="V" unicode="V" horiz-adv-x="711" 
d="M77 763h116l93 -562q5 -37 5 -54q0 -9 -2 -31h18q7 44 32 93l291 554h128l-409 -763h-131z" />
    <glyph glyph-name="W" unicode="W" horiz-adv-x="1097" 
d="M82 763h117l52 -545q1 -9 3 -25t2 -29t-3 -30h18q3 25 10 44.5t19 47.5l237 537h133l47 -545q1 -7 2.5 -22t1.5 -28q0 -16 -3 -34h18q5 26 12 46t18 46l244 537h129l-349 -763h-153l-51 551l-1 24q0 7 2 39h-14q-11 -46 -22 -71l-237 -543h-154z" />
    <glyph glyph-name="X" unicode="X" horiz-adv-x="726" 
d="M283 382l-188 381h134l116 -245q22 -50 19 -76h17q4 39 39 83l202 238h147l-325 -381l190 -382h-134l-115 234q-12 25 -19 46.5t-4 39.5h-18q-3 -40 -47 -93l-195 -227h-146z" />
    <glyph glyph-name="Y" unicode="Y" horiz-adv-x="701" 
d="M269 295l-201 468h129l117 -292q9 -25 13.5 -40t4.5 -31q0 -14 -2 -21h18q5 31 14 54t27 46l220 284h146l-363 -468l-53 -295h-123z" />
    <glyph glyph-name="Z" unicode="Z" horiz-adv-x="648" 
d="M-17 83l468 516q32 36 67 61l-4 9q-38 -12 -85 -12h-320l18 106h547l-13 -86l-459 -508q-37 -42 -72 -66l4 -9q38 12 87 12h338l-19 -106h-570z" />
    <glyph glyph-name="bracketleft" unicode="[" horiz-adv-x="276" 
d="M-3 -110l173 982h228l-15 -83h-130l-144 -816h130l-14 -83h-228z" />
    <glyph glyph-name="backslash" unicode="\" horiz-adv-x="447" 
d="M289 -111l-194 874h86l195 -874h-87z" />
    <glyph glyph-name="bracketright" unicode="]" horiz-adv-x="276" 
d="M-121 -110l15 83h130l144 816h-130l14 83h228l-173 -982h-228z" />
    <glyph glyph-name="asciicircum" unicode="^" horiz-adv-x="568" 
d="M248 763h111l174 -472h-100l-88 247q-23 66 -35 128h-13q-7 -40 -14.5 -65t-20.5 -63l-89 -247h-99z" />
    <glyph glyph-name="underscore" unicode="_" horiz-adv-x="450" 
d="M-75 -81l14 81h449l-14 -81h-449z" />
    <glyph glyph-name="grave" unicode="`" horiz-adv-x="266" 
d="M205 613h-91l-174 150h122z" />
    <glyph glyph-name="a" unicode="a" horiz-adv-x="591" 
d="M66 23q-42 34 -42 94q0 48 21.5 88.5t61.5 66.5q50 32 138 49l188 35q3 11 3 31q0 36 -18 58q-27 33 -83 33q-45 0 -82.5 -25.5t-53.5 -68.5h-110q30 88 103.5 136t160.5 48q49 0 90 -14.5t65 -42.5q37 -40 37 -111q0 -37 -10 -91l-55 -309h-110l4 21q6 26 21 55l-13 7
q-30 -40 -67 -62q-51 -32 -135 -32q-72 0 -114 34zM301 98q46 21 67.5 49.5t45.5 85.5q5 13 10.5 19.5t15.5 7.5v16l-121 -24l-61 -11q-61 -12 -91 -36q-30 -25 -30 -64q0 -29 21.5 -45t59.5 -16q46 0 83 18z" />
    <glyph glyph-name="b" unicode="b" horiz-adv-x="647" 
d="M210 10q-34 21 -61 71l-16 -10q8 -13 8 -27q0 -3 -2 -17l-5 -27h-110l135 763h110l-42 -233q-4 -26 -21 -44l12 -9q44 49 86.5 70t99.5 21q94 0 148 -59.5t54 -159.5q0 -93 -39 -176t-108.5 -133.5t-156.5 -50.5q-58 0 -92 21zM400.5 120q44.5 35 69 91t24.5 116
q0 66 -33.5 105.5t-93.5 39.5q-57 0 -102.5 -34.5t-71 -90t-25.5 -115.5q0 -66 35.5 -106.5t95.5 -40.5q57 0 101.5 35z" />
    <glyph glyph-name="c" unicode="c" horiz-adv-x="616" 
d="M152 18.5q-53 29.5 -82 83t-29 123.5q0 94 42.5 172.5t116.5 124.5t166 46q96 0 156 -49t68 -131h-115q-7 42 -36.5 64.5t-75.5 22.5q-60 0 -108.5 -35t-76 -92.5t-27.5 -121.5q0 -66 35 -105t94 -39q52 0 94 26.5t63 71.5h123q-35 -90 -111 -140.5t-172 -50.5
q-72 0 -125 29.5z" />
    <glyph glyph-name="d" unicode="d" horiz-adv-x="651" 
d="M97 49q-54 60 -54 159q0 93 39 176t108 133.5t156 50.5q58 0 92 -21t61 -70l16 9q-8 14 -8 28q0 4 2 16l42 233h110l-135 -763h-110l5 27q4 18 7.5 26t13.5 18l-12 10q-44 -50 -86.5 -71t-99.5 -21q-93 0 -147 60zM383.5 119.5q45.5 34.5 71 90t25.5 115.5
q0 66 -35.5 106.5t-95.5 40.5q-56 0 -100.5 -34.5t-69 -90.5t-24.5 -117q0 -66 33 -105.5t93 -39.5q57 0 102.5 34.5z" />
    <glyph glyph-name="e" unicode="e" horiz-adv-x="638" 
d="M147 18q-52 29 -80 80.5t-28 118.5q0 92 44 173t120 129.5t167 48.5q64 0 116.5 -24.5t83.5 -74t31 -120.5q0 -28 -6 -63l-5 -30h-376q-50 0 -71 3l-5 -16q8 -2 10.5 -7t4.5 -17q2 -14 5 -23q11 -52 46 -81.5t86 -29.5q53 0 95.5 27.5t67.5 70.5h114q-42 -86 -118.5 -140
t-178.5 -54q-71 0 -123 29zM198 341q13 4 28 4h211q30 0 54 -17l12 13q-8 6 -10 10.5t-2 11.5q0 9 -1 17.5t-6 17.5q-14 38 -47.5 58.5t-79.5 20.5t-85.5 -20.5t-68.5 -58.5q-12 -14 -19 -34q-4 -9 -7.5 -13.5t-13.5 -9.5l7 -13q15 9 28 13z" />
    <glyph glyph-name="f" unicode="f" horiz-adv-x="369" 
d="M146 466h-88l16 91h88l10 59q14 72 58.5 109.5t116.5 37.5h78l-16 -91h-52q-64 0 -77 -71q-2 -12 -5 -21t-12 -22l8 -10q13 6 22.5 7.5t23.5 1.5h72l-17 -91h-115l-83 -466h-110z" />
    <glyph glyph-name="g" unicode="g" horiz-adv-x="645" 
d="M68 -175q-63 41 -62 137h112q5 -45 36 -66.5t90 -21.5q75 0 117 34t53 96l6 29q2 16 6 24.5t14 19.5l-12 10q-44 -50 -86.5 -71t-99.5 -21q-94 0 -147.5 59.5t-53.5 157.5q0 92 39 174t108 132t155 50q58 0 92 -21t61 -70l16 9q-7 13 -7 27q0 10 2 17l5 27h110l-94 -529
q-23 -132 -101.5 -188t-198.5 -56q-97 0 -160 41zM380.5 125q45.5 34 71 88.5t25.5 112.5q0 65 -35.5 105.5t-95.5 40.5q-56 0 -100 -34t-68.5 -89t-24.5 -114q0 -65 33 -104.5t93 -39.5q56 0 101.5 34z" />
    <glyph glyph-name="h" unicode="h" horiz-adv-x="599" 
d="M159 763h110l-42 -233q-4 -26 -21 -44l12 -9q43 49 84 70t90 21q123 0 153 -90q9 -30 9 -62q0 -34 -10 -88l-58 -328h-110l58 329q6 33 6 58q0 39 -15 60q-21 28 -73 28q-60 0 -100 -38q-26 -24 -43 -65t-29 -111l-46 -261h-110z" />
    <glyph glyph-name="i" unicode="i" horiz-adv-x="264" 
d="M28 0l98 557h110l-98 -557h-110zM151 651q-18 16 -18 41q0 34 26.5 58.5t60.5 24.5q28 0 45.5 -16t17.5 -42q0 -34 -26.5 -58t-60.5 -24q-27 0 -45 16z" />
    <glyph glyph-name="j" unicode="j" horiz-adv-x="243" 
d="M-119 -110h52q31 0 51 14.5t27 54.5l105 598h110l-110 -623q-12 -69 -54 -104.5t-110 -35.5h-88zM140 651q-18 16 -18 41q0 34 26.5 58.5t60.5 24.5q28 0 45.5 -16t17.5 -42q0 -34 -26.5 -58t-60.5 -24q-27 0 -45 16z" />
    <glyph glyph-name="k" unicode="k" horiz-adv-x="589" 
d="M158 763h110l-59 -328q-4 -25 -9 -44t-16 -43l11 -6q28 26 60 52l200 163h155l-272 -220q-20 -17 -51 -28l-2 -14q24 -10 41 -33l191 -262h-136l-157 223l-40 59l-12 -5q1 -8 1 -21q0 -23 -3.5 -44.5t-4.5 -29.5l-32 -182h-110z" />
    <glyph glyph-name="l" unicode="l" horiz-adv-x="292" 
d="M66 21q-28 21 -28 69q0 21 4 41l112 632h110l-108 -605q-3 -15 -3 -26q0 -20 11 -29.5t37 -9.5h31l-16 -93h-67q-55 0 -83 21z" />
    <glyph glyph-name="m" unicode="m" horiz-adv-x="909" 
d="M121 557h110l-5 -27q-4 -26 -21 -44l12 -9q43 49 84 70t90 21q53 0 90 -24.5t38 -71.5h13q55 96 179 96q78 0 116 -37.5t38 -108.5q0 -32 -5 -58l-65 -364h-110l61 346q4 20 4 41q0 44 -21 66t-60 22q-49 0 -84 -32q-28 -26 -45 -66.5t-28 -103.5l-48 -273h-110l61 346
q4 19 4 38q0 44 -21.5 67.5t-61.5 23.5q-47 0 -84 -35q-25 -23 -42 -62t-29 -105l-48 -273h-110z" />
    <glyph glyph-name="n" unicode="n" horiz-adv-x="598" 
d="M121 557h110l-5 -27q-4 -26 -21 -44l12 -9q43 49 84 70t90 21q123 0 153 -90q9 -27 9 -61q0 -33 -10 -89l-58 -328h-110l58 329q6 33 6 59q0 38 -15 59q-21 28 -73 28q-60 0 -100 -38q-26 -24 -43 -65t-29 -111l-46 -261h-110z" />
    <glyph glyph-name="o" unicode="o" horiz-adv-x="644" 
d="M146 19q-52 30 -79 82.5t-27 120.5q0 89 42.5 169t119 128.5t171.5 48.5q73 0 125 -30t79 -82t27 -118q0 -89 -43 -169.5t-119 -130t-172 -49.5q-72 0 -124 30zM392 119q47 34 74 89.5t27 115.5q0 66 -37.5 107t-99.5 41q-57 0 -104 -33.5t-74 -88t-27 -114.5
q0 -68 37.5 -109.5t99.5 -41.5q57 0 104 34z" />
    <glyph glyph-name="p" unicode="p" horiz-adv-x="651" 
d="M555 508q54 -60 54 -159q0 -93 -39 -176t-108.5 -133.5t-156.5 -50.5q-58 0 -92 21t-61 71l-16 -10q8 -14 8 -28q0 -4 -2 -16l-42 -233h-110l135 763h110l-5 -27q-4 -18 -7.5 -26t-13.5 -18l12 -10q44 50 86.5 71t99.5 21q94 0 148 -60zM267.5 437.5q-45.5 -34.5 -71 -90
t-25.5 -115.5q0 -66 35.5 -106.5t95.5 -40.5q56 0 100.5 35t69 91t24.5 116q0 66 -33 105.5t-93 39.5q-57 0 -102.5 -34.5z" />
    <glyph glyph-name="q" unicode="q" horiz-adv-x="649" 
d="M427.5 -183.5q-29.5 22.5 -29.5 68.5q0 18 4 35l19 107q4 18 7.5 26t13.5 18l-12 10q-44 -50 -86.5 -71t-99.5 -21q-93 0 -147 60t-54 159q0 93 38.5 176t108 133.5t156.5 50.5q58 0 92 -21t61 -70l16 9q-8 14 -8 27q0 3 2 17l6 27h110l-111 -624q-1 -5 -1 -12
q0 -31 44 -31h47l-18 -96h-68q-61 0 -90.5 22.5zM383.5 119.5q45.5 34.5 71 90t25.5 115.5q0 66 -35.5 106.5t-95.5 40.5q-57 0 -101 -35t-68.5 -91t-24.5 -116q0 -66 33 -105.5t93 -39.5q57 0 102.5 34.5z" />
    <glyph glyph-name="r" unicode="r" horiz-adv-x="388" 
d="M121 557h110l-5 -27q-4 -26 -21 -44l12 -9q41 49 84.5 70t101.5 21h11l-19 -108h-30q-66 0 -111 -37q-55 -46 -72 -148l-49 -275h-110z" />
    <glyph glyph-name="s" unicode="s" horiz-adv-x="571" 
d="M84.5 38.5q-62.5 49.5 -59.5 144.5h112q3 -51 36.5 -77t95.5 -26q56 0 90.5 24t34.5 63q0 21 -15 34.5t-44.5 23t-87.5 22.5q-84 18 -123 48t-39 85t30.5 98t84.5 66.5t122 23.5q95 0 149.5 -48.5t55.5 -134.5h-103q-4 46 -34 69.5t-81 23.5q-53 0 -84 -21t-31 -57
q0 -27 30.5 -41.5t111.5 -30.5q87 -17 128.5 -48t41.5 -91q0 -61 -32.5 -106t-89.5 -69.5t-128 -24.5q-109 0 -171.5 49.5z" />
    <glyph glyph-name="t" unicode="t" horiz-adv-x="377" 
d="M108.5 21q-28.5 21 -28.5 69q0 21 4 41l59 334h-85l16 92h85l37 206h110l-37 -206h116l-16 -92h-116l-54 -305q-3 -16 -3 -30q0 -18 10 -27.5t37 -9.5h59l-16 -93h-94q-55 0 -83.5 21z" />
    <glyph glyph-name="u" unicode="u" horiz-adv-x="597" 
d="M103 13q-36 24 -50 67q-8 27 -8 60q0 39 9 89l58 328h110l-58 -329q-6 -33 -6 -58q0 -37 15 -60q21 -28 74 -28q59 0 99 38q26 24 43 65t29 111l47 261h110l-99 -557h-110l5 27q3 15 7.5 24.5t13.5 19.5l-12 10q-43 -49 -84 -70.5t-90 -21.5q-67 0 -103 24z" />
    <glyph glyph-name="v" unicode="v" horiz-adv-x="541" 
d="M65 557h112l50 -304q4 -25 4 -52q0 -16 -2 -54h12l8 26q15 49 31 80l160 304h126l-305 -557h-89z" />
    <glyph glyph-name="w" unicode="w" horiz-adv-x="838" 
d="M69 557h110l31 -335q1 -7 1 -20q0 -16 -2.5 -35.5t-3.5 -27.5h13q5 23 11 43t16 40l163 335h97l46 -335q1 -10 1 -27q0 -27 -4 -56h12q5 23 11 43t15 40l150 335h124l-268 -557h-103l-51 340q-2 13 -2 33q0 9 4 49h-13q-6 -25 -11 -41.5t-16 -40.5l-160 -340h-104z" />
    <glyph glyph-name="x" unicode="x" horiz-adv-x="589" 
d="M224 280l-147 277h125l77 -152q16 -29 16 -62h14q5 16 14 29.5t24 32.5l132 152h132l-248 -277l150 -280h-126l-78 154q-16 29 -16 62h-14q-9 -28 -38 -62l-132 -154h-130z" />
    <glyph glyph-name="y" unicode="y" horiz-adv-x="574" 
d="M-1 -133h56q33 0 50.5 9.5t36.5 43.5l45 83l-114 554h114l64 -357q4 -26 3 -62h13q12 36 25 62l181 357h125l-357 -668q-35 -67 -73 -92.5t-98 -25.5h-87z" />
    <glyph glyph-name="z" unicode="z" horiz-adv-x="559" 
d="M5 81l330 312q5 5 28 26t61 48l-4 12q-21 -8 -36.5 -11t-35.5 -3h-257l16 92h458l-15 -88l-320 -303q-17 -17 -38.5 -36t-50.5 -40l4 -12q22 8 37.5 11t34.5 3h264l-16 -92h-474z" />
    <glyph glyph-name="braceleft" unicode="{" horiz-adv-x="321" 
d="M85.5 -82q-25.5 28 -25.5 78q0 23 4 43l37 205q2 16 2 23q0 29 -14.5 45t-41.5 24l16 90q35 10 56.5 30.5t29.5 62.5l37 204q11 70 49 109.5t98 39.5h77l-13 -80h-39q-59 0 -72 -72l-36 -204q-10 -58 -39.5 -89t-83.5 -38l-3 -16q42 -6 62 -28t20 -62q0 -16 -3 -37
l-36 -204q-3 -13 -3 -24q0 -48 49 -48h38l-14 -80h-77q-49 0 -74.5 28z" />
    <glyph glyph-name="bar" unicode="|" horiz-adv-x="332" 
d="M49 -110l173 982h98l-173 -982h-98z" />
    <glyph glyph-name="braceright" unicode="}" horiz-adv-x="321" 
d="M-76 -30h39q59 0 72 72l35 204q11 58 40.5 89t83.5 38l3 16q-42 6 -62.5 28t-20.5 62q0 9 4 37l36 204q3 14 3 25q0 47 -48 47h-39l14 80h77q50 0 75 -27.5t25 -78.5q0 -13 -4 -43l-37 -204q-2 -9 -2 -24q0 -29 14.5 -44.5t40.5 -24.5l-16 -90q-35 -10 -56.5 -30.5
t-28.5 -61.5l-36 -205q-13 -71 -50.5 -110t-97.5 -39h-77z" />
    <glyph glyph-name="asciitilde" unicode="~" horiz-adv-x="435" 
d="M207.5 222q-18.5 13 -36.5 37q-11 15 -19 22t-19 7q-33 0 -51 -75h-74q17 72 55 113.5t89 41.5q29 0 47 -13t36 -36q12 -15 20 -22t19 -7q30 0 48 73h76q-19 -79 -52 -116.5t-87 -37.5q-33 0 -51.5 13z" />
    <glyph glyph-name="uni00A0" unicode="&#xa0;" horiz-adv-x="240" 
 />
    <glyph glyph-name="exclamdown" unicode="&#xa1;" horiz-adv-x="312" 
d="M242 551.5q17 -16.5 17 -41.5q0 -32 -25.5 -56.5t-58.5 -24.5q-25 0 -41.5 16.5t-16.5 39.5q0 33 25.5 58t57.5 25q25 0 42 -16.5zM168 73l-50 -279h-110l50 279q12 68 42 206l12 54h93q-17 -141 -37 -260z" />
    <glyph glyph-name="cent" unicode="&#xa2;" horiz-adv-x="618" 
d="M93 65.5q-53 61.5 -53 155.5q0 86 39 162.5t107.5 125.5t154.5 57l16 93h60l-17 -92q85 -11 136 -59.5t57 -123.5h-120q-7 35 -32 58q-5 4 -19 16t-24 29l-13 -7l-70 -402l9 -7q18 18 43 34l22 17q33 23 52 61h121q-34 -83 -104 -133.5t-159 -58.5l-16 -92h-60l16 92
q-93 13 -146 74.5zM255 79l70 401l-10 7q-16 -19 -46 -39q-11 -6 -19 -13q-44 -33 -69.5 -87t-25.5 -112q0 -71 42 -113q6 -7 21 -20.5t24 -30.5z" />
    <glyph glyph-name="sterling" unicode="&#xa3;" horiz-adv-x="638" 
d="M138 160.5q47 39.5 47 104.5q0 45 -24 112h-95l12 71h26q12 0 21.5 -2t24.5 -8l11 11q-12 28 -12 62q0 72 37.5 132.5t101 96t137.5 35.5q55 0 100 -22t71 -67.5t23 -112.5h-106q0 53 -30 79.5t-73 26.5q-73 0 -116.5 -53.5t-43.5 -135.5q0 -19 5 -42h212l-12 -71h-109
q-22 0 -37.5 1.5t-35.5 8.5l-10 -12q22 -68 22 -109q0 -57 -27.5 -94.5t-84.5 -70.5l3 -17q27 9 46 11.5t46 2.5h261l-17 -98h-518l20 113q77 8 124 47.5z" />
    <glyph glyph-name="currency" unicode="&#xa4;" horiz-adv-x="738" 
d="M104 127l69 69q-48 68 -48 146q0 79 47 144l-66 68l59 62l70 -69q62 47 146 47q79 0 144 -45l67 67l64 -62l-69 -68q23 -31 35 -68.5t12 -76.5q0 -81 -47 -146l67 -67l-63 -61l-66 66q-64 -46 -145 -46t-145 46l-68 -67zM443 186.5q31 12.5 54 35.5q49 49 49 118
q0 33 -12.5 64t-36.5 54q-24 24 -55 36.5t-63 12.5q-69 0 -118 -50q-23 -23 -35 -53.5t-12 -62.5q0 -71 48 -119q24 -24 54.5 -36t63.5 -12q32 0 63 12.5z" />
    <glyph glyph-name="yen" unicode="&#xa5;" horiz-adv-x="701" 
d="M246 144h-170l15 88h171l7 44h-170l15 87h63q18 0 31 -1.5t35 -8.5l10 12q-17 17 -24.5 29t-13.5 26l-147 343h138l117 -289q9 -21 13 -33.5t4 -27.5q0 -5 -2 -21h16q4 23 12.5 38t31.5 45l221 288h136l-267 -343q-24 -30 -56 -55l4 -12q24 7 37.5 8.5t31.5 1.5h62
l-15 -87h-167l-8 -44h167l-15 -88h-167l-26 -144h-116z" />
    <glyph glyph-name="brokenbar" unicode="&#xa6;" horiz-adv-x="332" 
d="M146 445l76 427h98l-76 -427h-98zM49 -110l74 424h98l-74 -424h-98z" />
    <glyph glyph-name="section" unicode="&#xa7;" horiz-adv-x="708" 
d="M140 -214q-62 23 -98.5 72.5t-34.5 126.5h121q6 -62 51 -93t111 -31q76 0 125 35t49 95q0 35 -23 56.5t-56.5 33t-91.5 25.5l-30 7q-82 20 -130 53.5t-48 100.5q0 16 3 34q15 89 106 128l3 21q-64 25 -64 93q0 16 3 32q11 62 54 107t107 69t138 24q104 0 167.5 -52.5
t67.5 -149.5h-114q-9 50 -46 76t-96 26q-68 0 -111 -30.5t-43 -81.5q0 -30 22.5 -49t54.5 -29t90 -23q63 -14 107 -31t74 -51.5t30 -89.5q0 -21 -4 -40q-8 -43 -30 -76t-67 -53l-4 -21q57 -24 57 -88q0 -11 -4 -35q-17 -99 -99 -156.5t-210 -57.5q-75 0 -137 23zM513 265
q0 34 -22.5 55t-53.5 31.5t-88 23.5l-43 12q-41 -8 -68 -34.5t-27 -64.5q0 -28 19 -45.5t49 -27.5t81 -22q53 -10 96 -25q57 35 57 97z" />
    <glyph glyph-name="dieresis" unicode="&#xa8;" horiz-adv-x="382" 
d="M95 651q-18 16 -18 41q0 34 26.5 58.5t60.5 24.5q28 0 45.5 -16t17.5 -42q0 -34 -26.5 -58t-60.5 -24q-27 0 -45 16zM301 651q-18 16 -18 41q0 34 26.5 58.5t60.5 24.5q31 0 48.5 -20t13.5 -50q-6 -30 -31 -50t-56 -20q-26 0 -44 16z" />
    <glyph glyph-name="copyright" unicode="&#xa9;" horiz-adv-x="901" 
d="M254.5 44q-89.5 52 -142 141.5t-52.5 195.5q0 107 52.5 196.5t142 142t195.5 52.5t195.5 -52t142 -142t52.5 -197q0 -106 -52.5 -195.5t-142 -141.5t-195.5 -52t-195.5 52zM605.5 114.5q70.5 41.5 112 112t41.5 154.5q0 85 -41 156t-112 112.5t-156 41.5t-155.5 -41.5
t-112 -112.5t-41.5 -156q0 -84 41.5 -154.5t112.5 -112t155 -41.5q85 0 155.5 41.5zM339.5 189.5q-50.5 29.5 -80 80.5t-29.5 111q0 61 29.5 112t80 80.5t110.5 29.5q46 0 89.5 -19.5t75.5 -54.5l-61 -54q-44 47 -106 47q-38 0 -70 -19t-50.5 -51t-18.5 -71
q0 -38 18.5 -70.5t50.5 -51t70 -18.5q64 0 106 47l61 -54q-31 -35 -74.5 -54.5t-90.5 -19.5q-60 0 -110.5 29.5z" />
    <glyph glyph-name="ordfeminine" unicode="&#xaa;" horiz-adv-x="446" 
d="M112 392.5q-29 23.5 -29 65.5q0 34 15 62t43 46q34 23 97 35l132 24q2 16 2 22q0 23 -13 41q-20 23 -58 23q-32 0 -58.5 -18t-37.5 -48h-77q22 62 73.5 95.5t111.5 33.5q35 0 63 -10t46 -30q25 -27 25 -78q0 -31 -7 -63l-38 -217h-77l3 15q4 18 15 39l-9 4
q-23 -29 -48 -43q-34 -22 -94 -22q-51 0 -80 23.5zM277 445q32 14 47 34t32 60q6 19 18 19v12q-34 -8 -84 -17l-43 -8q-41 -8 -64 -25q-21 -18 -21 -45q0 -20 15.5 -31.5t41.5 -11.5q29 0 58 13z" />
    <glyph glyph-name="guillemotleft" unicode="&#xab;" horiz-adv-x="613" 
d="M12 276l257 189l-18 -100l-73 -54q-19 -13 -33.5 -20.5t-32.5 -12.5l-2 -14q27 -7 54 -33l55 -53l-17 -91zM319 276l257 189l-18 -100l-73 -54q-19 -13 -33.5 -20.5t-32.5 -12.5l-2 -14q27 -7 54 -33l55 -53l-17 -91z" />
    <glyph glyph-name="uni00AD" unicode="&#xad;" horiz-adv-x="397" 
d="M0 289l15 81h382l-15 -81h-382z" />
    <glyph glyph-name="registered" unicode="&#xae;" horiz-adv-x="503" 
d="M178.5 396q-46.5 27 -73.5 73.5t-27 102.5t27 102.5t73.5 73.5t102.5 27t102.5 -27t73.5 -73.5t27 -102.5t-27 -102.5t-73.5 -73.5t-102.5 -27t-102.5 27zM367 425q39 23 61.5 62t22.5 85t-22.5 85t-61.5 62t-86 23q-46 0 -85 -23t-62 -62t-23 -85q0 -47 23 -86t62 -61.5
t85 -22.5q47 0 86 23zM200 689h101q35 0 55 -17t20 -52q0 -29 -15 -47q-4 -4 -11.5 -8.5t-14.5 -3.5l-1 -4q8 -6 13 -21l35 -83h-47l-38 95h-53v-95h-44v236zM332 618q0 15 -9.5 24t-27.5 9h-51v-64h51q37 0 37 31z" />
    <glyph glyph-name="macron" unicode="&#xaf;" horiz-adv-x="326" 
d="M68 648l9 53h298l-9 -53h-298z" />
    <glyph glyph-name="degree" unicode="&#xb0;" horiz-adv-x="471" 
d="M217 482.5q-36 21.5 -57.5 57.5t-21.5 78q0 43 21.5 79t57.5 57t78 21q43 0 79 -21t57 -57t21 -79q0 -42 -21 -78.5t-57 -57.5t-79 -21q-42 0 -78 21.5zM353 560.5q24 23.5 24 57.5t-24 57.5t-58 23.5t-58 -23.5t-24 -57.5t24 -57.5t58 -23.5t58 23.5z" />
    <glyph glyph-name="plusminus" unicode="&#xb1;" horiz-adv-x="727" 
d="M309 160v156h-235v86h235v155h87v-155h236v-86h-236v-156h-87zM74 0v86h558v-86h-558z" />
    <glyph glyph-name="acute" unicode="&#xb4;" horiz-adv-x="266" 
d="M61 613l143 150h122l-174 -150h-91z" />
    <glyph glyph-name="paragraph" unicode="&#xb6;" horiz-adv-x="661" 
d="M189 360.5q-48 22.5 -76 62t-28 91.5q0 69 40 126.5t106 90t140 32.5h94l-154 -873h-94l78 445q-58 3 -106 25.5zM399 -110l154 873h94l-154 -873h-94z" />
    <glyph glyph-name="periodcentered" unicode="&#xb7;" horiz-adv-x="322" 
d="M121.5 339q-17.5 18 -17.5 45q0 36 27.5 63.5t63.5 27.5q28 0 46.5 -18t18.5 -46q0 -36 -28.5 -63t-64.5 -27q-28 0 -45.5 18z" />
    <glyph glyph-name="cedilla" unicode="&#xb8;" horiz-adv-x="249" 
d="M-82 -203l7 44q47 -18 85 -18q33 0 53.5 15t20.5 41q0 28 -33.5 38.5t-96.5 9.5l89 90h68q-19 -18 -35.5 -31.5t-43.5 -30.5l6 -9q19 3 33 3q34 0 57.5 -16t23.5 -46q0 -49 -41.5 -76t-102.5 -27q-48 0 -90 13z" />
    <glyph glyph-name="ordmasculine" unicode="&#xba;" horiz-adv-x="477" 
d="M135.5 414q-42.5 45 -42.5 117q0 63 30 119t83 90t120 34q77 0 119.5 -45t42.5 -116q0 -63 -30 -119t-83.5 -90.5t-120.5 -34.5q-76 0 -118.5 45zM339 460q33 24 52 62.5t19 80.5q0 46 -26 75t-70 29q-40 0 -73 -23.5t-52 -62t-19 -80.5q0 -47 26.5 -76t69.5 -29
q40 0 73 24z" />
    <glyph glyph-name="guillemotright" unicode="&#xbb;" horiz-adv-x="574" 
d="M53 187l73 54q32 24 66 33l2 14q-29 9 -54 33l-55 53l17 91l190 -189l-257 -189zM320 187l73 54q33 24 66 33l2 14q-30 9 -54 33l-55 53l16 91l191 -189l-258 -189z" />
    <glyph glyph-name="questiondown" unicode="&#xbf;" horiz-adv-x="444" 
d="M360.5 551.5q16.5 -16.5 16.5 -41.5q0 -32 -25 -56.5t-57 -24.5q-25 0 -42 16.5t-17 40.5q0 33 25.5 57.5t57.5 24.5q25 0 41.5 -16.5zM289.5 205.5q-21.5 -37.5 -47 -59t-63.5 -45.5q-50 -32 -74 -62t-24 -78q0 -43 29 -65t80 -22q63 0 106.5 36t58.5 101h100
q-24 -106 -100.5 -167t-178.5 -61q-89 0 -144 42t-55 122q0 73 30.5 118t95.5 88q48 33 75.5 63t39.5 84l9 35h100l-6 -35q-10 -57 -31.5 -94.5z" />
    <glyph glyph-name="Agrave" unicode="&#xc0;" horiz-adv-x="709" 
d="M-47 0l410 763h131l140 -763h-117l-29 172h-321l-89 -172h-125zM470 276l-48 287q-1 9 -4 28t-3 32t3 25h-17q-8 -45 -33 -93l-147 -279h249zM474 819h-91l-174 150h122z" />
    <glyph glyph-name="Aacute" unicode="&#xc1;" horiz-adv-x="709" 
d="M-47 0l410 763h131l140 -763h-117l-29 172h-321l-89 -172h-125zM470 276l-48 287q-1 9 -4 28t-3 32t3 25h-17q-8 -45 -33 -93l-147 -279h249zM386 819l143 150h122l-174 -150h-91z" />
    <glyph glyph-name="Acircumflex" unicode="&#xc2;" horiz-adv-x="709" 
d="M-47 0l410 763h131l140 -763h-117l-29 172h-321l-89 -172h-125zM470 276l-48 287q-1 9 -4 28t-3 32t3 25h-17q-8 -45 -33 -93l-147 -279h249zM464 996h14l133 -172h-108l-22 36q-21 35 -17 56h-14q-2 -12 -11.5 -25t-25.5 -31l-36 -36h-108z" />
    <glyph glyph-name="Atilde" unicode="&#xc3;" horiz-adv-x="709" 
d="M-47 0l410 763h131l140 -763h-117l-29 172h-321l-89 -172h-125zM470 276l-48 287q-1 9 -4 28t-3 32t3 25h-17q-8 -45 -33 -93l-147 -279h249zM455.5 828q-18.5 13 -36.5 37q-11 15 -19 22t-19 7q-33 0 -51 -75h-74q17 72 55 113.5t89 41.5q29 0 47 -13t36 -36
q12 -15 20 -22t19 -7q30 0 48 73h76q-19 -79 -52 -116.5t-87 -37.5q-33 0 -51.5 13z" />
    <glyph glyph-name="Adieresis" unicode="&#xc4;" horiz-adv-x="709" 
d="M-47 0l410 763h131l140 -763h-117l-29 172h-321l-89 -172h-125zM470 276l-48 287q-1 9 -4 28t-3 32t3 25h-17q-8 -45 -33 -93l-147 -279h249zM291.5 823q-16.5 15 -16.5 40q0 33 25 55.5t58 22.5q25 0 41.5 -15.5t16.5 -39.5q0 -32 -25 -55t-57 -23q-26 0 -42.5 15z
M497.5 823q-16.5 15 -16.5 40q0 33 25 55.5t58 22.5q25 0 41.5 -15.5t16.5 -39.5q0 -32 -25 -55t-57 -23q-26 0 -42.5 15z" />
    <glyph glyph-name="Aring" unicode="&#xc5;" horiz-adv-x="709" 
d="M316 802q0 36 19 68t52 52t72 20q46 0 75.5 -29.5t29.5 -73.5q0 -32 -16.5 -62.5t-44.5 -49.5l131 -727h-120l-28 172h-319l-89 -172h-125l394 730q-31 26 -31 72zM477 787.5q18 20.5 18 45.5q0 19 -11 31t-33 12q-30 0 -48 -19.5t-18 -44.5q0 -19 11.5 -32t33.5 -13
q29 0 47 20.5zM468 276l-46 288q-6 44 -6 57q0 15 3 28h-18q-7 -44 -32 -93l-148 -280h247z" />
    <glyph glyph-name="AE" unicode="&#xc6;" horiz-adv-x="1066" 
d="M-47 0l410 763h488l19 -106h-355l41 -222h356l18 -105h-355l41 -224h356l19 -106h-479l-26 172h-319l-89 -172h-125zM468 276l-46 288q-6 44 -6 57q0 15 3 28h-18q-3 -23 -10.5 -43.5t-21.5 -49.5l-148 -280h247z" />
    <glyph glyph-name="Ccedilla" unicode="&#xc7;" horiz-adv-x="765" 
d="M485.5 131q57.5 38 85.5 108h128q-39 -116 -126.5 -181.5t-214.5 -69.5q-13 -11 -47 -33l6 -9q20 3 33 3q34 0 57.5 -16t23.5 -46q0 -49 -41.5 -76t-102.5 -27q-48 0 -90 13l7 44q47 -18 85 -18q34 0 54 14.5t20 41.5q0 28 -33.5 38.5t-96.5 9.5l63 64
q-127 14 -191.5 98.5t-64.5 209.5q0 126 54 235t153 175t228 66q85 0 147.5 -30t95 -84t32.5 -123h-124q-2 61 -45.5 96t-118.5 35q-91 0 -160.5 -51.5t-106.5 -135t-37 -178.5q0 -96 49.5 -153.5t145.5 -57.5q75 0 132.5 38z" />
    <glyph glyph-name="Egrave" unicode="&#xc8;" horiz-adv-x="634" 
d="M14 0l135 763h501l-19 -106h-383l-39 -222h340l-18 -105h-341l-39 -224h383l-19 -106h-501zM444 819h-91l-174 150h122z" />
    <glyph glyph-name="Eacute" unicode="&#xc9;" horiz-adv-x="634" 
d="M14 0l135 763h501l-19 -106h-383l-39 -222h340l-18 -105h-341l-39 -224h383l-19 -106h-501zM356 819l143 150h122l-174 -150h-91z" />
    <glyph glyph-name="Ecircumflex" unicode="&#xca;" horiz-adv-x="634" 
d="M14 0l135 763h501l-19 -106h-383l-39 -222h340l-18 -105h-341l-39 -224h383l-19 -106h-501zM434 996h14l133 -172h-108l-22 36q-21 35 -17 56h-14q-2 -12 -11.5 -25t-25.5 -31l-36 -36h-108z" />
    <glyph glyph-name="Edieresis" unicode="&#xcb;" horiz-adv-x="634" 
d="M14 0l135 763h501l-19 -106h-383l-39 -222h340l-18 -105h-341l-39 -224h383l-19 -106h-501zM261.5 823q-16.5 15 -16.5 40q0 33 25 55.5t58 22.5q25 0 41.5 -15.5t16.5 -39.5q0 -32 -25 -55t-57 -23q-26 0 -42.5 15zM467.5 823q-16.5 15 -16.5 40q0 33 25 55.5t58 22.5
q25 0 41.5 -15.5t16.5 -39.5q0 -32 -25 -55t-57 -23q-26 0 -42.5 15z" />
    <glyph glyph-name="Igrave" unicode="&#xcc;" horiz-adv-x="280" 
d="M14 0l135 763h118l-135 -763h-118zM252 819h-91l-174 150h122z" />
    <glyph glyph-name="Iacute" unicode="&#xcd;" horiz-adv-x="280" 
d="M14 0l135 763h118l-135 -763h-118zM164 819l143 150h122l-174 -150h-91z" />
    <glyph glyph-name="Icircumflex" unicode="&#xce;" horiz-adv-x="280" 
d="M14 0l135 763h118l-135 -763h-118zM242 996h14l133 -172h-108l-22 36q-21 35 -17 56h-14q-2 -12 -11.5 -25t-25.5 -31l-36 -36h-108z" />
    <glyph glyph-name="Idieresis" unicode="&#xcf;" horiz-adv-x="280" 
d="M14 0l135 763h118l-135 -763h-118zM69.5 823q-16.5 15 -16.5 40q0 33 25 55.5t58 22.5q25 0 41.5 -15.5t16.5 -39.5q0 -32 -25 -55t-57 -23q-26 0 -42.5 15zM275.5 823q-16.5 15 -16.5 40q0 33 25 55.5t58 22.5q25 0 41.5 -15.5t16.5 -39.5q0 -32 -25 -55t-57 -23
q-26 0 -42.5 15z" />
    <glyph glyph-name="Eth" unicode="&#xd0;" horiz-adv-x="740" 
d="M614 686q86 -77 86 -223q0 -139 -57 -244t-163 -162t-247 -57h-219l60 339h-68l15 86h68l60 338h212q167 0 253 -77zM423 149.5q79 43.5 119.5 122t40.5 184.5q0 201 -245 201h-90l-41 -232h226l-15 -86h-226l-41 -233h82q111 0 190 43.5z" />
    <glyph glyph-name="Ntilde" unicode="&#xd1;" horiz-adv-x="756" 
d="M149 763h147l185 -520q9 -24 14.5 -43t8.5 -48h20q2 53 10 98l91 513h118l-135 -763h-148l-185 522q-10 27 -15 44t-8 45h-19q-2 -41 -5.5 -67t-4.5 -32l-91 -512h-118zM471.5 828q-18.5 13 -36.5 37q-11 15 -19 22t-19 7q-33 0 -51 -75h-74q17 72 55 113.5t89 41.5
q29 0 47 -13t36 -36q12 -15 20 -22t19 -7q30 0 48 73h76q-19 -79 -52 -116.5t-87 -37.5q-33 0 -51.5 13z" />
    <glyph glyph-name="Ograve" unicode="&#xd2;" horiz-adv-x="821" 
d="M173.5 29q-67.5 41 -100.5 111.5t-33 158.5q0 126 54.5 235t155 175t231.5 66q99 0 166.5 -41.5t100.5 -112t33 -158.5q0 -125 -54.5 -234t-155 -175t-230.5 -66q-100 0 -167.5 41zM519 145q69 51 107 134.5t38 176.5q0 96 -51.5 154.5t-150.5 58.5q-90 0 -159.5 -51
t-107 -134.5t-37.5 -176.5q0 -97 51 -155t151 -58q90 0 159 51zM522 819h-91l-174 150h122z" />
    <glyph glyph-name="Oacute" unicode="&#xd3;" horiz-adv-x="821" 
d="M173.5 29q-67.5 41 -100.5 111.5t-33 158.5q0 126 54.5 235t155 175t231.5 66q99 0 166.5 -41.5t100.5 -112t33 -158.5q0 -125 -54.5 -234t-155 -175t-230.5 -66q-100 0 -167.5 41zM519 145q69 51 107 134.5t38 176.5q0 96 -51.5 154.5t-150.5 58.5q-90 0 -159.5 -51
t-107 -134.5t-37.5 -176.5q0 -97 51 -155t151 -58q90 0 159 51zM434 819l143 150h122l-174 -150h-91z" />
    <glyph glyph-name="Ocircumflex" unicode="&#xd4;" horiz-adv-x="821" 
d="M173.5 29q-67.5 41 -100.5 111.5t-33 158.5q0 126 54.5 235t155 175t231.5 66q99 0 166.5 -41.5t100.5 -112t33 -158.5q0 -125 -54.5 -234t-155 -175t-230.5 -66q-100 0 -167.5 41zM519 145q69 51 107 134.5t38 176.5q0 96 -51.5 154.5t-150.5 58.5q-90 0 -159.5 -51
t-107 -134.5t-37.5 -176.5q0 -97 51 -155t151 -58q90 0 159 51zM512 996h14l133 -172h-108l-22 36q-21 35 -17 56h-14q-2 -12 -11.5 -25t-25.5 -31l-36 -36h-108z" />
    <glyph glyph-name="Otilde" unicode="&#xd5;" horiz-adv-x="821" 
d="M173.5 29q-67.5 41 -100.5 111.5t-33 158.5q0 126 54.5 235t155 175t231.5 66q99 0 166.5 -41.5t100.5 -112t33 -158.5q0 -125 -54.5 -234t-155 -175t-230.5 -66q-100 0 -167.5 41zM519 145q69 51 107 134.5t38 176.5q0 96 -51.5 154.5t-150.5 58.5q-90 0 -159.5 -51
t-107 -134.5t-37.5 -176.5q0 -97 51 -155t151 -58q90 0 159 51zM503.5 828q-18.5 13 -36.5 37q-11 15 -19 22t-19 7q-33 0 -51 -75h-74q17 72 55 113.5t89 41.5q29 0 47 -13t36 -36q12 -15 20 -22t19 -7q30 0 48 73h76q-19 -79 -52 -116.5t-87 -37.5q-33 0 -51.5 13z" />
    <glyph glyph-name="Odieresis" unicode="&#xd6;" horiz-adv-x="821" 
d="M173.5 29q-67.5 41 -100.5 111.5t-33 158.5q0 126 54.5 235t155 175t231.5 66q99 0 166.5 -41.5t100.5 -112t33 -158.5q0 -125 -54.5 -234t-155 -175t-230.5 -66q-100 0 -167.5 41zM519 145q69 51 107 134.5t38 176.5q0 96 -51.5 154.5t-150.5 58.5q-90 0 -159.5 -51
t-107 -134.5t-37.5 -176.5q0 -97 51 -155t151 -58q90 0 159 51zM339.5 823q-16.5 15 -16.5 40q0 33 25 55.5t58 22.5q25 0 41.5 -15.5t16.5 -39.5q0 -32 -25 -55t-57 -23q-26 0 -42.5 15zM545.5 823q-16.5 15 -16.5 40q0 33 25 55.5t58 22.5q25 0 41.5 -15.5t16.5 -39.5
q0 -32 -25 -55t-57 -23q-26 0 -42.5 15z" />
    <glyph glyph-name="multiply" unicode="&#xd7;" horiz-adv-x="592" 
d="M139 110l-61 61l167 167l-167 166l61 61l167 -166l167 166l61 -61l-167 -166l167 -167l-61 -61l-167 167z" />
    <glyph glyph-name="Oslash" unicode="&#xd8;" horiz-adv-x="821" 
d="M747 624q34 -69 34 -161q0 -125 -54.5 -234t-155 -175t-230.5 -66q-77 0 -135 25t-96 70l-70 -59l-43 51l76 65q-33 69 -33 159q0 126 54.5 235t155 175t231.5 66q148 0 229 -94l70 60l43 -53zM170 222l449 382q-54 65 -157 65q-90 0 -159.5 -51t-107 -134.5
t-37.5 -176.5q0 -46 12 -85zM651 542l-450 -381q54 -67 159 -67q90 0 159 51t107 134.5t38 176.5q0 48 -13 86z" />
    <glyph glyph-name="Ugrave" unicode="&#xd9;" horiz-adv-x="732" 
d="M108 45q-64 57 -64 160q0 33 6 69l86 489h118l-87 -497q-5 -30 -5 -50q0 -123 144 -123q95 0 148.5 48.5t67.5 132.5l86 489h119l-87 -497q-24 -132 -107.5 -205t-230.5 -73q-130 0 -194 57zM475 819h-91l-174 150h122z" />
    <glyph glyph-name="Uacute" unicode="&#xda;" horiz-adv-x="732" 
d="M108 45q-64 57 -64 160q0 33 6 69l86 489h118l-87 -497q-5 -30 -5 -50q0 -123 144 -123q95 0 148.5 48.5t67.5 132.5l86 489h119l-87 -497q-24 -132 -107.5 -205t-230.5 -73q-130 0 -194 57zM388 819l143 150h122l-174 -150h-91z" />
    <glyph glyph-name="Ucircumflex" unicode="&#xdb;" horiz-adv-x="732" 
d="M108 45q-64 57 -64 160q0 33 6 69l86 489h118l-87 -497q-5 -30 -5 -50q0 -123 144 -123q95 0 148.5 48.5t67.5 132.5l86 489h119l-87 -497q-24 -132 -107.5 -205t-230.5 -73q-130 0 -194 57zM465 996h14l133 -172h-108l-22 36q-21 35 -17 56h-14q-2 -12 -11.5 -25
t-25.5 -31l-36 -36h-108z" />
    <glyph glyph-name="Udieresis" unicode="&#xdc;" horiz-adv-x="732" 
d="M108 45q-64 57 -64 160q0 33 6 69l86 489h118l-87 -497q-5 -30 -5 -50q0 -123 144 -123q95 0 148.5 48.5t67.5 132.5l86 489h119l-87 -497q-24 -132 -107.5 -205t-230.5 -73q-130 0 -194 57zM292.5 823q-16.5 15 -16.5 40q0 33 25 55.5t58 22.5q25 0 41.5 -15.5
t16.5 -39.5q0 -32 -25 -55t-57 -23q-26 0 -42.5 15zM498.5 823q-16.5 15 -16.5 40q0 33 25 55.5t58 22.5q25 0 41.5 -15.5t16.5 -39.5q0 -32 -25 -55t-57 -23q-26 0 -42.5 15z" />
    <glyph glyph-name="Yacute" unicode="&#xdd;" horiz-adv-x="701" 
d="M269 295l-201 468h129l117 -292q9 -25 13.5 -40t4.5 -31q0 -14 -2 -21h18q5 31 14 54t27 46l220 284h146l-363 -468l-53 -295h-123zM367 819l143 150h122l-174 -150h-91z" />
    <glyph glyph-name="Thorn" unicode="&#xde;" horiz-adv-x="641" 
d="M148 763h117l-19 -106h186q99 0 155 -46.5t56 -130.5q0 -17 -3 -37q-8 -67 -43.5 -119t-96 -81.5t-140.5 -29.5h-191l-38 -213h-117zM473 350q43 34 51 93q1 7 1 19q0 42 -30.5 65.5t-88.5 23.5h-178l-41 -235h170q73 0 116 34z" />
    <glyph glyph-name="germandbls" unicode="&#xdf;" horiz-adv-x="683" 
d="M223.5 700q84.5 74 218.5 74q72 0 122.5 -22t76 -60t25.5 -84q0 -38 -16.5 -78.5t-42.5 -67.5q-29 -29 -80 -43l-2 -12q28 -5 44.5 -12t28.5 -17q45 -38 45 -110q0 -86 -40.5 -146.5t-110.5 -91t-159 -30.5h-78l17 98h69q87 0 139 40.5t52 114.5q0 49 -33.5 73.5
t-95.5 24.5h-86l17 93h65q68 0 110.5 38t42.5 99q0 43 -34 69t-94 26q-77 0 -130 -46.5t-70 -139.5l-86 -490h-110l86 487q25 139 109.5 213z" />
    <glyph glyph-name="agrave" unicode="&#xe0;" horiz-adv-x="591" 
d="M66 23q-42 34 -42 94q0 48 21.5 88.5t61.5 66.5q50 32 138 49l188 35q3 11 3 31q0 36 -18 58q-27 33 -83 33q-45 0 -82.5 -25.5t-53.5 -68.5h-110q30 88 103.5 136t160.5 48q49 0 90 -14.5t65 -42.5q37 -40 37 -111q0 -37 -10 -91l-55 -309h-110l4 21q6 26 21 55l-13 7
q-30 -40 -67 -62q-51 -32 -135 -32q-72 0 -114 34zM301 98q46 21 67.5 49.5t45.5 85.5q5 13 10.5 19.5t15.5 7.5v16l-121 -24l-61 -11q-61 -12 -91 -36q-30 -25 -30 -64q0 -29 21.5 -45t59.5 -16q46 0 83 18zM398 613h-91l-174 150h122z" />
    <glyph glyph-name="aacute" unicode="&#xe1;" horiz-adv-x="591" 
d="M66 23q-42 34 -42 94q0 48 21.5 88.5t61.5 66.5q50 32 138 49l188 35q3 11 3 31q0 36 -18 58q-27 33 -83 33q-45 0 -82.5 -25.5t-53.5 -68.5h-110q30 88 103.5 136t160.5 48q49 0 90 -14.5t65 -42.5q37 -40 37 -111q0 -37 -10 -91l-55 -309h-110l4 21q6 26 21 55l-13 7
q-30 -40 -67 -62q-51 -32 -135 -32q-72 0 -114 34zM301 98q46 21 67.5 49.5t45.5 85.5q5 13 10.5 19.5t15.5 7.5v16l-121 -24l-61 -11q-61 -12 -91 -36q-30 -25 -30 -64q0 -29 21.5 -45t59.5 -16q46 0 83 18zM310 613l143 150h122l-174 -150h-91z" />
    <glyph glyph-name="acircumflex" unicode="&#xe2;" horiz-adv-x="591" 
d="M66 23q-42 34 -42 94q0 48 21.5 88.5t61.5 66.5q50 32 138 49l188 35q3 11 3 31q0 36 -18 58q-27 33 -83 33q-45 0 -82.5 -25.5t-53.5 -68.5h-110q30 88 103.5 136t160.5 48q49 0 90 -14.5t65 -42.5q37 -40 37 -111q0 -37 -10 -91l-55 -309h-110l4 21q6 26 21 55l-13 7
q-30 -40 -67 -62q-51 -32 -135 -32q-72 0 -114 34zM301 98q46 21 67.5 49.5t45.5 85.5q5 13 10.5 19.5t15.5 7.5v16l-121 -24l-61 -11q-61 -12 -91 -36q-30 -25 -30 -64q0 -29 21.5 -45t59.5 -16q46 0 83 18zM388 790h14l133 -172h-108l-22 36q-21 35 -17 56h-14
q-2 -12 -11.5 -25t-25.5 -31l-36 -36h-108z" />
    <glyph glyph-name="atilde" unicode="&#xe3;" horiz-adv-x="591" 
d="M66 23q-42 34 -42 94q0 48 21.5 88.5t61.5 66.5q50 32 138 49l188 35q3 11 3 31q0 36 -18 58q-27 33 -83 33q-45 0 -82.5 -25.5t-53.5 -68.5h-110q30 88 103.5 136t160.5 48q49 0 90 -14.5t65 -42.5q37 -40 37 -111q0 -37 -10 -91l-55 -309h-110l4 21q6 26 21 55l-13 7
q-30 -40 -67 -62q-51 -32 -135 -32q-72 0 -114 34zM301 98q46 21 67.5 49.5t45.5 85.5q5 13 10.5 19.5t15.5 7.5v16l-121 -24l-61 -11q-61 -12 -91 -36q-30 -25 -30 -64q0 -29 21.5 -45t59.5 -16q46 0 83 18zM379.5 622q-18.5 13 -36.5 37q-11 15 -19 22t-19 7
q-33 0 -51 -75h-74q17 72 55 113.5t89 41.5q29 0 47 -13t36 -36q12 -15 20 -22t19 -7q30 0 48 73h76q-19 -79 -52 -116.5t-87 -37.5q-33 0 -51.5 13z" />
    <glyph glyph-name="adieresis" unicode="&#xe4;" horiz-adv-x="591" 
d="M66 23q-42 34 -42 94q0 48 21.5 88.5t61.5 66.5q50 32 138 49l188 35q3 11 3 31q0 36 -18 58q-27 33 -83 33q-45 0 -82.5 -25.5t-53.5 -68.5h-110q30 88 103.5 136t160.5 48q49 0 90 -14.5t65 -42.5q37 -40 37 -111q0 -37 -10 -91l-55 -309h-110l4 21q6 26 21 55l-13 7
q-30 -40 -67 -62q-51 -32 -135 -32q-72 0 -114 34zM301 98q46 21 67.5 49.5t45.5 85.5q5 13 10.5 19.5t15.5 7.5v16l-121 -24l-61 -11q-61 -12 -91 -36q-30 -25 -30 -64q0 -29 21.5 -45t59.5 -16q46 0 83 18zM220 651q-18 16 -18 41q0 34 26.5 58.5t60.5 24.5q28 0 45.5 -16
t17.5 -42q0 -34 -26.5 -58t-60.5 -24q-27 0 -45 16zM426 651q-18 16 -18 41q0 34 26.5 58.5t60.5 24.5q31 0 48.5 -20t13.5 -50q-6 -30 -31 -50t-56 -20q-26 0 -44 16z" />
    <glyph glyph-name="aring" unicode="&#xe5;" horiz-adv-x="591" 
d="M66 23q-42 34 -42 94q0 48 21.5 88.5t61.5 66.5q50 32 138 49l188 35q3 11 3 31q0 36 -18 58q-27 33 -83 33q-45 0 -82.5 -25.5t-53.5 -68.5h-110q30 88 103.5 136t160.5 48q49 0 90 -14.5t65 -42.5q37 -40 37 -111q0 -37 -10 -91l-55 -309h-110l4 21q6 26 21 55l-13 7
q-30 -40 -67 -62q-51 -32 -135 -32q-72 0 -114 34zM301 98q46 21 67.5 49.5t45.5 85.5q5 13 10.5 19.5t15.5 7.5v16l-121 -24l-61 -11q-61 -12 -91 -36q-30 -25 -30 -64q0 -29 21.5 -45t59.5 -16q46 0 83 18zM283 606.5q-29 29.5 -29 72.5q0 38 20 71.5t54 53t72 19.5
q45 0 75 -29t30 -73q0 -6 -2 -20q-10 -52 -51.5 -88t-94.5 -36q-45 0 -74 29.5zM411.5 662q18.5 16 22.5 41q3 22 -9.5 37t-36.5 15q-26 0 -45 -18.5t-19 -44.5q0 -21 12.5 -33.5t32.5 -12.5q24 0 42.5 16z" />
    <glyph glyph-name="ae" unicode="&#xe6;" horiz-adv-x="1229" 
d="M66 23q-42 34 -42 94q0 48 21.5 88.5t61.5 66.5q50 32 138 49l188 35q3 11 3 31q0 36 -18 58q-27 33 -83 33q-45 0 -82.5 -25.5t-53.5 -68.5h-110q30 88 103.5 136t160.5 48q49 0 90 -14.5t65 -42.5q37 -40 37 -111q0 -37 -10 -91l-55 -309h-110l4 21q6 26 21 55l-13 7
q-30 -40 -67 -62q-51 -32 -135 -32q-72 0 -114 34zM301 98q46 21 67.5 49.5t45.5 85.5q5 13 10.5 19.5t15.5 7.5v16l-121 -24l-61 -11q-61 -12 -91 -36q-30 -25 -30 -64q0 -29 21.5 -45t59.5 -16q46 0 83 18zM738 18q-52 29 -80 80.5t-28 118.5q0 92 44 173t120 129.5
t167 48.5q64 0 116.5 -24.5t83.5 -74t31 -120.5q0 -28 -6 -63l-5 -30h-376q-50 0 -71 3l-5 -16q8 -2 10.5 -7t4.5 -17q2 -14 5 -23q11 -52 46 -81.5t86 -29.5q53 0 95.5 27.5t67.5 70.5h114q-42 -86 -118.5 -140t-178.5 -54q-71 0 -123 29zM789 341q13 4 28 4h211
q30 0 54 -17l12 13q-8 6 -10 10.5t-2 11.5q0 9 -1 17.5t-6 17.5q-14 38 -47.5 58.5t-79.5 20.5t-85.5 -20.5t-68.5 -58.5q-12 -14 -19 -34q-4 -9 -7.5 -13.5t-13.5 -9.5l7 -13q15 9 28 13z" />
    <glyph glyph-name="ccedilla" unicode="&#xe7;" horiz-adv-x="616" 
d="M374 108.5q42 26.5 63 71.5h123q-35 -90 -111 -140.5t-171 -50.5q-20 -17 -48 -34l6 -9q19 3 33 3q34 0 57.5 -16t23.5 -46q0 -49 -41.5 -76t-102.5 -27q-48 0 -90 13l7 44q47 -18 85 -18q34 0 54 14.5t20 41.5q0 28 -33.5 38.5t-96.5 9.5l67 68q-83 16 -130.5 77.5
t-47.5 152.5q0 94 42.5 172.5t116.5 124.5t166 46q96 0 156 -49t68 -131h-115q-7 42 -36.5 64.5t-75.5 22.5q-60 0 -108.5 -35t-76 -92.5t-27.5 -121.5q0 -66 35 -105t94 -39q52 0 94 26.5z" />
    <glyph glyph-name="egrave" unicode="&#xe8;" horiz-adv-x="638" 
d="M147 18q-52 29 -80 80.5t-28 118.5q0 92 44 173t120 129.5t167 48.5q64 0 116.5 -24.5t83.5 -74t31 -120.5q0 -28 -6 -63l-5 -30h-376q-50 0 -71 3l-5 -16q8 -2 10.5 -7t4.5 -17q2 -14 5 -23q11 -52 46 -81.5t86 -29.5q53 0 95.5 27.5t67.5 70.5h114q-42 -86 -118.5 -140
t-178.5 -54q-71 0 -123 29zM198 341q13 4 28 4h211q30 0 54 -17l12 13q-8 6 -10 10.5t-2 11.5q0 9 -1 17.5t-6 17.5q-14 38 -47.5 58.5t-79.5 20.5t-85.5 -20.5t-68.5 -58.5q-12 -14 -19 -34q-4 -9 -7.5 -13.5t-13.5 -9.5l7 -13q15 9 28 13zM412 613h-91l-174 150h122z" />
    <glyph glyph-name="eacute" unicode="&#xe9;" horiz-adv-x="638" 
d="M147 18q-52 29 -80 80.5t-28 118.5q0 92 44 173t120 129.5t167 48.5q64 0 116.5 -24.5t83.5 -74t31 -120.5q0 -28 -6 -63l-5 -30h-376q-50 0 -71 3l-5 -16q8 -2 10.5 -7t4.5 -17q2 -14 5 -23q11 -52 46 -81.5t86 -29.5q53 0 95.5 27.5t67.5 70.5h114q-42 -86 -118.5 -140
t-178.5 -54q-71 0 -123 29zM198 341q13 4 28 4h211q30 0 54 -17l12 13q-8 6 -10 10.5t-2 11.5q0 9 -1 17.5t-6 17.5q-14 38 -47.5 58.5t-79.5 20.5t-85.5 -20.5t-68.5 -58.5q-12 -14 -19 -34q-4 -9 -7.5 -13.5t-13.5 -9.5l7 -13q15 9 28 13zM324 613l143 150h122l-174 -150
h-91z" />
    <glyph glyph-name="ecircumflex" unicode="&#xea;" horiz-adv-x="638" 
d="M147 18q-52 29 -80 80.5t-28 118.5q0 92 44 173t120 129.5t167 48.5q64 0 116.5 -24.5t83.5 -74t31 -120.5q0 -28 -6 -63l-5 -30h-376q-50 0 -71 3l-5 -16q8 -2 10.5 -7t4.5 -17q2 -14 5 -23q11 -52 46 -81.5t86 -29.5q53 0 95.5 27.5t67.5 70.5h114q-42 -86 -118.5 -140
t-178.5 -54q-71 0 -123 29zM198 341q13 4 28 4h211q30 0 54 -17l12 13q-8 6 -10 10.5t-2 11.5q0 9 -1 17.5t-6 17.5q-14 38 -47.5 58.5t-79.5 20.5t-85.5 -20.5t-68.5 -58.5q-12 -14 -19 -34q-4 -9 -7.5 -13.5t-13.5 -9.5l7 -13q15 9 28 13zM402 790h14l133 -172h-108
l-22 36q-21 35 -17 56h-14q-2 -12 -11.5 -25t-25.5 -31l-36 -36h-108z" />
    <glyph glyph-name="edieresis" unicode="&#xeb;" horiz-adv-x="638" 
d="M147 18q-52 29 -80 80.5t-28 118.5q0 92 44 173t120 129.5t167 48.5q64 0 116.5 -24.5t83.5 -74t31 -120.5q0 -28 -6 -63l-5 -30h-376q-50 0 -71 3l-5 -16q8 -2 10.5 -7t4.5 -17q2 -14 5 -23q11 -52 46 -81.5t86 -29.5q53 0 95.5 27.5t67.5 70.5h114q-42 -86 -118.5 -140
t-178.5 -54q-71 0 -123 29zM198 341q13 4 28 4h211q30 0 54 -17l12 13q-8 6 -10 10.5t-2 11.5q0 9 -1 17.5t-6 17.5q-14 38 -47.5 58.5t-79.5 20.5t-85.5 -20.5t-68.5 -58.5q-12 -14 -19 -34q-4 -9 -7.5 -13.5t-13.5 -9.5l7 -13q15 9 28 13zM234 651q-18 16 -18 41
q0 34 26.5 58.5t60.5 24.5q28 0 45.5 -16t17.5 -42q0 -34 -26.5 -58t-60.5 -24q-27 0 -45 16zM440 651q-18 16 -18 41q0 34 26.5 58.5t60.5 24.5q31 0 48.5 -20t13.5 -50q-6 -30 -31 -50t-56 -20q-26 0 -44 16z" />
    <glyph glyph-name="igrave" unicode="&#xec;" horiz-adv-x="264" 
d="M28 0l98 557h110l-98 -557h-110zM226 613h-91l-174 150h122z" />
    <glyph glyph-name="iacute" unicode="&#xed;" horiz-adv-x="264" 
d="M28 0l98 557h110l-98 -557h-110zM138 613l143 150h122l-174 -150h-91z" />
    <glyph glyph-name="icircumflex" unicode="&#xee;" horiz-adv-x="264" 
d="M28 0l98 557h110l-98 -557h-110zM216 790h14l133 -172h-108l-22 36q-21 35 -17 56h-14q-2 -12 -11.5 -25t-25.5 -31l-36 -36h-108z" />
    <glyph glyph-name="idieresis" unicode="&#xef;" horiz-adv-x="264" 
d="M28 0l98 557h110l-98 -557h-110zM48 651q-18 16 -18 41q0 34 26.5 58.5t60.5 24.5q28 0 45.5 -16t17.5 -42q0 -34 -26.5 -58t-60.5 -24q-27 0 -45 16zM254 651q-18 16 -18 41q0 34 26.5 58.5t60.5 24.5q31 0 48.5 -20t13.5 -50q-6 -30 -31 -50t-56 -20q-26 0 -44 16z" />
    <glyph glyph-name="eth" unicode="&#xf0;" horiz-adv-x="612" 
d="M121.5 16q-49.5 27 -76.5 75.5t-27 111.5q0 82 36.5 149.5t101 106.5t146.5 39q54 0 99.5 -22.5t75.5 -64.5q11 53 11 97q0 71 -31 117l-150 -80l-23 55l122 63q-27 15 -62 15q-52 0 -98 -23l-44 90q67 29 145 29q99 0 162 -56l84 45l23 -55l-67 -37q41 -74 41 -182
q0 -134 -40.5 -248t-120.5 -183t-192 -69q-66 0 -115.5 27zM352 116q42 28 64 71t22 89q0 55 -32.5 92t-94.5 37q-57 0 -99 -27.5t-64 -71t-22 -89.5q0 -56 32.5 -92.5t95.5 -36.5q56 0 98 28z" />
    <glyph glyph-name="ntilde" unicode="&#xf1;" horiz-adv-x="598" 
d="M121 557h110l-5 -27q-4 -26 -21 -44l12 -9q43 49 84 70t90 21q123 0 153 -90q9 -27 9 -61q0 -33 -10 -89l-58 -328h-110l58 329q6 33 6 59q0 38 -15 59q-21 28 -73 28q-60 0 -100 -38q-26 -24 -43 -65t-29 -111l-46 -261h-110zM376.5 622q-18.5 13 -36.5 37
q-11 15 -19 22t-19 7q-33 0 -51 -75h-74q17 72 55 113.5t89 41.5q29 0 47 -13t36 -36q12 -15 20 -22t19 -7q30 0 48 73h76q-19 -79 -52 -116.5t-87 -37.5q-33 0 -51.5 13z" />
    <glyph glyph-name="ograve" unicode="&#xf2;" horiz-adv-x="644" 
d="M146 19q-52 30 -79 82.5t-27 120.5q0 89 42.5 169t119 128.5t171.5 48.5q73 0 125 -30t79 -82t27 -118q0 -89 -43 -169.5t-119 -130t-172 -49.5q-72 0 -124 30zM392 119q47 34 74 89.5t27 115.5q0 66 -37.5 107t-99.5 41q-57 0 -104 -33.5t-74 -88t-27 -114.5
q0 -68 37.5 -109.5t99.5 -41.5q57 0 104 34zM415 613h-91l-174 150h122z" />
    <glyph glyph-name="oacute" unicode="&#xf3;" horiz-adv-x="644" 
d="M146 19q-52 30 -79 82.5t-27 120.5q0 89 42.5 169t119 128.5t171.5 48.5q73 0 125 -30t79 -82t27 -118q0 -89 -43 -169.5t-119 -130t-172 -49.5q-72 0 -124 30zM392 119q47 34 74 89.5t27 115.5q0 66 -37.5 107t-99.5 41q-57 0 -104 -33.5t-74 -88t-27 -114.5
q0 -68 37.5 -109.5t99.5 -41.5q57 0 104 34zM328 613l143 150h122l-174 -150h-91z" />
    <glyph glyph-name="ocircumflex" unicode="&#xf4;" horiz-adv-x="644" 
d="M146 19q-52 30 -79 82.5t-27 120.5q0 89 42.5 169t119 128.5t171.5 48.5q73 0 125 -30t79 -82t27 -118q0 -89 -43 -169.5t-119 -130t-172 -49.5q-72 0 -124 30zM392 119q47 34 74 89.5t27 115.5q0 66 -37.5 107t-99.5 41q-57 0 -104 -33.5t-74 -88t-27 -114.5
q0 -68 37.5 -109.5t99.5 -41.5q57 0 104 34zM406 790h14l133 -172h-108l-22 36q-21 35 -17 56h-14q-2 -12 -11.5 -25t-25.5 -31l-36 -36h-108z" />
    <glyph glyph-name="otilde" unicode="&#xf5;" horiz-adv-x="644" 
d="M146 19q-52 30 -79 82.5t-27 120.5q0 89 42.5 169t119 128.5t171.5 48.5q73 0 125 -30t79 -82t27 -118q0 -89 -43 -169.5t-119 -130t-172 -49.5q-72 0 -124 30zM392 119q47 34 74 89.5t27 115.5q0 66 -37.5 107t-99.5 41q-57 0 -104 -33.5t-74 -88t-27 -114.5
q0 -68 37.5 -109.5t99.5 -41.5q57 0 104 34zM397.5 622q-18.5 13 -36.5 37q-11 15 -19 22t-19 7q-33 0 -51 -75h-74q17 72 55 113.5t89 41.5q29 0 47 -13t36 -36q12 -15 20 -22t19 -7q30 0 48 73h76q-19 -79 -52 -116.5t-87 -37.5q-33 0 -51.5 13z" />
    <glyph glyph-name="odieresis" unicode="&#xf6;" horiz-adv-x="644" 
d="M146 19q-52 30 -79 82.5t-27 120.5q0 89 42.5 169t119 128.5t171.5 48.5q73 0 125 -30t79 -82t27 -118q0 -89 -43 -169.5t-119 -130t-172 -49.5q-72 0 -124 30zM392 119q47 34 74 89.5t27 115.5q0 66 -37.5 107t-99.5 41q-57 0 -104 -33.5t-74 -88t-27 -114.5
q0 -68 37.5 -109.5t99.5 -41.5q57 0 104 34zM238 651q-18 16 -18 41q0 34 26.5 58.5t60.5 24.5q28 0 45.5 -16t17.5 -42q0 -34 -26.5 -58t-60.5 -24q-27 0 -45 16zM444 651q-18 16 -18 41q0 34 26.5 58.5t60.5 24.5q31 0 48.5 -20t13.5 -50q-6 -30 -31 -50t-56 -20
q-26 0 -44 16z" />
    <glyph glyph-name="divide" unicode="&#xf7;" horiz-adv-x="530" 
d="M195 457v135h125v-135h-125zM38 297v86h439v-86h-439zM195 76v137h125v-137h-125z" />
    <glyph glyph-name="oslash" unicode="&#xf8;" horiz-adv-x="644" 
d="M579 453q25 -53 25 -115q0 -89 -43 -169.5t-119 -130t-172 -49.5q-103 0 -166 61l-54 -46l-43 51l58 50q-25 53 -25 117q0 89 42.5 169t119 128.5t171.5 48.5q104 0 166 -60l54 46l43 -53zM158 183l294 251q-36 38 -96 38q-57 0 -104 -33.5t-74 -88t-27 -114.5
q0 -31 7 -53zM486 374l-295 -250q37 -39 97 -39q57 0 104 34t74 89.5t27 115.5q0 29 -7 50z" />
    <glyph glyph-name="ugrave" unicode="&#xf9;" horiz-adv-x="597" 
d="M103 13q-36 24 -50 67q-8 27 -8 60q0 39 9 89l58 328h110l-58 -329q-6 -33 -6 -58q0 -37 15 -60q21 -28 74 -28q59 0 99 38q26 24 43 65t29 111l47 261h110l-99 -557h-110l5 27q3 15 7.5 24.5t13.5 19.5l-12 10q-43 -49 -84 -70.5t-90 -21.5q-67 0 -103 24zM389 613h-91
l-174 150h122z" />
    <glyph glyph-name="uacute" unicode="&#xfa;" horiz-adv-x="597" 
d="M103 13q-36 24 -50 67q-8 27 -8 60q0 39 9 89l58 328h110l-58 -329q-6 -33 -6 -58q0 -37 15 -60q21 -28 74 -28q59 0 99 38q26 24 43 65t29 111l47 261h110l-99 -557h-110l5 27q3 15 7.5 24.5t13.5 19.5l-12 10q-43 -49 -84 -70.5t-90 -21.5q-67 0 -103 24zM301 613
l143 150h122l-174 -150h-91z" />
    <glyph glyph-name="ucircumflex" unicode="&#xfb;" horiz-adv-x="597" 
d="M103 13q-36 24 -50 67q-8 27 -8 60q0 39 9 89l58 328h110l-58 -329q-6 -33 -6 -58q0 -37 15 -60q21 -28 74 -28q59 0 99 38q26 24 43 65t29 111l47 261h110l-99 -557h-110l5 27q3 15 7.5 24.5t13.5 19.5l-12 10q-43 -49 -84 -70.5t-90 -21.5q-67 0 -103 24zM379 790h14
l133 -172h-108l-22 36q-21 35 -17 56h-14q-2 -12 -11.5 -25t-25.5 -31l-36 -36h-108z" />
    <glyph glyph-name="udieresis" unicode="&#xfc;" horiz-adv-x="597" 
d="M103 13q-36 24 -50 67q-8 27 -8 60q0 39 9 89l58 328h110l-58 -329q-6 -33 -6 -58q0 -37 15 -60q21 -28 74 -28q59 0 99 38q26 24 43 65t29 111l47 261h110l-99 -557h-110l5 27q3 15 7.5 24.5t13.5 19.5l-12 10q-43 -49 -84 -70.5t-90 -21.5q-67 0 -103 24zM211 651
q-18 16 -18 41q0 34 26.5 58.5t60.5 24.5q28 0 45.5 -16t17.5 -42q0 -34 -26.5 -58t-60.5 -24q-27 0 -45 16zM417 651q-18 16 -18 41q0 34 26.5 58.5t60.5 24.5q31 0 48.5 -20t13.5 -50q-6 -30 -31 -50t-56 -20q-26 0 -44 16z" />
    <glyph glyph-name="yacute" unicode="&#xfd;" horiz-adv-x="574" 
d="M-1 -133h56q33 0 50.5 9.5t36.5 43.5l45 83l-114 554h114l64 -357q4 -26 3 -62h13q12 36 25 62l181 357h125l-357 -668q-35 -67 -73 -92.5t-98 -25.5h-87zM292 613l143 150h122l-174 -150h-91z" />
    <glyph glyph-name="thorn" unicode="&#xfe;" horiz-adv-x="651" 
d="M161 763h110l-41 -233q-6 -28 -21 -44l12 -9q44 49 86.5 70t99.5 21q94 0 147.5 -59.5t53.5 -159.5q0 -34 -6 -70q-15 -85 -57.5 -151t-105 -102.5t-135.5 -36.5q-57 0 -91 21t-61 71l-16 -10q7 -13 7 -26q0 -4 -2 -18l-41 -233h-110zM424.5 139.5q52.5 54.5 67.5 139.5
q4 23 4 47q0 67 -33 106.5t-93 39.5q-46 0 -87 -24.5t-69 -68.5t-38 -100q-5 -28 -5 -48q0 -66 35.5 -106t95.5 -40q70 0 122.5 54.5z" />
    <glyph glyph-name="ydieresis" unicode="&#xff;" horiz-adv-x="574" 
d="M-1 -133h56q33 0 50.5 9.5t36.5 43.5l45 83l-114 554h114l64 -357q4 -26 3 -62h13q12 36 25 62l181 357h125l-357 -668q-35 -67 -73 -92.5t-98 -25.5h-87zM201 651q-18 16 -18 41q0 34 26.5 58.5t60.5 24.5q28 0 45.5 -16t17.5 -42q0 -34 -26.5 -58t-60.5 -24
q-27 0 -45 16zM407 651q-18 16 -18 41q0 34 26.5 58.5t60.5 24.5q31 0 48.5 -20t13.5 -50q-6 -30 -31 -50t-56 -20q-26 0 -44 16z" />
    <glyph glyph-name="Amacron" unicode="&#x100;" horiz-adv-x="709" 
d="M-47 0l410 763h131l140 -763h-117l-29 172h-321l-89 -172h-125zM470 276l-48 287q-1 9 -4 28t-3 32t3 25h-17q-8 -45 -33 -93l-147 -279h249zM297 854l9 53h298l-9 -53h-298z" />
    <glyph glyph-name="amacron" unicode="&#x101;" horiz-adv-x="591" 
d="M66 23q-42 34 -42 94q0 48 21.5 88.5t61.5 66.5q50 32 138 49l188 35q3 11 3 31q0 36 -18 58q-27 33 -83 33q-45 0 -82.5 -25.5t-53.5 -68.5h-110q30 88 103.5 136t160.5 48q49 0 90 -14.5t65 -42.5q37 -40 37 -111q0 -37 -10 -91l-55 -309h-110l4 21q6 26 21 55l-13 7
q-30 -40 -67 -62q-51 -32 -135 -32q-72 0 -114 34zM301 98q46 21 67.5 49.5t45.5 85.5q5 13 10.5 19.5t15.5 7.5v16l-121 -24l-61 -11q-61 -12 -91 -36q-30 -25 -30 -64q0 -29 21.5 -45t59.5 -16q46 0 83 18zM221 648l9 53h298l-9 -53h-298z" />
    <glyph glyph-name="Abreve" unicode="&#x102;" horiz-adv-x="709" 
d="M-47 0l410 763h131l140 -763h-117l-29 172h-321l-89 -172h-125zM470 276l-48 287q-1 9 -4 28t-3 32t3 25h-17q-8 -45 -33 -93l-147 -279h249zM331.5 846q-35.5 33 -35.5 93q0 9 2 27h71q-3 -41 19.5 -62t63.5 -21q40 0 69 21.5t41 61.5h73q-18 -72 -68.5 -112.5
t-127.5 -40.5q-72 0 -107.5 33z" />
    <glyph glyph-name="abreve" unicode="&#x103;" horiz-adv-x="591" 
d="M66 23q-42 34 -42 94q0 48 21.5 88.5t61.5 66.5q50 32 138 49l188 35q3 11 3 31q0 36 -18 58q-27 33 -83 33q-45 0 -82.5 -25.5t-53.5 -68.5h-110q30 88 103.5 136t160.5 48q49 0 90 -14.5t65 -42.5q37 -40 37 -111q0 -37 -10 -91l-55 -309h-110l4 21q6 26 21 55l-13 7
q-30 -40 -67 -62q-51 -32 -135 -32q-72 0 -114 34zM301 98q46 21 67.5 49.5t45.5 85.5q5 13 10.5 19.5t15.5 7.5v16l-121 -24l-61 -11q-61 -12 -91 -36q-30 -25 -30 -64q0 -29 21.5 -45t59.5 -16q46 0 83 18zM255.5 640q-35.5 33 -35.5 93q0 9 2 27h71q-3 -41 19.5 -62
t63.5 -21q40 0 69 21.5t41 61.5h73q-18 -72 -68.5 -112.5t-127.5 -40.5q-72 0 -107.5 33z" />
    <glyph glyph-name="Aogonek" unicode="&#x104;" horiz-adv-x="709" 
d="M-47 0l410 763h131l140 -763h-117l-29 172h-321l-89 -172h-125zM470 276l-48 287q-1 9 -4 28t-3 32t3 25h-17q-8 -45 -33 -93l-147 -279h249zM466 -197.5q-25 18.5 -25 52.5q0 46 31 75.5t94 52.5l3 17h65q-59 -38 -83 -61.5t-24 -51.5q0 -16 10 -25t30 -9t43 8l-12 -69
q-31 -8 -62 -8q-45 0 -70 18.5z" />
    <glyph glyph-name="aogonek" unicode="&#x105;" horiz-adv-x="591" 
d="M545 400q0 -37 -10 -91l-55 -309q-59 -38 -83 -61.5t-24 -51.5q0 -16 10 -25t30 -9t43 8l-12 -69q-31 -8 -62 -8q-45 0 -70 18.5t-25 52.5q0 46 31 75.5t94 52.5l3 17h-45l4 21q6 26 21 55l-13 7q-30 -40 -67 -62q-51 -32 -135 -32q-72 0 -114 34t-42 94q0 48 21.5 88.5
t61.5 66.5q50 32 138 49l188 35q3 11 3 31q0 36 -18 58q-27 33 -83 33q-45 0 -82.5 -25.5t-53.5 -68.5h-110q30 88 103.5 136t160.5 48q49 0 90 -14.5t65 -42.5q37 -40 37 -111zM424.5 252.5q5.5 6.5 15.5 7.5v16l-121 -24l-61 -11q-61 -12 -91 -36q-30 -25 -30 -64
q0 -29 21.5 -45t59.5 -16q46 0 83 18q46 21 67.5 49.5t45.5 85.5q5 13 10.5 19.5z" />
    <glyph glyph-name="Cacute" unicode="&#x106;" horiz-adv-x="765" 
d="M174 29q-68 41 -101 111.5t-33 158.5q0 126 54 235t153 175t228 66q85 0 147.5 -30t95 -84t32.5 -123h-124q-2 61 -45.5 96t-118.5 35q-91 0 -160.5 -51.5t-106.5 -135t-37 -178.5q0 -96 49.5 -153.5t145.5 -57.5q75 0 132.5 38t85.5 108h128q-40 -119 -131.5 -185
t-224.5 -66q-101 0 -169 41zM432 819l143 150h122l-174 -150h-91z" />
    <glyph glyph-name="cacute" unicode="&#x107;" horiz-adv-x="616" 
d="M152 18.5q-53 29.5 -82 83t-29 123.5q0 94 42.5 172.5t116.5 124.5t166 46q96 0 156 -49t68 -131h-115q-7 42 -36.5 64.5t-75.5 22.5q-60 0 -108.5 -35t-76 -92.5t-27.5 -121.5q0 -66 35 -105t94 -39q52 0 94 26.5t63 71.5h123q-35 -90 -111 -140.5t-172 -50.5
q-72 0 -125 29.5zM314 613l143 150h122l-174 -150h-91z" />
    <glyph glyph-name="Cdotaccent" unicode="&#x10a;" horiz-adv-x="765" 
d="M174 29q-68 41 -101 111.5t-33 158.5q0 126 54 235t153 175t228 66q85 0 147.5 -30t95 -84t32.5 -123h-124q-2 61 -45.5 96t-118.5 35q-91 0 -160.5 -51.5t-106.5 -135t-37 -178.5q0 -96 49.5 -153.5t145.5 -57.5q75 0 132.5 38t85.5 108h128q-40 -119 -131.5 -185
t-224.5 -66q-101 0 -169 41zM440.5 823q-16.5 15 -16.5 40q0 33 25 55.5t58 22.5q25 0 41.5 -15.5t16.5 -39.5q0 -32 -25 -55t-57 -23q-26 0 -42.5 15z" />
    <glyph glyph-name="cdotaccent" unicode="&#x10b;" horiz-adv-x="616" 
d="M152 18.5q-53 29.5 -82 83t-29 123.5q0 94 42.5 172.5t116.5 124.5t166 46q96 0 156 -49t68 -131h-115q-7 42 -36.5 64.5t-75.5 22.5q-60 0 -108.5 -35t-76 -92.5t-27.5 -121.5q0 -66 35 -105t94 -39q52 0 94 26.5t63 71.5h123q-35 -90 -111 -140.5t-172 -50.5
q-72 0 -125 29.5zM327 651q-18 16 -18 41q0 34 26.5 58.5t60.5 24.5q28 0 45.5 -16t17.5 -42q0 -34 -26.5 -58t-60.5 -24q-27 0 -45 16z" />
    <glyph glyph-name="Ccaron" unicode="&#x10c;" horiz-adv-x="765" 
d="M174 29q-68 41 -101 111.5t-33 158.5q0 126 54 235t153 175t228 66q85 0 147.5 -30t95 -84t32.5 -123h-124q-2 61 -45.5 96t-118.5 35q-91 0 -160.5 -51.5t-106.5 -135t-37 -178.5q0 -96 49.5 -153.5t145.5 -57.5q75 0 132.5 38t85.5 108h128q-40 -119 -131.5 -185
t-224.5 -66q-101 0 -169 41zM341 970h108l22 -37q22 -34 18 -55h14q4 22 37 55l35 37h108l-194 -172h-14z" />
    <glyph glyph-name="ccaron" unicode="&#x10d;" horiz-adv-x="616" 
d="M152 18.5q-53 29.5 -82 83t-29 123.5q0 94 42.5 172.5t116.5 124.5t166 46q96 0 156 -49t68 -131h-115q-7 42 -36.5 64.5t-75.5 22.5q-60 0 -108.5 -35t-76 -92.5t-27.5 -121.5q0 -66 35 -105t94 -39q52 0 94 26.5t63 71.5h123q-35 -90 -111 -140.5t-172 -50.5
q-72 0 -125 29.5zM223 764h108l22 -37q22 -34 18 -55h14q4 22 37 55l35 37h108l-194 -172h-14z" />
    <glyph glyph-name="Dcaron" unicode="&#x10e;" horiz-adv-x="740" 
d="M149 763h212q167 0 253 -77t86 -223q0 -139 -57 -244t-163 -162t-247 -57h-219zM423 149.5q79 43.5 119.5 122t40.5 184.5q0 201 -245 201h-90l-97 -551h82q111 0 190 43.5zM294 970h108l22 -37q22 -34 18 -55h14q4 22 37 55l35 37h108l-194 -172h-14z" />
    <glyph glyph-name="dcaron" unicode="&#x10f;" horiz-adv-x="651" 
d="M97 49q-54 60 -54 159q0 93 39 176t108 133.5t156 50.5q58 0 92 -21t61 -70l16 9q-8 14 -8 28q0 4 2 16l42 233h110l-135 -763h-110l5 27q4 18 7.5 26t13.5 18l-12 10q-44 -50 -86.5 -71t-99.5 -21q-93 0 -147 60zM383.5 119.5q45.5 34.5 71 90t25.5 115.5
q0 66 -35.5 106.5t-95.5 40.5q-56 0 -100.5 -34.5t-69 -90.5t-24.5 -117q0 -66 33 -105.5t93 -39.5q57 0 102.5 34.5zM761.5 571q32.5 33 34.5 86h-12q-4 -11 -14.5 -16.5t-24.5 -5.5q-21 0 -35 14.5t-14 37.5q0 37 26 62t64 25q37 0 56.5 -24.5t19.5 -66.5q0 -16 -3 -34
q-12 -67 -61.5 -117.5t-134.5 -57.5l10 58q56 6 88.5 39z" />
    <glyph glyph-name="Dcroat" unicode="&#x110;" horiz-adv-x="740" 
d="M614 686q86 -77 86 -223q0 -139 -57 -244t-163 -162t-247 -57h-219l60 339h-68l15 86h68l60 338h212q167 0 253 -77zM423 149.5q79 43.5 119.5 122t40.5 184.5q0 201 -245 201h-90l-41 -232h226l-15 -86h-226l-41 -233h82q111 0 190 43.5z" />
    <glyph glyph-name="Emacron" unicode="&#x112;" horiz-adv-x="634" 
d="M14 0l135 763h501l-19 -106h-383l-39 -222h340l-18 -105h-341l-39 -224h383l-19 -106h-501zM267 854l9 53h298l-9 -53h-298z" />
    <glyph glyph-name="emacron" unicode="&#x113;" horiz-adv-x="638" 
d="M147 18q-52 29 -80 80.5t-28 118.5q0 92 44 173t120 129.5t167 48.5q64 0 116.5 -24.5t83.5 -74t31 -120.5q0 -28 -6 -63l-5 -30h-376q-50 0 -71 3l-5 -16q8 -2 10.5 -7t4.5 -17q2 -14 5 -23q11 -52 46 -81.5t86 -29.5q53 0 95.5 27.5t67.5 70.5h114q-42 -86 -118.5 -140
t-178.5 -54q-71 0 -123 29zM198 341q13 4 28 4h211q30 0 54 -17l12 13q-8 6 -10 10.5t-2 11.5q0 9 -1 17.5t-6 17.5q-14 38 -47.5 58.5t-79.5 20.5t-85.5 -20.5t-68.5 -58.5q-12 -14 -19 -34q-4 -9 -7.5 -13.5t-13.5 -9.5l7 -13q15 9 28 13zM235 648l9 53h298l-9 -53h-298z
" />
    <glyph glyph-name="Edotaccent" unicode="&#x116;" horiz-adv-x="634" 
d="M14 0l135 763h501l-19 -106h-383l-39 -222h340l-18 -105h-341l-39 -224h383l-19 -106h-501zM364.5 823q-16.5 15 -16.5 40q0 33 25 55.5t58 22.5q25 0 41.5 -15.5t16.5 -39.5q0 -32 -25 -55t-57 -23q-26 0 -42.5 15z" />
    <glyph glyph-name="edotaccent" unicode="&#x117;" horiz-adv-x="638" 
d="M147 18q-52 29 -80 80.5t-28 118.5q0 92 44 173t120 129.5t167 48.5q64 0 116.5 -24.5t83.5 -74t31 -120.5q0 -28 -6 -63l-5 -30h-376q-50 0 -71 3l-5 -16q8 -2 10.5 -7t4.5 -17q2 -14 5 -23q11 -52 46 -81.5t86 -29.5q53 0 95.5 27.5t67.5 70.5h114q-42 -86 -118.5 -140
t-178.5 -54q-71 0 -123 29zM198 341q13 4 28 4h211q30 0 54 -17l12 13q-8 6 -10 10.5t-2 11.5q0 9 -1 17.5t-6 17.5q-14 38 -47.5 58.5t-79.5 20.5t-85.5 -20.5t-68.5 -58.5q-12 -14 -19 -34q-4 -9 -7.5 -13.5t-13.5 -9.5l7 -13q15 9 28 13zM337 651q-18 16 -18 41
q0 34 26.5 58.5t60.5 24.5q28 0 45.5 -16t17.5 -42q0 -34 -26.5 -58t-60.5 -24q-27 0 -45 16z" />
    <glyph glyph-name="Eogonek" unicode="&#x118;" horiz-adv-x="634" 
d="M14 0l135 763h501l-19 -106h-383l-39 -222h340l-18 -105h-341l-39 -224h383l-19 -106h-501zM347 -197.5q-25 18.5 -25 52.5q0 46 31 75.5t94 52.5l3 17h65q-59 -38 -83 -61.5t-24 -51.5q0 -16 10 -25t30 -9t43 8l-12 -69q-31 -8 -62 -8q-45 0 -70 18.5z" />
    <glyph glyph-name="eogonek" unicode="&#x119;" horiz-adv-x="638" 
d="M486.5 543.5q52.5 -24.5 83.5 -74t31 -120.5q0 -28 -6 -63l-5 -30h-376q-50 0 -71 3l-5 -16q8 -2 10.5 -7t4.5 -17q2 -14 5 -23q11 -52 46 -81.5t86 -29.5q53 0 95.5 27.5t67.5 70.5h114q-23 -48 -59 -88t-82 -66q-45 -30 -64.5 -51t-19.5 -47q0 -16 10 -25t30 -9t43 8
l-12 -69q-31 -8 -62 -8q-45 0 -70 18.5t-25 52.5q0 29 12.5 51.5t37.5 40.5q-22 -2 -36 -2q-71 0 -123 29t-80 80.5t-28 118.5q0 92 44 173t120 129.5t167 48.5q64 0 116.5 -24.5zM503 341q-8 6 -10 10.5t-2 11.5q0 9 -1 17.5t-6 17.5q-14 38 -47.5 58.5t-79.5 20.5
t-85.5 -20.5t-68.5 -58.5q-12 -14 -19 -34q-4 -9 -7.5 -13.5t-13.5 -9.5l7 -13q15 9 28 13t28 4h211q30 0 54 -17z" />
    <glyph glyph-name="Ecaron" unicode="&#x11a;" horiz-adv-x="634" 
d="M14 0l135 763h501l-19 -106h-383l-39 -222h340l-18 -105h-341l-39 -224h383l-19 -106h-501zM265 970h108l22 -37q22 -34 18 -55h14q4 22 37 55l35 37h108l-194 -172h-14z" />
    <glyph glyph-name="ecaron" unicode="&#x11b;" horiz-adv-x="638" 
d="M147 18q-52 29 -80 80.5t-28 118.5q0 92 44 173t120 129.5t167 48.5q64 0 116.5 -24.5t83.5 -74t31 -120.5q0 -28 -6 -63l-5 -30h-376q-50 0 -71 3l-5 -16q8 -2 10.5 -7t4.5 -17q2 -14 5 -23q11 -52 46 -81.5t86 -29.5q53 0 95.5 27.5t67.5 70.5h114q-42 -86 -118.5 -140
t-178.5 -54q-71 0 -123 29zM198 341q13 4 28 4h211q30 0 54 -17l12 13q-8 6 -10 10.5t-2 11.5q0 9 -1 17.5t-6 17.5q-14 38 -47.5 58.5t-79.5 20.5t-85.5 -20.5t-68.5 -58.5q-12 -14 -19 -34q-4 -9 -7.5 -13.5t-13.5 -9.5l7 -13q15 9 28 13zM233 764h108l22 -37
q22 -34 18 -55h14q4 22 37 55l35 37h108l-194 -172h-14z" />
    <glyph glyph-name="Gbreve" unicode="&#x11e;" horiz-adv-x="818" 
d="M175 30q-69 42 -102 113t-33 159q0 124 55 233t155 174.5t228 65.5q133 0 208.5 -64.5t85.5 -172.5h-126q-11 63 -56.5 97t-122.5 34q-91 0 -161.5 -50.5t-109 -132.5t-38.5 -175q0 -96 50.5 -157t149.5 -61q78 0 141 35.5t96 95.5q13 21 24 54q4 11 8.5 21t11.5 15l-7 8
q-15 -11 -26.5 -13t-45.5 -2h-109l18 100h292l-72 -407h-108l22 116h-18q-11 -61 -80 -94.5t-157 -33.5q-104 0 -173 42zM378.5 846q-35.5 33 -35.5 93q0 9 2 27h71q-3 -41 19.5 -62t63.5 -21q40 0 69 21.5t41 61.5h73q-18 -72 -68.5 -112.5t-127.5 -40.5q-72 0 -107.5 33z
" />
    <glyph glyph-name="gbreve" unicode="&#x11f;" horiz-adv-x="645" 
d="M68 -175q-63 41 -62 137h112q5 -45 36 -66.5t90 -21.5q75 0 117 34t53 96l6 29q2 16 6 24.5t14 19.5l-12 10q-44 -50 -86.5 -71t-99.5 -21q-94 0 -147.5 59.5t-53.5 157.5q0 92 39 174t108 132t155 50q58 0 92 -21t61 -70l16 9q-7 13 -7 27q0 10 2 17l5 27h110l-94 -529
q-23 -132 -101.5 -188t-198.5 -56q-97 0 -160 41zM380.5 125q45.5 34 71 88.5t25.5 112.5q0 65 -35.5 105.5t-95.5 40.5q-56 0 -100 -34t-68.5 -89t-24.5 -114q0 -65 33 -104.5t93 -39.5q56 0 101.5 34zM270.5 640q-35.5 33 -35.5 93q0 9 2 27h71q-3 -41 19.5 -62t63.5 -21
q40 0 69 21.5t41 61.5h73q-18 -72 -68.5 -112.5t-127.5 -40.5q-72 0 -107.5 33z" />
    <glyph glyph-name="Gdotaccent" unicode="&#x120;" horiz-adv-x="818" 
d="M175 30q-69 42 -102 113t-33 159q0 124 55 233t155 174.5t228 65.5q133 0 208.5 -64.5t85.5 -172.5h-126q-11 63 -56.5 97t-122.5 34q-91 0 -161.5 -50.5t-109 -132.5t-38.5 -175q0 -96 50.5 -157t149.5 -61q78 0 141 35.5t96 95.5q13 21 24 54q4 11 8.5 21t11.5 15l-7 8
q-15 -11 -26.5 -13t-45.5 -2h-109l18 100h292l-72 -407h-108l22 116h-18q-11 -61 -80 -94.5t-157 -33.5q-104 0 -173 42zM441.5 823q-16.5 15 -16.5 40q0 33 25 55.5t58 22.5q25 0 41.5 -15.5t16.5 -39.5q0 -32 -25 -55t-57 -23q-26 0 -42.5 15z" />
    <glyph glyph-name="gdotaccent" unicode="&#x121;" horiz-adv-x="645" 
d="M68 -175q-63 41 -62 137h112q5 -45 36 -66.5t90 -21.5q75 0 117 34t53 96l6 29q2 16 6 24.5t14 19.5l-12 10q-44 -50 -86.5 -71t-99.5 -21q-94 0 -147.5 59.5t-53.5 157.5q0 92 39 174t108 132t155 50q58 0 92 -21t61 -70l16 9q-7 13 -7 27q0 10 2 17l5 27h110l-94 -529
q-23 -132 -101.5 -188t-198.5 -56q-97 0 -160 41zM380.5 125q45.5 34 71 88.5t25.5 112.5q0 65 -35.5 105.5t-95.5 40.5q-56 0 -100 -34t-68.5 -89t-24.5 -114q0 -65 33 -104.5t93 -39.5q56 0 101.5 34zM338 651q-18 16 -18 41q0 34 26.5 58.5t60.5 24.5q28 0 45.5 -16
t17.5 -42q0 -34 -26.5 -58t-60.5 -24q-27 0 -45 16z" />
    <glyph glyph-name="uni0122" unicode="&#x122;" horiz-adv-x="818" 
d="M175 30q-69 42 -102 113t-33 159q0 124 55 233t155 174.5t228 65.5q133 0 208.5 -64.5t85.5 -172.5h-126q-11 63 -56.5 97t-122.5 34q-91 0 -161.5 -50.5t-109 -132.5t-38.5 -175q0 -96 50.5 -157t149.5 -61q78 0 141 35.5t96 95.5q13 21 24 54q4 11 8.5 21t11.5 15l-7 8
q-15 -11 -26.5 -13t-45.5 -2h-109l18 100h292l-72 -407h-108l22 116h-18q-11 -61 -80 -94.5t-157 -33.5q-104 0 -173 42zM316 -164.5q21 9.5 25 27.5q0 2 1.5 5.5t0.5 6.5h-9q-3 -8 -11.5 -12.5t-19.5 -4.5q-16 0 -25.5 9.5t-9.5 26.5q0 25 19 42.5t46 17.5q28 0 43.5 -15.5
t15.5 -40.5q0 -50 -35.5 -77t-100.5 -27l5 32q34 0 55 9.5z" />
    <glyph glyph-name="uni0123" unicode="&#x123;" horiz-adv-x="645" 
d="M68 -175q-63 41 -62 137h112q5 -45 36 -66.5t90 -21.5q75 0 117 34t53 96l6 29q2 16 6 24.5t14 19.5l-12 10q-44 -50 -86.5 -71t-99.5 -21q-94 0 -147.5 59.5t-53.5 157.5q0 92 39 174t108 132t155 50q58 0 92 -21t61 -70l16 9q-7 13 -7 27q0 10 2 17l5 27h110l-94 -529
q-23 -132 -101.5 -188t-198.5 -56q-97 0 -160 41zM380.5 125q45.5 34 71 88.5t25.5 112.5q0 65 -35.5 105.5t-95.5 40.5q-56 0 -100 -34t-68.5 -89t-24.5 -114q0 -65 33 -104.5t93 -39.5q56 0 101.5 34zM336 614.5q-16 17.5 -16 46.5q0 33 17.5 66t53.5 56.5t89 27.5l-8 -41
q-45 -4 -71 -28t-28 -62h10q7 16 31 16q17 0 28 -9.5t11 -26.5q0 -27 -20 -45t-51 -18q-30 0 -46 17.5z" />
    <glyph glyph-name="Imacron" unicode="&#x12a;" horiz-adv-x="280" 
d="M14 0l135 763h118l-135 -763h-118zM75 854l9 53h298l-9 -53h-298z" />
    <glyph glyph-name="imacron" unicode="&#x12b;" horiz-adv-x="264" 
d="M28 0l98 557h110l-98 -557h-110zM49 648l9 53h298l-9 -53h-298z" />
    <glyph glyph-name="Iogonek" unicode="&#x12e;" horiz-adv-x="280" 
d="M14 0l135 763h118l-135 -763h-118zM-36 -197.5q-25 18.5 -25 52.5q0 46 31 75.5t94 52.5l3 17h65q-59 -38 -83 -61.5t-24 -51.5q0 -16 10 -25t30 -9t43 8l-12 -69q-31 -8 -62 -8q-45 0 -70 18.5z" />
    <glyph glyph-name="iogonek" unicode="&#x12f;" horiz-adv-x="264" 
d="M28 0l98 557h110l-98 -557h-110zM151 651q-18 16 -18 41q0 34 26.5 58.5t60.5 24.5q28 0 45.5 -16t17.5 -42q0 -34 -26.5 -58t-60.5 -24q-27 0 -45 16zM-30 -197.5q-25 18.5 -25 52.5q0 46 31 75.5t94 52.5l3 17h65q-59 -38 -83 -61.5t-24 -51.5q0 -16 10 -25t30 -9t43 8
l-12 -69q-31 -8 -62 -8q-45 0 -70 18.5z" />
    <glyph glyph-name="Idotaccent" unicode="&#x130;" horiz-adv-x="280" 
d="M14 0l135 763h118l-135 -763h-118zM172.5 823q-16.5 15 -16.5 40q0 33 25 55.5t58 22.5q25 0 41.5 -15.5t16.5 -39.5q0 -32 -25 -55t-57 -23q-26 0 -42.5 15z" />
    <glyph glyph-name="dotlessi" unicode="&#x131;" horiz-adv-x="264" 
d="M28 0l98 557h110l-98 -557h-110z" />
    <glyph glyph-name="uni0136" unicode="&#x136;" horiz-adv-x="674" 
d="M149 763h118l-63 -352h17q3 19 14.5 35.5t27.5 33.5l295 283h154l-392 -371l261 -392h-145l-199 305q-17 27 -40 72l-21 -14q6 -10 8.5 -18t2.5 -19q0 -16 -4 -37l-51 -289h-118zM240 -164.5q21 9.5 25 27.5q0 2 1.5 5.5t0.5 6.5h-9q-3 -8 -11.5 -12.5t-19.5 -4.5
q-16 0 -25.5 9.5t-9.5 26.5q0 25 19 42.5t46 17.5q28 0 43.5 -15.5t15.5 -40.5q0 -50 -35.5 -77t-100.5 -27l5 32q34 0 55 9.5z" />
    <glyph glyph-name="uni0137" unicode="&#x137;" horiz-adv-x="589" 
d="M158 763h110l-59 -328q-4 -25 -9 -44t-16 -43l11 -6q28 26 60 52l200 163h155l-272 -220q-20 -17 -51 -28l-2 -14q24 -10 41 -33l191 -262h-136l-157 223l-40 59l-12 -5q1 -8 1 -21q0 -23 -3.5 -44.5t-4.5 -29.5l-32 -182h-110zM212 -164.5q21 9.5 25 27.5q0 2 1.5 5.5
t0.5 6.5h-9q-3 -8 -11.5 -12.5t-19.5 -4.5q-16 0 -25.5 9.5t-9.5 26.5q0 25 19 42.5t46 17.5q28 0 43.5 -15.5t15.5 -40.5q0 -50 -35.5 -77t-100.5 -27l5 32q34 0 55 9.5z" />
    <glyph glyph-name="kgreenlandic" unicode="&#x138;" horiz-adv-x="589" 
d="M121 557h110l-22 -122q-4 -25 -9 -44t-16 -43l11 -6q28 26 60 52l200 163h155l-271 -216q-21 -19 -51 -28l-2 -14q23 -11 41 -33l190 -266h-136l-157 223l-40 59l-12 -5q1 -8 1 -21q0 -23 -3.5 -44.5t-4.5 -29.5l-32 -182h-110z" />
    <glyph glyph-name="Lacute" unicode="&#x139;" horiz-adv-x="542" 
d="M14 0l135 763h118l-116 -657h332l-19 -106h-450zM164 819l143 150h122l-174 -150h-91z" />
    <glyph glyph-name="lacute" unicode="&#x13a;" horiz-adv-x="292" 
d="M66 21q-28 21 -28 69q0 21 4 41l112 632h110l-108 -605q-3 -15 -3 -26q0 -20 11 -29.5t37 -9.5h31l-16 -93h-67q-55 0 -83 21zM165 819l143 150h122l-174 -150h-91z" />
    <glyph glyph-name="uni013B" unicode="&#x13b;" horiz-adv-x="542" 
d="M14 0l135 763h118l-116 -657h332l-19 -106h-450zM213 -164.5q21 9.5 25 27.5q0 2 1.5 5.5t0.5 6.5h-9q-3 -8 -11.5 -12.5t-19.5 -4.5q-16 0 -25.5 9.5t-9.5 26.5q0 25 19 42.5t46 17.5q28 0 43.5 -15.5t15.5 -40.5q0 -50 -35.5 -77t-100.5 -27l5 32q34 0 55 9.5z" />
    <glyph glyph-name="uni013C" unicode="&#x13c;" horiz-adv-x="292" 
d="M66 21q-28 21 -28 69q0 21 4 41l112 632h110l-108 -605q-3 -15 -3 -26q0 -20 11 -29.5t37 -9.5h31l-16 -93h-67q-55 0 -83 21zM63 -164.5q21 9.5 25 27.5q0 2 1.5 5.5t0.5 6.5h-9q-3 -8 -11.5 -12.5t-19.5 -4.5q-16 0 -25.5 9.5t-9.5 26.5q0 25 19 42.5t46 17.5
q28 0 43.5 -15.5t15.5 -40.5q0 -50 -35.5 -77t-100.5 -27l5 32q34 0 55 9.5z" />
    <glyph glyph-name="Lcaron" unicode="&#x13d;" horiz-adv-x="542" 
d="M14 0l135 763h118l-116 -657h332l-19 -106h-450zM483.5 571q32.5 33 34.5 86h-12q-4 -11 -14.5 -16.5t-24.5 -5.5q-21 0 -35 14.5t-14 37.5q0 37 26 62t64 25q37 0 56.5 -24.5t19.5 -66.5q0 -16 -3 -34q-12 -67 -61.5 -117.5t-134.5 -57.5l10 58q56 6 88.5 39z" />
    <glyph glyph-name="lcaron" unicode="&#x13e;" horiz-adv-x="292" 
d="M66 21q-28 21 -28 69q0 21 4 41l112 632h110l-108 -605q-3 -15 -3 -26q0 -20 11 -29.5t37 -9.5h31l-16 -93h-67q-55 0 -83 21zM379.5 571q32.5 33 34.5 86h-12q-4 -11 -14.5 -16.5t-24.5 -5.5q-21 0 -35 14.5t-14 37.5q0 37 26 62t64 25q37 0 56.5 -24.5t19.5 -66.5
q0 -16 -3 -34q-12 -67 -61.5 -117.5t-134.5 -57.5l10 58q56 6 88.5 39z" />
    <glyph glyph-name="Lslash" unicode="&#x141;" horiz-adv-x="579" 
d="M63 0l58 322l-82 -37l16 96l82 39l61 343h118l-50 -283l198 94l-16 -96l-198 -94l-50 -278h333l-19 -106h-451z" />
    <glyph glyph-name="lslash" unicode="&#x142;" horiz-adv-x="292" 
d="M156 158q-3 -15 -3 -26q0 -20 11 -29.5t37 -9.5h31l-16 -93h-67q-55 0 -83 21t-28 69q0 21 4 41l48 273l-51 -24l14 76l51 24l50 283h110l-40 -226l78 37l-13 -75l-79 -38z" />
    <glyph glyph-name="Nacute" unicode="&#x143;" horiz-adv-x="756" 
d="M149 763h147l185 -520q9 -24 14.5 -43t8.5 -48h20q2 53 10 98l91 513h118l-135 -763h-148l-185 522q-10 27 -15 44t-8 45h-19q-2 -41 -5.5 -67t-4.5 -32l-91 -512h-118zM402 819l143 150h122l-174 -150h-91z" />
    <glyph glyph-name="nacute" unicode="&#x144;" horiz-adv-x="598" 
d="M121 557h110l-5 -27q-4 -26 -21 -44l12 -9q43 49 84 70t90 21q123 0 153 -90q9 -27 9 -61q0 -33 -10 -89l-58 -328h-110l58 329q6 33 6 59q0 38 -15 59q-21 28 -73 28q-60 0 -100 -38q-26 -24 -43 -65t-29 -111l-46 -261h-110zM307 613l143 150h122l-174 -150h-91z" />
    <glyph glyph-name="uni0145" unicode="&#x145;" horiz-adv-x="756" 
d="M149 763h147l185 -520q9 -24 14.5 -43t8.5 -48h20q2 53 10 98l91 513h118l-135 -763h-148l-185 522q-10 27 -15 44t-8 45h-19q-2 -41 -5.5 -67t-4.5 -32l-91 -512h-118zM284 -164.5q21 9.5 25 27.5q0 2 1.5 5.5t0.5 6.5h-9q-3 -8 -11.5 -12.5t-19.5 -4.5q-16 0 -25.5 9.5
t-9.5 26.5q0 25 19 42.5t46 17.5q28 0 43.5 -15.5t15.5 -40.5q0 -50 -35.5 -77t-100.5 -27l5 32q34 0 55 9.5z" />
    <glyph glyph-name="uni0146" unicode="&#x146;" horiz-adv-x="598" 
d="M121 557h110l-5 -27q-4 -26 -21 -44l12 -9q43 49 84 70t90 21q123 0 153 -90q9 -27 9 -61q0 -33 -10 -89l-58 -328h-110l58 329q6 33 6 59q0 38 -15 59q-21 28 -73 28q-60 0 -100 -38q-26 -24 -43 -65t-29 -111l-46 -261h-110zM226 -164.5q21 9.5 25 27.5q0 2 1.5 5.5
t0.5 6.5h-9q-3 -8 -11.5 -12.5t-19.5 -4.5q-16 0 -25.5 9.5t-9.5 26.5q0 25 19 42.5t46 17.5q28 0 43.5 -15.5t15.5 -40.5q0 -50 -35.5 -77t-100.5 -27l5 32q34 0 55 9.5z" />
    <glyph glyph-name="Ncaron" unicode="&#x147;" horiz-adv-x="756" 
d="M149 763h147l185 -520q9 -24 14.5 -43t8.5 -48h20q2 53 10 98l91 513h118l-135 -763h-148l-185 522q-10 27 -15 44t-8 45h-19q-2 -41 -5.5 -67t-4.5 -32l-91 -512h-118zM311 970h108l22 -37q22 -34 18 -55h14q4 22 37 55l35 37h108l-194 -172h-14z" />
    <glyph glyph-name="ncaron" unicode="&#x148;" horiz-adv-x="598" 
d="M121 557h110l-5 -27q-4 -26 -21 -44l12 -9q43 49 84 70t90 21q123 0 153 -90q9 -27 9 -61q0 -33 -10 -89l-58 -328h-110l58 329q6 33 6 59q0 38 -15 59q-21 28 -73 28q-60 0 -100 -38q-26 -24 -43 -65t-29 -111l-46 -261h-110zM216 764h108l22 -37q22 -34 18 -55h14
q4 22 37 55l35 37h108l-194 -172h-14z" />
    <glyph glyph-name="Omacron" unicode="&#x14c;" horiz-adv-x="821" 
d="M173.5 29q-67.5 41 -100.5 111.5t-33 158.5q0 126 54.5 235t155 175t231.5 66q99 0 166.5 -41.5t100.5 -112t33 -158.5q0 -125 -54.5 -234t-155 -175t-230.5 -66q-100 0 -167.5 41zM519 145q69 51 107 134.5t38 176.5q0 96 -51.5 154.5t-150.5 58.5q-90 0 -159.5 -51
t-107 -134.5t-37.5 -176.5q0 -97 51 -155t151 -58q90 0 159 51zM345 854l9 53h298l-9 -53h-298z" />
    <glyph glyph-name="omacron" unicode="&#x14d;" horiz-adv-x="644" 
d="M146 19q-52 30 -79 82.5t-27 120.5q0 89 42.5 169t119 128.5t171.5 48.5q73 0 125 -30t79 -82t27 -118q0 -89 -43 -169.5t-119 -130t-172 -49.5q-72 0 -124 30zM392 119q47 34 74 89.5t27 115.5q0 66 -37.5 107t-99.5 41q-57 0 -104 -33.5t-74 -88t-27 -114.5
q0 -68 37.5 -109.5t99.5 -41.5q57 0 104 34zM239 648l9 53h298l-9 -53h-298z" />
    <glyph glyph-name="Ohungarumlaut" unicode="&#x150;" horiz-adv-x="821" 
d="M173.5 29q-67.5 41 -100.5 111.5t-33 158.5q0 126 54.5 235t155 175t231.5 66q99 0 166.5 -41.5t100.5 -112t33 -158.5q0 -125 -54.5 -234t-155 -175t-230.5 -66q-100 0 -167.5 41zM519 145q69 51 107 134.5t38 176.5q0 96 -51.5 154.5t-150.5 58.5q-90 0 -159.5 -51
t-107 -134.5t-37.5 -176.5q0 -97 51 -155t151 -58q90 0 159 51zM346 819l143 150h116l-168 -150h-91zM537 819l144 150h123l-176 -150h-91z" />
    <glyph glyph-name="ohungarumlaut" unicode="&#x151;" horiz-adv-x="644" 
d="M146 19q-52 30 -79 82.5t-27 120.5q0 89 42.5 169t119 128.5t171.5 48.5q73 0 125 -30t79 -82t27 -118q0 -89 -43 -169.5t-119 -130t-172 -49.5q-72 0 -124 30zM392 119q47 34 74 89.5t27 115.5q0 66 -37.5 107t-99.5 41q-57 0 -104 -33.5t-74 -88t-27 -114.5
q0 -68 37.5 -109.5t99.5 -41.5q57 0 104 34zM240 613l143 150h116l-168 -150h-91zM431 613l144 150h123l-176 -150h-91z" />
    <glyph glyph-name="OE" unicode="&#x152;" horiz-adv-x="1204" 
d="M172.5 28.5q-67.5 40.5 -100 110t-32.5 159.5q0 130 54 239t151.5 173.5t220.5 64.5q80 0 138.5 -30t90.5 -84l18 12q-1 9 -1 30q0 25 2 34l4 26h501l-18 -106h-383l-40 -222h341l-18 -105h-341l-40 -224h384l-19 -106h-501l6 35q4 31 21 64l-8 -1q-109 -110 -262 -110
q-101 0 -168.5 40.5zM512.5 145.5q70.5 51.5 108.5 137t38 182.5q0 95 -49.5 149.5t-143.5 54.5q-90 0 -160 -51.5t-108.5 -137t-38.5 -181.5q0 -95 49.5 -150t142.5 -55q91 0 161.5 51.5z" />
    <glyph glyph-name="oe" unicode="&#x153;" horiz-adv-x="1282" 
d="M146 19q-52 30 -79 82.5t-27 120.5q0 89 42.5 169t119 128.5t171.5 48.5q73 0 125 -30t79 -82t27 -118q0 -89 -43 -169.5t-119 -130t-172 -49.5q-72 0 -124 30zM392 119q47 34 74 89.5t27 115.5q0 66 -37.5 107t-99.5 41q-57 0 -104 -33.5t-74 -88t-27 -114.5
q0 -68 37.5 -109.5t99.5 -41.5q57 0 104 34zM791 18q-52 29 -80 80.5t-28 118.5q0 92 44 173t120 129.5t167 48.5q64 0 116.5 -24.5t83.5 -74t31 -120.5q0 -28 -6 -63l-5 -30h-376q-50 0 -71 3l-5 -16q8 -2 10.5 -7t4.5 -17q2 -14 5 -23q11 -52 46 -81.5t86 -29.5
q53 0 95.5 27.5t67.5 70.5h114q-42 -86 -118.5 -140t-178.5 -54q-71 0 -123 29zM842 341q13 4 28 4h211q30 0 54 -17l12 13q-8 6 -10 10.5t-2 11.5q0 9 -1 17.5t-6 17.5q-14 38 -47.5 58.5t-79.5 20.5t-85.5 -20.5t-68.5 -58.5q-12 -14 -19 -34q-4 -9 -7.5 -13.5t-13.5 -9.5
l7 -13q15 9 28 13z" />
    <glyph glyph-name="Racute" unicode="&#x154;" horiz-adv-x="688" 
d="M148 763h304q70 0 118 -26.5t71 -70.5t23 -97q0 -57 -22 -107.5t-58.5 -81t-78.5 -30.5q-10 0 -24 3l-8 -17q13 -10 19 -23.5t11 -36.5l72 -276h-123l-73 315h-191l-56 -315h-118zM507 457.5q39 40.5 39 97.5q0 44 -31.5 73t-90.5 29h-176l-42 -240h168q94 0 133 40.5z
M358 819l143 150h122l-174 -150h-91z" />
    <glyph glyph-name="racute" unicode="&#x155;" horiz-adv-x="388" 
d="M121 557h110l-5 -27q-4 -26 -21 -44l12 -9q41 49 84.5 70t101.5 21h11l-19 -108h-30q-66 0 -111 -37q-55 -46 -72 -148l-49 -275h-110zM185 613l143 150h122l-174 -150h-91z" />
    <glyph glyph-name="uni0156" unicode="&#x156;" horiz-adv-x="688" 
d="M148 763h304q70 0 118 -26.5t71 -70.5t23 -97q0 -57 -22 -107.5t-58.5 -81t-78.5 -30.5q-10 0 -24 3l-8 -17q13 -10 19 -23.5t11 -36.5l72 -276h-123l-73 315h-191l-56 -315h-118zM507 457.5q39 40.5 39 97.5q0 44 -31.5 73t-90.5 29h-176l-42 -240h168q94 0 133 40.5z
M265 -164.5q21 9.5 25 27.5q0 2 1.5 5.5t0.5 6.5h-9q-3 -8 -11.5 -12.5t-19.5 -4.5q-16 0 -25.5 9.5t-9.5 26.5q0 25 19 42.5t46 17.5q28 0 43.5 -15.5t15.5 -40.5q0 -50 -35.5 -77t-100.5 -27l5 32q34 0 55 9.5z" />
    <glyph glyph-name="uni0157" unicode="&#x157;" horiz-adv-x="388" 
d="M121 557h110l-5 -27q-4 -26 -21 -44l12 -9q41 49 84.5 70t101.5 21h11l-19 -108h-30q-66 0 -111 -37q-55 -46 -72 -148l-49 -275h-110zM52 -164.5q21 9.5 25 27.5q0 2 1.5 5.5t0.5 6.5h-9q-3 -8 -11.5 -12.5t-19.5 -4.5q-16 0 -25.5 9.5t-9.5 26.5q0 25 19 42.5t46 17.5
q28 0 43.5 -15.5t15.5 -40.5q0 -50 -35.5 -77t-100.5 -27l5 32q34 0 55 9.5z" />
    <glyph glyph-name="Rcaron" unicode="&#x158;" horiz-adv-x="688" 
d="M148 763h304q70 0 118 -26.5t71 -70.5t23 -97q0 -57 -22 -107.5t-58.5 -81t-78.5 -30.5q-10 0 -24 3l-8 -17q13 -10 19 -23.5t11 -36.5l72 -276h-123l-73 315h-191l-56 -315h-118zM507 457.5q39 40.5 39 97.5q0 44 -31.5 73t-90.5 29h-176l-42 -240h168q94 0 133 40.5z
M267 970h108l22 -37q22 -34 18 -55h14q4 22 37 55l35 37h108l-194 -172h-14z" />
    <glyph glyph-name="rcaron" unicode="&#x159;" horiz-adv-x="388" 
d="M121 557h110l-5 -27q-4 -26 -21 -44l12 -9q41 49 84.5 70t101.5 21h11l-19 -108h-30q-66 0 -111 -37q-55 -46 -72 -148l-49 -275h-110zM94 764h108l22 -37q22 -34 18 -55h14q4 22 37 55l35 37h108l-194 -172h-14z" />
    <glyph glyph-name="Sacute" unicode="&#x15a;" horiz-adv-x="691" 
d="M99 51.5q-83 63.5 -81 187.5h119q2 -82 54.5 -115.5t134.5 -33.5q77 0 124.5 35t47.5 102q0 37 -23 60t-58.5 36t-94.5 27q-65 16 -111.5 35t-79 57t-32.5 98q0 71 37 124.5t101 82t142 28.5t139.5 -25.5t96.5 -77.5t34 -128h-114q-1 68 -44.5 98t-116.5 30
q-69 0 -112.5 -30.5t-43.5 -84.5q0 -48 44 -72.5t130 -43.5q66 -15 114 -35.5t79.5 -60.5t31.5 -104q0 -78 -38.5 -135.5t-106 -87.5t-154.5 -30q-136 0 -219 63.5zM370 819l143 150h122l-174 -150h-91z" />
    <glyph glyph-name="sacute" unicode="&#x15b;" horiz-adv-x="571" 
d="M84.5 38.5q-62.5 49.5 -59.5 144.5h112q3 -51 36.5 -77t95.5 -26q56 0 90.5 24t34.5 63q0 21 -15 34.5t-44.5 23t-87.5 22.5q-84 18 -123 48t-39 85t30.5 98t84.5 66.5t122 23.5q95 0 149.5 -48.5t55.5 -134.5h-103q-4 46 -34 69.5t-81 23.5q-53 0 -84 -21t-31 -57
q0 -27 30.5 -41.5t111.5 -30.5q87 -17 128.5 -48t41.5 -91q0 -61 -32.5 -106t-89.5 -69.5t-128 -24.5q-109 0 -171.5 49.5zM292 613l143 150h122l-174 -150h-91z" />
    <glyph glyph-name="Scedilla" unicode="&#x15e;" horiz-adv-x="691" 
d="M261.5 641.5q-43.5 -30.5 -43.5 -84.5q0 -48 44 -72.5t130 -43.5q66 -15 114 -35.5t79.5 -60.5t31.5 -104q0 -78 -38.5 -135.5t-106 -87.5t-154.5 -30h-21q-24 -18 -47 -33l6 -9q20 3 33 3q34 0 57.5 -16t23.5 -46q0 -49 -41.5 -76t-102.5 -27q-48 0 -90 13l7 44
q47 -18 85 -18q34 0 54 14.5t20 41.5q0 28 -33.5 38.5t-96.5 9.5l66 67q-103 17 -162.5 79t-57.5 166h119q2 -82 54.5 -115.5t134.5 -33.5q77 0 124.5 35t47.5 102q0 37 -23 60t-58.5 36t-94.5 27q-65 16 -111.5 35t-79 57t-32.5 98q0 71 37 124.5t101 82t142 28.5
t139.5 -25.5t96.5 -77.5t34 -128h-114q-1 68 -44.5 98t-116.5 30q-69 0 -112.5 -30.5z" />
    <glyph glyph-name="scedilla" unicode="&#x15f;" horiz-adv-x="571" 
d="M464.5 280q41.5 -31 41.5 -91q0 -61 -32.5 -106t-89.5 -69.5t-128 -24.5h-1q-20 -17 -48 -34l6 -9q20 3 33 3q34 0 57.5 -16t23.5 -46q0 -49 -41.5 -76t-102.5 -27q-48 0 -90 13l7 44q47 -18 85 -18q34 0 54 14.5t20 41.5q0 28 -33.5 38.5t-96.5 9.5l66 67
q-82 12 -127 60.5t-43 128.5h112q3 -51 36.5 -77t95.5 -26q56 0 90.5 24t34.5 63q0 21 -15 34.5t-44.5 23t-87.5 22.5q-84 18 -123 48t-39 85t30.5 98t84.5 66.5t122 23.5q95 0 149.5 -48.5t55.5 -134.5h-103q-4 46 -34 69.5t-81 23.5q-53 0 -84 -21t-31 -57
q0 -27 30.5 -41.5t111.5 -30.5q87 -17 128.5 -48z" />
    <glyph glyph-name="Scaron" unicode="&#x160;" horiz-adv-x="691" 
d="M99 51.5q-83 63.5 -81 187.5h119q2 -82 54.5 -115.5t134.5 -33.5q77 0 124.5 35t47.5 102q0 37 -23 60t-58.5 36t-94.5 27q-65 16 -111.5 35t-79 57t-32.5 98q0 71 37 124.5t101 82t142 28.5t139.5 -25.5t96.5 -77.5t34 -128h-114q-1 68 -44.5 98t-116.5 30
q-69 0 -112.5 -30.5t-43.5 -84.5q0 -48 44 -72.5t130 -43.5q66 -15 114 -35.5t79.5 -60.5t31.5 -104q0 -78 -38.5 -135.5t-106 -87.5t-154.5 -30q-136 0 -219 63.5zM278 970h108l22 -37q22 -34 18 -55h14q4 22 37 55l35 37h108l-194 -172h-14z" />
    <glyph glyph-name="scaron" unicode="&#x161;" horiz-adv-x="571" 
d="M84.5 38.5q-62.5 49.5 -59.5 144.5h112q3 -51 36.5 -77t95.5 -26q56 0 90.5 24t34.5 63q0 21 -15 34.5t-44.5 23t-87.5 22.5q-84 18 -123 48t-39 85t30.5 98t84.5 66.5t122 23.5q95 0 149.5 -48.5t55.5 -134.5h-103q-4 46 -34 69.5t-81 23.5q-53 0 -84 -21t-31 -57
q0 -27 30.5 -41.5t111.5 -30.5q87 -17 128.5 -48t41.5 -91q0 -61 -32.5 -106t-89.5 -69.5t-128 -24.5q-109 0 -171.5 49.5zM201 764h108l22 -37q22 -34 18 -55h14q4 22 37 55l35 37h108l-194 -172h-14z" />
    <glyph glyph-name="uni0162" unicode="&#x162;" horiz-adv-x="637" 
d="M686 763l-19 -106h-246l-115 -657h-27q-26 -22 -61 -45l6 -9q20 3 33 3q34 0 57.5 -16t23.5 -46q0 -49 -41.5 -76t-102.5 -27q-48 0 -90 13l7 44q47 -18 85 -18q34 0 54 14.5t20 41.5q0 28 -33.5 38.5t-96.5 9.5l72 73h-24l115 657h-245l19 106h609z" />
    <glyph glyph-name="uni0163" unicode="&#x163;" horiz-adv-x="377" 
d="M199 160q-3 -16 -3 -30q0 -18 10 -27.5t37 -9.5h59l-16 -93h-93q-26 -22 -61 -45l6 -9q19 3 33 3q34 0 57.5 -16t23.5 -46q0 -49 -41.5 -76t-102.5 -27q-48 0 -90 13l7 44q47 -18 85 -18q34 0 54 14.5t20 41.5q0 28 -33.5 38.5t-96.5 9.5l80 81q-54 17 -54 83q0 20 4 40
l59 334h-85l16 92h85l37 206h110l-37 -206h116l-16 -92h-116z" />
    <glyph glyph-name="Tcaron" unicode="&#x164;" horiz-adv-x="637" 
d="M188 0l115 657h-245l19 106h609l-19 -106h-246l-115 -657h-118zM247 970h108l22 -37q22 -34 18 -55h14q4 22 37 55l35 37h108l-194 -172h-14z" />
    <glyph glyph-name="tcaron" unicode="&#x165;" horiz-adv-x="377" 
d="M108.5 21q-28.5 21 -28.5 69q0 21 4 41l59 334h-85l16 92h85l37 206h110l-37 -206h116l-16 -92h-116l-54 -305q-3 -16 -3 -30q0 -18 10 -27.5t37 -9.5h59l-16 -93h-94q-55 0 -83.5 21zM441.5 724q32.5 33 34.5 86h-12q-4 -11 -14.5 -16.5t-24.5 -5.5q-21 0 -35 14.5
t-14 37.5q0 37 26 62t64 25q37 0 56.5 -24.5t19.5 -66.5q0 -16 -3 -34q-12 -67 -61.5 -117.5t-134.5 -57.5l10 58q56 6 88.5 39z" />
    <glyph glyph-name="Umacron" unicode="&#x16a;" horiz-adv-x="732" 
d="M108 45q-64 57 -64 160q0 33 6 69l86 489h118l-87 -497q-5 -30 -5 -50q0 -123 144 -123q95 0 148.5 48.5t67.5 132.5l86 489h119l-87 -497q-24 -132 -107.5 -205t-230.5 -73q-130 0 -194 57zM299 854l9 53h298l-9 -53h-298z" />
    <glyph glyph-name="umacron" unicode="&#x16b;" horiz-adv-x="597" 
d="M103 13q-36 24 -50 67q-8 27 -8 60q0 39 9 89l58 328h110l-58 -329q-6 -33 -6 -58q0 -37 15 -60q21 -28 74 -28q59 0 99 38q26 24 43 65t29 111l47 261h110l-99 -557h-110l5 27q3 15 7.5 24.5t13.5 19.5l-12 10q-43 -49 -84 -70.5t-90 -21.5q-67 0 -103 24zM212 648l9 53
h298l-9 -53h-298z" />
    <glyph glyph-name="Uring" unicode="&#x16e;" horiz-adv-x="732" 
d="M108 45q-64 57 -64 160q0 33 6 69l86 489h118l-87 -497q-5 -30 -5 -50q0 -123 144 -123q95 0 148.5 48.5t67.5 132.5l86 489h119l-87 -497q-24 -132 -107.5 -205t-230.5 -73q-130 0 -194 57zM360 812.5q-29 29.5 -29 72.5q0 38 20 71.5t54 53t72 19.5q45 0 75 -29t30 -73
q0 -6 -2 -20q-10 -52 -51.5 -88t-94.5 -36q-45 0 -74 29.5zM488.5 868q18.5 16 22.5 41q3 22 -9.5 37t-36.5 15q-26 0 -45 -18.5t-19 -44.5q0 -21 12.5 -33.5t32.5 -12.5q24 0 42.5 16z" />
    <glyph glyph-name="uring" unicode="&#x16f;" horiz-adv-x="597" 
d="M103 13q-36 24 -50 67q-8 27 -8 60q0 39 9 89l58 328h110l-58 -329q-6 -33 -6 -58q0 -37 15 -60q21 -28 74 -28q59 0 99 38q26 24 43 65t29 111l47 261h110l-99 -557h-110l5 27q3 15 7.5 24.5t13.5 19.5l-12 10q-43 -49 -84 -70.5t-90 -21.5q-67 0 -103 24zM274 606.5
q-29 29.5 -29 72.5q0 38 20 71.5t54 53t72 19.5q45 0 75 -29t30 -73q0 -6 -2 -20q-10 -52 -51.5 -88t-94.5 -36q-45 0 -74 29.5zM402.5 662q18.5 16 22.5 41q3 22 -9.5 37t-36.5 15q-26 0 -45 -18.5t-19 -44.5q0 -21 12.5 -33.5t32.5 -12.5q24 0 42.5 16z" />
    <glyph glyph-name="Uhungarumlaut" unicode="&#x170;" horiz-adv-x="732" 
d="M108 45q-64 57 -64 160q0 33 6 69l86 489h118l-87 -497q-5 -30 -5 -50q0 -123 144 -123q95 0 148.5 48.5t67.5 132.5l86 489h119l-87 -497q-24 -132 -107.5 -205t-230.5 -73q-130 0 -194 57zM300 819l143 150h116l-168 -150h-91zM491 819l144 150h123l-176 -150h-91z" />
    <glyph glyph-name="uhungarumlaut" unicode="&#x171;" horiz-adv-x="597" 
d="M103 13q-36 24 -50 67q-8 27 -8 60q0 39 9 89l58 328h110l-58 -329q-6 -33 -6 -58q0 -37 15 -60q21 -28 74 -28q59 0 99 38q26 24 43 65t29 111l47 261h110l-99 -557h-110l5 27q3 15 7.5 24.5t13.5 19.5l-12 10q-43 -49 -84 -70.5t-90 -21.5q-67 0 -103 24zM213 613
l143 150h116l-168 -150h-91zM404 613l144 150h123l-176 -150h-91z" />
    <glyph glyph-name="Uogonek" unicode="&#x172;" horiz-adv-x="732" 
d="M727 763l-87 -497q-21 -113 -85 -183.5t-174 -88.5q-53 -34 -75.5 -57t-22.5 -50q0 -16 10 -25t30 -9t43 8l-12 -69q-31 -8 -62 -8q-45 0 -70 18.5t-25 52.5q0 46 31 75.5t94 52.5l1 5h-21q-130 0 -194 57t-64 160q0 33 6 69l86 489h118l-87 -497q-5 -30 -5 -50
q0 -123 144 -123q95 0 148.5 48.5t67.5 132.5l86 489h119z" />
    <glyph glyph-name="uogonek" unicode="&#x173;" horiz-adv-x="597" 
d="M393 -61.5q-24 -23.5 -24 -51.5q0 -16 10 -25t30 -9t43 8l-12 -69q-31 -8 -62 -8q-45 0 -70 18.5t-25 52.5q0 46 31 75.5t94 52.5l3 17h-45l5 27q3 15 7.5 24.5t13.5 19.5l-12 10q-43 -49 -84 -70.5t-90 -21.5q-67 0 -103 24t-50 67q-8 27 -8 60q0 39 9 89l58 328h110
l-58 -329q-6 -33 -6 -58q0 -37 15 -60q21 -28 74 -28q59 0 99 38q26 24 43 65t29 111l47 261h110l-99 -557q-59 -38 -83 -61.5z" />
    <glyph glyph-name="Wcircumflex" unicode="&#x174;" horiz-adv-x="1097" 
d="M82 763h117l52 -545q1 -9 3 -25t2 -29t-3 -30h18q3 25 10 44.5t19 47.5l237 537h133l47 -545q1 -7 2.5 -22t1.5 -28q0 -16 -3 -34h18q5 26 12 46t18 46l244 537h129l-349 -763h-153l-51 551l-1 24q0 7 2 39h-14q-11 -46 -22 -71l-237 -543h-154zM644 996h14l133 -172
h-108l-22 36q-21 35 -17 56h-14q-2 -12 -11.5 -25t-25.5 -31l-36 -36h-108z" />
    <glyph glyph-name="wcircumflex" unicode="&#x175;" horiz-adv-x="838" 
d="M69 557h110l31 -335q1 -7 1 -20q0 -16 -2.5 -35.5t-3.5 -27.5h13q5 23 11 43t16 40l163 335h97l46 -335q1 -10 1 -27q0 -27 -4 -56h12q5 23 11 43t15 40l150 335h124l-268 -557h-103l-51 340q-2 13 -2 33q0 9 4 49h-13q-6 -25 -11 -41.5t-16 -40.5l-160 -340h-104z
M498 790h14l133 -172h-108l-22 36q-21 35 -17 56h-14q-2 -12 -11.5 -25t-25.5 -31l-36 -36h-108z" />
    <glyph glyph-name="Ycircumflex" unicode="&#x176;" horiz-adv-x="701" 
d="M269 295l-201 468h129l117 -292q9 -25 13.5 -40t4.5 -31q0 -14 -2 -21h18q5 31 14 54t27 46l220 284h146l-363 -468l-53 -295h-123zM444 996h14l133 -172h-108l-22 36q-21 35 -17 56h-14q-2 -12 -11.5 -25t-25.5 -31l-36 -36h-108z" />
    <glyph glyph-name="ycircumflex" unicode="&#x177;" horiz-adv-x="574" 
d="M-1 -133h56q33 0 50.5 9.5t36.5 43.5l45 83l-114 554h114l64 -357q4 -26 3 -62h13q12 36 25 62l181 357h125l-357 -668q-35 -67 -73 -92.5t-98 -25.5h-87zM369 790h14l133 -172h-108l-22 36q-21 35 -17 56h-14q-2 -12 -11.5 -25t-25.5 -31l-36 -36h-108z" />
    <glyph glyph-name="Ydieresis" unicode="&#x178;" horiz-adv-x="701" 
d="M269 295l-201 468h129l117 -292q9 -25 13.5 -40t4.5 -31q0 -14 -2 -21h18q5 31 14 54t27 46l220 284h146l-363 -468l-53 -295h-123zM271.5 823q-16.5 15 -16.5 40q0 33 25 55.5t58 22.5q25 0 41.5 -15.5t16.5 -39.5q0 -32 -25 -55t-57 -23q-26 0 -42.5 15zM477.5 823
q-16.5 15 -16.5 40q0 33 25 55.5t58 22.5q25 0 41.5 -15.5t16.5 -39.5q0 -32 -25 -55t-57 -23q-26 0 -42.5 15z" />
    <glyph glyph-name="Zacute" unicode="&#x179;" horiz-adv-x="648" 
d="M-17 83l468 516q32 36 67 61l-4 9q-38 -12 -85 -12h-320l18 106h547l-13 -86l-459 -508q-37 -42 -72 -66l4 -9q38 12 87 12h338l-19 -106h-570zM349 819l143 150h122l-174 -150h-91z" />
    <glyph glyph-name="zacute" unicode="&#x17a;" horiz-adv-x="559" 
d="M5 81l330 312q5 5 28 26t61 48l-4 12q-21 -8 -36.5 -11t-35.5 -3h-257l16 92h458l-15 -88l-320 -303q-17 -17 -38.5 -36t-50.5 -40l4 -12q22 8 37.5 11t34.5 3h264l-16 -92h-474zM287 613l143 150h122l-174 -150h-91z" />
    <glyph glyph-name="Zdotaccent" unicode="&#x17b;" horiz-adv-x="648" 
d="M-17 83l468 516q32 36 67 61l-4 9q-38 -12 -85 -12h-320l18 106h547l-13 -86l-459 -508q-37 -42 -72 -66l4 -9q38 12 87 12h338l-19 -106h-570zM357.5 823q-16.5 15 -16.5 40q0 33 25 55.5t58 22.5q25 0 41.5 -15.5t16.5 -39.5q0 -32 -25 -55t-57 -23q-26 0 -42.5 15z
" />
    <glyph glyph-name="zdotaccent" unicode="&#x17c;" horiz-adv-x="559" 
d="M5 81l330 312q5 5 28 26t61 48l-4 12q-21 -8 -36.5 -11t-35.5 -3h-257l16 92h458l-15 -88l-320 -303q-17 -17 -38.5 -36t-50.5 -40l4 -12q22 8 37.5 11t34.5 3h264l-16 -92h-474zM300 651q-18 16 -18 41q0 34 26.5 58.5t60.5 24.5q28 0 45.5 -16t17.5 -42
q0 -34 -26.5 -58t-60.5 -24q-27 0 -45 16z" />
    <glyph glyph-name="Zcaron" unicode="&#x17d;" horiz-adv-x="648" 
d="M-17 83l468 516q32 36 67 61l-4 9q-38 -12 -85 -12h-320l18 106h547l-13 -86l-459 -508q-37 -42 -72 -66l4 -9q38 12 87 12h338l-19 -106h-570zM258 970h108l22 -37q22 -34 18 -55h14q4 22 37 55l35 37h108l-194 -172h-14z" />
    <glyph glyph-name="zcaron" unicode="&#x17e;" horiz-adv-x="559" 
d="M5 81l330 312q5 5 28 26t61 48l-4 12q-21 -8 -36.5 -11t-35.5 -3h-257l16 92h458l-15 -88l-320 -303q-17 -17 -38.5 -36t-50.5 -40l4 -12q22 8 37.5 11t34.5 3h264l-16 -92h-474zM196 764h108l22 -37q22 -34 18 -55h14q4 22 37 55l35 37h108l-194 -172h-14z" />
    <glyph glyph-name="florin" unicode="&#x192;" horiz-adv-x="452" 
d="M-15 -142h50q31 0 50.5 17t26.5 57l94 532h-113l16 93h113l11 63q13 71 55.5 107t113.5 36h79l-16 -91h-54q-31 0 -48.5 -15t-24.5 -55l-8 -45h114l-16 -93h-114l-99 -555q-12 -70 -55.5 -106.5t-115.5 -36.5h-75z" />
    <glyph glyph-name="Oslashacute" unicode="&#x1fe;" horiz-adv-x="821" 
d="M747 624q34 -69 34 -161q0 -125 -54.5 -234t-155 -175t-230.5 -66q-77 0 -135 25t-96 70l-70 -59l-43 51l76 65q-33 69 -33 159q0 126 54.5 235t155 175t231.5 66q148 0 229 -94l70 60l43 -53zM170 222l449 382q-54 65 -157 65q-90 0 -159.5 -51t-107 -134.5
t-37.5 -176.5q0 -46 12 -85zM651 542l-450 -381q54 -67 159 -67q90 0 159 51t107 134.5t38 176.5q0 48 -13 86zM434 819l143 150h122l-174 -150h-91z" />
    <glyph glyph-name="oslashacute" unicode="&#x1ff;" horiz-adv-x="644" 
d="M579 453q25 -53 25 -115q0 -89 -43 -169.5t-119 -130t-172 -49.5q-103 0 -166 61l-54 -46l-43 51l58 50q-25 53 -25 117q0 89 42.5 169t119 128.5t171.5 48.5q104 0 166 -60l54 46l43 -53zM158 183l294 251q-36 38 -96 38q-57 0 -104 -33.5t-74 -88t-27 -114.5
q0 -31 7 -53zM486 374l-295 -250q37 -39 97 -39q57 0 104 34t74 89.5t27 115.5q0 29 -7 50zM328 613l143 150h122l-174 -150h-91z" />
    <glyph glyph-name="uni0218" unicode="&#x218;" horiz-adv-x="691" 
d="M99 51.5q-83 63.5 -81 187.5h119q2 -82 54.5 -115.5t134.5 -33.5q77 0 124.5 35t47.5 102q0 37 -23 60t-58.5 36t-94.5 27q-65 16 -111.5 35t-79 57t-32.5 98q0 71 37 124.5t101 82t142 28.5t139.5 -25.5t96.5 -77.5t34 -128h-114q-1 68 -44.5 98t-116.5 30
q-69 0 -112.5 -30.5t-43.5 -84.5q0 -48 44 -72.5t130 -43.5q66 -15 114 -35.5t79.5 -60.5t31.5 -104q0 -78 -38.5 -135.5t-106 -87.5t-154.5 -30q-136 0 -219 63.5zM253 -164.5q21 9.5 25 27.5q0 2 1.5 5.5t0.5 6.5h-9q-3 -8 -11.5 -12.5t-19.5 -4.5q-16 0 -25.5 9.5
t-9.5 26.5q0 25 19 42.5t46 17.5q28 0 43.5 -15.5t15.5 -40.5q0 -50 -35.5 -77t-100.5 -27l5 32q34 0 55 9.5z" />
    <glyph glyph-name="uni0219" unicode="&#x219;" horiz-adv-x="571" 
d="M84.5 38.5q-62.5 49.5 -59.5 144.5h112q3 -51 36.5 -77t95.5 -26q56 0 90.5 24t34.5 63q0 21 -15 34.5t-44.5 23t-87.5 22.5q-84 18 -123 48t-39 85t30.5 98t84.5 66.5t122 23.5q95 0 149.5 -48.5t55.5 -134.5h-103q-4 46 -34 69.5t-81 23.5q-53 0 -84 -21t-31 -57
q0 -27 30.5 -41.5t111.5 -30.5q87 -17 128.5 -48t41.5 -91q0 -61 -32.5 -106t-89.5 -69.5t-128 -24.5q-109 0 -171.5 49.5zM211 -164.5q21 9.5 25 27.5q0 2 1.5 5.5t0.5 6.5h-9q-3 -8 -11.5 -12.5t-19.5 -4.5q-16 0 -25.5 9.5t-9.5 26.5q0 25 19 42.5t46 17.5
q28 0 43.5 -15.5t15.5 -40.5q0 -50 -35.5 -77t-100.5 -27l5 32q34 0 55 9.5z" />
    <glyph glyph-name="uni021A" unicode="&#x21a;" horiz-adv-x="637" 
d="M188 0l115 657h-245l19 106h609l-19 -106h-246l-115 -657h-118zM221 -164.5q21 9.5 25 27.5q0 2 1.5 5.5t0.5 6.5h-9q-3 -8 -11.5 -12.5t-19.5 -4.5q-16 0 -25.5 9.5t-9.5 26.5q0 25 19 42.5t46 17.5q28 0 43.5 -15.5t15.5 -40.5q0 -50 -35.5 -77t-100.5 -27l5 32
q34 0 55 9.5z" />
    <glyph glyph-name="uni021B" unicode="&#x21b;" horiz-adv-x="377" 
d="M108.5 21q-28.5 21 -28.5 69q0 21 4 41l59 334h-85l16 92h85l37 206h110l-37 -206h116l-16 -92h-116l-54 -305q-3 -16 -3 -30q0 -18 10 -27.5t37 -9.5h59l-16 -93h-94q-55 0 -83.5 21zM135 -164.5q21 9.5 25 27.5q0 2 1.5 5.5t0.5 6.5h-9q-3 -8 -11.5 -12.5t-19.5 -4.5
q-16 0 -25.5 9.5t-9.5 26.5q0 25 19 42.5t46 17.5q28 0 43.5 -15.5t15.5 -40.5q0 -50 -35.5 -77t-100.5 -27l5 32q34 0 55 9.5z" />
    <glyph glyph-name="uni0237" unicode="&#x237;" horiz-adv-x="243" 
d="M-119 -110h52q31 0 51 14.5t27 54.5l105 598h110l-110 -623q-12 -69 -54 -104.5t-110 -35.5h-88z" />
    <glyph glyph-name="circumflex" unicode="&#x2c6;" horiz-adv-x="370" 
d="M257 790h14l133 -172h-108l-22 36q-21 35 -17 56h-14q-2 -12 -11.5 -25t-25.5 -31l-36 -36h-108z" />
    <glyph glyph-name="caron" unicode="&#x2c7;" horiz-adv-x="370" 
d="M88 764h108l22 -37q22 -34 18 -55h14q4 22 37 55l35 37h108l-194 -172h-14z" />
    <glyph glyph-name="breve" unicode="&#x2d8;" horiz-adv-x="365" 
d="M121.5 643q-35.5 33 -35.5 93q0 9 2 27h71q-3 -41 19.5 -62t63.5 -21q40 0 69 21.5t41 61.5h73q-18 -72 -68.5 -112.5t-127.5 -40.5q-72 0 -107.5 33z" />
    <glyph glyph-name="dotaccent" unicode="&#x2d9;" horiz-adv-x="176" 
d="M95 651q-18 16 -18 41q0 34 26.5 58.5t60.5 24.5q28 0 45.5 -16t17.5 -42q0 -34 -26.5 -58t-60.5 -24q-27 0 -45 16z" />
    <glyph glyph-name="ring" unicode="&#x2da;" horiz-adv-x="275" 
d="M104 607.5q-29 29.5 -29 72.5q0 38 20 71.5t54 53t72 19.5q45 0 75 -29t30 -73q0 -6 -2 -20q-10 -52 -51.5 -88t-94.5 -36q-45 0 -74 29.5zM232.5 663q18.5 16 22.5 41q3 22 -9.5 37t-36.5 15q-26 0 -45 -18.5t-19 -44.5q0 -21 12.5 -33.5t32.5 -12.5q24 0 42.5 16z" />
    <glyph glyph-name="ogonek" unicode="&#x2db;" horiz-adv-x="197" 
d="M-46 -197.5q-25 18.5 -25 52.5q0 46 31 75.5t94 52.5l3 17h65q-59 -38 -83 -61.5t-24 -51.5q0 -16 10 -25t30 -9t43 8l-12 -69q-31 -8 -62 -8q-45 0 -70 18.5z" />
    <glyph glyph-name="tilde" unicode="&#x2dc;" horiz-adv-x="391" 
d="M260.5 622q-18.5 13 -36.5 37q-11 15 -19 22t-19 7q-33 0 -51 -75h-74q17 72 55 113.5t89 41.5q29 0 47 -13t36 -36q12 -15 20 -22t19 -7q30 0 48 73h76q-19 -79 -52 -116.5t-87 -37.5q-33 0 -51.5 13z" />
    <glyph glyph-name="hungarumlaut" unicode="&#x2dd;" horiz-adv-x="459" 
d="M61 613l143 150h116l-168 -150h-91zM252 613l144 150h123l-176 -150h-91z" />
    <glyph glyph-name="gravecomb" unicode="&#x300;" 
d="M-61 613h-91l-174 150h122z" />
    <glyph glyph-name="acutecomb" unicode="&#x301;" 
d="M-205 613l143 150h122l-174 -150h-91z" />
    <glyph glyph-name="uni0302" unicode="&#x302;" 
d="M-113 790h14l133 -172h-108l-22 36q-21 35 -17 56h-14q-2 -12 -11.5 -25t-25.5 -31l-36 -36h-108z" />
    <glyph glyph-name="tildecomb" unicode="&#x303;" 
d="M-130.5 622q-18.5 13 -36.5 37q-11 15 -19 22t-19 7q-33 0 -51 -75h-74q17 72 55 113.5t89 41.5q29 0 47 -13t36 -36q12 -15 20 -22t19 -7q30 0 48 73h76q-19 -79 -52 -116.5t-87 -37.5q-33 0 -51.5 13z" />
    <glyph glyph-name="uni0304" unicode="&#x304;" 
d="M-258 648l9 53h298l-9 -53h-298z" />
    <glyph glyph-name="uni0306" unicode="&#x306;" 
d="M-243.5 643q-35.5 33 -35.5 93q0 9 2 27h71q-3 -41 19.5 -62t63.5 -21q40 0 69 21.5t41 61.5h73q-18 -72 -68.5 -112.5t-127.5 -40.5q-72 0 -107.5 33z" />
    <glyph glyph-name="uni0307" unicode="&#x307;" 
d="M-81 651q-18 16 -18 41q0 34 26.5 58.5t60.5 24.5q28 0 45.5 -16t17.5 -42q0 -34 -26.5 -58t-60.5 -24q-27 0 -45 16z" />
    <glyph glyph-name="uni0308" unicode="&#x308;" 
d="M-287 651q-18 16 -18 41q0 34 26.5 58.5t60.5 24.5q28 0 45.5 -16t17.5 -42q0 -34 -26.5 -58t-60.5 -24q-27 0 -45 16zM-81 651q-18 16 -18 41q0 34 26.5 58.5t60.5 24.5q31 0 48.5 -20t13.5 -50q-6 -30 -31 -50t-56 -20q-26 0 -44 16z" />
    <glyph glyph-name="uni030A" unicode="&#x30a;" 
d="M-171 607.5q-29 29.5 -29 72.5q0 38 20 71.5t54 53t72 19.5q45 0 75 -29t30 -73q0 -6 -2 -20q-10 -52 -51.5 -88t-94.5 -36q-45 0 -74 29.5zM-42.5 663q18.5 16 22.5 41q3 22 -9.5 37t-36.5 15q-26 0 -45 -18.5t-19 -44.5q0 -21 12.5 -33.5t32.5 -12.5q24 0 42.5 16z" />
    <glyph glyph-name="uni030B" unicode="&#x30b;" 
d="M-398 613l143 150h116l-168 -150h-91zM-207 613l144 150h123l-176 -150h-91z" />
    <glyph glyph-name="uni030C" unicode="&#x30c;" 
d="M-282 764h108l22 -37q22 -34 18 -55h14q4 22 37 55l35 37h108l-194 -172h-14z" />
    <glyph glyph-name="uni030F" unicode="&#x30f;" 
d="M-232 604l-97 139q-3 5 -3 8q0 5 4.5 8.5t11.5 3.5h63q11 0 17 -10l73 -139q2 -3 2 -8q0 -11 -15 -11h-37q-13 0 -19 9zM-41 604l-90 139q-3 5 -3 8q0 5 4.5 8.5t11.5 3.5h57q11 0 17 -10l73 -139q2 -3 2 -8t-4 -8t-11 -3h-38q-14 0 -19 9z" />
    <glyph glyph-name="uni0312" unicode="&#x312;" 
d="M-77 614.5q-16 17.5 -16 46.5q0 33 17.5 66t53.5 56.5t89 27.5l-8 -41q-45 -4 -71 -28t-28 -62h10q7 16 31 16q17 0 28 -9.5t11 -26.5q0 -27 -20 -45t-51 -18q-30 0 -46 17.5z" />
    <glyph glyph-name="uni031B" unicode="&#x31b;" 
d="M-52 630.5q26 28.5 34 76.5l10 56h68l-10 -50q-13 -78 -59.5 -123.5t-125.5 -45.5l11 58q46 0 72 28.5z" />
    <glyph glyph-name="uni0326" unicode="&#x326;" 
d="M-171 -164.5q21 9.5 25 27.5q0 2 1.5 5.5t0.5 6.5h-9q-3 -8 -11.5 -12.5t-19.5 -4.5q-16 0 -25.5 9.5t-9.5 26.5q0 25 19 42.5t46 17.5q28 0 43.5 -15.5t15.5 -40.5q0 -50 -35.5 -77t-100.5 -27l5 32q34 0 55 9.5z" />
    <glyph glyph-name="uni0327" unicode="&#x327;" 
d="M-331 -203l7 44q47 -18 85 -18q33 0 53.5 15t20.5 41q0 28 -33.5 38.5t-96.5 9.5l89 90h68q-19 -18 -35.5 -31.5t-43.5 -30.5l6 -9q19 3 33 3q34 0 57.5 -16t23.5 -46q0 -49 -41.5 -76t-102.5 -27q-48 0 -90 13z" />
    <glyph glyph-name="uni0328" unicode="&#x328;" 
d="M-243 -197.5q-25 18.5 -25 52.5q0 46 31 75.5t94 52.5l3 17h65q-59 -38 -83 -61.5t-24 -51.5q0 -16 10 -25t30 -9t43 8l-12 -69q-31 -8 -62 -8q-45 0 -70 18.5z" />
    <glyph glyph-name="uni0337" unicode="&#x337;" 
d="M-255 277l14 76l249 118l-13 -75z" />
    <glyph glyph-name="uni0338" unicode="&#x338;" 
d="M-570 20l-43 51l586 499l43 -53z" />
    <glyph glyph-name="uni0394" unicode="&#x394;" horiz-adv-x="709" 
d="M-47 0l410 763h131l140 -763h-681zM210 106h218q36 0 71 -12l11 11q-8 20 -12 38.5t-7 34.5l-65 382q-6 32 -6 56q0 17 3 33h-16q-7 -36 -34 -89l-200 -382q-19 -38 -45 -73l7 -11q38 12 75 12z" />
    <glyph glyph-name="pi" unicode="&#x3c0;" horiz-adv-x="591" 
d="M103 461h-72l17 96h540l-17 -96h-96l-52 -298q-5 -27 -5 -38q0 -20 10 -26.5t35 -6.5h43l-16 -92h-66q-59 0 -88.5 22t-29.5 73q0 21 4 41l58 325h-157l-82 -461h-108z" />
    <glyph glyph-name="Wgrave" unicode="&#x1e80;" horiz-adv-x="1097" 
d="M82 763h117l52 -545q1 -9 3 -25t2 -29t-3 -30h18q3 25 10 44.5t19 47.5l237 537h133l47 -545q1 -7 2.5 -22t1.5 -28q0 -16 -3 -34h18q5 26 12 46t18 46l244 537h129l-349 -763h-153l-51 551l-1 24q0 7 2 39h-14q-11 -46 -22 -71l-237 -543h-154zM653 819h-91l-174 150
h122z" />
    <glyph glyph-name="wgrave" unicode="&#x1e81;" horiz-adv-x="838" 
d="M69 557h110l31 -335q1 -7 1 -20q0 -16 -2.5 -35.5t-3.5 -27.5h13q5 23 11 43t16 40l163 335h97l46 -335q1 -10 1 -27q0 -27 -4 -56h12q5 23 11 43t15 40l150 335h124l-268 -557h-103l-51 340q-2 13 -2 33q0 9 4 49h-13q-6 -25 -11 -41.5t-16 -40.5l-160 -340h-104z
M508 613h-91l-174 150h122z" />
    <glyph glyph-name="Wacute" unicode="&#x1e82;" horiz-adv-x="1097" 
d="M82 763h117l52 -545q1 -9 3 -25t2 -29t-3 -30h18q3 25 10 44.5t19 47.5l237 537h133l47 -545q1 -7 2.5 -22t1.5 -28q0 -16 -3 -34h18q5 26 12 46t18 46l244 537h129l-349 -763h-153l-51 551l-1 24q0 7 2 39h-14q-11 -46 -22 -71l-237 -543h-154zM566 819l143 150h122
l-174 -150h-91z" />
    <glyph glyph-name="wacute" unicode="&#x1e83;" horiz-adv-x="838" 
d="M69 557h110l31 -335q1 -7 1 -20q0 -16 -2.5 -35.5t-3.5 -27.5h13q5 23 11 43t16 40l163 335h97l46 -335q1 -10 1 -27q0 -27 -4 -56h12q5 23 11 43t15 40l150 335h124l-268 -557h-103l-51 340q-2 13 -2 33q0 9 4 49h-13q-6 -25 -11 -41.5t-16 -40.5l-160 -340h-104z
M420 613l143 150h122l-174 -150h-91z" />
    <glyph glyph-name="Wdieresis" unicode="&#x1e84;" horiz-adv-x="1097" 
d="M82 763h117l52 -545q1 -9 3 -25t2 -29t-3 -30h18q3 25 10 44.5t19 47.5l237 537h133l47 -545q1 -7 2.5 -22t1.5 -28q0 -16 -3 -34h18q5 26 12 46t18 46l244 537h129l-349 -763h-153l-51 551l-1 24q0 7 2 39h-14q-11 -46 -22 -71l-237 -543h-154zM470.5 823
q-16.5 15 -16.5 40q0 33 25 55.5t58 22.5q25 0 41.5 -15.5t16.5 -39.5q0 -32 -25 -55t-57 -23q-26 0 -42.5 15zM676.5 823q-16.5 15 -16.5 40q0 33 25 55.5t58 22.5q25 0 41.5 -15.5t16.5 -39.5q0 -32 -25 -55t-57 -23q-26 0 -42.5 15z" />
    <glyph glyph-name="wdieresis" unicode="&#x1e85;" horiz-adv-x="838" 
d="M69 557h110l31 -335q1 -7 1 -20q0 -16 -2.5 -35.5t-3.5 -27.5h13q5 23 11 43t16 40l163 335h97l46 -335q1 -10 1 -27q0 -27 -4 -56h12q5 23 11 43t15 40l150 335h124l-268 -557h-103l-51 340q-2 13 -2 33q0 9 4 49h-13q-6 -25 -11 -41.5t-16 -40.5l-160 -340h-104z
M330 651q-18 16 -18 41q0 34 26.5 58.5t60.5 24.5q28 0 45.5 -16t17.5 -42q0 -34 -26.5 -58t-60.5 -24q-27 0 -45 16zM536 651q-18 16 -18 41q0 34 26.5 58.5t60.5 24.5q31 0 48.5 -20t13.5 -50q-6 -30 -31 -50t-56 -20q-26 0 -44 16z" />
    <glyph glyph-name="uni1E9E" unicode="&#x1e9e;" horiz-adv-x="701" 
d="M203 706q77 69 210 69q77 0 130 -25.5t98 -73.5l-13 -95l-102 -90q-34 -28 -76 -51v-10q11 1 30 1q67 0 108.5 -48.5t41.5 -123.5q0 -85 -40 -143t-109.5 -87t-156.5 -29h-104l18 106h93q82 0 132.5 40t50.5 117q0 53 -35 68.5t-86 15.5h-57l21 125l117 102
q22 19 40 25.5t47 6.5v16q-9 0 -17 3.5t-21 11.5q-23 15 -47.5 23.5t-66.5 8.5q-85 0 -130.5 -47t-60.5 -136l-86 -486h-118l87 494q25 143 102 212z" />
    <glyph glyph-name="Ygrave" unicode="&#x1ef2;" horiz-adv-x="701" 
d="M269 295l-201 468h129l117 -292q9 -25 13.5 -40t4.5 -31q0 -14 -2 -21h18q5 31 14 54t27 46l220 284h146l-363 -468l-53 -295h-123zM454 819h-91l-174 150h122z" />
    <glyph glyph-name="ygrave" unicode="&#x1ef3;" horiz-adv-x="574" 
d="M-1 -133h56q33 0 50.5 9.5t36.5 43.5l45 83l-114 554h114l64 -357q4 -26 3 -62h13q12 36 25 62l181 357h125l-357 -668q-35 -67 -73 -92.5t-98 -25.5h-87zM379 613h-91l-174 150h122z" />
    <glyph glyph-name="endash" unicode="&#x2013;" horiz-adv-x="646" 
d="M74 289l15 81h501l-15 -81h-501z" />
    <glyph glyph-name="emdash" unicode="&#x2014;" horiz-adv-x="1106" 
d="M2 289l14 81h1106l-14 -81h-1106z" />
    <glyph glyph-name="uni2015" unicode="&#x2015;" horiz-adv-x="806" 
d="M75 299l12 68h662l-11 -68h-663z" />
    <glyph glyph-name="quoteleft" unicode="&#x2018;" horiz-adv-x="299" 
d="M132.5 498.5q-19.5 24.5 -19.5 65.5q0 55 25.5 101.5t71 75t102.5 33.5l-10 -58q-56 -5 -88.5 -38.5t-34.5 -86.5h12q4 11 14.5 16.5t24.5 5.5q20 0 34 -14t14 -37q0 -38 -25 -63t-64 -25q-37 0 -56.5 24.5z" />
    <glyph glyph-name="quoteright" unicode="&#x2019;" horiz-adv-x="300" 
d="M208.5 571q32.5 33 34.5 86h-12q-4 -11 -14.5 -16.5t-24.5 -5.5q-20 0 -34 14t-14 37q0 38 25 63t64 25q37 0 56.5 -24.5t19.5 -65.5q0 -55 -25.5 -101t-71 -75t-102.5 -34l10 58q56 6 88.5 39z" />
    <glyph glyph-name="quotesinglbase" unicode="&#x201a;" horiz-adv-x="256" 
d="M67 -74.5q33 33.5 35 86.5h-12q-4 -11 -15 -16.5t-24 -5.5q-21 0 -35 14t-14 37q0 37 25.5 62t63.5 25q37 0 56.5 -24t19.5 -66q0 -55 -25.5 -101t-71 -74.5t-102.5 -33.5l10 58q56 5 89 38.5z" />
    <glyph glyph-name="quotedblleft" unicode="&#x201c;" horiz-adv-x="511" 
d="M213 676.5q-33 -33.5 -34 -86.5h12q9 23 39 23q21 0 34.5 -14t13.5 -37q0 -38 -25 -63t-64 -25q-37 0 -56.5 24.5t-19.5 65.5q0 55 25.5 101t71 75t102.5 33l-10 -57q-56 -6 -89 -39.5zM424.5 676.5q-32.5 -33.5 -34.5 -86.5h12q9 23 39 23q21 0 35 -14t14 -37
q0 -38 -25.5 -63t-63.5 -25q-37 0 -56.5 24.5t-19.5 65.5q0 55 25.5 101t71 75t102.5 33l-11 -57q-56 -6 -88.5 -39.5z" />
    <glyph glyph-name="quotedblright" unicode="&#x201d;" horiz-adv-x="512" 
d="M208.5 571q32.5 33 34.5 86h-12q-4 -11 -14.5 -16.5t-24.5 -5.5q-20 0 -34 14t-14 37q0 38 25 63t64 25q37 0 56.5 -24.5t19.5 -65.5q0 -55 -25.5 -101t-71 -75t-102.5 -34l10 58q56 6 88.5 39zM419.5 571q32.5 33 34.5 86h-12q-4 -11 -14.5 -16.5t-24.5 -5.5
q-20 0 -34 14t-14 37q0 38 25 63t64 25q37 0 56.5 -24.5t19.5 -65.5q0 -55 -25.5 -101t-71 -75t-102.5 -34l10 58q56 6 88.5 39z" />
    <glyph glyph-name="quotedblbase" unicode="&#x201e;" horiz-adv-x="468" 
d="M66.5 -75q32.5 33 34.5 86h-12q-4 -11 -14.5 -16.5t-24.5 -5.5q-20 0 -34 14t-14 37q0 38 25 63t64 25q37 0 56.5 -24.5t19.5 -65.5q0 -55 -25.5 -101t-71 -75t-102.5 -34l10 58q56 6 88.5 39zM277.5 -75q32.5 33 34.5 86h-12q-4 -11 -14.5 -16.5t-24.5 -5.5
q-20 0 -34 14t-14 37q0 38 25 63t64 25q37 0 56.5 -24.5t19.5 -65.5q0 -55 -25.5 -101t-71 -75t-102.5 -34l10 58q56 6 88.5 39z" />
    <glyph glyph-name="dagger" unicode="&#x2020;" horiz-adv-x="618" 
d="M174 -237l121 678h-236l15 86h236l41 236h87l-42 -236h236l-15 -86h-236l-120 -678h-87z" />
    <glyph glyph-name="bullet" unicode="&#x2022;" horiz-adv-x="405" 
d="M99 162.5q-30 30.5 -30 75.5q0 39 22 74t57 55.5t73 20.5q48 0 78 -30t30 -75q0 -40 -21.5 -74.5t-57 -55.5t-74.5 -21q-47 0 -77 30.5z" />
    <glyph glyph-name="uni2023" unicode="&#x2023;" horiz-adv-x="448" 
d="M108 100v354l307 -176z" />
    <glyph glyph-name="ellipsis" unicode="&#x2026;" horiz-adv-x="670" 
d="M20 5.5q-17 16.5 -17 41.5q0 32 26 56.5t59 24.5q25 0 40.5 -16t15.5 -41q0 -32 -25 -57t-56 -25q-26 0 -43 16.5zM243 5.5q-17 16.5 -17 41.5q0 32 25.5 56.5t58.5 24.5q25 0 41.5 -16.5t16.5 -40.5q0 -32 -26 -57t-57 -25q-25 0 -42 16.5zM465.5 5.5
q-16.5 16.5 -16.5 40.5q0 33 25 57.5t58 24.5q25 0 41.5 -16.5t16.5 -40.5q0 -32 -25.5 -57t-56.5 -25q-26 0 -42.5 16.5z" />
    <glyph glyph-name="perthousand" unicode="&#x2030;" horiz-adv-x="1137" 
d="M118 460q-35 38 -35 99q0 56 25 105.5t69 80t96 30.5q57 0 91.5 -39t34.5 -100q0 -53 -25 -102.5t-68 -80.5t-93 -31q-60 0 -95 38zM47 0l593 763h96l-593 -763h-96zM270 523.5q20 15.5 32 42t12 56.5q0 31 -15 50t-41 19q-40 0 -64.5 -36t-24.5 -81q0 -31 15.5 -48.5
t43.5 -17.5q22 0 42 15.5zM421.5 26q-34.5 38 -34.5 99q0 55 25 105t68 80t95 30q58 0 92.5 -39t34.5 -101q0 -54 -25.5 -103t-68 -79t-92.5 -30q-60 0 -94.5 38zM773.5 26q-34.5 38 -34.5 99q0 55 25 105t68.5 80t95.5 30q57 0 91.5 -39t34.5 -101q0 -54 -25.5 -103
t-68 -79t-92.5 -30q-60 0 -94.5 38zM573 87.5q20 15.5 32 41.5t12 57q0 32 -15 50.5t-41 18.5q-40 0 -64 -35t-24 -82q0 -31 15 -48.5t43 -17.5q22 0 42 15.5zM925 87.5q20 15.5 32 41.5t12 57q0 32 -15 50.5t-41 18.5q-40 0 -64 -35t-24 -82q0 -31 15 -48.5t43 -17.5
q22 0 42 15.5z" />
    <glyph glyph-name="guilsinglleft" unicode="&#x2039;" horiz-adv-x="307" 
d="M12 276l257 189l-18 -100l-73 -54q-19 -13 -33.5 -20.5t-32.5 -12.5l-2 -14q27 -7 54 -33l55 -53l-17 -91z" />
    <glyph glyph-name="guilsinglright" unicode="&#x203a;" horiz-adv-x="308" 
d="M53 187l73 54q36 25 66 33l2 14q-29 9 -54 33l-55 53l17 91l190 -189l-257 -189z" />
    <glyph glyph-name="fraction" unicode="&#x2044;" horiz-adv-x="154" 
d="M-162 0l437 763h63l-437 -763h-63z" />
    <glyph glyph-name="Euro" unicode="&#x20ac;" horiz-adv-x="641" 
d="M214.5 61.5q-74.5 73.5 -84.5 195.5h-73l13 73h70l3 22q1 10 5 32l7 36q4 15 5 20h-71l13 74h76q56 119 155 190t237 71q35 0 68 -6l-19 -109q-34 8 -68 8q-113 0 -190 -79q-42 -47 -68 -73l6 -12q27 7 43.5 8.5t36.5 1.5h183l-13 -74h-274q-9 -26 -12 -56q-3 -17 -8 -54
h275l-13 -73h-183q-21 0 -38 1.5t-43 8.5l-9 -12q18 -24 27.5 -44.5t13.5 -27.5q50 -91 164 -91q27 0 71 8l-19 -107q-55 -5 -70 -5q-142 0 -216.5 73.5z" />
    <glyph glyph-name="uni2116" unicode="&#x2116;" horiz-adv-x="1268" 
d="M850 345q-52 52 -52 139q0 78 37 145t101 106.5t141 39.5q89 0 142 -52.5t53 -137.5q0 -78 -37 -145t-101.5 -107t-142.5 -40q-89 0 -141 52zM149 763h148l187 -516q9 -27 14 -46t8 -51l17 3q2 48 10 93l92 517h118l-135 -763h-149l-187 518l-10 30t-11 65l-17 -4
q-2 -40 -11 -93l-91 -516h-118zM1092.5 400.5q39.5 28.5 62 74.5t22.5 96q0 55 -31 89.5t-83 34.5q-47 0 -86.5 -27.5t-62 -73t-22.5 -96.5q0 -57 31 -91.5t83 -34.5q47 0 86.5 28.5zM760 127l14 82h408l-15 -82h-407z" />
    <glyph glyph-name="trademark" unicode="&#x2122;" horiz-adv-x="701" 
d="M130 458l43 245h-88l11 60h244l-11 -60h-88l-43 -245h-68zM385 763h111l10 -180q1 -7 1 -23q0 -18 -3 -32h6q4 22 16 55l76 180h111l-54 -305h-68l35 197q5 28 12 51h-7q-13 -37 -20 -50l-83 -198h-66l-15 198q0 5 -0.5 16.5t-0.5 33.5h-6q-2 -30 -6 -51l-35 -197h-68z
" />
    <glyph glyph-name="minus" unicode="&#x2212;" horiz-adv-x="656" 
d="M124 297v86h430v-86h-430z" />
    <glyph glyph-name="lozenge" unicode="&#x25ca;" horiz-adv-x="651" 
d="M194 0l-138 382l273 381h165l138 -382l-272 -381h-166zM286 52l226 331l-109 328l-225 -328z" />
    <glyph glyph-name="uniF8FF" unicode="&#xf8ff;" horiz-adv-x="926" 
d="M16 10l131 743q2 10 11 10h744q10 0 8 -10l-131 -743q-1 -4 -4 -7t-8 -3h-744q-9 0 -7 10zM207 94q13 11 22.5 25t17.5 28q19 36 45 69.5t82 82.5l29 26q5 4 9 4q5 0 8 -3q7 -4 16 -6q9 -3 8 -13l-6 -36q-8 -43 -17.5 -66t-23.5 -48q-14 -21 -17 -37q-2 -14 7 -25t23 -11
q15 0 28 11t15 25q1 4 1 12q0 7 -4 25q-7 28 -7 51q0 32 6 63l6 36q1 9 12 13q13 4 16 6q6 3 9 3q5 0 8 -4l22 -26q40 -48 54 -81.5t20 -69.5q4 -20 8 -31.5t13 -22.5q14 -15 37 -15q26 0 44 15q25 22 25 53q0 19 -10 29q-9 12 -19.5 18t-29.5 12q-35 14 -64.5 33t-68.5 67
l-21 26q-3 3 -3 9l4 7q8 12 11 18q5 11 13 11h36q45 0 68.5 -6t42.5 -16q3 -1 13 -5.5t23 -4.5q16 0 29.5 13.5t13.5 30.5q0 12 -8.5 21t-21.5 9t-25 -4.5t-14 -5.5q-22 -10 -48 -16t-71 -6h-36q-8 0 -10 11q-2 10 -4 15q-2 3 -2 8q3 6 6 8l30 26q57 48 94.5 68.5t74.5 31.5
q4 2 16.5 6.5t22.5 10t19 13.5q25 23 25 52q0 19 -10 30q-13 16 -39 16q-24 0 -42 -15q-13 -11 -21 -22.5t-20 -32.5q-19 -37 -44.5 -70t-82.5 -81l-29 -24q-3 -4 -9 -4q-4 0 -7 2q-6 4 -16 7q-9 3 -8 13l7 36q7 44 17 68t24 45q2 3 8 14.5t8 23.5q3 14 -6 25t-23 11
q-15 0 -28 -11t-16 -25q-1 -4 -1 -11q0 -8 4 -26q8 -24 8 -53q0 -22 -6 -61l-7 -36q-1 -9 -12 -13q-2 -1 -8 -2.5t-10 -4.5q-3 -2 -8 -2q-6 0 -9 4l-21 24q-40 48 -54.5 82.5t-19.5 69.5q-3 19 -7 31t-13 23q-13 16 -37 16q-22 0 -43 -16q-26 -23 -26 -52q0 -20 10 -31
q9 -11 19.5 -17t28.5 -13q33 -13 63 -33t70 -67l22 -25q3 -5 2 -8q0 -4 -4 -8q-2 -2 -10 -16q-5 -11 -14 -11h-36q-44 0 -68 6t-43 16q-2 1 -12 5.5t-23 4.5q-16 0 -29.5 -13t-13.5 -29q0 -14 8.5 -23t21.5 -9q12 0 23.5 4.5t15.5 5.5q22 10 47.5 16t70.5 6h36q9 0 11 -11
q2 -12 5 -17v-5q0 -6 -5 -11l-31 -27q-56 -49 -93 -68.5t-76 -31.5q-21 -7 -33.5 -13t-25.5 -17q-11 -9 -17.5 -23t-6.5 -28q0 -17 10 -30q13 -16 39 -16q25 0 43 15zM420.5 340.5q-13.5 13.5 -13.5 32.5q0 24 20.5 43.5t44.5 19.5q20 0 32.5 -13t12.5 -32
q0 -25 -19.5 -44.5t-44.5 -19.5q-19 0 -32.5 13.5zM489 354l-5 6q-11 -13 -28 -13q-12 0 -20 8.5t-8 21.5q0 15 12.5 27t27.5 12t25 -13l6 6q-7 15 -29 15q-19 0 -35.5 -15t-16.5 -34q0 -15 10.5 -25.5t26.5 -10.5q22 0 34 15z" />
    <glyph glyph-name="i.loclTRK" horiz-adv-x="264" 
d="M28 0l98 557h110l-98 -557h-110zM151 651q-18 16 -18 41q0 34 26.5 58.5t60.5 24.5q28 0 45.5 -16t17.5 -42q0 -34 -26.5 -58t-60.5 -24q-27 0 -45 16z" />
    <glyph glyph-name="uni030C.alt" 
d="M-57.5 571q32.5 33 34.5 86h-12q-4 -11 -14.5 -16.5t-24.5 -5.5q-21 0 -35 14.5t-14 37.5q0 37 26 62t64 25q37 0 56.5 -24.5t19.5 -66.5q0 -16 -3 -34q-12 -67 -61.5 -117.5t-134.5 -57.5l10 58q56 6 88.5 39z" />
    <glyph glyph-name="uni0308.case" 
d="M-250.5 823q-16.5 15 -16.5 40q0 33 25 55.5t58 22.5q25 0 41.5 -15.5t16.5 -39.5q0 -32 -25 -55t-57 -23q-26 0 -42.5 15zM-44.5 823q-16.5 15 -16.5 40q0 33 25 55.5t58 22.5q25 0 41.5 -15.5t16.5 -39.5q0 -32 -25 -55t-57 -23q-26 0 -42.5 15z" />
    <glyph glyph-name="uni0307.case" 
d="M-44.5 823q-16.5 15 -16.5 40q0 33 25 55.5t58 22.5q25 0 41.5 -15.5t16.5 -39.5q0 -32 -25 -55t-57 -23q-26 0 -42.5 15z" />
    <glyph glyph-name="uni0328.case" 
d="M-243 -197.5q-25 18.5 -25 52.5q0 46 31 75.5t94 52.5l3 17h65q-59 -38 -83 -61.5t-24 -51.5q0 -16 10 -25t30 -9t43 8l-12 -69q-31 -8 -62 -8q-45 0 -70 18.5z" />
    <glyph glyph-name="uni0335.case" 
d="M-435 297l15 86h412l-15 -86h-412z" />
    <glyph glyph-name="uni0337.case" 
d="M-409 232l15 87l410 193l-15 -86z" />
    <glyph glyph-name="uni0338.case" 
d="M-737 20l-43 51l783 666l43 -53z" />
    <glyph glyph-name="base_No" horiz-adv-x="506" 
d="M-32 0v98h489v-98h-489z" />
    </font>
</defs>
</svg>
