<?xml version="1.0" standalone="no"?>
<!DOCTYPE svg PUBLIC "-//W3C//DTD SVG 1.1//EN" "http://www.w3.org/Graphics/SVG/1.1/DTD/svg11.dtd" >
<svg xmlns="http://www.w3.org/2000/svg" xmlns:xlink="http://www.w3.org/1999/xlink" version="1.1">
<metadata>
Created by FontForge 20170731 at Wed Apr  8 16:30:25 2020
 By Aleksey,,,
Copyright (c) 2020 by Alfredo Marco Pradil. All rights reserved.
</metadata>
<defs>
<font id="OpenSauceSans-SemiBold" horiz-adv-x="0" >
  <font-face 
    font-family="Open Sauce Sans SemiBold"
    font-weight="600"
    font-stretch="normal"
    units-per-em="1000"
    panose-1="0 0 7 0 0 0 0 0 0 0"
    ascent="763"
    descent="-237"
    x-height="559"
    cap-height="763"
    bbox="-701 -237 1243 1029"
    underline-thickness="50"
    underline-position="-150"
    unicode-range="U+0020-FB02"
  />
<missing-glyph horiz-adv-x="603" 
d="M71 0v559h460v-559h-460zM111 40h380v479h-380v-479z" />
    <glyph glyph-name="fi" unicode="fi" horiz-adv-x="610" 
d="M112 462h-88v97h88v58q0 71 38.5 108.5t111.5 37.5h80v-97h-52q-59 0 -59 -66q0 -11 -1.5 -20.5t-8.5 -20.5l10 -10q11 7 21 8.5t23 1.5h67v-97h-111v-462h-119v462zM428 0v559h118v-559h-118zM432.5 651.5q-22.5 20.5 -22.5 51.5t22.5 51.5t54.5 20.5q33 0 55 -20.5
t22 -51.5t-22 -51.5t-55 -20.5q-32 0 -54.5 20.5z" />
    <glyph glyph-name="fl" unicode="fl" horiz-adv-x="656" 
d="M112 462h-88v97h88v58q0 71 38.5 108.5t111.5 37.5h80v-97h-52q-59 0 -59 -66q0 -11 -1.5 -20.5t-8.5 -20.5l10 -10q11 7 21 8.5t23 1.5h67v-97h-111v-462h-119v462zM458 30q-33 30 -33 99v634h118v-603q0 -33 11.5 -47t41.5 -14h33v-99h-73q-65 0 -98 30z" />
    <glyph glyph-name="s_a_u_c_e_l_o_g_o.liga" unicode="saucelogo" horiz-adv-x="906" 
d="M71 10v743q0 10 9 10h744q10 0 10 -10v-743q0 -10 -10 -10h-744q-9 0 -9 10zM247 94q11 11 17 22.5t14 31.5q13 36 33 69t67 82l25 26q4 4 8 4q5 0 9 -3q7 -4 17 -6q10 -3 10 -13v-36q0 -43 -5.5 -67t-15.5 -47q-10 -20 -10 -37q0 -14 11 -25t25 -11q15 0 26 11t11 25
q0 17 -10 37q-10 23 -15.5 47t-5.5 67v36q0 10 10 13q13 4 15 6q5 3 8 3q5 0 9 -4l26 -26q48 -48 68 -81.5t33 -69.5q6 -19 12 -30.5t18 -23.5q17 -15 40 -15q26 0 41 15q17 17 17 42t-16 40q-12 12 -23.5 18t-30.5 12q-37 13 -70 32.5t-81 67.5l-26 26q-4 4 -4 9q0 3 3 7
q6 12 7 18q3 11 12 11h36q44 0 68.5 -6t46.5 -16q2 -1 13 -5.5t24 -4.5q14 0 25 11t11 26q0 14 -11 25.5t-25 11.5q-13 0 -24 -4.5t-13 -5.5q-22 -10 -46.5 -16t-68.5 -6h-36q-9 0 -12 11q-4 10 -7 15t-3 8q0 4 4 8l26 26q48 48 82 68.5t69 31.5q4 2 16 6.5t21 10t16 13.5
q17 19 17 41q0 24 -17 41q-16 16 -41 16t-40 -15q-11 -11 -17 -22.5t-14 -32.5q-13 -37 -32.5 -70t-67.5 -81l-25 -24q-3 -4 -9 -4q-4 0 -7 2q-5 3 -17 7q-10 3 -10 13v36q0 43 5.5 67t15.5 47q10 20 10 37q0 14 -11 25t-25 11q-15 0 -26 -11t-11 -25q0 -17 10 -37
q10 -23 15.5 -47t5.5 -67v-36q0 -10 -10 -13q-2 -1 -7.5 -2.5t-9.5 -4.5q-3 -2 -7 -2q-6 0 -10 4l-25 24q-49 49 -69.5 83t-31.5 69q-7 19 -13 31t-17 23q-16 16 -40 16q-22 0 -40 -16q-17 -17 -17 -42t16 -41q11 -11 22.5 -17t30.5 -13q36 -13 69 -33t82 -67l26 -25
q4 -4 4 -8q0 -3 -3 -8q-2 -3 -7 -16q-3 -11 -12 -11h-36q-44 0 -68.5 6t-46.5 16q-2 1 -13 5.5t-24 4.5q-14 0 -25 -11.5t-11 -25.5q0 -15 11 -26t25 -11q13 0 24 4.5t13 5.5q22 10 46.5 16t68.5 6h36q9 0 12 -11q5 -12 8 -17q2 -6 2 -7q0 -5 -4 -9l-26 -27
q-48 -49 -81.5 -68.5t-69.5 -31.5q-20 -7 -31.5 -13t-22.5 -17q-16 -15 -16 -40q0 -24 16 -41q16 -16 42 -16q25 0 40 15zM414 343.5q-16 16.5 -16 38.5t16 38t38 16t38 -16t16 -38q0 -23 -16 -39t-38 -16t-38 16.5zM484 354l-6 6q-10 -13 -26 -13q-14 0 -24 10.5t-10 24.5
t10.5 24t23.5 10q16 0 27 -13l5 6q-10 15 -32 15q-17 0 -30 -12.5t-13 -29.5t13 -30t30 -13q22 0 32 15z" />
    <glyph glyph-name=".notdef" horiz-adv-x="603" 
d="M71 0v559h460v-559h-460zM111 40h380v479h-380v-479z" />
    <glyph glyph-name=".null" 
 />
    <glyph glyph-name="nonmarkingreturn" horiz-adv-x="333" 
 />
    <glyph glyph-name="space" unicode=" " horiz-adv-x="272" 
 />
    <glyph glyph-name="exclam" unicode="!" horiz-adv-x="269" 
d="M83 252q-8 134 -8 232v279h118v-279q0 -98 -8 -232l-1 -26h-100zM82.5 11q-21.5 22 -21.5 52t21.5 51t52.5 21q29 0 50.5 -21t21.5 -51t-21.5 -52t-50.5 -22q-31 0 -52.5 22z" />
    <glyph glyph-name="quotedbl" unicode="&#x22;" horiz-adv-x="362" 
d="M42 493v270h95v-270h-95zM224 493v270h95v-270h-95z" />
    <glyph glyph-name="numbersign" unicode="#" horiz-adv-x="749" 
d="M126 0l49 226h-129v81h146l33 162h-134v84h152l47 210h91l-47 -214h152l44 214h91l-48 -214h130v-80h-147l-35 -162h136v-81h-153l-48 -226h-90l49 226h-153l-46 -226h-90zM283 307h150l33 162h-152z" />
    <glyph glyph-name="dollar" unicode="$" horiz-adv-x="689" 
d="M131.5 63q-79.5 62 -93.5 179h128q17 -68 71 -109q9 -6 20 -11.5t16 -8.5q32 -15 51 -32l11 9q-7 30 -8.5 50.5t-1.5 45.5v156q-83 17 -138.5 40t-89 65.5t-33.5 110.5q0 67 33.5 116t92.5 75t135 27v120h60v-123q95 -18 159 -75.5t78 -155.5h-125q-11 48 -45 82
q-5 5 -25 21l-41 35l-11 -8q10 -36 10 -69v-156q83 -18 138.5 -42.5t88.5 -69.5t33 -116q0 -103 -68.5 -164.5t-191.5 -66.5v-130h-60v131q-114 12 -193.5 74zM327 493.5q-2 16.5 -2 35.5v81q0 17 1.5 31.5t8.5 39.5l-11 9q-27 -18 -48 -26t-28 -11q-59 -28 -59 -84
q0 -31 17 -51.5t50 -34.5q5 -3 24 -11.5t45 -28.5l11 8q-7 26 -9 42.5zM436 103q4 2 16.5 7.5t21.5 11.5q45 31 45 88q0 30 -12.5 52t-37.5 39q-6 4 -15 8.5l-13 6.5q-34 15 -55 31l-11 -8q7 -28 8.5 -45.5t1.5 -38.5v-77q0 -24 -1.5 -43t-8.5 -48l11 -10q18 15 50 26z" />
    <glyph glyph-name="percent" unicode="%" horiz-adv-x="782" 
d="M122.5 444.5q-36.5 22.5 -56.5 63t-20 91.5q0 77 43.5 126.5t112.5 49.5q44 0 80 -23t56 -63.5t20 -89.5t-20 -89.5t-55 -64t-78 -23.5q-46 0 -82.5 22.5zM108 0l461 763h101l-462 -763h-100zM251 537.5q18 24.5 18 61.5q0 38 -19 62.5t-48 24.5q-30 0 -48 -24t-18 -63
q0 -40 18.5 -63t50.5 -23q28 0 46 24.5zM500 9.5q-36 22.5 -56.5 63t-20.5 91.5q0 50 20 90.5t55.5 63t80.5 22.5q44 0 80 -23.5t56.5 -64t20.5 -89.5t-20 -89t-55.5 -63.5t-78.5 -23.5q-46 0 -82 22.5zM628.5 101q18.5 25 18.5 62q0 39 -19 63t-49 24t-47.5 -23t-17.5 -63
q0 -41 18.5 -64.5t49.5 -23.5q28 0 46.5 25z" />
    <glyph glyph-name="ampersand" unicode="&#x26;" horiz-adv-x="740" 
d="M173.5 10q-57.5 23 -91.5 67t-34 105q0 57 29 102.5t75 79.5q25 17 45.5 25.5t49.5 9.5l2 14q-43 16 -74 57q-41 52 -41 114q0 61 28.5 104t76.5 65t106 22q85 0 142 -45.5t57 -128.5q0 -54 -27.5 -98t-72.5 -77q-18 -13 -32.5 -18t-36.5 -6l-2 -13q20 -7 30 -15t25 -27
l53 -66q13 -16 20 -29t11 -34l14 -3q21 39 31.5 78t15.5 87h112q-13 -146 -86 -246l107 -134h-147q-16 22 -24 37.5t-5 36.5l-14 5q-13 -35 -75 -65q-58 -27 -142 -27q-68 0 -125.5 23zM402.5 528.5q27.5 29.5 27.5 71.5q0 31 -23.5 54.5t-61.5 23.5q-39 0 -66.5 -24.5
t-27.5 -65.5q0 -66 71 -121q53 32 80.5 61.5zM381 102.5q39 13.5 68 36.5l-157 196q-63 -37 -95 -69t-32 -77q0 -47 39 -73.5t98 -26.5q40 0 79 13.5z" />
    <glyph glyph-name="quotesingle" unicode="'" horiz-adv-x="180" 
d="M42 493v270h95v-270h-95z" />
    <glyph glyph-name="parenleft" unicode="(" horiz-adv-x="298" 
d="M55 380q0 285 113 492h112q-64 -111 -94 -230t-30 -262q0 -141 30 -260.5t94 -230.5h-112q-113 206 -113 491z" />
    <glyph glyph-name="parenright" unicode=")" horiz-adv-x="298" 
d="M112 119.5q30 119.5 30 260.5q0 143 -30 262t-94 230h112q113 -205 113 -492q0 -285 -113 -491h-111q63 111 93 230.5z" />
    <glyph glyph-name="asterisk" unicode="*" horiz-adv-x="422" 
d="M117 533q24 22 64 49l-4 13q-34 -2 -45 -2q-43 0 -99 10l31 88q33 -14 58.5 -28.5t58.5 -42.5l11 8q-13 41 -18.5 70t-10.5 65h96q-4 -34 -10 -63.5t-20 -70.5l11 -9q33 27 58.5 41.5t59.5 29.5l31 -89q-56 -8 -98 -8q-29 0 -47 1l-4 -13q39 -26 62 -47t49 -50l-79 -54
q-18 37 -30.5 66.5t-24.5 69.5h-14q-12 -39 -23.5 -67t-30.5 -69l-78 54q22 26 46 48z" />
    <glyph glyph-name="plus" unicode="+" horiz-adv-x="631" 
d="M269 58v234h-233v91h233v234h92v-234h233v-91h-233v-234h-92z" />
    <glyph glyph-name="comma" unicode="," horiz-adv-x="272" 
d="M131.5 -77.5q27.5 27.5 27.5 72.5q0 11 -1 17h-12q-6 -22 -36 -22q-25 0 -43.5 19t-18.5 51q0 33 21.5 54t57.5 21q46 0 71.5 -34.5t25.5 -92.5q0 -69 -41.5 -120.5t-128.5 -58.5v62q50 4 77.5 31.5z" />
    <glyph glyph-name="hyphen" unicode="-" horiz-adv-x="358" 
d="M25 277v102h308v-102h-308z" />
    <glyph glyph-name="period" unicode="." horiz-adv-x="242" 
d="M70 10.5q-22 21.5 -22 52.5q0 30 22 51t53 21q29 0 50 -21.5t21 -50.5q0 -30 -21 -52t-50 -22q-31 0 -53 21.5z" />
    <glyph glyph-name="slash" unicode="/" horiz-adv-x="467" 
d="M95 -111h-107l349 874h107z" />
    <glyph glyph-name="zero" unicode="0" horiz-adv-x="667" 
d="M132 85q-72 97 -72 298q0 200 71 296t201 96q131 0 202.5 -97t71.5 -299q0 -199 -70.5 -295t-199.5 -96q-132 0 -204 97zM441 167q38 65 38 213q0 150 -39 216t-110 66q-70 0 -106.5 -66t-36.5 -214q0 -150 37.5 -215t108.5 -65q70 0 108 65z" />
    <glyph glyph-name="one" unicode="1" horiz-adv-x="445" 
d="M258 613l-12 5q-23 -37 -51 -61q-35 -30 -78 -50t-81 -26v118q73 15 130 61t86 103h123v-763h-127v540q0 39 10 73z" />
    <glyph glyph-name="two" unicode="2" horiz-adv-x="647" 
d="M56 100l240 208q76 64 112 118t36 113t-31.5 92.5t-93.5 33.5q-136 0 -145 -165h-119q5 130 74 202t191 72q71 0 126.5 -27.5t86 -78.5t30.5 -119q0 -90 -52 -168t-135 -150l-93 -80q-30 -26 -59 -44l6 -12q26 11 41 15t37 4h289v-114h-541v100z" />
    <glyph glyph-name="three" unicode="3" horiz-adv-x="661" 
d="M188.5 18.5q-63.5 30.5 -99.5 87t-40 131.5h127q14 -139 163 -139q66 0 103 34.5t37 94.5q0 62 -44.5 92t-121.5 30h-47v106h43q55 0 91.5 28t36.5 81q0 47 -29.5 74t-83.5 27q-55 0 -89 -31t-42 -93h-118q3 68 36.5 121.5t89 83t123.5 29.5q70 0 123.5 -26.5t83 -73
t29.5 -105.5q0 -61 -35.5 -104t-91.5 -44v-16q79 -4 126 -54t47 -128q0 -69 -34.5 -122.5t-96 -83.5t-139.5 -30q-84 0 -147.5 30.5z" />
    <glyph glyph-name="four" unicode="4" horiz-adv-x="650" 
d="M378 0v175h-337v123l340 465h124v-474h104v-114h-104v-175h-127zM194.5 286.5q18.5 2.5 39.5 2.5h144v224q0 25 1.5 41.5t8.5 42.5l-12 4q-21 -35 -43 -67l-128 -181q-12 -18 -24.5 -32t-34.5 -34l6 -12q24 9 42.5 11.5z" />
    <glyph glyph-name="five" unicode="5" horiz-adv-x="654" 
d="M482 489.5q55 -32.5 85.5 -91.5t30.5 -135q0 -79 -34.5 -141.5t-96.5 -98t-141 -35.5q-73 0 -131 29t-94 82t-43 123h127q11 -58 49.5 -89t95.5 -31q66 0 103.5 44.5t37.5 115.5q0 68 -39 110t-103 42q-44 0 -79 -22t-55 -62h-128l80 433h416v-114h-322l-22 -114
q-6 -37 -20 -69l11 -7q56 63 146 63q71 0 126 -32.5z" />
    <glyph glyph-name="six" unicode="6" horiz-adv-x="660" 
d="M131.5 85q-72.5 98 -72.5 273q0 195 73 306t214 111q107 0 173.5 -58.5t81.5 -161.5h-116q-13 54 -48 82.5t-91 28.5q-71 0 -109.5 -46t-51.5 -130q-9 -48 -21 -80l13 -7q61 100 180 100q72 0 127 -31t85.5 -88t30.5 -132q0 -76 -32.5 -136.5t-91.5 -94.5t-133 -34
q-139 0 -211.5 98zM437.5 140q35.5 43 35.5 110t-35 108t-97 41q-65 0 -105.5 -41.5t-40.5 -107.5q0 -68 40.5 -110.5t105.5 -42.5q61 0 96.5 43z" />
    <glyph glyph-name="seven" unicode="7" horiz-adv-x="599" 
d="M422.5 626q12.5 16 38.5 40l-8 11q-30 -16 -51.5 -22t-47.5 -6h-321v114h528v-110l-324 -653h-138l298 586q13 24 25.5 40z" />
    <glyph glyph-name="eight" unicode="8" horiz-adv-x="662" 
d="M187.5 17.5q-62.5 30.5 -97 85t-34.5 123.5q0 65 36 116.5t105 69.5v12q-53 14 -80.5 54.5t-27.5 90.5q0 60 31 107t86 73t125 26q71 0 126 -26t85.5 -73t30.5 -107q0 -50 -27.5 -91t-80.5 -54v-12q70 -18 105.5 -69t35.5 -117q0 -70 -34 -124t-96.5 -84.5t-144.5 -30.5
q-81 0 -143.5 30.5zM419 486q31 29 31 77q0 47 -32 77t-87 30t-87 -30t-32 -77q0 -48 31 -77t88 -29t88 29zM438.5 134q40.5 37 40.5 99q0 60 -39.5 97.5t-108.5 37.5t-108.5 -37.5t-39.5 -97.5q0 -62 41 -99t107 -37q67 0 107.5 37z" />
    <glyph glyph-name="nine" unicode="9" horiz-adv-x="660" 
d="M528.5 678q72.5 -98 72.5 -273q0 -195 -73 -306t-214 -111q-107 0 -173.5 58.5t-81.5 161.5h116q13 -54 48 -82.5t91 -28.5q71 0 109.5 46t51.5 130q9 48 21 80l-13 7q-61 -100 -180 -100q-72 0 -127 31t-85.5 88t-30.5 132q0 76 32.5 136.5t91.5 94.5t133 34
q139 0 211.5 -98zM222.5 623q-35.5 -43 -35.5 -110t35 -108t97 -41q65 0 105.5 41.5t40.5 107.5q0 68 -40.5 110.5t-105.5 42.5q-61 0 -96.5 -43z" />
    <glyph glyph-name="colon" unicode=":" horiz-adv-x="228" 
d="M62 401.5q-22 21.5 -22 52.5q0 30 22 51.5t52 21.5t51 -21.5t21 -51.5t-21 -52t-51 -22t-52 21.5zM61.5 11q-21.5 22 -21.5 52t22 51t52 21q29 0 50.5 -21t21.5 -51t-21 -52t-51 -22q-31 0 -52.5 22z" />
    <glyph glyph-name="semicolon" unicode=";" horiz-adv-x="272" 
d="M70 401.5q-22 21.5 -22 52.5q0 30 22 51.5t52 21.5q29 0 50.5 -21.5t21.5 -51.5q0 -31 -21.5 -52.5t-50.5 -21.5q-30 0 -52 21.5zM131.5 -77.5q27.5 27.5 27.5 72.5q0 11 -1 17h-12q-6 -22 -36 -22q-25 0 -43.5 19t-18.5 51q0 33 21.5 54t57.5 21q46 0 71.5 -34.5
t25.5 -92.5q0 -69 -41.5 -120.5t-128.5 -58.5v62q50 4 77.5 31.5z" />
    <glyph glyph-name="less" unicode="&#x3c;" horiz-adv-x="561" 
d="M40 284v121l475 173v-109l-285 -100q-23 -8 -42.5 -11.5t-39.5 -6.5v-13q20 -3 39.5 -6.5t42.5 -11.5l285 -101v-108z" />
    <glyph glyph-name="equal" unicode="=" horiz-adv-x="516" 
d="M36 415v103h444v-103h-444zM36 178v104h444v-104h-444z" />
    <glyph glyph-name="greater" unicode="&#x3e;" horiz-adv-x="561" 
d="M46 219l285 101q23 8 42.5 11.5t39.5 6.5v13q-20 3 -39.5 6.5t-42.5 11.5l-285 100v109l475 -173v-121l-475 -173v108z" />
    <glyph glyph-name="question" unicode="?" horiz-adv-x="553" 
d="M233 355q15 37 36 58t55 46q39 27 57 50t18 63q0 52 -33 79t-89 27q-60 0 -96 -35.5t-40 -99.5h-107q4 72 35.5 124.5t85 80t121.5 27.5q102 0 167.5 -54t65.5 -155q0 -44 -12.5 -74t-30.5 -48.5t-49 -41.5q-28 -21 -44.5 -37.5t-29 -41.5t-14.5 -61l-4 -38h-107v38
q0 56 15 93zM218.5 11q-21.5 22 -21.5 52q0 29 21.5 50.5t51.5 21.5t51.5 -21t21.5 -51q0 -31 -21.5 -52.5t-51.5 -21.5t-51.5 22z" />
    <glyph glyph-name="at" unicode="@" horiz-adv-x="1037" 
d="M271 -128.5q-107 59.5 -167.5 166t-60.5 242.5q0 139 61 251.5t171 177t249 64.5q134 0 241.5 -60.5t168 -168.5t60.5 -245q0 -96 -30.5 -173t-88 -121.5t-133.5 -44.5q-65 0 -96 38.5t-31 120.5l-9 3q-60 -101 -166 -101q-52 0 -93 25t-64.5 73t-23.5 115q0 85 36 164
t100.5 128t143.5 49q45 0 76.5 -20t55.5 -68l12 2q-4 21 -4 35q0 13 3 23h84l-13 -63q-32 -150 -47 -233.5t-15 -128.5q0 -81 63 -81q45 0 80.5 33.5t55 92t19.5 130.5q0 115 -49 204t-136 138t-198 49q-116 0 -207 -53t-141.5 -146t-50.5 -209q0 -114 48.5 -200.5
t136.5 -134.5t202 -48q68 0 133 22v-88q-57 -19 -134 -19q-135 0 -242 59.5zM544.5 144.5q44.5 38.5 69.5 99.5t25 124q0 121 -98 121q-57 0 -102 -37t-70 -96t-25 -124q0 -126 100 -126q56 0 100.5 38.5z" />
    <glyph glyph-name="A" unicode="A" horiz-adv-x="704" 
d="M9 0l273 763h140l273 -763h-132l-56 167h-309l-57 -167h-132zM469 278l-90 268q-19 59 -19 92h-16q0 -36 -18 -92l-91 -268h234z" />
    <glyph glyph-name="B" unicode="B" horiz-adv-x="695" 
d="M71 763h297q136 0 196 -60q49 -46 49 -131q0 -71 -35.5 -117.5t-91.5 -46.5v-16q73 0 119 -47.5t46 -125.5q0 -99 -64 -156q-41 -36 -97 -49.5t-109 -13.5h-310v763zM454 468.5q32 27.5 32 77.5q0 47 -29 73q-34 30 -116 30h-143v-208h164q60 0 92 27.5zM438 120
q32 6 55 27q32 29 32 82q0 68 -40.5 87.5t-101.5 19.5h-185v-222h168q40 0 72 6z" />
    <glyph glyph-name="C" unicode="C" horiz-adv-x="760" 
d="M204.5 40.5q-81.5 53.5 -121.5 143.5t-40 198t40 197.5t121.5 142.5t201.5 53q135 0 218.5 -66t100.5 -176h-139q-12 61 -60.5 95t-121.5 34q-110 0 -170 -76.5t-60 -203.5t60 -204.5t170 -77.5q74 0 122 36t60 106h139q-18 -118 -101 -186.5t-218 -68.5
q-120 0 -201.5 53.5z" />
    <glyph glyph-name="D" unicode="D" horiz-adv-x="730" 
d="M71 763h219q192 0 294 -99t102 -283q0 -183 -102.5 -282t-294.5 -99h-218v763zM487 174.5q72 60.5 72 206.5q0 138 -71.5 203t-199.5 65h-90v-535h90q127 0 199 60.5z" />
    <glyph glyph-name="E" unicode="E" horiz-adv-x="619" 
d="M71 0v763h505v-114h-378v-210h336v-113h-336v-212h378v-114h-505z" />
    <glyph glyph-name="F" unicode="F" horiz-adv-x="603" 
d="M71 0v763h505v-114h-378v-210h336v-113h-336v-326h-127z" />
    <glyph glyph-name="G" unicode="G" horiz-adv-x="815" 
d="M206 41q-83 54 -123.5 143.5t-40.5 196.5t40.5 196.5t123.5 143.5t204 54q138 0 224.5 -64.5t114.5 -176.5h-141q-21 61 -71.5 94.5t-127.5 33.5t-130 -37t-79.5 -100.5t-26.5 -141.5q0 -81 28 -145t83 -101t134 -37q73 0 126 32t75 87q9 23 13 54q2 14 4.5 22.5
t7.5 13.5l-12 12q-12 -12 -25 -15t-43 -3h-105v107h299v-410h-116v115h-16q0 -52 -53 -86q-30 -20 -72.5 -31t-89.5 -11q-122 0 -205 54z" />
    <glyph glyph-name="H" unicode="H" horiz-adv-x="743" 
d="M71 0v763h127v-324h345v324h127v-763h-127v326h-345v-326h-127z" />
    <glyph glyph-name="I" unicode="I" horiz-adv-x="271" 
d="M71 0v763h127v-763h-127z" />
    <glyph glyph-name="J" unicode="J" horiz-adv-x="391" 
d="M13 114h97q42 0 63.5 20t21.5 65v564h128v-565q0 -71 -20 -114t-66.5 -63.5t-126.5 -20.5h-97v114z" />
    <glyph glyph-name="K" unicode="K" horiz-adv-x="657" 
d="M71 763h127v-352h16q0 18 10 35.5t24 35.5l235 281h157l-315 -368l327 -395h-160l-244 296q-25 31 -54 77l-13 -11q11 -13 14 -26t3 -48v-288h-127v763z" />
    <glyph glyph-name="L" unicode="L" horiz-adv-x="540" 
d="M71 0v763h127v-649h330v-114h-457z" />
    <glyph glyph-name="M" unicode="M" horiz-adv-x="919" 
d="M71 763h215l146 -511q10 -33 14.5 -61.5t4.5 -67.5h16q0 39 4.5 67.5t14.5 61.5l146 511h215v-763h-127v546q0 53 6 113l-16 2q-13 -74 -26 -115l-163 -546h-124l-163 546q-13 41 -26 115l-15 -2q5 -60 5 -113v-546h-127v763z" />
    <glyph glyph-name="N" unicode="N" horiz-adv-x="746" 
d="M71 763h154l272 -497q14 -25 22.5 -44.5t18.5 -53.5l16 3q-6 42 -6 94v498h126v-763h-153l-274 500q-13 23 -21.5 42.5t-17.5 52.5l-16 -4q6 -42 6 -93v-498h-127v763z" />
    <glyph glyph-name="O" unicode="O" horiz-adv-x="817" 
d="M206 40.5q-82 53.5 -122.5 143t-40.5 198.5t40.5 198t122.5 142t202 53q119 0 201.5 -53t123 -142.5t40.5 -197.5q0 -109 -40.5 -198.5t-123 -143t-201.5 -53.5q-120 0 -202 53.5zM580.5 178q61.5 77 61.5 204q0 126 -61.5 203t-172.5 77q-73 0 -126 -35.5t-80.5 -99
t-27.5 -145.5q0 -83 27.5 -146.5t80.5 -99t126 -35.5q111 0 172.5 77z" />
    <glyph glyph-name="P" unicode="P" horiz-adv-x="657" 
d="M71 763h315q112 0 176.5 -55.5t64.5 -167.5q0 -107 -66 -168t-175 -61h-188v-311h-127v763zM468 451.5q34 29.5 34 84.5t-34.5 84t-98.5 29h-171v-227h171q65 0 99 29.5z" />
    <glyph glyph-name="Q" unicode="Q" horiz-adv-x="818" 
d="M570 -10.5q-5 14.5 -4 40.5l-13 4q-29 -27 -64 -37q-40 -10 -81 -10q-120 0 -202 53.5t-122.5 143t-40.5 198.5t40.5 198t122.5 142t202 53q119 0 201.5 -53t123 -142.5t40.5 -197.5q0 -93 -30 -173t-89 -134l104 -162h-142l-31 47q-10 15 -15 29.5zM580.5 176.5
q61.5 76.5 61.5 205.5q0 128 -61.5 204t-172.5 76t-172.5 -76t-61.5 -204q0 -129 61.5 -205.5t172.5 -76.5t172.5 76.5z" />
    <glyph glyph-name="R" unicode="R" horiz-adv-x="679" 
d="M71 763h315q112 0 176.5 -55.5t64.5 -167.5q0 -90 -46 -147q-21 -24 -44 -35t-46 -8l-6 -14q15 -11 23 -24t18 -36l117 -276h-135l-126 312h-184v-312h-127v763zM468 451.5q34 29.5 34 84.5t-34.5 84t-98.5 29h-171v-227h171q65 0 99 29.5z" />
    <glyph glyph-name="S" unicode="S" horiz-adv-x="689" 
d="M215.5 13q-70.5 26 -119 83t-58.5 146h129q17 -78 72.5 -112t127.5 -34q69 0 110 29t41 86q0 42 -25.5 67t-63.5 37.5t-105 27.5q-83 18 -135 37t-88.5 61t-36.5 115q0 69 34 118.5t93.5 75t135.5 25.5q114 0 196.5 -59t100.5 -174h-127q-15 63 -61 93.5t-111 30.5
q-62 0 -98 -26t-36 -73q0 -37 23.5 -59t59.5 -33.5t98 -25.5q88 -19 142 -39.5t92.5 -66t38.5 -124.5q0 -107 -73.5 -169.5t-206.5 -62.5q-79 0 -149.5 26z" />
    <glyph glyph-name="T" unicode="T" horiz-adv-x="632" 
d="M252 0v649h-240v114h609v-114h-242v-649h-127z" />
    <glyph glyph-name="U" unicode="U" horiz-adv-x="728" 
d="M138 62.5q-74 75.5 -74 209.5v491h127v-491q0 -172 173 -172q172 0 172 172v491h127v-491q0 -134 -73.5 -209.5t-225.5 -75.5t-226 75.5z" />
    <glyph glyph-name="V" unicode="V" horiz-adv-x="700" 
d="M7 763h132l184 -546q19 -56 19 -92h16q0 39 18 92l185 546h132l-273 -763h-140z" />
    <glyph glyph-name="W" unicode="W" horiz-adv-x="1100" 
d="M16 763h133l143 -541q10 -33 13.5 -50.5t3.5 -37.5h16q0 21 3 39t11 49l135 541h151l135 -541q8 -30 11.5 -48.5t3.5 -39.5h16q0 20 3.5 37t12.5 51l143 541h133l-208 -763h-171l-138 545q-8 37 -8 75h-16q0 -40 -9 -75l-138 -545h-170z" />
    <glyph glyph-name="X" unicode="X" horiz-adv-x="710" 
d="M268 382l-255 381h151l153 -236q18 -27 24.5 -43t6.5 -34h14q0 18 6.5 34t24.5 43l153 236h151l-255 -381l257 -382h-150l-152 225q-21 30 -28 47.5t-7 37.5h-14q0 -20 -7 -37.5t-28 -47.5l-152 -225h-150z" />
    <glyph glyph-name="Y" unicode="Y" horiz-adv-x="692" 
d="M280 296l-281 467h148l162 -280q17 -29 23 -44t6 -38h16q0 23 5.5 38.5t22.5 44.5l163 279h147l-279 -467v-296h-133v296z" />
    <glyph glyph-name="Z" unicode="Z" horiz-adv-x="630" 
d="M28 89l365 499q26 35 50 59l-6 13q-19 -7 -36 -9t-44 -2h-306v114h547v-92l-359 -492q-14 -19 -26.5 -34.5t-26.5 -29.5l7 -13q19 8 36.5 10t44.5 2h324v-114h-570v89z" />
    <glyph glyph-name="bracketleft" unicode="[" horiz-adv-x="342" 
d="M92 -110v982h231v-87h-129v-808h129v-87h-231z" />
    <glyph glyph-name="backslash" unicode="\" horiz-adv-x="467" 
d="M372 -111l-349 874h107l349 -874h-107z" />
    <glyph glyph-name="bracketright" unicode="]" horiz-adv-x="342" 
d="M250 -110h-231v87h129v808h-129v87h231v-982z" />
    <glyph glyph-name="asciicircum" unicode="^" horiz-adv-x="550" 
d="M215 763h120l174 -474h-109l-86 244q-21 60 -32 122h-14q-7 -38 -14 -63.5t-19 -58.5l-86 -244h-108z" />
    <glyph glyph-name="underscore" unicode="_" horiz-adv-x="424" 
d="M-14 -87v87h451v-87h-451z" />
    <glyph glyph-name="grave" unicode="`" horiz-adv-x="262" 
d="M252 614h-95l-148 149h127z" />
    <glyph glyph-name="a" unicode="a" horiz-adv-x="586" 
d="M92 32q-50 43 -50 120q0 78 61 123q44 32 130 49l177 33q-1 56 -30 86q-31 31 -84 31q-43 0 -75 -24.5t-40 -66.5h-118q14 90 80.5 138t153.5 48q50 0 93.5 -14t74.5 -42q41 -38 51.5 -89t10.5 -121v-303h-118v19q0 23 12 55l-14 7q-21 -37 -54 -61q-46 -31 -129 -31
q-82 0 -132 43zM327 102q41 21 58 51q10 18 15 34t11 43q3 13 8 19.5t14 7.5l-3 16q-81 -18 -112 -23l-56 -11q-58 -12 -82 -34q-20 -20 -20 -50q0 -33 24.5 -51.5t65.5 -18.5t77 17z" />
    <glyph glyph-name="b" unicode="b" horiz-adv-x="640" 
d="M255 9.5q-38 20.5 -72 69.5l-14 -10q8 -9 11 -19.5t3 -25.5v-24h-118v763h118v-228q0 -15 -3 -25.5t-11 -20.5l14 -9q34 49 72.5 69t94.5 20q73 0 128.5 -36.5t86.5 -102.5t31 -151t-31 -151t-86.5 -102.5t-128.5 -36.5q-57 0 -95 20.5zM436 144q41 53 41 135t-41 135
t-110 53q-45 0 -80 -24t-55 -67t-20 -97t20 -97t55 -67t80 -24q69 0 110 53z" />
    <glyph glyph-name="c" unicode="c" horiz-adv-x="614" 
d="M175 26q-63 37 -98 103.5t-35 152.5q0 83 35 148.5t98 102t145 36.5q99 0 167.5 -50t88.5 -136h-128q-14 42 -47.5 65t-80.5 23q-46 0 -82 -23.5t-56 -66.5t-20 -99q0 -58 20 -102t56 -68t82 -24q51 0 85.5 26t45.5 71h128q-19 -92 -89 -144t-170 -52q-82 0 -145 37z" />
    <glyph glyph-name="d" unicode="d" horiz-adv-x="640" 
d="M161.5 25.5q-55.5 36.5 -86.5 102.5t-31 151t31 151t86.5 102.5t128.5 36.5q56 0 94.5 -20t72.5 -69l14 9q-8 10 -11 20.5t-3 25.5v228h118v-763h-118v24q0 15 3 25.5t11 19.5l-14 10q-34 -49 -72 -69.5t-95 -20.5q-73 0 -128.5 36.5zM394 115q35 24 55 67t20 97t-20 97
t-55 67t-80 24q-69 0 -110 -53t-41 -135t41 -135t110 -53q45 0 80 24z" />
    <glyph glyph-name="e" unicode="e" horiz-adv-x="637" 
d="M175.5 26.5q-63.5 37.5 -98.5 103t-35 147.5q0 76 31.5 143t94 108t150.5 41q74 0 137.5 -31.5t102 -95.5t38.5 -157v-30h-370q-52 0 -72 3l-4 -16q9 -2 12.5 -7.5t7.5 -16.5q9 -21 11 -25q20 -47 57.5 -74t85.5 -27q51 0 87.5 26.5t52.5 66.5h122q-27 -87 -94 -141.5
t-171 -54.5q-82 0 -145.5 37.5zM193.5 344.5q11.5 3.5 27.5 3.5h198q17 0 29.5 -3.5t27.5 -12.5l10 13q-9 5 -11.5 9.5t-5.5 13.5q-2 14 -14 33q-20 35 -55 53.5t-78 18.5q-44 0 -78 -18.5t-55 -53.5q-8 -13 -14 -33q-2 -8 -5 -12.5t-12 -10.5l9 -13q15 9 26.5 12.5z" />
    <glyph glyph-name="f" unicode="f" horiz-adv-x="363" 
d="M112 462h-88v97h88v58q0 71 38.5 108.5t111.5 37.5h80v-97h-52q-59 0 -59 -66q0 -11 -1.5 -20.5t-8.5 -20.5l10 -10q11 7 21 8.5t23 1.5h67v-97h-111v-462h-119v462z" />
    <glyph glyph-name="g" unicode="g" horiz-adv-x="641" 
d="M148.5 -174q-70.5 41 -86.5 139h119q13 -44 46 -64.5t90 -20.5q72 0 106.5 33t34.5 91v28q0 17 2.5 25.5t11.5 19.5l-14 10q-34 -49 -71.5 -69.5t-94.5 -20.5q-73 0 -129 36.5t-87 101.5t-31 147q0 83 31 148.5t87 102t128 36.5q57 0 95 -20t72 -69l14 9q-8 11 -11 21
t-3 25v24h118v-528q0 -134 -68.5 -190t-189.5 -56q-99 0 -169.5 41zM395.5 123q35.5 24 55 65.5t19.5 94.5q0 52 -20 94t-55 66t-80 24q-68 0 -109.5 -52.5t-41.5 -131.5q0 -80 41.5 -132t109.5 -52q45 0 80.5 24z" />
    <glyph glyph-name="h" unicode="h" horiz-adv-x="596" 
d="M65 763h118v-228q0 -15 -3 -25.5t-11 -20.5l14 -9q34 48 71 68.5t86 20.5q125 0 171 -91q16 -33 20 -67t4 -84v-327h-118v327q0 84 -29 116q-24 27 -76 27q-59 0 -90 -36q-20 -23 -29.5 -61.5t-9.5 -103.5v-269h-118v763z" />
    <glyph glyph-name="i" unicode="i" horiz-adv-x="247" 
d="M65 0v559h118v-559h-118zM69.5 651.5q-22.5 20.5 -22.5 51.5t22.5 51.5t54.5 20.5q33 0 55 -20.5t22 -51.5t-22 -51.5t-55 -20.5q-32 0 -54.5 20.5z" />
    <glyph glyph-name="j" unicode="j" horiz-adv-x="248" 
d="M-48 -103h52q29 0 45 14t16 51v597h118v-627q0 -67 -35 -101.5t-102 -34.5h-94v101zM69.5 651.5q-22.5 20.5 -22.5 51.5t22.5 51.5t54.5 20.5q33 0 55 -20.5t22 -51.5t-22 -51.5t-55 -20.5q-32 0 -54.5 20.5z" />
    <glyph glyph-name="k" unicode="k" horiz-adv-x="582" 
d="M65 763h118v-324q0 -25 -1.5 -44t-8.5 -44l12 -6q35 39 51 53l165 161h154l-219 -208q-19 -18 -46 -29v-14q24 -11 46 -35l239 -273h-150l-189 220q-15 17 -51 61l-12 -5q7 -27 8.5 -47t1.5 -47v-182h-118v763z" />
    <glyph glyph-name="l" unicode="l" horiz-adv-x="293" 
d="M95 30q-33 30 -33 99v634h118v-603q0 -33 11.5 -47t41.5 -14h33v-99h-73q-65 0 -98 30z" />
    <glyph glyph-name="m" unicode="m" horiz-adv-x="901" 
d="M65 559h118v-24q0 -15 -3 -25t-11 -21l14 -9q33 48 69.5 68.5t86.5 20.5q53 0 94 -24t50 -70h13q21 52 64 73t96 21q93 0 139 -53t46 -150v-366h-118v348q0 60 -25 91t-71 31t-76 -30q-22 -24 -30.5 -62t-8.5 -97v-281h-118v348q0 60 -25.5 91t-72.5 31q-45 0 -74 -32
q-20 -22 -29.5 -59t-9.5 -98v-281h-118v559z" />
    <glyph glyph-name="n" unicode="n" horiz-adv-x="595" 
d="M65 559h118v-24q0 -15 -3 -25t-11 -21l14 -9q33 48 69.5 68.5t86.5 20.5q126 0 171 -91q17 -33 21 -67t4 -84v-327h-119v327q0 44 -6.5 72t-21.5 44q-24 27 -76 27q-60 0 -91 -36q-20 -23 -29 -61t-9 -104v-269h-118v559z" />
    <glyph glyph-name="o" unicode="o" horiz-adv-x="647" 
d="M177 26q-64 37 -99.5 103.5t-35.5 152.5q0 83 35.5 148.5t99.5 102t146 36.5t146 -36.5t100 -102t36 -148.5q0 -85 -35.5 -151.5t-99.5 -104t-147 -37.5q-82 0 -146 37zM406 116.5q37 24.5 57.5 67.5t20.5 98q0 52 -20.5 94.5t-57.5 66.5t-83 24t-83 -23.5t-57.5 -66
t-20.5 -95.5q0 -56 21 -99t57.5 -67t82.5 -24t83 24.5z" />
    <glyph glyph-name="p" unicode="p" horiz-adv-x="640" 
d="M478.5 533.5q55.5 -36.5 86.5 -102.5t31 -151t-31 -151t-86.5 -102.5t-128.5 -36.5q-56 0 -94.5 20t-72.5 69l-14 -9q8 -10 11 -20.5t3 -25.5v-228h-118v763h118v-24q0 -15 -3 -25.5t-11 -19.5l14 -10q34 49 72 69.5t95 20.5q73 0 128.5 -36.5zM246 444q-35 -24 -55 -67
t-20 -97t20 -97t55 -67t80 -24q69 0 110 53t41 135t-41 135t-110 53q-45 0 -80 -24z" />
    <glyph glyph-name="q" unicode="q" horiz-adv-x="648" 
d="M490.5 -174q-33.5 30 -33.5 93v105q0 18 2.5 26.5t11.5 18.5l-14 10q-34 -49 -72 -69.5t-95 -20.5q-73 0 -128.5 36.5t-86.5 102.5t-31 151t31 151t86.5 102.5t128.5 36.5q56 0 94.5 -20t72.5 -69l14 9q-8 10 -11 20.5t-3 25.5v24h118v-620q0 -23 12 -32.5t36 -9.5h45
v-101h-74q-70 0 -103.5 30zM394 115q35 24 55 67t20 97t-20 97t-55.5 67t-79.5 24q-69 0 -110 -53t-41 -135t41 -135t110 -53q45 0 80 24z" />
    <glyph glyph-name="r" unicode="r" horiz-adv-x="382" 
d="M65 559h118v-24q0 -15 -3 -25t-11 -21l14 -9q31 48 70 68.5t96 20.5h13v-115h-30q-67 0 -103 -36q-46 -43 -46 -148v-270h-118v559z" />
    <glyph glyph-name="s" unicode="s" horiz-adv-x="569" 
d="M123.5 39q-72.5 50 -86.5 146h119q12 -48 49 -74t95 -26q49 0 78.5 18.5t29.5 52.5q0 27 -18.5 43t-46 24.5t-75.5 18.5q-66 13 -107.5 27t-71 46.5t-29.5 89.5q0 80 60 122t152 42q96 0 160 -49t79 -136h-111q-12 45 -46 67.5t-82 22.5q-45 0 -71 -17t-26 -46
q0 -24 17.5 -38.5t44 -22t73.5 -16.5q67 -12 110 -27t74 -48.5t31 -92.5q0 -81 -60 -129t-165 -48q-104 0 -176.5 50z" />
    <glyph glyph-name="t" unicode="t" horiz-adv-x="376" 
d="M142 30q-33 30 -33 99v332h-84v98h84v204h118v-204h114v-98h-114v-299q0 -32 10 -47.5t44 -15.5h59v-99h-100q-65 0 -98 30z" />
    <glyph glyph-name="u" unicode="u" horiz-adv-x="596" 
d="M86 81q-16 33 -20 67t-4 84v327h118v-328q0 -84 29 -116q26 -27 76 -27q59 0 90 36q20 24 29.5 62t9.5 103v270h118v-559h-118v24q0 15 3 25.5t11 19.5l-14 10q-34 -49 -70.5 -69.5t-86.5 -20.5q-125 0 -171 92z" />
    <glyph glyph-name="v" unicode="v" horiz-adv-x="537" 
d="M14 559h128l100 -297q8 -25 12 -45t5.5 -37.5t2.5 -23.5h12q3 36 6.5 57.5t12.5 48.5l103 297h127l-207 -559h-96z" />
    <glyph glyph-name="w" unicode="w" horiz-adv-x="836" 
d="M19 559h126l86 -321q5 -20 7.5 -40t3.5 -43h12q1 27 3.5 44.5t8.5 38.5l99 321h104l100 -321q9 -33 11 -83h13q1 29 2.5 46t7.5 37l88 321h126l-171 -559h-111l-98 329q-7 22 -9 38t-4 45h-12q-2 -26 -4.5 -43t-9.5 -40l-100 -329h-111z" />
    <glyph glyph-name="x" unicode="x" horiz-adv-x="572" 
d="M209 281l-194 278h136l100 -147q21 -32 26 -62h14q7 31 28 62l99 147h139l-198 -278l198 -281h-138l-101 149q-21 34 -27 62h-14q-5 -30 -25 -62l-101 -149h-136z" />
    <glyph glyph-name="y" unicode="y" horiz-adv-x="560" 
d="M70 -103h59q31 0 46.5 9.5t28.5 41.5l20 54l-210 557h128l122 -352q9 -26 14 -67h12q3 35 14 67l112 352h128l-228 -640q-25 -70 -59 -96.5t-97 -26.5h-90v101z" />
    <glyph glyph-name="z" unicode="z" horiz-adv-x="548" 
d="M32 84l268 304q37 43 75 74l-5 12q-21 -8 -36 -10.5t-34 -2.5h-250v98h463v-92l-259 -295q-21 -25 -35.5 -40t-40.5 -36l6 -12q37 14 70 14h257v-98h-479v84z" />
    <glyph glyph-name="braceleft" unicode="{" horiz-adv-x="324" 
d="M128 -70q-31 40 -31 110v201q0 42 -18.5 62t-51.5 31v94q33 11 51.5 31t18.5 62v201q0 70 31 110t91 40h80v-83h-38q-31 0 -44 -18.5t-13 -51.5v-200q0 -59 -25 -91t-78 -39v-16q53 -7 78 -39t25 -91v-200q0 -33 13 -51.5t44 -18.5h38v-83h-80q-60 0 -91 40z" />
    <glyph glyph-name="bar" unicode="|" horiz-adv-x="333" 
d="M116 -110v982h102v-982h-102z" />
    <glyph glyph-name="braceright" unicode="}" horiz-adv-x="324" 
d="M25 -110v83h38q31 0 44 18.5t13 51.5v200q0 59 25 91t78 39v16q-53 7 -78 39t-25 91v200q0 33 -13 51.5t-44 18.5h-38v83h80q60 0 91 -40t31 -110v-201q0 -42 18.5 -62t51.5 -31v-94q-33 -11 -51.5 -31t-18.5 -62v-201q0 -70 -31 -110t-91 -40h-80z" />
    <glyph glyph-name="asciitilde" unicode="~" horiz-adv-x="527" 
d="M244 221q-21 13 -43 36q-14 15 -22.5 21.5t-19.5 6.5q-31 0 -36 -74h-76q3 73 34 115t83 42q30 0 49.5 -12.5t43.5 -36.5q14 -14 23.5 -21t19.5 -7q14 0 23 18t10 54h78q-5 -79 -31 -117t-81 -38q-34 0 -55 13z" />
    <glyph glyph-name="uni00A0" unicode="&#xa0;" horiz-adv-x="240" 
 />
    <glyph glyph-name="exclamdown" unicode="&#xa1;" horiz-adv-x="347" 
d="M234.5 547.5q21.5 -21.5 21.5 -52.5q0 -29 -22 -50.5t-52 -21.5q-29 0 -50.5 21.5t-21.5 50.5q0 31 21 52.5t51 21.5q31 0 52.5 -21.5zM235 287q7 -145 7 -212v-279h-119v279q0 79 6 193l3 64h100z" />
    <glyph glyph-name="cent" unicode="&#xa2;" horiz-adv-x="616" 
d="M159 40q-56 39 -86.5 101.5t-30.5 140.5t30.5 140.5t86.5 100.5t130 45v92h60v-91q88 -11 148.5 -60.5t80.5 -125.5h-130q-11 31 -39 56q-5 4 -21 15t-28 28l-11 -7v-391l11 -7q12 17 37 36l18 15q26 22 36 57h130q-19 -84 -81 -135t-151 -59v-92h-60v92q-74 10 -130 49z
M289 86v389l-12 6q-10 -16 -35 -35q-11 -8 -18 -15q-29 -26 -44.5 -64t-15.5 -85q0 -49 16 -88t45 -64l17 -15q25 -21 35 -36z" />
    <glyph glyph-name="sterling" unicode="&#xa3;" horiz-adv-x="625" 
d="M160.5 158.5q37.5 33.5 37.5 81.5q0 52 -46 135h-95v76h25q13 0 23 -2t25 -8l9 11q-26 40 -26 100q0 67 31 117.5t84 78t118 27.5q56 0 106 -22.5t84 -68.5t42 -113h-113q-9 51 -42.5 76.5t-74.5 25.5q-57 0 -90.5 -36t-33.5 -95q0 -50 16 -91h209v-76h-105
q-22 0 -37.5 1.5t-36.5 8.5l-8 -12q23 -44 33 -77t10 -63q0 -38 -18.5 -66.5t-62.5 -58.5l7 -17q26 10 44.5 12.5t45.5 2.5h252v-106h-521v118q71 7 108.5 40.5z" />
    <glyph glyph-name="currency" unicode="&#xa4;" horiz-adv-x="726" 
d="M85 129l69 68q-46 65 -46 144t45 143l-66 68l63 66l70 -69q30 23 67.5 34.5t76.5 11.5q78 0 143 -44l67 66l67 -65l-69 -68q23 -32 34.5 -68.5t11.5 -74.5q0 -79 -46 -145l67 -67l-66 -64l-66 66q-64 -45 -144 -45q-79 0 -144 45l-68 -67zM425 190q30 12 53 35
q47 47 47 115q0 31 -12 61t-36 54q-23 23 -53 35t-62 12t-61.5 -12t-52.5 -36q-23 -22 -34.5 -52t-11.5 -62q0 -69 46 -115q23 -23 53 -35t62 -12t62 12z" />
    <glyph glyph-name="yen" unicode="&#xa5;" horiz-adv-x="693" 
d="M285 142h-169v92h169v45h-169v92h57q20 0 33 -1.5t36 -8.5l7 12q-19 16 -28 27t-18 25l-204 338h148l163 -280q17 -30 23 -44.5t6 -37.5h16q0 23 6 39t23 44l162 279h147l-202 -338q-9 -14 -18 -25t-28 -27l7 -12q23 7 36 8.5t33 1.5h55v-92h-165v-45h165v-92h-165v-142
h-126v142z" />
    <glyph glyph-name="brokenbar" unicode="&#xa6;" horiz-adv-x="333" 
d="M116 444v428h102v-428h-102zM116 -110v425h102v-425h-102z" />
    <glyph glyph-name="section" unicode="&#xa7;" horiz-adv-x="713" 
d="M229 -214q-67 23 -113.5 73.5t-56.5 129.5h129q16 -61 65 -91t114 -30q66 0 106.5 28t40.5 77q0 40 -25 64.5t-62 37t-101 27.5q-9 1 -35 8q-95 22 -152 62.5t-57 126.5q0 90 83 129v21q-83 27 -83 124q0 63 35.5 108.5t96 69.5t134.5 24q107 0 181.5 -53.5t93.5 -153.5
h-122q-16 49 -57 75t-98 26q-60 0 -95.5 -24.5t-35.5 -67.5q0 -35 25.5 -56t60 -31.5t100.5 -24.5q72 -15 123 -36t86 -63.5t35 -113.5q0 -96 -75 -129v-21q41 -15 58 -46.5t17 -76.5q0 -99 -72.5 -157.5t-200.5 -58.5q-76 0 -143 23zM514 247q0 39 -23 62t-55.5 35
t-91.5 26q-28 6 -46 12q-36 -6 -59.5 -26.5t-23.5 -51.5q0 -33 19.5 -52.5t51.5 -30.5t89 -24q48 -9 98 -24q41 28 41 74z" />
    <glyph glyph-name="dieresis" unicode="&#xa8;" horiz-adv-x="380" 
d="M31.5 651.5q-22.5 20.5 -22.5 51.5t22.5 51.5t54.5 20.5q33 0 55 -20.5t22 -51.5t-22 -51.5t-55 -20.5q-32 0 -54.5 20.5zM239 651.5q-22 20.5 -22 51.5t22 51.5t55 20.5q32 0 54.5 -20.5t22.5 -51.5t-22.5 -51.5t-54.5 -20.5q-33 0 -55 20.5z" />
    <glyph glyph-name="copyright" unicode="&#xa9;" horiz-adv-x="885" 
d="M246.5 44q-89.5 52 -142 141.5t-52.5 195.5q0 107 52 196.5t141.5 142t196.5 52.5q106 0 195.5 -52t141.5 -142t52 -197q0 -106 -52.5 -195.5t-141.5 -141.5t-195 -52t-195.5 52zM596 117q70 41 110.5 111t40.5 153q0 84 -40.5 154.5t-110.5 111.5t-154 41t-154 -41
t-111 -111.5t-41 -154.5q0 -83 41 -153t111 -111t154 -41t154 41zM332 191q-50 29 -79 79.5t-29 110.5q0 61 29 111t79 79.5t110 29.5q46 0 89.5 -19.5t74.5 -54.5l-64 -56q-41 46 -103 46q-37 0 -67.5 -18t-48.5 -49t-18 -69q0 -37 18 -68.5t48.5 -49.5t67.5 -18
q62 0 103 46l64 -55q-30 -35 -73.5 -54.5t-90.5 -19.5q-60 0 -110 29z" />
    <glyph glyph-name="ordfeminine" unicode="&#xaa;" horiz-adv-x="440" 
d="M77 398q-35 30 -35 84q0 55 42 86q31 22 91 34l124 24q0 39 -21 60q-19 21 -58 21q-30 0 -52.5 -17t-28.5 -46h-83q10 63 56.5 96.5t107.5 33.5q35 0 66 -10t52 -30q29 -26 36.5 -61.5t7.5 -84.5v-213h-83v14q0 17 8 38l-10 5q-13 -25 -38 -43q-32 -21 -90 -21
q-57 0 -92 30zM241 447q27 13 41 36q12 21 18 54q2 9 5.5 13t9.5 5l-2 11l-78 -16l-39 -7q-42 -9 -58 -24q-13 -15 -13 -35q0 -23 17 -36t45 -13q30 0 54 12z" />
    <glyph glyph-name="guillemotleft" unicode="&#xab;" horiz-adv-x="574" 
d="M9 276l227 190v-101l-60 -50q-29 -24 -60 -32v-14q31 -9 60 -32l60 -50v-101zM276 276l227 190v-101l-60 -50q-29 -24 -60 -32v-14q31 -9 60 -32l60 -50v-101z" />
    <glyph glyph-name="uni00AD" unicode="&#xad;" horiz-adv-x="385" 
d="M0 284v87h385v-87h-385z" />
    <glyph glyph-name="registered" unicode="&#xae;" horiz-adv-x="489" 
d="M141.5 396q-46.5 27 -73.5 73.5t-27 102.5t27 102.5t73.5 73.5t102.5 27t102.5 -27t73.5 -73.5t27 -102.5t-27 -102.5t-73.5 -73.5t-102.5 -27t-102.5 27zM329 426q39 23 61.5 61.5t22.5 84.5t-22.5 85t-61.5 62t-85 23q-47 0 -86 -23t-61.5 -62t-22.5 -85t23 -85
t62 -61.5t85 -22.5t85 23zM162 690h102q35 0 55 -17t20 -52q0 -30 -14 -47q-4 -5 -12 -9t-15 -3l-1 -4q8 -7 10.5 -14t3.5 -8l34 -82h-49l-37 94h-52v-94h-45v236zM284.5 596q9.5 8 9.5 23q0 14 -9.5 22.5t-26.5 8.5h-51v-62h51q17 0 26.5 8z" />
    <glyph glyph-name="macron" unicode="&#xaf;" horiz-adv-x="317" 
d="M9 644v57h299v-57h-299z" />
    <glyph glyph-name="degree" unicode="&#xb0;" horiz-adv-x="465" 
d="M154 482.5q-36 21.5 -57.5 57.5t-21.5 78q0 43 21.5 79t57.5 57t78 21q43 0 79 -21t57 -57t21 -79q0 -42 -21 -78.5t-57 -57.5t-79 -21q-42 0 -78 21.5zM288.5 563q23.5 23 23.5 55q0 33 -23.5 56t-56.5 23t-56 -23t-23 -56q0 -32 23 -55t56 -23t56.5 23z" />
    <glyph glyph-name="plusminus" unicode="&#xb1;" horiz-adv-x="695" 
d="M302 160v154h-234v91h234v154h91v-154h234v-91h-234v-154h-91zM68 0v91h559v-91h-559z" />
    <glyph glyph-name="acute" unicode="&#xb4;" horiz-adv-x="261" 
d="M9 614l116 149h127l-148 -149h-95z" />
    <glyph glyph-name="paragraph" unicode="&#xb6;" horiz-adv-x="637" 
d="M161 365.5q-56 26.5 -89.5 74t-33.5 110.5q0 65 34 113.5t90 74t120 25.5h96v-873h-96v445q-65 4 -121 30.5zM468 -110v873h97v-873h-97z" />
    <glyph glyph-name="periodcentered" unicode="&#xb7;" horiz-adv-x="321" 
d="M104 343q-22 23 -22 55q0 33 22.5 55.5t54.5 22.5q33 0 56 -22.5t23 -55.5q0 -32 -23 -55t-56 -23t-55 23z" />
    <glyph glyph-name="cedilla" unicode="&#xb8;" horiz-adv-x="240" 
d="M9 -201v46q53 -19 88 -19q29 0 45.5 12t16.5 33q0 33 -35.5 45.5t-101.5 11.5l74 90h72q-17 -20 -30 -32.5t-37 -28.5l6 -9q12 2 31 2q29 0 45 -8q48 -20 48 -68q0 -43 -35.5 -66t-92.5 -23q-46 0 -94 14z" />
    <glyph glyph-name="ordmasculine" unicode="&#xba;" horiz-adv-x="478" 
d="M136.5 394q-44.5 26 -69.5 72.5t-25 106.5q0 58 25 104t69.5 71.5t101.5 25.5q58 0 103 -26t70 -71.5t25 -103.5q0 -60 -25 -106.5t-70 -72.5t-103 -26q-57 0 -101.5 26zM319.5 477.5q31.5 37.5 31.5 95.5q0 56 -31.5 92.5t-81.5 36.5q-49 0 -80.5 -36.5t-31.5 -92.5
q0 -59 31.5 -96t80.5 -37q50 0 81.5 37.5z" />
    <glyph glyph-name="guillemotright" unicode="&#xbb;" horiz-adv-x="574" 
d="M71 187l60 50q29 23 60 32v14q-31 8 -60 32l-60 50v101l227 -190l-227 -190v101zM338 187l60 50q29 23 60 32v14q-31 8 -60 32l-60 50v101l227 -190l-227 -190v101z" />
    <glyph glyph-name="questiondown" unicode="&#xbf;" horiz-adv-x="521" 
d="M313 547.5q21 -21.5 21 -51.5q0 -29 -21.5 -51t-51.5 -22q-29 0 -51 21.5t-22 50.5q0 31 21.5 52.5t51.5 21.5q31 0 52 -21.5zM299 203.5q-15 -37.5 -36.5 -58.5t-55.5 -46q-39 -27 -57 -50t-18 -63q0 -52 33.5 -78.5t88.5 -26.5q61 0 96 35t40 100h107
q-3 -72 -35 -124.5t-85.5 -80t-121.5 -27.5q-66 0 -118.5 23.5t-83.5 70t-31 114.5q0 44 12.5 74t30.5 48.5t49 41.5q28 21 45 37.5t29.5 42t14.5 61.5l4 37h107v-37q0 -56 -15 -93.5z" />
    <glyph glyph-name="Agrave" unicode="&#xc0;" horiz-adv-x="704" 
d="M9 0l273 763h140l273 -763h-132l-56 167h-309l-57 -167h-132zM469 278l-90 268q-19 59 -19 92h-16q0 -36 -18 -92l-91 -268h234zM407 818h-95l-148 149h127z" />
    <glyph glyph-name="Aacute" unicode="&#xc1;" horiz-adv-x="704" 
d="M9 0l273 763h140l273 -763h-132l-56 167h-309l-57 -167h-132zM469 278l-90 268q-19 59 -19 92h-16q0 -36 -18 -92l-91 -268h234zM297 818l116 149h127l-148 -149h-95z" />
    <glyph glyph-name="Acircumflex" unicode="&#xc2;" horiz-adv-x="704" 
d="M9 0l273 763h140l273 -763h-132l-56 167h-309l-57 -167h-132zM469 278l-90 268q-19 59 -19 92h-16q0 -36 -18 -92l-91 -268h234zM345 995h14l165 -173h-111l-27 34q-27 34 -27 55h-14q0 -21 -27 -55l-27 -34h-111z" />
    <glyph glyph-name="Atilde" unicode="&#xc3;" horiz-adv-x="704" 
d="M9 0l273 763h140l273 -763h-132l-56 167h-309l-57 -167h-132zM469 278l-90 268q-19 59 -19 92h-16q0 -36 -18 -92l-91 -268h234zM366 825q-21 13 -43 36q-14 15 -22.5 21.5t-19.5 6.5q-31 0 -36 -74h-76q3 73 34 115t83 42q30 0 49.5 -12.5t43.5 -36.5q14 -14 23.5 -21
t19.5 -7q14 0 23 18t10 54h78q-5 -79 -31 -117t-81 -38q-34 0 -55 13z" />
    <glyph glyph-name="Adieresis" unicode="&#xc4;" horiz-adv-x="704" 
d="M9 0l273 763h140l273 -763h-132l-56 167h-309l-57 -167h-132zM469 278l-90 268q-19 59 -19 92h-16q0 -36 -18 -92l-91 -268h234zM196 826.5q-21 19.5 -21 49.5t21.5 50t51.5 20t51.5 -20t21.5 -50q0 -29 -21.5 -49t-51.5 -20q-31 0 -52 19.5zM403.5 826.5
q-21.5 19.5 -21.5 49.5t21.5 50t52.5 20q30 0 51 -20t21 -50t-21 -49.5t-51 -19.5q-31 0 -52.5 19.5z" />
    <glyph glyph-name="Aring" unicode="&#xc5;" horiz-adv-x="704" 
d="M239 768q-11 24 -11 51q0 52 36 88t88 36q33 0 62 -16.5t46 -45t17 -62.5q0 -27 -11 -51t-31 -40l260 -728h-132l-56 167h-309l-57 -167h-132l261 728q-20 16 -31 40zM391 780.5q15 15.5 15 40.5q0 22 -14.5 37t-39.5 15q-23 0 -38 -15t-15 -37q0 -25 15 -40.5t38 -15.5
q24 0 39 15.5zM469 278l-90 270q-19 57 -19 91h-16q0 -37 -18 -91l-91 -270h234z" />
    <glyph glyph-name="AE" unicode="&#xc6;" horiz-adv-x="1054" 
d="M9 0l273 763h490l41 -114h-349l76 -210h349l39 -113h-348l76 -212h349l40 -114h-484l-54 167h-309l-57 -167h-132zM469 278l-90 270q-19 57 -19 91h-16q0 -37 -18 -91l-91 -270h234z" />
    <glyph glyph-name="Ccedilla" unicode="&#xc7;" horiz-adv-x="760" 
d="M526 136q48 36 60 106h139q-18 -118 -101 -186.5t-218 -68.5h-7q-18 -16 -38 -30l6 -9q12 2 31 2q29 0 45 -8q48 -20 48 -68q0 -43 -35.5 -66t-92.5 -23q-46 0 -94 14v46q53 -19 88 -19q29 0 45.5 12t16.5 33q0 33 -35.5 45.5t-101.5 11.5l53 64q-96 16 -162 72
t-98 138.5t-32 179.5q0 108 40 197.5t121.5 142.5t201.5 53q135 0 218.5 -66t100.5 -176h-139q-12 61 -60.5 95t-121.5 34q-110 0 -170 -76.5t-60 -203.5t60 -204.5t170 -77.5q74 0 122 36z" />
    <glyph glyph-name="Egrave" unicode="&#xc8;" horiz-adv-x="619" 
d="M71 0v763h505v-114h-378v-210h336v-113h-336v-212h378v-114h-505zM379 818h-95l-148 149h127z" />
    <glyph glyph-name="Eacute" unicode="&#xc9;" horiz-adv-x="619" 
d="M71 0v763h505v-114h-378v-210h336v-113h-336v-212h378v-114h-505zM269 818l116 149h127l-148 -149h-95z" />
    <glyph glyph-name="Ecircumflex" unicode="&#xca;" horiz-adv-x="619" 
d="M71 0v763h505v-114h-378v-210h336v-113h-336v-212h378v-114h-505zM317 995h14l165 -173h-111l-27 34q-27 34 -27 55h-14q0 -21 -27 -55l-27 -34h-111z" />
    <glyph glyph-name="Edieresis" unicode="&#xcb;" horiz-adv-x="619" 
d="M71 0v763h505v-114h-378v-210h336v-113h-336v-212h378v-114h-505zM168 826.5q-21 19.5 -21 49.5t21.5 50t51.5 20t51.5 -20t21.5 -50q0 -29 -21.5 -49t-51.5 -20q-31 0 -52 19.5zM375.5 826.5q-21.5 19.5 -21.5 49.5t21.5 50t52.5 20q30 0 51 -20t21 -50t-21 -49.5
t-51 -19.5q-31 0 -52.5 19.5z" />
    <glyph glyph-name="Igrave" unicode="&#xcc;" horiz-adv-x="271" 
d="M71 0v763h127v-763h-127zM190 818h-95l-148 149h127z" />
    <glyph glyph-name="Iacute" unicode="&#xcd;" horiz-adv-x="271" 
d="M71 0v763h127v-763h-127zM80 818l116 149h127l-148 -149h-95z" />
    <glyph glyph-name="Icircumflex" unicode="&#xce;" horiz-adv-x="271" 
d="M71 0v763h127v-763h-127zM128 995h14l165 -173h-111l-27 34q-27 34 -27 55h-14q0 -21 -27 -55l-27 -34h-111z" />
    <glyph glyph-name="Idieresis" unicode="&#xcf;" horiz-adv-x="271" 
d="M71 0v763h127v-763h-127zM-21 826.5q-21 19.5 -21 49.5t21.5 50t51.5 20t51.5 -20t21.5 -50q0 -29 -21.5 -49t-51.5 -20q-31 0 -52 19.5zM186.5 826.5q-21.5 19.5 -21.5 49.5t21.5 50t52.5 20q30 0 51 -20t21 -50t-21 -49.5t-51 -19.5q-31 0 -52.5 19.5z" />
    <glyph glyph-name="Eth" unicode="&#xd0;" horiz-adv-x="730" 
d="M584 664q102 -99 102 -283q0 -183 -102.5 -282t-294.5 -99h-218v336h-67v91h67v336h219q192 0 294 -99zM487 174.5q72 60.5 72 206.5q0 138 -71.5 203t-199.5 65h-90v-222h220v-91h-220v-222h90q127 0 199 60.5z" />
    <glyph glyph-name="Ntilde" unicode="&#xd1;" horiz-adv-x="746" 
d="M71 763h154l272 -497q14 -25 22.5 -44.5t18.5 -53.5l16 3q-6 42 -6 94v498h126v-763h-153l-274 500q-13 23 -21.5 42.5t-17.5 52.5l-16 -4q6 -42 6 -93v-498h-127v763zM386 825q-21 13 -43 36q-14 15 -22.5 21.5t-19.5 6.5q-31 0 -36 -74h-76q3 73 34 115t83 42
q30 0 49.5 -12.5t43.5 -36.5q14 -14 23.5 -21t19.5 -7q14 0 23 18t10 54h78q-5 -79 -31 -117t-81 -38q-34 0 -55 13z" />
    <glyph glyph-name="Ograve" unicode="&#xd2;" horiz-adv-x="817" 
d="M206 40.5q-82 53.5 -122.5 143t-40.5 198.5t40.5 198t122.5 142t202 53q119 0 201.5 -53t123 -142.5t40.5 -197.5q0 -109 -40.5 -198.5t-123 -143t-201.5 -53.5q-120 0 -202 53.5zM580.5 178q61.5 77 61.5 204q0 126 -61.5 203t-172.5 77q-73 0 -126 -35.5t-80.5 -99
t-27.5 -145.5q0 -83 27.5 -146.5t80.5 -99t126 -35.5q111 0 172.5 77zM463 818h-95l-148 149h127z" />
    <glyph glyph-name="Oacute" unicode="&#xd3;" horiz-adv-x="817" 
d="M206 40.5q-82 53.5 -122.5 143t-40.5 198.5t40.5 198t122.5 142t202 53q119 0 201.5 -53t123 -142.5t40.5 -197.5q0 -109 -40.5 -198.5t-123 -143t-201.5 -53.5q-120 0 -202 53.5zM580.5 178q61.5 77 61.5 204q0 126 -61.5 203t-172.5 77q-73 0 -126 -35.5t-80.5 -99
t-27.5 -145.5q0 -83 27.5 -146.5t80.5 -99t126 -35.5q111 0 172.5 77zM352 818l116 149h127l-148 -149h-95z" />
    <glyph glyph-name="Ocircumflex" unicode="&#xd4;" horiz-adv-x="817" 
d="M206 40.5q-82 53.5 -122.5 143t-40.5 198.5t40.5 198t122.5 142t202 53q119 0 201.5 -53t123 -142.5t40.5 -197.5q0 -109 -40.5 -198.5t-123 -143t-201.5 -53.5q-120 0 -202 53.5zM580.5 178q61.5 77 61.5 204q0 126 -61.5 203t-172.5 77q-73 0 -126 -35.5t-80.5 -99
t-27.5 -145.5q0 -83 27.5 -146.5t80.5 -99t126 -35.5q111 0 172.5 77zM401 995h14l165 -173h-111l-27 34q-27 34 -27 55h-14q0 -21 -27 -55l-27 -34h-111z" />
    <glyph glyph-name="Otilde" unicode="&#xd5;" horiz-adv-x="817" 
d="M206 40.5q-82 53.5 -122.5 143t-40.5 198.5t40.5 198t122.5 142t202 53q119 0 201.5 -53t123 -142.5t40.5 -197.5q0 -109 -40.5 -198.5t-123 -143t-201.5 -53.5q-120 0 -202 53.5zM580.5 178q61.5 77 61.5 204q0 126 -61.5 203t-172.5 77q-73 0 -126 -35.5t-80.5 -99
t-27.5 -145.5q0 -83 27.5 -146.5t80.5 -99t126 -35.5q111 0 172.5 77zM421 825q-21 13 -43 36q-14 15 -22.5 21.5t-19.5 6.5q-31 0 -36 -74h-76q3 73 34 115t83 42q30 0 49.5 -12.5t43.5 -36.5q14 -14 23.5 -21t19.5 -7q14 0 23 18t10 54h78q-5 -79 -31 -117t-81 -38
q-34 0 -55 13z" />
    <glyph glyph-name="Odieresis" unicode="&#xd6;" horiz-adv-x="817" 
d="M206 40.5q-82 53.5 -122.5 143t-40.5 198.5t40.5 198t122.5 142t202 53q119 0 201.5 -53t123 -142.5t40.5 -197.5q0 -109 -40.5 -198.5t-123 -143t-201.5 -53.5q-120 0 -202 53.5zM580.5 178q61.5 77 61.5 204q0 126 -61.5 203t-172.5 77q-73 0 -126 -35.5t-80.5 -99
t-27.5 -145.5q0 -83 27.5 -146.5t80.5 -99t126 -35.5q111 0 172.5 77zM252 826.5q-21 19.5 -21 49.5t21.5 50t51.5 20t51.5 -20t21.5 -50q0 -29 -21.5 -49t-51.5 -20q-31 0 -52 19.5zM459.5 826.5q-21.5 19.5 -21.5 49.5t21.5 50t52.5 20q30 0 51 -20t21 -50t-21 -49.5
t-51 -19.5q-31 0 -52.5 19.5z" />
    <glyph glyph-name="multiply" unicode="&#xd7;" horiz-adv-x="567" 
d="M118 108l-64 64l165 166l-165 165l64 64l166 -165l165 165l64 -64l-165 -165l165 -166l-64 -64l-165 165z" />
    <glyph glyph-name="Oslash" unicode="&#xd8;" horiz-adv-x="817" 
d="M756.5 512.5q16.5 -62.5 16.5 -130.5q0 -109 -40.5 -198.5t-123 -143t-201.5 -53.5q-154 0 -250 91l-56 -56l-55 54l62 62q-33 50 -49.5 112.5t-16.5 131.5q0 109 40.5 198t122.5 142t202 53q154 0 249 -90l57 57l55 -55l-62 -62q33 -50 49.5 -112.5zM203 232l366 366
q-62 64 -161 64q-73 0 -126 -35.5t-80.5 -99t-27.5 -145.5q0 -86 29 -150zM580.5 178q61.5 77 61.5 204q0 84 -29 150l-366 -366q62 -65 161 -65q111 0 172.5 77z" />
    <glyph glyph-name="Ugrave" unicode="&#xd9;" horiz-adv-x="728" 
d="M138 62.5q-74 75.5 -74 209.5v491h127v-491q0 -172 173 -172q172 0 172 172v491h127v-491q0 -134 -73.5 -209.5t-225.5 -75.5t-226 75.5zM419 818h-95l-148 149h127z" />
    <glyph glyph-name="Uacute" unicode="&#xda;" horiz-adv-x="728" 
d="M138 62.5q-74 75.5 -74 209.5v491h127v-491q0 -172 173 -172q172 0 172 172v491h127v-491q0 -134 -73.5 -209.5t-225.5 -75.5t-226 75.5zM308 818l116 149h127l-148 -149h-95z" />
    <glyph glyph-name="Ucircumflex" unicode="&#xdb;" horiz-adv-x="728" 
d="M138 62.5q-74 75.5 -74 209.5v491h127v-491q0 -172 173 -172q172 0 172 172v491h127v-491q0 -134 -73.5 -209.5t-225.5 -75.5t-226 75.5zM357 995h14l165 -173h-111l-27 34q-27 34 -27 55h-14q0 -21 -27 -55l-27 -34h-111z" />
    <glyph glyph-name="Udieresis" unicode="&#xdc;" horiz-adv-x="728" 
d="M138 62.5q-74 75.5 -74 209.5v491h127v-491q0 -172 173 -172q172 0 172 172v491h127v-491q0 -134 -73.5 -209.5t-225.5 -75.5t-226 75.5zM208 826.5q-21 19.5 -21 49.5t21.5 50t51.5 20t51.5 -20t21.5 -50q0 -29 -21.5 -49t-51.5 -20q-31 0 -52 19.5zM415.5 826.5
q-21.5 19.5 -21.5 49.5t21.5 50t52.5 20q30 0 51 -20t21 -50t-21 -49.5t-51 -19.5q-31 0 -52.5 19.5z" />
    <glyph glyph-name="Yacute" unicode="&#xdd;" horiz-adv-x="692" 
d="M280 296l-281 467h148l162 -280q17 -29 23 -44t6 -38h16q0 23 5.5 38.5t22.5 44.5l163 279h147l-279 -467v-296h-133v296zM290 818l116 149h127l-148 -149h-95z" />
    <glyph glyph-name="Thorn" unicode="&#xde;" horiz-adv-x="653" 
d="M71 763h126v-105h188q112 0 177 -55t65 -164q0 -105 -66 -165t-176 -60h-188v-214h-126v763zM467.5 353.5q34.5 28.5 34.5 81.5q0 52 -34.5 80.5t-96.5 28.5h-174v-219h174q62 0 96.5 28.5z" />
    <glyph glyph-name="germandbls" unicode="&#xdf;" horiz-adv-x="684" 
d="M148 699.5q72 74.5 207 74.5q82 0 140 -27t88 -72t30 -97q0 -71 -36 -116q-24 -29 -72 -43v-12q53 -9 79 -30q68 -49 68 -159q0 -127 -86 -172.5t-183 -45.5h-77v105h68q75 0 117.5 31.5t42.5 90.5q0 60 -38 89.5t-106 29.5h-84v100h62q60 0 93.5 29.5t33.5 81.5
q0 50 -38 81t-101 31q-75 0 -118.5 -45t-43.5 -135v-489h-118v485q0 140 72 214.5z" />
    <glyph glyph-name="agrave" unicode="&#xe0;" horiz-adv-x="586" 
d="M92 32q-50 43 -50 120q0 78 61 123q44 32 130 49l177 33q-1 56 -30 86q-31 31 -84 31q-43 0 -75 -24.5t-40 -66.5h-118q14 90 80.5 138t153.5 48q50 0 93.5 -14t74.5 -42q41 -38 51.5 -89t10.5 -121v-303h-118v19q0 23 12 55l-14 7q-21 -37 -54 -61q-46 -31 -129 -31
q-82 0 -132 43zM327 102q41 21 58 51q10 18 15 34t11 43q3 13 8 19.5t14 7.5l-3 16q-81 -18 -112 -23l-56 -11q-58 -12 -82 -34q-20 -20 -20 -50q0 -33 24.5 -51.5t65.5 -18.5t77 17zM355 614h-95l-148 149h127z" />
    <glyph glyph-name="aacute" unicode="&#xe1;" horiz-adv-x="586" 
d="M92 32q-50 43 -50 120q0 78 61 123q44 32 130 49l177 33q-1 56 -30 86q-31 31 -84 31q-43 0 -75 -24.5t-40 -66.5h-118q14 90 80.5 138t153.5 48q50 0 93.5 -14t74.5 -42q41 -38 51.5 -89t10.5 -121v-303h-118v19q0 23 12 55l-14 7q-21 -37 -54 -61q-46 -31 -129 -31
q-82 0 -132 43zM327 102q41 21 58 51q10 18 15 34t11 43q3 13 8 19.5t14 7.5l-3 16q-81 -18 -112 -23l-56 -11q-58 -12 -82 -34q-20 -20 -20 -50q0 -33 24.5 -51.5t65.5 -18.5t77 17zM244 614l116 149h127l-148 -149h-95z" />
    <glyph glyph-name="acircumflex" unicode="&#xe2;" horiz-adv-x="586" 
d="M92 32q-50 43 -50 120q0 78 61 123q44 32 130 49l177 33q-1 56 -30 86q-31 31 -84 31q-43 0 -75 -24.5t-40 -66.5h-118q14 90 80.5 138t153.5 48q50 0 93.5 -14t74.5 -42q41 -38 51.5 -89t10.5 -121v-303h-118v19q0 23 12 55l-14 7q-21 -37 -54 -61q-46 -31 -129 -31
q-82 0 -132 43zM327 102q41 21 58 51q10 18 15 34t11 43q3 13 8 19.5t14 7.5l-3 16q-81 -18 -112 -23l-56 -11q-58 -12 -82 -34q-20 -20 -20 -50q0 -33 24.5 -51.5t65.5 -18.5t77 17zM293 791h14l165 -173h-111l-27 34q-27 34 -27 55h-14q0 -21 -27 -55l-27 -34h-111z" />
    <glyph glyph-name="atilde" unicode="&#xe3;" horiz-adv-x="586" 
d="M92 32q-50 43 -50 120q0 78 61 123q44 32 130 49l177 33q-1 56 -30 86q-31 31 -84 31q-43 0 -75 -24.5t-40 -66.5h-118q14 90 80.5 138t153.5 48q50 0 93.5 -14t74.5 -42q41 -38 51.5 -89t10.5 -121v-303h-118v19q0 23 12 55l-14 7q-21 -37 -54 -61q-46 -31 -129 -31
q-82 0 -132 43zM327 102q41 21 58 51q10 18 15 34t11 43q3 13 8 19.5t14 7.5l-3 16q-81 -18 -112 -23l-56 -11q-58 -12 -82 -34q-20 -20 -20 -50q0 -33 24.5 -51.5t65.5 -18.5t77 17zM313 621q-21 13 -43 36q-14 15 -22.5 21.5t-19.5 6.5q-31 0 -36 -74h-76q3 73 34 115
t83 42q30 0 49.5 -12.5t43.5 -36.5q14 -14 23.5 -21t19.5 -7q14 0 23 18t10 54h78q-5 -79 -31 -117t-81 -38q-34 0 -55 13z" />
    <glyph glyph-name="adieresis" unicode="&#xe4;" horiz-adv-x="586" 
d="M92 32q-50 43 -50 120q0 78 61 123q44 32 130 49l177 33q-1 56 -30 86q-31 31 -84 31q-43 0 -75 -24.5t-40 -66.5h-118q14 90 80.5 138t153.5 48q50 0 93.5 -14t74.5 -42q41 -38 51.5 -89t10.5 -121v-303h-118v19q0 23 12 55l-14 7q-21 -37 -54 -61q-46 -31 -129 -31
q-82 0 -132 43zM327 102q41 21 58 51q10 18 15 34t11 43q3 13 8 19.5t14 7.5l-3 16q-81 -18 -112 -23l-56 -11q-58 -12 -82 -34q-20 -20 -20 -50q0 -33 24.5 -51.5t65.5 -18.5t77 17zM141.5 651.5q-22.5 20.5 -22.5 51.5t22.5 51.5t54.5 20.5q33 0 55 -20.5t22 -51.5
t-22 -51.5t-55 -20.5q-32 0 -54.5 20.5zM349 651.5q-22 20.5 -22 51.5t22 51.5t55 20.5q32 0 54.5 -20.5t22.5 -51.5t-22.5 -51.5t-54.5 -20.5q-33 0 -55 20.5z" />
    <glyph glyph-name="aring" unicode="&#xe5;" horiz-adv-x="586" 
d="M92 32q-50 43 -50 120q0 78 61 123q44 32 130 49l177 33q-1 56 -30 86q-31 31 -84 31q-43 0 -75 -24.5t-40 -66.5h-118q14 90 80.5 138t153.5 48q50 0 93.5 -14t74.5 -42q41 -38 51.5 -89t10.5 -121v-303h-118v19q0 23 12 55l-14 7q-21 -37 -54 -61q-46 -31 -129 -31
q-82 0 -132 43zM327 102q41 21 58 51q10 18 15 34t11 43q3 13 8 19.5t14 7.5l-3 16q-81 -18 -112 -23l-56 -11q-58 -12 -82 -34q-20 -20 -20 -50q0 -33 24.5 -51.5t65.5 -18.5t77 17zM236.5 592q-28.5 17 -45 46t-16.5 62q0 52 36.5 88t87.5 36t88 -36t37 -88t-36.5 -88.5
t-88.5 -36.5q-34 0 -62.5 17zM338 661.5q15 15.5 15 40.5q0 22 -14.5 37t-39.5 15q-23 0 -38 -15t-15 -37q0 -25 15 -40.5t38 -15.5q24 0 39 15.5z" />
    <glyph glyph-name="ae" unicode="&#xe6;" horiz-adv-x="1223" 
d="M92 32q-50 43 -50 120q0 78 61 123q44 32 130 49l177 33q-1 56 -30 86q-31 31 -84 31q-43 0 -75 -24.5t-40 -66.5h-118q14 90 80.5 138t153.5 48q50 0 93.5 -14t74.5 -42q41 -38 51.5 -89t10.5 -121v-303h-118v19q0 23 12 55l-14 7q-21 -37 -54 -61q-46 -31 -129 -31
q-82 0 -132 43zM327 102q41 21 58 51q10 18 15 34t11 43q3 13 8 19.5t14 7.5l-3 16q-81 -18 -112 -23l-56 -11q-58 -12 -82 -34q-20 -20 -20 -50q0 -33 24.5 -51.5t65.5 -18.5t77 17zM761.5 26.5q-63.5 37.5 -98.5 103t-35 147.5q0 76 31.5 143t94 108t150.5 41
q74 0 137.5 -31.5t102 -95.5t38.5 -157v-30h-370q-52 0 -72 3l-4 -16q9 -2 12.5 -7.5t7.5 -16.5q9 -21 11 -25q20 -47 57.5 -74t85.5 -27q51 0 87.5 26.5t52.5 66.5h122q-27 -87 -94 -141.5t-171 -54.5q-82 0 -145.5 37.5zM779.5 344.5q11.5 3.5 27.5 3.5h198
q17 0 29.5 -3.5t27.5 -12.5l10 13q-9 5 -11.5 9.5t-5.5 13.5q-2 14 -14 33q-20 35 -55 53.5t-78 18.5q-44 0 -78 -18.5t-55 -53.5q-8 -13 -14 -33q-2 -8 -5 -12.5t-12 -10.5l9 -13q15 9 26.5 12.5z" />
    <glyph glyph-name="ccedilla" unicode="&#xe7;" horiz-adv-x="614" 
d="M493 44q-67 -52 -163 -55q-19 -17 -40 -32l6 -9q12 2 31 2q29 0 45 -8q48 -20 48 -68q0 -43 -35.5 -66t-92.5 -23q-46 0 -94 14v46q53 -19 88 -19q29 0 45.5 12t16.5 33q0 33 -35.5 45.5t-101.5 11.5l54 66q-102 17 -162.5 95t-60.5 193q0 83 35 148.5t98 102t145 36.5
q99 0 167.5 -50t88.5 -136h-128q-14 42 -47.5 65t-80.5 23q-46 0 -82 -23.5t-56 -66.5t-20 -99q0 -58 20 -102t56 -68t82 -24q51 0 85.5 26t45.5 71h128q-19 -89 -86 -141z" />
    <glyph glyph-name="egrave" unicode="&#xe8;" horiz-adv-x="637" 
d="M175.5 26.5q-63.5 37.5 -98.5 103t-35 147.5q0 76 31.5 143t94 108t150.5 41q74 0 137.5 -31.5t102 -95.5t38.5 -157v-30h-370q-52 0 -72 3l-4 -16q9 -2 12.5 -7.5t7.5 -16.5q9 -21 11 -25q20 -47 57.5 -74t85.5 -27q51 0 87.5 26.5t52.5 66.5h122q-27 -87 -94 -141.5
t-171 -54.5q-82 0 -145.5 37.5zM193.5 344.5q11.5 3.5 27.5 3.5h198q17 0 29.5 -3.5t27.5 -12.5l10 13q-9 5 -11.5 9.5t-5.5 13.5q-2 14 -14 33q-20 35 -55 53.5t-78 18.5q-44 0 -78 -18.5t-55 -53.5q-8 -13 -14 -33q-2 -8 -5 -12.5t-12 -10.5l9 -13q15 9 26.5 12.5z
M373 614h-95l-148 149h127z" />
    <glyph glyph-name="eacute" unicode="&#xe9;" horiz-adv-x="637" 
d="M175.5 26.5q-63.5 37.5 -98.5 103t-35 147.5q0 76 31.5 143t94 108t150.5 41q74 0 137.5 -31.5t102 -95.5t38.5 -157v-30h-370q-52 0 -72 3l-4 -16q9 -2 12.5 -7.5t7.5 -16.5q9 -21 11 -25q20 -47 57.5 -74t85.5 -27q51 0 87.5 26.5t52.5 66.5h122q-27 -87 -94 -141.5
t-171 -54.5q-82 0 -145.5 37.5zM193.5 344.5q11.5 3.5 27.5 3.5h198q17 0 29.5 -3.5t27.5 -12.5l10 13q-9 5 -11.5 9.5t-5.5 13.5q-2 14 -14 33q-20 35 -55 53.5t-78 18.5q-44 0 -78 -18.5t-55 -53.5q-8 -13 -14 -33q-2 -8 -5 -12.5t-12 -10.5l9 -13q15 9 26.5 12.5z
M263 614l116 149h127l-148 -149h-95z" />
    <glyph glyph-name="ecircumflex" unicode="&#xea;" horiz-adv-x="637" 
d="M175.5 26.5q-63.5 37.5 -98.5 103t-35 147.5q0 76 31.5 143t94 108t150.5 41q74 0 137.5 -31.5t102 -95.5t38.5 -157v-30h-370q-52 0 -72 3l-4 -16q9 -2 12.5 -7.5t7.5 -16.5q9 -21 11 -25q20 -47 57.5 -74t85.5 -27q51 0 87.5 26.5t52.5 66.5h122q-27 -87 -94 -141.5
t-171 -54.5q-82 0 -145.5 37.5zM193.5 344.5q11.5 3.5 27.5 3.5h198q17 0 29.5 -3.5t27.5 -12.5l10 13q-9 5 -11.5 9.5t-5.5 13.5q-2 14 -14 33q-20 35 -55 53.5t-78 18.5q-44 0 -78 -18.5t-55 -53.5q-8 -13 -14 -33q-2 -8 -5 -12.5t-12 -10.5l9 -13q15 9 26.5 12.5z
M311 791h14l165 -173h-111l-27 34q-27 34 -27 55h-14q0 -21 -27 -55l-27 -34h-111z" />
    <glyph glyph-name="edieresis" unicode="&#xeb;" horiz-adv-x="637" 
d="M175.5 26.5q-63.5 37.5 -98.5 103t-35 147.5q0 76 31.5 143t94 108t150.5 41q74 0 137.5 -31.5t102 -95.5t38.5 -157v-30h-370q-52 0 -72 3l-4 -16q9 -2 12.5 -7.5t7.5 -16.5q9 -21 11 -25q20 -47 57.5 -74t85.5 -27q51 0 87.5 26.5t52.5 66.5h122q-27 -87 -94 -141.5
t-171 -54.5q-82 0 -145.5 37.5zM193.5 344.5q11.5 3.5 27.5 3.5h198q17 0 29.5 -3.5t27.5 -12.5l10 13q-9 5 -11.5 9.5t-5.5 13.5q-2 14 -14 33q-20 35 -55 53.5t-78 18.5q-44 0 -78 -18.5t-55 -53.5q-8 -13 -14 -33q-2 -8 -5 -12.5t-12 -10.5l9 -13q15 9 26.5 12.5z
M159.5 651.5q-22.5 20.5 -22.5 51.5t22.5 51.5t54.5 20.5q33 0 55 -20.5t22 -51.5t-22 -51.5t-55 -20.5q-32 0 -54.5 20.5zM367 651.5q-22 20.5 -22 51.5t22 51.5t55 20.5q32 0 54.5 -20.5t22.5 -51.5t-22.5 -51.5t-54.5 -20.5q-33 0 -55 20.5z" />
    <glyph glyph-name="igrave" unicode="&#xec;" horiz-adv-x="247" 
d="M65 0v559h118v-559h-118zM179 614h-95l-148 149h127z" />
    <glyph glyph-name="iacute" unicode="&#xed;" horiz-adv-x="247" 
d="M65 0v559h118v-559h-118zM69 614l116 149h127l-148 -149h-95z" />
    <glyph glyph-name="icircumflex" unicode="&#xee;" horiz-adv-x="247" 
d="M65 0v559h118v-559h-118zM117 791h14l165 -173h-111l-27 34q-27 34 -27 55h-14q0 -21 -27 -55l-27 -34h-111z" />
    <glyph glyph-name="idieresis" unicode="&#xef;" horiz-adv-x="247" 
d="M65 0v559h118v-559h-118zM-34.5 651.5q-22.5 20.5 -22.5 51.5t22.5 51.5t54.5 20.5q33 0 55 -20.5t22 -51.5t-22 -51.5t-55 -20.5q-32 0 -54.5 20.5zM173 651.5q-22 20.5 -22 51.5t22 51.5t55 20.5q32 0 54.5 -20.5t22.5 -51.5t-22.5 -51.5t-54.5 -20.5q-33 0 -55 20.5z
" />
    <glyph glyph-name="eth" unicode="&#xf0;" horiz-adv-x="611" 
d="M148.5 22q-58.5 34 -91 94t-32.5 136q0 75 30.5 131t85.5 86.5t127 30.5q52 0 99.5 -21t83.5 -64q0 63 -16.5 116t-47.5 88l-129 -74l-32 55l101 58q-37 14 -68 14q-46 0 -88 -20l-54 93q64 30 146 30q101 0 172 -54l74 42l32 -55l-59 -34q84 -107 84 -307
q0 -179 -72.5 -279t-211.5 -100q-75 0 -133.5 34zM361.5 115.5q34.5 20.5 54 56.5t19.5 81q0 41 -20 75t-54 53.5t-76 19.5t-75 -19.5t-51.5 -53.5t-18.5 -75q0 -43 18.5 -79.5t51.5 -57.5t74 -21q43 0 77.5 20.5z" />
    <glyph glyph-name="ntilde" unicode="&#xf1;" horiz-adv-x="595" 
d="M65 559h118v-24q0 -15 -3 -25t-11 -21l14 -9q33 48 69.5 68.5t86.5 20.5q126 0 171 -91q17 -33 21 -67t4 -84v-327h-119v327q0 44 -6.5 72t-21.5 44q-24 27 -76 27q-60 0 -91 -36q-20 -23 -29 -61t-9 -104v-269h-118v559zM312 621q-21 13 -43 36q-14 15 -22.5 21.5
t-19.5 6.5q-31 0 -36 -74h-76q3 73 34 115t83 42q30 0 49.5 -12.5t43.5 -36.5q14 -14 23.5 -21t19.5 -7q14 0 23 18t10 54h78q-5 -79 -31 -117t-81 -38q-34 0 -55 13z" />
    <glyph glyph-name="ograve" unicode="&#xf2;" horiz-adv-x="647" 
d="M177 26q-64 37 -99.5 103.5t-35.5 152.5q0 83 35.5 148.5t99.5 102t146 36.5t146 -36.5t100 -102t36 -148.5q0 -85 -35.5 -151.5t-99.5 -104t-147 -37.5q-82 0 -146 37zM406 116.5q37 24.5 57.5 67.5t20.5 98q0 52 -20.5 94.5t-57.5 66.5t-83 24t-83 -23.5t-57.5 -66
t-20.5 -95.5q0 -56 21 -99t57.5 -67t82.5 -24t83 24.5zM378 614h-95l-148 149h127z" />
    <glyph glyph-name="oacute" unicode="&#xf3;" horiz-adv-x="647" 
d="M177 26q-64 37 -99.5 103.5t-35.5 152.5q0 83 35.5 148.5t99.5 102t146 36.5t146 -36.5t100 -102t36 -148.5q0 -85 -35.5 -151.5t-99.5 -104t-147 -37.5q-82 0 -146 37zM406 116.5q37 24.5 57.5 67.5t20.5 98q0 52 -20.5 94.5t-57.5 66.5t-83 24t-83 -23.5t-57.5 -66
t-20.5 -95.5q0 -56 21 -99t57.5 -67t82.5 -24t83 24.5zM268 614l116 149h127l-148 -149h-95z" />
    <glyph glyph-name="ocircumflex" unicode="&#xf4;" horiz-adv-x="647" 
d="M177 26q-64 37 -99.5 103.5t-35.5 152.5q0 83 35.5 148.5t99.5 102t146 36.5t146 -36.5t100 -102t36 -148.5q0 -85 -35.5 -151.5t-99.5 -104t-147 -37.5q-82 0 -146 37zM406 116.5q37 24.5 57.5 67.5t20.5 98q0 52 -20.5 94.5t-57.5 66.5t-83 24t-83 -23.5t-57.5 -66
t-20.5 -95.5q0 -56 21 -99t57.5 -67t82.5 -24t83 24.5zM316 791h14l165 -173h-111l-27 34q-27 34 -27 55h-14q0 -21 -27 -55l-27 -34h-111z" />
    <glyph glyph-name="otilde" unicode="&#xf5;" horiz-adv-x="647" 
d="M177 26q-64 37 -99.5 103.5t-35.5 152.5q0 83 35.5 148.5t99.5 102t146 36.5t146 -36.5t100 -102t36 -148.5q0 -85 -35.5 -151.5t-99.5 -104t-147 -37.5q-82 0 -146 37zM406 116.5q37 24.5 57.5 67.5t20.5 98q0 52 -20.5 94.5t-57.5 66.5t-83 24t-83 -23.5t-57.5 -66
t-20.5 -95.5q0 -56 21 -99t57.5 -67t82.5 -24t83 24.5zM337 621q-21 13 -43 36q-14 15 -22.5 21.5t-19.5 6.5q-31 0 -36 -74h-76q3 73 34 115t83 42q30 0 49.5 -12.5t43.5 -36.5q14 -14 23.5 -21t19.5 -7q14 0 23 18t10 54h78q-5 -79 -31 -117t-81 -38q-34 0 -55 13z" />
    <glyph glyph-name="odieresis" unicode="&#xf6;" horiz-adv-x="647" 
d="M177 26q-64 37 -99.5 103.5t-35.5 152.5q0 83 35.5 148.5t99.5 102t146 36.5t146 -36.5t100 -102t36 -148.5q0 -85 -35.5 -151.5t-99.5 -104t-147 -37.5q-82 0 -146 37zM406 116.5q37 24.5 57.5 67.5t20.5 98q0 52 -20.5 94.5t-57.5 66.5t-83 24t-83 -23.5t-57.5 -66
t-20.5 -95.5q0 -56 21 -99t57.5 -67t82.5 -24t83 24.5zM164.5 651.5q-22.5 20.5 -22.5 51.5t22.5 51.5t54.5 20.5q33 0 55 -20.5t22 -51.5t-22 -51.5t-55 -20.5q-32 0 -54.5 20.5zM372 651.5q-22 20.5 -22 51.5t22 51.5t55 20.5q32 0 54.5 -20.5t22.5 -51.5t-22.5 -51.5
t-54.5 -20.5q-33 0 -55 20.5z" />
    <glyph glyph-name="divide" unicode="&#xf7;" horiz-adv-x="500" 
d="M183 454v138h133v-138h-133zM26 294v91h447v-91h-447zM183 76v140h133v-140h-133z" />
    <glyph glyph-name="oslash" unicode="&#xf8;" horiz-adv-x="647" 
d="M605 282q0 -85 -35.5 -151.5t-99.5 -104t-147 -37.5q-104 0 -178 58l-47 -47l-55 54l50 50q-51 74 -51 178q0 83 35.5 148.5t99.5 102t146 36.5q104 0 178 -58l48 48l54 -55l-49 -49q51 -73 51 -173zM180 190l241 242q-41 35 -98 35q-46 0 -83 -23.5t-57.5 -66
t-20.5 -95.5q0 -51 18 -92zM406 116.5q37 24.5 57.5 67.5t20.5 98q0 47 -17 86l-242 -241q43 -35 98 -35q46 0 83 24.5z" />
    <glyph glyph-name="ugrave" unicode="&#xf9;" horiz-adv-x="596" 
d="M86 81q-16 33 -20 67t-4 84v327h118v-328q0 -84 29 -116q26 -27 76 -27q59 0 90 36q20 24 29.5 62t9.5 103v270h118v-559h-118v24q0 15 3 25.5t11 19.5l-14 10q-34 -49 -70.5 -69.5t-86.5 -20.5q-125 0 -171 92zM353 614h-95l-148 149h127z" />
    <glyph glyph-name="uacute" unicode="&#xfa;" horiz-adv-x="596" 
d="M86 81q-16 33 -20 67t-4 84v327h118v-328q0 -84 29 -116q26 -27 76 -27q59 0 90 36q20 24 29.5 62t9.5 103v270h118v-559h-118v24q0 15 3 25.5t11 19.5l-14 10q-34 -49 -70.5 -69.5t-86.5 -20.5q-125 0 -171 92zM243 614l116 149h127l-148 -149h-95z" />
    <glyph glyph-name="ucircumflex" unicode="&#xfb;" horiz-adv-x="596" 
d="M86 81q-16 33 -20 67t-4 84v327h118v-328q0 -84 29 -116q26 -27 76 -27q59 0 90 36q20 24 29.5 62t9.5 103v270h118v-559h-118v24q0 15 3 25.5t11 19.5l-14 10q-34 -49 -70.5 -69.5t-86.5 -20.5q-125 0 -171 92zM291 791h14l165 -173h-111l-27 34q-27 34 -27 55h-14
q0 -21 -27 -55l-27 -34h-111z" />
    <glyph glyph-name="udieresis" unicode="&#xfc;" horiz-adv-x="596" 
d="M86 81q-16 33 -20 67t-4 84v327h118v-328q0 -84 29 -116q26 -27 76 -27q59 0 90 36q20 24 29.5 62t9.5 103v270h118v-559h-118v24q0 15 3 25.5t11 19.5l-14 10q-34 -49 -70.5 -69.5t-86.5 -20.5q-125 0 -171 92zM139.5 651.5q-22.5 20.5 -22.5 51.5t22.5 51.5t54.5 20.5
q33 0 55 -20.5t22 -51.5t-22 -51.5t-55 -20.5q-32 0 -54.5 20.5zM347 651.5q-22 20.5 -22 51.5t22 51.5t55 20.5q32 0 54.5 -20.5t22.5 -51.5t-22.5 -51.5t-54.5 -20.5q-33 0 -55 20.5z" />
    <glyph glyph-name="yacute" unicode="&#xfd;" horiz-adv-x="560" 
d="M70 -103h59q31 0 46.5 9.5t28.5 41.5l20 54l-210 557h128l122 -352q9 -26 14 -67h12q3 35 14 67l112 352h128l-228 -640q-25 -70 -59 -96.5t-97 -26.5h-90v101zM222 614l116 149h127l-148 -149h-95z" />
    <glyph glyph-name="thorn" unicode="&#xfe;" horiz-adv-x="640" 
d="M65 763h118v-228q0 -15 -3 -25.5t-11 -20.5l14 -9q34 49 72.5 69t94.5 20q73 0 128.5 -36.5t86.5 -102.5t31 -151t-31 -151t-86.5 -102.5t-128.5 -36.5q-57 0 -95 20.5t-72 69.5l-14 -10q8 -9 11 -19.5t3 -25.5v-228h-118v967zM436 144q41 53 41 135t-41 135t-110 53
q-45 0 -80 -24t-55 -67t-20 -97t20 -97t55 -67t80 -24q69 0 110 53z" />
    <glyph glyph-name="ydieresis" unicode="&#xff;" horiz-adv-x="560" 
d="M70 -103h59q31 0 46.5 9.5t28.5 41.5l20 54l-210 557h128l122 -352q9 -26 14 -67h12q3 35 14 67l112 352h128l-228 -640q-25 -70 -59 -96.5t-97 -26.5h-90v101zM118.5 651.5q-22.5 20.5 -22.5 51.5t22.5 51.5t54.5 20.5q33 0 55 -20.5t22 -51.5t-22 -51.5t-55 -20.5
q-32 0 -54.5 20.5zM326 651.5q-22 20.5 -22 51.5t22 51.5t55 20.5q32 0 54.5 -20.5t22.5 -51.5t-22.5 -51.5t-54.5 -20.5q-33 0 -55 20.5z" />
    <glyph glyph-name="Amacron" unicode="&#x100;" horiz-adv-x="704" 
d="M9 0l273 763h140l273 -763h-132l-56 167h-309l-57 -167h-132zM469 278l-90 268q-19 59 -19 92h-16q0 -36 -18 -92l-91 -268h234zM203 848v57h299v-57h-299z" />
    <glyph glyph-name="amacron" unicode="&#x101;" horiz-adv-x="586" 
d="M92 32q-50 43 -50 120q0 78 61 123q44 32 130 49l177 33q-1 56 -30 86q-31 31 -84 31q-43 0 -75 -24.5t-40 -66.5h-118q14 90 80.5 138t153.5 48q50 0 93.5 -14t74.5 -42q41 -38 51.5 -89t10.5 -121v-303h-118v19q0 23 12 55l-14 7q-21 -37 -54 -61q-46 -31 -129 -31
q-82 0 -132 43zM327 102q41 21 58 51q10 18 15 34t11 43q3 13 8 19.5t14 7.5l-3 16q-81 -18 -112 -23l-56 -11q-58 -12 -82 -34q-20 -20 -20 -50q0 -33 24.5 -51.5t65.5 -18.5t77 17zM150 644v57h299v-57h-299z" />
    <glyph glyph-name="Abreve" unicode="&#x102;" horiz-adv-x="704" 
d="M9 0l273 763h140l273 -763h-132l-56 167h-309l-57 -167h-132zM469 278l-90 268q-19 59 -19 92h-16q0 -36 -18 -92l-91 -268h234zM230 852q-42 40 -47 113h74q4 -40 29.5 -60.5t65.5 -20.5q39 0 64 20.5t29 60.5h75q-4 -72 -47 -112.5t-121 -40.5q-80 0 -122 40z" />
    <glyph glyph-name="abreve" unicode="&#x103;" horiz-adv-x="586" 
d="M92 32q-50 43 -50 120q0 78 61 123q44 32 130 49l177 33q-1 56 -30 86q-31 31 -84 31q-43 0 -75 -24.5t-40 -66.5h-118q14 90 80.5 138t153.5 48q50 0 93.5 -14t74.5 -42q41 -38 51.5 -89t10.5 -121v-303h-118v19q0 23 12 55l-14 7q-21 -37 -54 -61q-46 -31 -129 -31
q-82 0 -132 43zM327 102q41 21 58 51q10 18 15 34t11 43q3 13 8 19.5t14 7.5l-3 16q-81 -18 -112 -23l-56 -11q-58 -12 -82 -34q-20 -20 -20 -50q0 -33 24.5 -51.5t65.5 -18.5t77 17zM178 648q-42 40 -47 113h74q4 -40 29.5 -60.5t65.5 -20.5q39 0 64 20.5t29 60.5h75
q-4 -72 -47 -112.5t-121 -40.5q-80 0 -122 40z" />
    <glyph glyph-name="Aogonek" unicode="&#x104;" horiz-adv-x="704" 
d="M9 0l273 763h140l273 -763h-132l-56 167h-309l-57 -167h-132zM469 278l-90 268q-19 59 -19 92h-16q0 -36 -18 -92l-91 -268h234zM550.5 -191.5q-29.5 23.5 -29.5 64.5q0 38 24.5 64t78.5 46v17h71q-55 -44 -71.5 -61t-16.5 -40q0 -19 11.5 -29.5t33.5 -10.5t43 9v-74
q-35 -9 -63 -9q-52 0 -81.5 23.5z" />
    <glyph glyph-name="aogonek" unicode="&#x105;" horiz-adv-x="586" 
d="M451.5 -130.5q11.5 -10.5 33.5 -10.5t43 9v-74q-34 -9 -63 -9q-52 0 -81.5 23.5t-29.5 64.5q0 38 24.5 64t78.5 46v17h-48v19q0 23 12 55l-14 7q-21 -37 -54 -61q-46 -31 -129 -31q-82 0 -132 43t-50 120q0 78 61 123q44 32 130 49l177 33q-1 56 -30 86q-31 31 -84 31
q-43 0 -75 -24.5t-40 -66.5h-118q14 90 80.5 138t153.5 48q50 0 93.5 -14t74.5 -42q41 -38 51.5 -89t10.5 -121v-303h1q-55 -44 -71.5 -61t-16.5 -40q0 -19 11.5 -29.5zM419 249.5q5 6.5 14 7.5l-3 16q-81 -18 -112 -23l-56 -11q-58 -12 -82 -34q-20 -20 -20 -50
q0 -33 24.5 -51.5t65.5 -18.5t77 17q41 21 58 51q10 18 15 34t11 43q3 13 8 19.5z" />
    <glyph glyph-name="Cacute" unicode="&#x106;" horiz-adv-x="760" 
d="M204.5 40.5q-81.5 53.5 -121.5 143.5t-40 198t40 197.5t121.5 142.5t201.5 53q135 0 218.5 -66t100.5 -176h-139q-12 61 -60.5 95t-121.5 34q-110 0 -170 -76.5t-60 -203.5t60 -204.5t170 -77.5q74 0 122 36t60 106h139q-18 -118 -101 -186.5t-218 -68.5
q-120 0 -201.5 53.5zM323 818l116 149h127l-148 -149h-95z" />
    <glyph glyph-name="cacute" unicode="&#x107;" horiz-adv-x="614" 
d="M175 26q-63 37 -98 103.5t-35 152.5q0 83 35 148.5t98 102t145 36.5q99 0 167.5 -50t88.5 -136h-128q-14 42 -47.5 65t-80.5 23q-46 0 -82 -23.5t-56 -66.5t-20 -99q0 -58 20 -102t56 -68t82 -24q51 0 85.5 26t45.5 71h128q-19 -92 -89 -144t-170 -52q-82 0 -145 37z
M253 614l116 149h127l-148 -149h-95z" />
    <glyph glyph-name="Cdotaccent" unicode="&#x10a;" horiz-adv-x="760" 
d="M204.5 40.5q-81.5 53.5 -121.5 143.5t-40 198t40 197.5t121.5 142.5t201.5 53q135 0 218.5 -66t100.5 -176h-139q-12 61 -60.5 95t-121.5 34q-110 0 -170 -76.5t-60 -203.5t60 -204.5t170 -77.5q74 0 122 36t60 106h139q-18 -118 -101 -186.5t-218 -68.5
q-120 0 -201.5 53.5zM327 826.5q-21 19.5 -21 49.5t21.5 50t51.5 20t51.5 -20t21.5 -50q0 -29 -21.5 -49t-51.5 -20q-31 0 -52 19.5z" />
    <glyph glyph-name="cdotaccent" unicode="&#x10b;" horiz-adv-x="614" 
d="M175 26q-63 37 -98 103.5t-35 152.5q0 83 35 148.5t98 102t145 36.5q99 0 167.5 -50t88.5 -136h-128q-14 42 -47.5 65t-80.5 23q-46 0 -82 -23.5t-56 -66.5t-20 -99q0 -58 20 -102t56 -68t82 -24q51 0 85.5 26t45.5 71h128q-19 -92 -89 -144t-170 -52q-82 0 -145 37z
M253.5 651.5q-22.5 20.5 -22.5 51.5t22.5 51.5t54.5 20.5q33 0 55 -20.5t22 -51.5t-22 -51.5t-55 -20.5q-32 0 -54.5 20.5z" />
    <glyph glyph-name="Ccaron" unicode="&#x10c;" horiz-adv-x="760" 
d="M204.5 40.5q-81.5 53.5 -121.5 143.5t-40 198t40 197.5t121.5 142.5t201.5 53q135 0 218.5 -66t100.5 -176h-139q-12 61 -60.5 95t-121.5 34q-110 0 -170 -76.5t-60 -203.5t60 -204.5t170 -77.5q74 0 122 36t60 106h139q-18 -118 -101 -186.5t-218 -68.5
q-120 0 -201.5 53.5zM207 968h111l27 -35q27 -32 27 -55h14q0 23 27 55l27 35h111l-165 -173h-14z" />
    <glyph glyph-name="ccaron" unicode="&#x10d;" horiz-adv-x="614" 
d="M175 26q-63 37 -98 103.5t-35 152.5q0 83 35 148.5t98 102t145 36.5q99 0 167.5 -50t88.5 -136h-128q-14 42 -47.5 65t-80.5 23q-46 0 -82 -23.5t-56 -66.5t-20 -99q0 -58 20 -102t56 -68t82 -24q51 0 85.5 26t45.5 71h128q-19 -92 -89 -144t-170 -52q-82 0 -145 37z
M136 764h111l27 -35q27 -32 27 -55h14q0 23 27 55l27 35h111l-165 -173h-14z" />
    <glyph glyph-name="Dcaron" unicode="&#x10e;" horiz-adv-x="730" 
d="M71 763h219q192 0 294 -99t102 -283q0 -183 -102.5 -282t-294.5 -99h-218v763zM487 174.5q72 60.5 72 206.5q0 138 -71.5 203t-199.5 65h-90v-535h90q127 0 199 60.5zM181 968h111l27 -35q27 -32 27 -55h14q0 23 27 55l27 35h111l-165 -173h-14z" />
    <glyph glyph-name="dcaron" unicode="&#x10f;" horiz-adv-x="640" 
d="M161.5 25.5q-55.5 36.5 -86.5 102.5t-31 151t31 151t86.5 102.5t128.5 36.5q56 0 94.5 -20t72.5 -69l14 9q-8 10 -11 20.5t-3 25.5v228h118v-763h-118v24q0 15 3 25.5t11 19.5l-14 10q-34 -49 -72 -69.5t-95 -20.5q-73 0 -128.5 36.5zM394 115q35 24 55 67t20 97t-20 97
t-55 67t-80 24q-69 0 -110 -53t-41 -135t41 -135t110 -53q45 0 80 24zM744.5 560.5q27.5 27.5 27.5 71.5q0 12 -1 19h-12q-6 -23 -35 -23q-25 0 -43.5 19.5t-18.5 50.5q0 34 21.5 55t57.5 21q46 0 71.5 -35t25.5 -92q0 -70 -41.5 -121.5t-129.5 -57.5v61q50 4 77.5 31.5z
" />
    <glyph glyph-name="Dcroat" unicode="&#x110;" horiz-adv-x="730" 
d="M584 664q102 -99 102 -283q0 -183 -102.5 -282t-294.5 -99h-218v336h-67v91h67v336h219q192 0 294 -99zM487 174.5q72 60.5 72 206.5q0 138 -71.5 203t-199.5 65h-90v-222h220v-91h-220v-222h90q127 0 199 60.5z" />
    <glyph glyph-name="Emacron" unicode="&#x112;" horiz-adv-x="619" 
d="M71 0v763h505v-114h-378v-210h336v-113h-336v-212h378v-114h-505zM175 848v57h299v-57h-299z" />
    <glyph glyph-name="emacron" unicode="&#x113;" horiz-adv-x="637" 
d="M175.5 26.5q-63.5 37.5 -98.5 103t-35 147.5q0 76 31.5 143t94 108t150.5 41q74 0 137.5 -31.5t102 -95.5t38.5 -157v-30h-370q-52 0 -72 3l-4 -16q9 -2 12.5 -7.5t7.5 -16.5q9 -21 11 -25q20 -47 57.5 -74t85.5 -27q51 0 87.5 26.5t52.5 66.5h122q-27 -87 -94 -141.5
t-171 -54.5q-82 0 -145.5 37.5zM193.5 344.5q11.5 3.5 27.5 3.5h198q17 0 29.5 -3.5t27.5 -12.5l10 13q-9 5 -11.5 9.5t-5.5 13.5q-2 14 -14 33q-20 35 -55 53.5t-78 18.5q-44 0 -78 -18.5t-55 -53.5q-8 -13 -14 -33q-2 -8 -5 -12.5t-12 -10.5l9 -13q15 9 26.5 12.5z
M169 644v57h299v-57h-299z" />
    <glyph glyph-name="Edotaccent" unicode="&#x116;" horiz-adv-x="619" 
d="M71 0v763h505v-114h-378v-210h336v-113h-336v-212h378v-114h-505zM272 826.5q-21 19.5 -21 49.5t21.5 50t51.5 20t51.5 -20t21.5 -50q0 -29 -21.5 -49t-51.5 -20q-31 0 -52 19.5z" />
    <glyph glyph-name="edotaccent" unicode="&#x117;" horiz-adv-x="637" 
d="M175.5 26.5q-63.5 37.5 -98.5 103t-35 147.5q0 76 31.5 143t94 108t150.5 41q74 0 137.5 -31.5t102 -95.5t38.5 -157v-30h-370q-52 0 -72 3l-4 -16q9 -2 12.5 -7.5t7.5 -16.5q9 -21 11 -25q20 -47 57.5 -74t85.5 -27q51 0 87.5 26.5t52.5 66.5h122q-27 -87 -94 -141.5
t-171 -54.5q-82 0 -145.5 37.5zM193.5 344.5q11.5 3.5 27.5 3.5h198q17 0 29.5 -3.5t27.5 -12.5l10 13q-9 5 -11.5 9.5t-5.5 13.5q-2 14 -14 33q-20 35 -55 53.5t-78 18.5q-44 0 -78 -18.5t-55 -53.5q-8 -13 -14 -33q-2 -8 -5 -12.5t-12 -10.5l9 -13q15 9 26.5 12.5z
M263.5 651.5q-22.5 20.5 -22.5 51.5t22.5 51.5t54.5 20.5q33 0 55 -20.5t22 -51.5t-22 -51.5t-55 -20.5q-32 0 -54.5 20.5z" />
    <glyph glyph-name="Eogonek" unicode="&#x118;" horiz-adv-x="619" 
d="M71 0v763h505v-114h-378v-210h336v-113h-336v-212h378v-114h-505zM431.5 -191.5q-29.5 23.5 -29.5 64.5q0 38 24.5 64t78.5 46v17h71q-55 -44 -71.5 -61t-16.5 -40q0 -19 11.5 -29.5t33.5 -10.5t43 9v-74q-35 -9 -63 -9q-52 0 -81.5 23.5z" />
    <glyph glyph-name="eogonek" unicode="&#x119;" horiz-adv-x="637" 
d="M154 258l-4 -16q9 -2 12.5 -7.5t7.5 -16.5q9 -21 11 -25q20 -47 57.5 -74t85.5 -27q51 0 87.5 26.5t52.5 66.5h122q-29 -96 -104 -149q-47 -37 -62.5 -54t-15.5 -39q0 -19 11.5 -29.5t33.5 -10.5t43 9v-74q-35 -9 -63 -9q-52 0 -81.5 23.5t-29.5 64.5q0 45 35 73
q-11 -1 -32 -1q-82 0 -145.5 37.5t-98.5 103t-35 147.5q0 76 31.5 143t94 108t150.5 41q74 0 137.5 -31.5t102 -95.5t38.5 -157v-30h-370q-52 0 -72 3zM175 368q-2 -8 -5 -12.5t-12 -10.5l9 -13q15 9 26.5 12.5t27.5 3.5h198q17 0 29.5 -3.5t27.5 -12.5l10 13
q-9 5 -11.5 9.5t-5.5 13.5q-2 14 -14 33q-20 35 -55 53.5t-78 18.5q-44 0 -78 -18.5t-55 -53.5q-8 -13 -14 -33z" />
    <glyph glyph-name="Ecaron" unicode="&#x11a;" horiz-adv-x="619" 
d="M71 0v763h505v-114h-378v-210h336v-113h-336v-212h378v-114h-505zM152 968h111l27 -35q27 -32 27 -55h14q0 23 27 55l27 35h111l-165 -173h-14z" />
    <glyph glyph-name="ecaron" unicode="&#x11b;" horiz-adv-x="637" 
d="M175.5 26.5q-63.5 37.5 -98.5 103t-35 147.5q0 76 31.5 143t94 108t150.5 41q74 0 137.5 -31.5t102 -95.5t38.5 -157v-30h-370q-52 0 -72 3l-4 -16q9 -2 12.5 -7.5t7.5 -16.5q9 -21 11 -25q20 -47 57.5 -74t85.5 -27q51 0 87.5 26.5t52.5 66.5h122q-27 -87 -94 -141.5
t-171 -54.5q-82 0 -145.5 37.5zM193.5 344.5q11.5 3.5 27.5 3.5h198q17 0 29.5 -3.5t27.5 -12.5l10 13q-9 5 -11.5 9.5t-5.5 13.5q-2 14 -14 33q-20 35 -55 53.5t-78 18.5q-44 0 -78 -18.5t-55 -53.5q-8 -13 -14 -33q-2 -8 -5 -12.5t-12 -10.5l9 -13q15 9 26.5 12.5z
M146 764h111l27 -35q27 -32 27 -55h14q0 23 27 55l27 35h111l-165 -173h-14z" />
    <glyph glyph-name="Gbreve" unicode="&#x11e;" horiz-adv-x="815" 
d="M206 41q-83 54 -123.5 143.5t-40.5 196.5t40.5 196.5t123.5 143.5t204 54q138 0 224.5 -64.5t114.5 -176.5h-141q-21 61 -71.5 94.5t-127.5 33.5t-130 -37t-79.5 -100.5t-26.5 -141.5q0 -81 28 -145t83 -101t134 -37q73 0 126 32t75 87q9 23 13 54q2 14 4.5 22.5
t7.5 13.5l-12 12q-12 -12 -25 -15t-43 -3h-105v107h299v-410h-116v115h-16q0 -52 -53 -86q-30 -20 -72.5 -31t-89.5 -11q-122 0 -205 54zM286 852q-42 40 -47 113h74q4 -40 29.5 -60.5t65.5 -20.5q39 0 64 20.5t29 60.5h75q-4 -72 -47 -112.5t-121 -40.5q-80 0 -122 40z" />
    <glyph glyph-name="gbreve" unicode="&#x11f;" horiz-adv-x="641" 
d="M148.5 -174q-70.5 41 -86.5 139h119q13 -44 46 -64.5t90 -20.5q72 0 106.5 33t34.5 91v28q0 17 2.5 25.5t11.5 19.5l-14 10q-34 -49 -71.5 -69.5t-94.5 -20.5q-73 0 -129 36.5t-87 101.5t-31 147q0 83 31 148.5t87 102t128 36.5q57 0 95 -20t72 -69l14 9q-8 11 -11 21
t-3 25v24h118v-528q0 -134 -68.5 -190t-189.5 -56q-99 0 -169.5 41zM395.5 123q35.5 24 55 65.5t19.5 94.5q0 52 -20 94t-55 66t-80 24q-68 0 -109.5 -52.5t-41.5 -131.5q0 -80 41.5 -132t109.5 -52q45 0 80.5 24zM199 648q-42 40 -47 113h74q4 -40 29.5 -60.5t65.5 -20.5
q39 0 64 20.5t29 60.5h75q-4 -72 -47 -112.5t-121 -40.5q-80 0 -122 40z" />
    <glyph glyph-name="Gdotaccent" unicode="&#x120;" horiz-adv-x="815" 
d="M206 41q-83 54 -123.5 143.5t-40.5 196.5t40.5 196.5t123.5 143.5t204 54q138 0 224.5 -64.5t114.5 -176.5h-141q-21 61 -71.5 94.5t-127.5 33.5t-130 -37t-79.5 -100.5t-26.5 -141.5q0 -81 28 -145t83 -101t134 -37q73 0 126 32t75 87q9 23 13 54q2 14 4.5 22.5
t7.5 13.5l-12 12q-12 -12 -25 -15t-43 -3h-105v107h299v-410h-116v115h-16q0 -52 -53 -86q-30 -20 -72.5 -31t-89.5 -11q-122 0 -205 54zM356 826.5q-21 19.5 -21 49.5t21.5 50t51.5 20t51.5 -20t21.5 -50q0 -29 -21.5 -49t-51.5 -20q-31 0 -52 19.5z" />
    <glyph glyph-name="gdotaccent" unicode="&#x121;" horiz-adv-x="641" 
d="M148.5 -174q-70.5 41 -86.5 139h119q13 -44 46 -64.5t90 -20.5q72 0 106.5 33t34.5 91v28q0 17 2.5 25.5t11.5 19.5l-14 10q-34 -49 -71.5 -69.5t-94.5 -20.5q-73 0 -129 36.5t-87 101.5t-31 147q0 83 31 148.5t87 102t128 36.5q57 0 95 -20t72 -69l14 9q-8 11 -11 21
t-3 25v24h118v-528q0 -134 -68.5 -190t-189.5 -56q-99 0 -169.5 41zM395.5 123q35.5 24 55 65.5t19.5 94.5q0 52 -20 94t-55 66t-80 24q-68 0 -109.5 -52.5t-41.5 -131.5q0 -80 41.5 -132t109.5 -52q45 0 80.5 24zM266.5 651.5q-22.5 20.5 -22.5 51.5t22.5 51.5t54.5 20.5
q33 0 55 -20.5t22 -51.5t-22 -51.5t-55 -20.5q-32 0 -54.5 20.5z" />
    <glyph glyph-name="uni0122" unicode="&#x122;" horiz-adv-x="815" 
d="M206 41q-83 54 -123.5 143.5t-40.5 196.5t40.5 196.5t123.5 143.5t204 54q138 0 224.5 -64.5t114.5 -176.5h-141q-21 61 -71.5 94.5t-127.5 33.5t-130 -37t-79.5 -100.5t-26.5 -141.5q0 -81 28 -145t83 -101t134 -37q73 0 126 32t75 87q9 23 13 54q2 14 4.5 22.5
t7.5 13.5l-12 12q-12 -12 -25 -15t-43 -3h-105v107h299v-410h-116v115h-16q0 -52 -53 -86q-30 -20 -72.5 -31t-89.5 -11q-122 0 -205 54zM430 -136q0 2 0.5 5t-0.5 7h-9q-2 -8 -9.5 -12.5t-18.5 -4.5q-19 0 -31 12.5t-12 33.5q0 23 16 37t41 14q33 0 51.5 -20t18.5 -54
q0 -86 -119 -86v32q66 0 72 36z" />
    <glyph glyph-name="uni0123" unicode="&#x123;" horiz-adv-x="641" 
d="M148.5 -174q-70.5 41 -86.5 139h119q13 -44 46 -64.5t90 -20.5q72 0 106.5 33t34.5 91v28q0 17 2.5 25.5t11.5 19.5l-14 10q-34 -49 -71.5 -69.5t-94.5 -20.5q-73 0 -129 36.5t-87 101.5t-31 147q0 83 31 148.5t87 102t128 36.5q57 0 95 -20t72 -69l14 9q-8 11 -11 21
t-3 25v24h118v-528q0 -134 -68.5 -190t-189.5 -56q-99 0 -169.5 41zM395.5 123q35.5 24 55 65.5t19.5 94.5q0 52 -20 94t-55 66t-80 24q-68 0 -109.5 -52.5t-41.5 -131.5q0 -80 41.5 -132t109.5 -52q45 0 80.5 24zM283.5 621q-20.5 25 -20.5 66q0 49 33.5 86t103.5 42v-44
q-44 -4 -66 -27t-17 -60h9q6 16 29 16q20 0 35 -14t15 -36q0 -24 -17.5 -39t-46.5 -15q-37 0 -57.5 25z" />
    <glyph glyph-name="Imacron" unicode="&#x12a;" horiz-adv-x="271" 
d="M71 0v763h127v-763h-127zM-14 848v57h299v-57h-299z" />
    <glyph glyph-name="imacron" unicode="&#x12b;" horiz-adv-x="247" 
d="M65 0v559h118v-559h-118zM-25 644v57h299v-57h-299z" />
    <glyph glyph-name="Iogonek" unicode="&#x12e;" horiz-adv-x="271" 
d="M71 0v763h127v-763h-127zM53.5 -191.5q-29.5 23.5 -29.5 64.5q0 38 24.5 64t78.5 46v17h71q-55 -44 -71.5 -61t-16.5 -40q0 -19 11.5 -29.5t33.5 -10.5t43 9v-74q-35 -9 -63 -9q-52 0 -81.5 23.5z" />
    <glyph glyph-name="iogonek" unicode="&#x12f;" horiz-adv-x="247" 
d="M65 0v559h118v-559h-118zM69.5 651.5q-22.5 20.5 -22.5 51.5t22.5 51.5t54.5 20.5q33 0 55 -20.5t22 -51.5t-22 -51.5t-55 -20.5q-32 0 -54.5 20.5zM38.5 -191.5q-29.5 23.5 -29.5 64.5q0 38 24.5 64t78.5 46v17h71q-55 -44 -71.5 -61t-16.5 -40q0 -19 11.5 -29.5
t33.5 -10.5t43 9v-74q-35 -9 -63 -9q-52 0 -81.5 23.5z" />
    <glyph glyph-name="Idotaccent" unicode="&#x130;" horiz-adv-x="271" 
d="M71 0v763h127v-763h-127zM83 826.5q-21 19.5 -21 49.5t21.5 50t51.5 20t51.5 -20t21.5 -50q0 -29 -21.5 -49t-51.5 -20q-31 0 -52 19.5z" />
    <glyph glyph-name="dotlessi" unicode="&#x131;" horiz-adv-x="247" 
d="M65 0v559h118v-559h-118z" />
    <glyph glyph-name="uni0136" unicode="&#x136;" horiz-adv-x="657" 
d="M71 763h127v-352h16q0 18 10 35.5t24 35.5l235 281h157l-315 -368l327 -395h-160l-244 296q-25 31 -54 77l-13 -11q11 -13 14 -26t3 -48v-288h-127v763zM350 -136q0 2 0.5 5t-0.5 7h-9q-2 -8 -9.5 -12.5t-18.5 -4.5q-19 0 -31 12.5t-12 33.5q0 23 16 37t41 14
q33 0 51.5 -20t18.5 -54q0 -86 -119 -86v32q66 0 72 36z" />
    <glyph glyph-name="uni0137" unicode="&#x137;" horiz-adv-x="582" 
d="M65 763h118v-324q0 -25 -1.5 -44t-8.5 -44l12 -6q35 39 51 53l165 161h154l-219 -208q-19 -18 -46 -29v-14q24 -11 46 -35l239 -273h-150l-189 220q-15 17 -51 61l-12 -5q7 -27 8.5 -47t1.5 -47v-182h-118v763zM308 -136q0 2 0.5 5t-0.5 7h-9q-2 -8 -9.5 -12.5
t-18.5 -4.5q-19 0 -31 12.5t-12 33.5q0 23 16 37t41 14q33 0 51.5 -20t18.5 -54q0 -86 -119 -86v32q66 0 72 36z" />
    <glyph glyph-name="kgreenlandic" unicode="&#x138;" horiz-adv-x="583" 
d="M65 559h119v-120q0 -25 -1.5 -44t-8.5 -44l12 -6q35 39 51 53l165 161h153l-255 -244l276 -315h-150l-189 220q-15 17 -51 61l-12 -5q7 -27 8.5 -47t1.5 -47v-182h-119v559z" />
    <glyph glyph-name="Lacute" unicode="&#x139;" horiz-adv-x="540" 
d="M71 0v763h127v-649h330v-114h-457zM80 818l116 149h127l-148 -149h-95z" />
    <glyph glyph-name="lacute" unicode="&#x13a;" horiz-adv-x="293" 
d="M95 30q-33 30 -33 99v634h118v-603q0 -33 11.5 -47t41.5 -14h33v-99h-73q-65 0 -98 30zM66 818l116 149h127l-148 -149h-95z" />
    <glyph glyph-name="uni013B" unicode="&#x13b;" horiz-adv-x="540" 
d="M71 0v763h127v-649h330v-114h-457zM321 -136q0 2 0.5 5t-0.5 7h-9q-2 -8 -9.5 -12.5t-18.5 -4.5q-19 0 -31 12.5t-12 33.5q0 23 16 37t41 14q33 0 51.5 -20t18.5 -54q0 -86 -119 -86v32q66 0 72 36z" />
    <glyph glyph-name="uni013C" unicode="&#x13c;" horiz-adv-x="293" 
d="M95 30q-33 30 -33 99v634h118v-603q0 -33 11.5 -47t41.5 -14h33v-99h-73q-65 0 -98 30zM158 -136q0 2 0.5 5t-0.5 7h-9q-2 -8 -9.5 -12.5t-18.5 -4.5q-19 0 -31 12.5t-12 33.5q0 23 16 37t41 14q33 0 51.5 -20t18.5 -54q0 -86 -119 -86v32q66 0 72 36z" />
    <glyph glyph-name="Lcaron" unicode="&#x13d;" horiz-adv-x="540" 
d="M71 0v763h127v-649h330v-114h-457zM445.5 560.5q27.5 27.5 27.5 71.5q0 12 -1 19h-12q-6 -23 -35 -23q-25 0 -43.5 19.5t-18.5 50.5q0 34 21.5 55t57.5 21q46 0 71.5 -35t25.5 -92q0 -70 -41.5 -121.5t-129.5 -57.5v61q50 4 77.5 31.5z" />
    <glyph glyph-name="lcaron" unicode="&#x13e;" horiz-adv-x="293" 
d="M95 30q-33 30 -33 99v634h118v-603q0 -33 11.5 -47t41.5 -14h33v-99h-73q-65 0 -98 30zM336.5 560.5q27.5 27.5 27.5 71.5q0 12 -1 19h-12q-6 -23 -35 -23q-25 0 -43.5 19.5t-18.5 50.5q0 34 21.5 55t57.5 21q46 0 71.5 -35t25.5 -92q0 -70 -41.5 -121.5t-129.5 -57.5v61
q50 4 77.5 31.5z" />
    <glyph glyph-name="Lslash" unicode="&#x141;" horiz-adv-x="579" 
d="M110 0v316l-75 -37v102l75 39v343h127v-278l176 91v-102l-176 -91v-269h330v-114h-457z" />
    <glyph glyph-name="lslash" unicode="&#x142;" horiz-adv-x="293" 
d="M266 99v-99h-73q-65 0 -98 30t-33 99v269l-45 -23v81l45 23v284h118v-223l69 36v-81l-69 -36v-299q0 -33 11.5 -47t41.5 -14h33z" />
    <glyph glyph-name="Nacute" unicode="&#x143;" horiz-adv-x="746" 
d="M71 763h154l272 -497q14 -25 22.5 -44.5t18.5 -53.5l16 3q-6 42 -6 94v498h126v-763h-153l-274 500q-13 23 -21.5 42.5t-17.5 52.5l-16 -4q6 -42 6 -93v-498h-127v763zM317 818l116 149h127l-148 -149h-95z" />
    <glyph glyph-name="nacute" unicode="&#x144;" horiz-adv-x="595" 
d="M65 559h118v-24q0 -15 -3 -25t-11 -21l14 -9q33 48 69.5 68.5t86.5 20.5q126 0 171 -91q17 -33 21 -67t4 -84v-327h-119v327q0 44 -6.5 72t-21.5 44q-24 27 -76 27q-60 0 -91 -36q-20 -23 -29 -61t-9 -104v-269h-118v559zM243 614l116 149h127l-148 -149h-95z" />
    <glyph glyph-name="uni0145" unicode="&#x145;" horiz-adv-x="746" 
d="M71 763h154l272 -497q14 -25 22.5 -44.5t18.5 -53.5l16 3q-6 42 -6 94v498h126v-763h-153l-274 500q-13 23 -21.5 42.5t-17.5 52.5l-16 -4q6 -42 6 -93v-498h-127v763zM394 -136q0 2 0.5 5t-0.5 7h-9q-2 -8 -9.5 -12.5t-18.5 -4.5q-19 0 -31 12.5t-12 33.5q0 23 16 37
t41 14q33 0 51.5 -20t18.5 -54q0 -86 -119 -86v32q66 0 72 36z" />
    <glyph glyph-name="uni0146" unicode="&#x146;" horiz-adv-x="595" 
d="M65 559h118v-24q0 -15 -3 -25t-11 -21l14 -9q33 48 69.5 68.5t86.5 20.5q126 0 171 -91q17 -33 21 -67t4 -84v-327h-119v327q0 44 -6.5 72t-21.5 44q-24 27 -76 27q-60 0 -91 -36q-20 -23 -29 -61t-9 -104v-269h-118v559zM320 -136q0 2 0.5 5t-0.5 7h-9q-2 -8 -9.5 -12.5
t-18.5 -4.5q-19 0 -31 12.5t-12 33.5q0 23 16 37t41 14q33 0 51.5 -20t18.5 -54q0 -86 -119 -86v32q66 0 72 36z" />
    <glyph glyph-name="Ncaron" unicode="&#x147;" horiz-adv-x="746" 
d="M71 763h154l272 -497q14 -25 22.5 -44.5t18.5 -53.5l16 3q-6 42 -6 94v498h126v-763h-153l-274 500q-13 23 -21.5 42.5t-17.5 52.5l-16 -4q6 -42 6 -93v-498h-127v763zM201 968h111l27 -35q27 -32 27 -55h14q0 23 27 55l27 35h111l-165 -173h-14z" />
    <glyph glyph-name="ncaron" unicode="&#x148;" horiz-adv-x="595" 
d="M65 559h118v-24q0 -15 -3 -25t-11 -21l14 -9q33 48 69.5 68.5t86.5 20.5q126 0 171 -91q17 -33 21 -67t4 -84v-327h-119v327q0 44 -6.5 72t-21.5 44q-24 27 -76 27q-60 0 -91 -36q-20 -23 -29 -61t-9 -104v-269h-118v559zM126 764h111l27 -35q27 -32 27 -55h14
q0 23 27 55l27 35h111l-165 -173h-14z" />
    <glyph glyph-name="Omacron" unicode="&#x14c;" horiz-adv-x="817" 
d="M206 40.5q-82 53.5 -122.5 143t-40.5 198.5t40.5 198t122.5 142t202 53q119 0 201.5 -53t123 -142.5t40.5 -197.5q0 -109 -40.5 -198.5t-123 -143t-201.5 -53.5q-120 0 -202 53.5zM580.5 178q61.5 77 61.5 204q0 126 -61.5 203t-172.5 77q-73 0 -126 -35.5t-80.5 -99
t-27.5 -145.5q0 -83 27.5 -146.5t80.5 -99t126 -35.5q111 0 172.5 77zM258 848v57h299v-57h-299z" />
    <glyph glyph-name="omacron" unicode="&#x14d;" horiz-adv-x="647" 
d="M177 26q-64 37 -99.5 103.5t-35.5 152.5q0 83 35.5 148.5t99.5 102t146 36.5t146 -36.5t100 -102t36 -148.5q0 -85 -35.5 -151.5t-99.5 -104t-147 -37.5q-82 0 -146 37zM406 116.5q37 24.5 57.5 67.5t20.5 98q0 52 -20.5 94.5t-57.5 66.5t-83 24t-83 -23.5t-57.5 -66
t-20.5 -95.5q0 -56 21 -99t57.5 -67t82.5 -24t83 24.5zM174 644v57h299v-57h-299z" />
    <glyph glyph-name="Ohungarumlaut" unicode="&#x150;" horiz-adv-x="817" 
d="M206 40.5q-82 53.5 -122.5 143t-40.5 198.5t40.5 198t122.5 142t202 53q119 0 201.5 -53t123 -142.5t40.5 -197.5q0 -109 -40.5 -198.5t-123 -143t-201.5 -53.5q-120 0 -202 53.5zM580.5 178q61.5 77 61.5 204q0 126 -61.5 203t-172.5 77q-73 0 -126 -35.5t-80.5 -99
t-27.5 -145.5q0 -83 27.5 -146.5t80.5 -99t126 -35.5q111 0 172.5 77zM263 818l117 149h119l-141 -149h-95zM456 818l118 149h127l-149 -149h-96z" />
    <glyph glyph-name="ohungarumlaut" unicode="&#x151;" horiz-adv-x="647" 
d="M177 26q-64 37 -99.5 103.5t-35.5 152.5q0 83 35.5 148.5t99.5 102t146 36.5t146 -36.5t100 -102t36 -148.5q0 -85 -35.5 -151.5t-99.5 -104t-147 -37.5q-82 0 -146 37zM406 116.5q37 24.5 57.5 67.5t20.5 98q0 52 -20.5 94.5t-57.5 66.5t-83 24t-83 -23.5t-57.5 -66
t-20.5 -95.5q0 -56 21 -99t57.5 -67t82.5 -24t83 24.5zM179 614l117 149h119l-141 -149h-95zM372 614l118 149h127l-149 -149h-96z" />
    <glyph glyph-name="OE" unicode="&#x152;" horiz-adv-x="1191" 
d="M204 40.5q-81 53.5 -121 143.5t-40 198t40 197.5t121 142.5t197 53q78 0 139 -28t101 -80l12 5q-10 38 -10 62v29h505v-114h-378v-210h336v-113h-336v-212h378v-114h-505v29q0 31 10 62l-10 7q-42 -55 -103.5 -83t-138.5 -28q-116 0 -197 53.5zM580.5 178
q61.5 77 61.5 204q0 126 -61.5 203t-172.5 77q-73 0 -126 -35.5t-80.5 -99t-27.5 -145.5q0 -83 27.5 -146.5t80.5 -99t126 -35.5q111 0 172.5 77z" />
    <glyph glyph-name="oe" unicode="&#x153;" horiz-adv-x="1284" 
d="M177 26q-64 37 -99.5 103.5t-35.5 152.5q0 83 35.5 148.5t99.5 102t146 36.5t146 -36.5t100 -102t36 -148.5q0 -85 -35.5 -151.5t-99.5 -104t-147 -37.5q-82 0 -146 37zM406 116.5q37 24.5 57.5 67.5t20.5 98q0 52 -20.5 94.5t-57.5 66.5t-83 24t-83 -23.5t-57.5 -66
t-20.5 -95.5q0 -56 21 -99t57.5 -67t82.5 -24t83 24.5zM822.5 26.5q-63.5 37.5 -98.5 103t-35 147.5q0 76 31.5 143t94 108t150.5 41q74 0 137.5 -31.5t102 -95.5t38.5 -157v-30h-370q-52 0 -72 3l-4 -16q9 -2 12.5 -7.5t7.5 -16.5q9 -21 11 -25q20 -47 57.5 -74t85.5 -27
q51 0 87.5 26.5t52.5 66.5h122q-27 -87 -94 -141.5t-171 -54.5q-82 0 -145.5 37.5zM840.5 344.5q11.5 3.5 27.5 3.5h198q17 0 29.5 -3.5t27.5 -12.5l10 13q-9 5 -11.5 9.5t-5.5 13.5q-2 14 -14 33q-20 35 -55 53.5t-78 18.5q-44 0 -78 -18.5t-55 -53.5q-8 -13 -14 -33
q-2 -8 -5 -12.5t-12 -10.5l9 -13q15 9 26.5 12.5z" />
    <glyph glyph-name="Racute" unicode="&#x154;" horiz-adv-x="679" 
d="M71 763h315q112 0 176.5 -55.5t64.5 -167.5q0 -90 -46 -147q-21 -24 -44 -35t-46 -8l-6 -14q15 -11 23 -24t18 -36l117 -276h-135l-126 312h-184v-312h-127v763zM468 451.5q34 29.5 34 84.5t-34.5 84t-98.5 29h-171v-227h171q65 0 99 29.5zM274 818l116 149h127
l-148 -149h-95z" />
    <glyph glyph-name="racute" unicode="&#x155;" horiz-adv-x="382" 
d="M65 559h118v-24q0 -15 -3 -25t-11 -21l14 -9q31 48 70 68.5t96 20.5h13v-115h-30q-67 0 -103 -36q-46 -43 -46 -148v-270h-118v559zM120 614l116 149h127l-148 -149h-95z" />
    <glyph glyph-name="uni0156" unicode="&#x156;" horiz-adv-x="679" 
d="M71 763h315q112 0 176.5 -55.5t64.5 -167.5q0 -90 -46 -147q-21 -24 -44 -35t-46 -8l-6 -14q15 -11 23 -24t18 -36l117 -276h-135l-126 312h-184v-312h-127v763zM468 451.5q34 29.5 34 84.5t-34.5 84t-98.5 29h-171v-227h171q65 0 99 29.5zM375 -136q0 2 0.5 5t-0.5 7h-9
q-2 -8 -9.5 -12.5t-18.5 -4.5q-19 0 -31 12.5t-12 33.5q0 23 16 37t41 14q33 0 51.5 -20t18.5 -54q0 -86 -119 -86v32q66 0 72 36z" />
    <glyph glyph-name="uni0157" unicode="&#x157;" horiz-adv-x="382" 
d="M65 559h118v-24q0 -15 -3 -25t-11 -21l14 -9q31 48 70 68.5t96 20.5h13v-115h-30q-67 0 -103 -36q-46 -43 -46 -148v-270h-118v559zM146 -136q0 2 0.5 5t-0.5 7h-9q-2 -8 -9.5 -12.5t-18.5 -4.5q-19 0 -31 12.5t-12 33.5q0 23 16 37t41 14q33 0 51.5 -20t18.5 -54
q0 -86 -119 -86v32q66 0 72 36z" />
    <glyph glyph-name="Rcaron" unicode="&#x158;" horiz-adv-x="679" 
d="M71 763h315q112 0 176.5 -55.5t64.5 -167.5q0 -90 -46 -147q-21 -24 -44 -35t-46 -8l-6 -14q15 -11 23 -24t18 -36l117 -276h-135l-126 312h-184v-312h-127v763zM468 451.5q34 29.5 34 84.5t-34.5 84t-98.5 29h-171v-227h171q65 0 99 29.5zM157 968h111l27 -35
q27 -32 27 -55h14q0 23 27 55l27 35h111l-165 -173h-14z" />
    <glyph glyph-name="rcaron" unicode="&#x159;" horiz-adv-x="382" 
d="M65 559h118v-24q0 -15 -3 -25t-11 -21l14 -9q31 48 70 68.5t96 20.5h13v-115h-30q-67 0 -103 -36q-46 -43 -46 -148v-270h-118v559zM4 764h111l27 -35q27 -32 27 -55h14q0 23 27 55l27 35h111l-165 -173h-14z" />
    <glyph glyph-name="Sacute" unicode="&#x15a;" horiz-adv-x="689" 
d="M215.5 13q-70.5 26 -119 83t-58.5 146h129q17 -78 72.5 -112t127.5 -34q69 0 110 29t41 86q0 42 -25.5 67t-63.5 37.5t-105 27.5q-83 18 -135 37t-88.5 61t-36.5 115q0 69 34 118.5t93.5 75t135.5 25.5q114 0 196.5 -59t100.5 -174h-127q-15 63 -61 93.5t-111 30.5
q-62 0 -98 -26t-36 -73q0 -37 23.5 -59t59.5 -33.5t98 -25.5q88 -19 142 -39.5t92.5 -66t38.5 -124.5q0 -107 -73.5 -169.5t-206.5 -62.5q-79 0 -149.5 26zM289 818l116 149h127l-148 -149h-95z" />
    <glyph glyph-name="sacute" unicode="&#x15b;" horiz-adv-x="569" 
d="M123.5 39q-72.5 50 -86.5 146h119q12 -48 49 -74t95 -26q49 0 78.5 18.5t29.5 52.5q0 27 -18.5 43t-46 24.5t-75.5 18.5q-66 13 -107.5 27t-71 46.5t-29.5 89.5q0 80 60 122t152 42q96 0 160 -49t79 -136h-111q-12 45 -46 67.5t-82 22.5q-45 0 -71 -17t-26 -46
q0 -24 17.5 -38.5t44 -22t73.5 -16.5q67 -12 110 -27t74 -48.5t31 -92.5q0 -81 -60 -129t-165 -48q-104 0 -176.5 50zM229 614l116 149h127l-148 -149h-95z" />
    <glyph glyph-name="Scedilla" unicode="&#x15e;" horiz-adv-x="689" 
d="M364 -13q-18 -16 -38 -30l6 -9q12 2 31 2q29 0 45 -8q48 -20 48 -68q0 -43 -35.5 -66t-92.5 -23q-46 0 -94 14v46q53 -19 88 -19q29 0 45.5 12t16.5 33q0 33 -35.5 45.5t-101.5 11.5l52 64q-104 14 -176 75.5t-85 174.5h129q17 -78 72.5 -112t127.5 -34q69 0 110 29
t41 86q0 42 -25.5 67t-63.5 37.5t-105 27.5q-83 18 -135 37t-88.5 61t-36.5 115q0 69 34 118.5t93.5 75t135.5 25.5q114 0 196.5 -59t100.5 -174h-127q-15 63 -61 93.5t-111 30.5q-62 0 -98 -26t-36 -73q0 -37 23.5 -59t59.5 -33.5t98 -25.5q88 -19 142 -39.5t92.5 -66
t38.5 -124.5q0 -107 -73.5 -169.5t-206.5 -62.5h-1z" />
    <glyph glyph-name="scedilla" unicode="&#x15f;" horiz-adv-x="569" 
d="M467 38.5q-58 -48.5 -160 -49.5q-13 -13 -40 -32l6 -9q12 2 31 2q29 0 45 -8q48 -20 48 -68q0 -43 -35.5 -66t-92.5 -23q-46 0 -94 14v46q53 -19 88 -19q29 0 45.5 12t16.5 33q0 33 -35.5 45.5t-101.5 11.5l54 65q-83 13 -138 61.5t-67 130.5h119q12 -48 49 -74t95 -26
q49 0 78.5 18.5t29.5 52.5q0 27 -18.5 43t-46 24.5t-75.5 18.5q-66 13 -107.5 27t-71 46.5t-29.5 89.5q0 80 60 122t152 42q96 0 160 -49t79 -136h-111q-12 45 -46 67.5t-82 22.5q-45 0 -71 -17t-26 -46q0 -24 17.5 -38.5t44 -22t73.5 -16.5q67 -12 110 -27t74 -48.5
t31 -92.5q0 -79 -58 -127.5z" />
    <glyph glyph-name="Scaron" unicode="&#x160;" horiz-adv-x="689" 
d="M215.5 13q-70.5 26 -119 83t-58.5 146h129q17 -78 72.5 -112t127.5 -34q69 0 110 29t41 86q0 42 -25.5 67t-63.5 37.5t-105 27.5q-83 18 -135 37t-88.5 61t-36.5 115q0 69 34 118.5t93.5 75t135.5 25.5q114 0 196.5 -59t100.5 -174h-127q-15 63 -61 93.5t-111 30.5
q-62 0 -98 -26t-36 -73q0 -37 23.5 -59t59.5 -33.5t98 -25.5q88 -19 142 -39.5t92.5 -66t38.5 -124.5q0 -107 -73.5 -169.5t-206.5 -62.5q-79 0 -149.5 26zM172 968h111l27 -35q27 -32 27 -55h14q0 23 27 55l27 35h111l-165 -173h-14z" />
    <glyph glyph-name="scaron" unicode="&#x161;" horiz-adv-x="569" 
d="M123.5 39q-72.5 50 -86.5 146h119q12 -48 49 -74t95 -26q49 0 78.5 18.5t29.5 52.5q0 27 -18.5 43t-46 24.5t-75.5 18.5q-66 13 -107.5 27t-71 46.5t-29.5 89.5q0 80 60 122t152 42q96 0 160 -49t79 -136h-111q-12 45 -46 67.5t-82 22.5q-45 0 -71 -17t-26 -46
q0 -24 17.5 -38.5t44 -22t73.5 -16.5q67 -12 110 -27t74 -48.5t31 -92.5q0 -81 -60 -129t-165 -48q-104 0 -176.5 50zM113 764h111l27 -35q27 -32 27 -55h14q0 23 27 55l27 35h111l-165 -173h-14z" />
    <glyph glyph-name="uni0162" unicode="&#x162;" horiz-adv-x="632" 
d="M299 -43l6 -9q12 2 31 2q29 0 45 -8q48 -20 48 -68q0 -43 -35.5 -66t-92.5 -23q-46 0 -94 14v46q53 -19 88 -19q29 0 45.5 12t16.5 33q0 33 -35.5 45.5t-101.5 11.5l59 72h-27v649h-240v114h609v-114h-242v-649h-29q-18 -20 -51 -43z" />
    <glyph glyph-name="uni0163" unicode="&#x163;" horiz-adv-x="376" 
d="M227 461v-299q0 -32 10 -47.5t44 -15.5h59v-99h-93q-18 -20 -51 -43l6 -9q12 2 31 2q29 0 45 -8q48 -20 48 -68q0 -43 -35.5 -66t-92.5 -23q-46 0 -94 14v46q53 -19 88 -19q29 0 45.5 12t16.5 33q0 33 -35.5 45.5t-101.5 11.5l65 79q-36 12 -54.5 41t-18.5 81v332h-84v98
h84v204h118v-204h114v-98h-114z" />
    <glyph glyph-name="Tcaron" unicode="&#x164;" horiz-adv-x="632" 
d="M252 0v649h-240v114h609v-114h-242v-649h-127zM145 968h111l27 -35q27 -32 27 -55h14q0 23 27 55l27 35h111l-165 -173h-14z" />
    <glyph glyph-name="tcaron" unicode="&#x165;" horiz-adv-x="376" 
d="M142 30q-33 30 -33 99v332h-84v98h84v204h118v-204h114v-98h-114v-299q0 -32 10 -47.5t44 -15.5h59v-99h-100q-65 0 -98 30zM374.5 718.5q27.5 27.5 27.5 71.5q0 12 -1 19h-12q-6 -23 -35 -23q-25 0 -43.5 19.5t-18.5 50.5q0 34 21.5 55t57.5 21q46 0 71.5 -35t25.5 -92
q0 -70 -41.5 -121.5t-129.5 -57.5v61q50 4 77.5 31.5z" />
    <glyph glyph-name="Umacron" unicode="&#x16a;" horiz-adv-x="728" 
d="M138 62.5q-74 75.5 -74 209.5v491h127v-491q0 -172 173 -172q172 0 172 172v491h127v-491q0 -134 -73.5 -209.5t-225.5 -75.5t-226 75.5zM214 848v57h299v-57h-299z" />
    <glyph glyph-name="umacron" unicode="&#x16b;" horiz-adv-x="596" 
d="M86 81q-16 33 -20 67t-4 84v327h118v-328q0 -84 29 -116q26 -27 76 -27q59 0 90 36q20 24 29.5 62t9.5 103v270h118v-559h-118v24q0 15 3 25.5t11 19.5l-14 10q-34 -49 -70.5 -69.5t-86.5 -20.5q-125 0 -171 92zM149 644v57h299v-57h-299z" />
    <glyph glyph-name="Uring" unicode="&#x16e;" horiz-adv-x="728" 
d="M138 62.5q-74 75.5 -74 209.5v491h127v-491q0 -172 173 -172q172 0 172 172v491h127v-491q0 -134 -73.5 -209.5t-225.5 -75.5t-226 75.5zM300.5 797q-28.5 17 -45 46t-16.5 62q0 52 36.5 88t87.5 36t88 -36t37 -88t-36.5 -88.5t-88.5 -36.5q-34 0 -62.5 17zM402 866.5
q15 15.5 15 40.5q0 22 -14.5 37t-39.5 15q-23 0 -38 -15t-15 -37q0 -25 15 -40.5t38 -15.5q24 0 39 15.5z" />
    <glyph glyph-name="uring" unicode="&#x16f;" horiz-adv-x="596" 
d="M86 81q-16 33 -20 67t-4 84v327h118v-328q0 -84 29 -116q26 -27 76 -27q59 0 90 36q20 24 29.5 62t9.5 103v270h118v-559h-118v24q0 15 3 25.5t11 19.5l-14 10q-34 -49 -70.5 -69.5t-86.5 -20.5q-125 0 -171 92zM234.5 592q-28.5 17 -45 46t-16.5 62q0 52 36.5 88
t87.5 36t88 -36t37 -88t-36.5 -88.5t-88.5 -36.5q-34 0 -62.5 17zM336 661.5q15 15.5 15 40.5q0 22 -14.5 37t-39.5 15q-23 0 -38 -15t-15 -37q0 -25 15 -40.5t38 -15.5q24 0 39 15.5z" />
    <glyph glyph-name="Uhungarumlaut" unicode="&#x170;" horiz-adv-x="728" 
d="M138 62.5q-74 75.5 -74 209.5v491h127v-491q0 -172 173 -172q172 0 172 172v491h127v-491q0 -134 -73.5 -209.5t-225.5 -75.5t-226 75.5zM219 818l117 149h119l-141 -149h-95zM412 818l118 149h127l-149 -149h-96z" />
    <glyph glyph-name="uhungarumlaut" unicode="&#x171;" horiz-adv-x="596" 
d="M86 81q-16 33 -20 67t-4 84v327h118v-328q0 -84 29 -116q26 -27 76 -27q59 0 90 36q20 24 29.5 62t9.5 103v270h118v-559h-118v24q0 15 3 25.5t11 19.5l-14 10q-34 -49 -70.5 -69.5t-86.5 -20.5q-125 0 -171 92zM154 614l117 149h119l-141 -149h-95zM347 614l118 149h127
l-149 -149h-96z" />
    <glyph glyph-name="Uogonek" unicode="&#x172;" horiz-adv-x="728" 
d="M663 763v-491q0 -112 -51.5 -184t-157.5 -93q-50 -39 -66 -56.5t-16 -39.5q0 -19 11.5 -29.5t33.5 -10.5t43 9v-74q-34 -9 -63 -9q-52 0 -81.5 23.5t-29.5 64.5q0 38 24.5 64t78.5 46v5q-8 -1 -25 -1q-152 0 -226 75.5t-74 209.5v491h127v-491q0 -172 173 -172
q172 0 172 172v491h127z" />
    <glyph glyph-name="uogonek" unicode="&#x173;" horiz-adv-x="596" 
d="M460.5 -61q-16.5 -17 -16.5 -40q0 -19 11.5 -29.5t33.5 -10.5t43 9v-74q-35 -9 -63 -9q-52 0 -81.5 23.5t-29.5 64.5q0 38 24.5 64t78.5 46v17h-47v24q0 15 3 25.5t11 19.5l-14 10q-34 -49 -70.5 -69.5t-86.5 -20.5q-125 0 -171 92q-16 33 -20 67t-4 84v327h118v-328
q0 -84 29 -116q26 -27 76 -27q59 0 90 36q20 24 29.5 62t9.5 103v270h118v-559q-55 -44 -71.5 -61z" />
    <glyph glyph-name="Wcircumflex" unicode="&#x174;" horiz-adv-x="1100" 
d="M16 763h133l143 -541q10 -33 13.5 -50.5t3.5 -37.5h16q0 21 3 39t11 49l135 541h151l135 -541q8 -30 11.5 -48.5t3.5 -39.5h16q0 20 3.5 37t12.5 51l143 541h133l-208 -763h-171l-138 545q-8 37 -8 75h-16q0 -40 -9 -75l-138 -545h-170zM542 995h14l165 -173h-111l-27 34
q-27 34 -27 55h-14q0 -21 -27 -55l-27 -34h-111z" />
    <glyph glyph-name="wcircumflex" unicode="&#x175;" horiz-adv-x="836" 
d="M19 559h126l86 -321q5 -20 7.5 -40t3.5 -43h12q1 27 3.5 44.5t8.5 38.5l99 321h104l100 -321q9 -33 11 -83h13q1 29 2.5 46t7.5 37l88 321h126l-171 -559h-111l-98 329q-7 22 -9 38t-4 45h-12q-2 -26 -4.5 -43t-9.5 -40l-100 -329h-111zM411 791h14l165 -173h-111l-27 34
q-27 34 -27 55h-14q0 -21 -27 -55l-27 -34h-111z" />
    <glyph glyph-name="Ycircumflex" unicode="&#x176;" horiz-adv-x="692" 
d="M280 296l-281 467h148l162 -280q17 -29 23 -44t6 -38h16q0 23 5.5 38.5t22.5 44.5l163 279h147l-279 -467v-296h-133v296zM338 995h14l165 -173h-111l-27 34q-27 34 -27 55h-14q0 -21 -27 -55l-27 -34h-111z" />
    <glyph glyph-name="ycircumflex" unicode="&#x177;" horiz-adv-x="560" 
d="M70 -103h59q31 0 46.5 9.5t28.5 41.5l20 54l-210 557h128l122 -352q9 -26 14 -67h12q3 35 14 67l112 352h128l-228 -640q-25 -70 -59 -96.5t-97 -26.5h-90v101zM270 791h14l165 -173h-111l-27 34q-27 34 -27 55h-14q0 -21 -27 -55l-27 -34h-111z" />
    <glyph glyph-name="Ydieresis" unicode="&#x178;" horiz-adv-x="692" 
d="M280 296l-281 467h148l162 -280q17 -29 23 -44t6 -38h16q0 23 5.5 38.5t22.5 44.5l163 279h147l-279 -467v-296h-133v296zM189 826.5q-21 19.5 -21 49.5t21.5 50t51.5 20t51.5 -20t21.5 -50q0 -29 -21.5 -49t-51.5 -20q-31 0 -52 19.5zM396.5 826.5
q-21.5 19.5 -21.5 49.5t21.5 50t52.5 20q30 0 51 -20t21 -50t-21 -49.5t-51 -19.5q-31 0 -52.5 19.5z" />
    <glyph glyph-name="Zacute" unicode="&#x179;" horiz-adv-x="630" 
d="M28 89l365 499q26 35 50 59l-6 13q-19 -7 -36 -9t-44 -2h-306v114h547v-92l-359 -492q-14 -19 -26.5 -34.5t-26.5 -29.5l7 -13q19 8 36.5 10t44.5 2h324v-114h-570v89zM261 818l116 149h127l-148 -149h-95z" />
    <glyph glyph-name="zacute" unicode="&#x17a;" horiz-adv-x="548" 
d="M32 84l268 304q37 43 75 74l-5 12q-21 -8 -36 -10.5t-34 -2.5h-250v98h463v-92l-259 -295q-21 -25 -35.5 -40t-40.5 -36l6 -12q37 14 70 14h257v-98h-479v84zM220 614l116 149h127l-148 -149h-95z" />
    <glyph glyph-name="Zdotaccent" unicode="&#x17b;" horiz-adv-x="630" 
d="M28 89l365 499q26 35 50 59l-6 13q-19 -7 -36 -9t-44 -2h-306v114h547v-92l-359 -492q-14 -19 -26.5 -34.5t-26.5 -29.5l7 -13q19 8 36.5 10t44.5 2h324v-114h-570v89zM264 826.5q-21 19.5 -21 49.5t21.5 50t51.5 20t51.5 -20t21.5 -50q0 -29 -21.5 -49t-51.5 -20
q-31 0 -52 19.5z" />
    <glyph glyph-name="zdotaccent" unicode="&#x17c;" horiz-adv-x="548" 
d="M32 84l268 304q37 43 75 74l-5 12q-21 -8 -36 -10.5t-34 -2.5h-250v98h463v-92l-259 -295q-21 -25 -35.5 -40t-40.5 -36l6 -12q37 14 70 14h257v-98h-479v84zM220.5 651.5q-22.5 20.5 -22.5 51.5t22.5 51.5t54.5 20.5q33 0 55 -20.5t22 -51.5t-22 -51.5t-55 -20.5
q-32 0 -54.5 20.5z" />
    <glyph glyph-name="Zcaron" unicode="&#x17d;" horiz-adv-x="630" 
d="M28 89l365 499q26 35 50 59l-6 13q-19 -7 -36 -9t-44 -2h-306v114h547v-92l-359 -492q-14 -19 -26.5 -34.5t-26.5 -29.5l7 -13q19 8 36.5 10t44.5 2h324v-114h-570v89zM144 968h111l27 -35q27 -32 27 -55h14q0 23 27 55l27 35h111l-165 -173h-14z" />
    <glyph glyph-name="zcaron" unicode="&#x17e;" horiz-adv-x="548" 
d="M32 84l268 304q37 43 75 74l-5 12q-21 -8 -36 -10.5t-34 -2.5h-250v98h463v-92l-259 -295q-21 -25 -35.5 -40t-40.5 -36l6 -12q37 14 70 14h257v-98h-479v84zM104 764h111l27 -35q27 -32 27 -55h14q0 23 27 55l27 35h111l-165 -173h-14z" />
    <glyph glyph-name="florin" unicode="&#x192;" horiz-adv-x="450" 
d="M60 -107h51q29 0 43.5 15.5t14.5 52.5v499h-109v99h109v62q0 70 37 106t108 36h82v-97h-55q-29 0 -43 -13.5t-14 -50.5v-43h112v-99h-112v-522q0 -70 -37 -106t-109 -36h-78v97z" />
    <glyph glyph-name="Oslashacute" unicode="&#x1fe;" horiz-adv-x="817" 
d="M756.5 512.5q16.5 -62.5 16.5 -130.5q0 -109 -40.5 -198.5t-123 -143t-201.5 -53.5q-154 0 -250 91l-56 -56l-55 54l62 62q-33 50 -49.5 112.5t-16.5 131.5q0 109 40.5 198t122.5 142t202 53q154 0 249 -90l57 57l55 -55l-62 -62q33 -50 49.5 -112.5zM203 232l366 366
q-62 64 -161 64q-73 0 -126 -35.5t-80.5 -99t-27.5 -145.5q0 -86 29 -150zM580.5 178q61.5 77 61.5 204q0 84 -29 150l-366 -366q62 -65 161 -65q111 0 172.5 77zM352 818l116 149h127l-148 -149h-95z" />
    <glyph glyph-name="oslashacute" unicode="&#x1ff;" horiz-adv-x="647" 
d="M605 282q0 -85 -35.5 -151.5t-99.5 -104t-147 -37.5q-104 0 -178 58l-47 -47l-55 54l50 50q-51 74 -51 178q0 83 35.5 148.5t99.5 102t146 36.5q104 0 178 -58l48 48l54 -55l-49 -49q51 -73 51 -173zM180 190l241 242q-41 35 -98 35q-46 0 -83 -23.5t-57.5 -66
t-20.5 -95.5q0 -51 18 -92zM406 116.5q37 24.5 57.5 67.5t20.5 98q0 47 -17 86l-242 -241q43 -35 98 -35q46 0 83 24.5zM268 614l116 149h127l-148 -149h-95z" />
    <glyph glyph-name="uni0218" unicode="&#x218;" horiz-adv-x="689" 
d="M215.5 13q-70.5 26 -119 83t-58.5 146h129q17 -78 72.5 -112t127.5 -34q69 0 110 29t41 86q0 42 -25.5 67t-63.5 37.5t-105 27.5q-83 18 -135 37t-88.5 61t-36.5 115q0 69 34 118.5t93.5 75t135.5 25.5q114 0 196.5 -59t100.5 -174h-127q-15 63 -61 93.5t-111 30.5
q-62 0 -98 -26t-36 -73q0 -37 23.5 -59t59.5 -33.5t98 -25.5q88 -19 142 -39.5t92.5 -66t38.5 -124.5q0 -107 -73.5 -169.5t-206.5 -62.5q-79 0 -149.5 26zM366 -136q0 2 0.5 5t-0.5 7h-9q-2 -8 -9.5 -12.5t-18.5 -4.5q-19 0 -31 12.5t-12 33.5q0 23 16 37t41 14
q33 0 51.5 -20t18.5 -54q0 -86 -119 -86v32q66 0 72 36z" />
    <glyph glyph-name="uni0219" unicode="&#x219;" horiz-adv-x="569" 
d="M123.5 39q-72.5 50 -86.5 146h119q12 -48 49 -74t95 -26q49 0 78.5 18.5t29.5 52.5q0 27 -18.5 43t-46 24.5t-75.5 18.5q-66 13 -107.5 27t-71 46.5t-29.5 89.5q0 80 60 122t152 42q96 0 160 -49t79 -136h-111q-12 45 -46 67.5t-82 22.5q-45 0 -71 -17t-26 -46
q0 -24 17.5 -38.5t44 -22t73.5 -16.5q67 -12 110 -27t74 -48.5t31 -92.5q0 -81 -60 -129t-165 -48q-104 0 -176.5 50zM306 -136q0 2 0.5 5t-0.5 7h-9q-2 -8 -9.5 -12.5t-18.5 -4.5q-19 0 -31 12.5t-12 33.5q0 23 16 37t41 14q33 0 51.5 -20t18.5 -54q0 -86 -119 -86v32
q66 0 72 36z" />
    <glyph glyph-name="uni021A" unicode="&#x21a;" horiz-adv-x="632" 
d="M252 0v649h-240v114h609v-114h-242v-649h-127zM338 -136q0 2 0.5 5t-0.5 7h-9q-2 -8 -9.5 -12.5t-18.5 -4.5q-19 0 -31 12.5t-12 33.5q0 23 16 37t41 14q33 0 51.5 -20t18.5 -54q0 -86 -119 -86v32q66 0 72 36z" />
    <glyph glyph-name="uni021B" unicode="&#x21b;" horiz-adv-x="376" 
d="M142 30q-33 30 -33 99v332h-84v98h84v204h118v-204h114v-98h-114v-299q0 -32 10 -47.5t44 -15.5h59v-99h-100q-65 0 -98 30zM235 -136q0 2 0.5 5t-0.5 7h-9q-2 -8 -9.5 -12.5t-18.5 -4.5q-19 0 -31 12.5t-12 33.5q0 23 16 37t41 14q33 0 51.5 -20t18.5 -54
q0 -86 -119 -86v32q66 0 72 36z" />
    <glyph glyph-name="uni0237" unicode="&#x237;" horiz-adv-x="248" 
d="M-48 -103h52q29 0 45 14t16 51v597h118v-627q0 -67 -35 -101.5t-102 -34.5h-94v101z" />
    <glyph glyph-name="circumflex" unicode="&#x2c6;" horiz-adv-x="362" 
d="M174 791h14l165 -173h-111l-27 34q-27 34 -27 55h-14q0 -21 -27 -55l-27 -34h-111z" />
    <glyph glyph-name="caron" unicode="&#x2c7;" horiz-adv-x="362" 
d="M9 764h111l27 -35q27 -32 27 -55h14q0 23 27 55l27 35h111l-165 -173h-14z" />
    <glyph glyph-name="breve" unicode="&#x2d8;" horiz-adv-x="356" 
d="M56 650q-42 40 -47 113h74q4 -40 29.5 -60.5t65.5 -20.5q39 0 64 20.5t29 60.5h75q-4 -72 -47 -112.5t-121 -40.5q-80 0 -122 40z" />
    <glyph glyph-name="dotaccent" unicode="&#x2d9;" horiz-adv-x="172" 
d="M31.5 651.5q-22.5 20.5 -22.5 51.5t22.5 51.5t54.5 20.5q33 0 55 -20.5t22 -51.5t-22 -51.5t-55 -20.5q-32 0 -54.5 20.5z" />
    <glyph glyph-name="ring" unicode="&#x2da;" horiz-adv-x="268" 
d="M70.5 594q-28.5 17 -45 46t-16.5 62q0 52 36.5 88t87.5 36t88 -36t37 -88t-36.5 -88.5t-88.5 -36.5q-34 0 -62.5 17zM172 663.5q15 15.5 15 40.5q0 22 -14.5 37t-39.5 15q-23 0 -38 -15t-15 -37q0 -25 15 -40.5t38 -15.5q24 0 39 15.5z" />
    <glyph glyph-name="ogonek" unicode="&#x2db;" horiz-adv-x="192" 
d="M38.5 -191.5q-29.5 23.5 -29.5 64.5q0 38 24.5 64t78.5 46v17h71q-55 -44 -71.5 -61t-16.5 -40q0 -19 11.5 -29.5t33.5 -10.5t43 9v-74q-35 -9 -63 -9q-52 0 -81.5 23.5z" />
    <glyph glyph-name="tilde" unicode="&#x2dc;" horiz-adv-x="383" 
d="M206 621q-21 13 -43 36q-14 15 -22.5 21.5t-19.5 6.5q-31 0 -36 -74h-76q3 73 34 115t83 42q30 0 49.5 -12.5t43.5 -36.5q14 -14 23.5 -21t19.5 -7q14 0 23 18t10 54h78q-5 -79 -31 -117t-81 -38q-34 0 -55 13z" />
    <glyph glyph-name="hungarumlaut" unicode="&#x2dd;" horiz-adv-x="456" 
d="M9 614l117 149h119l-141 -149h-95zM202 614l118 149h127l-149 -149h-96z" />
    <glyph glyph-name="gravecomb" unicode="&#x300;" 
d="M-10 614h-95l-148 149h127z" />
    <glyph glyph-name="acutecomb" unicode="&#x301;" 
d="M-252 614l116 149h127l-148 -149h-95z" />
    <glyph glyph-name="uni0302" unicode="&#x302;" 
d="M-188 791h14l165 -173h-111l-27 34q-27 34 -27 55h-14q0 -21 -27 -55l-27 -34h-111z" />
    <glyph glyph-name="tildecomb" unicode="&#x303;" 
d="M-177 621q-21 13 -43 36q-14 15 -22.5 21.5t-19.5 6.5q-31 0 -36 -74h-76q3 73 34 115t83 42q30 0 49.5 -12.5t43.5 -36.5q14 -14 23.5 -21t19.5 -7q14 0 23 18t10 54h78q-5 -79 -31 -117t-81 -38q-34 0 -55 13z" />
    <glyph glyph-name="uni0304" unicode="&#x304;" 
d="M-308 644v57h299v-57h-299z" />
    <glyph glyph-name="uni0306" unicode="&#x306;" 
d="M-300 650q-42 40 -47 113h74q4 -40 29.5 -60.5t65.5 -20.5q39 0 64 20.5t29 60.5h75q-4 -72 -47 -112.5t-121 -40.5q-80 0 -122 40z" />
    <glyph glyph-name="uni0307" unicode="&#x307;" 
d="M-140.5 651.5q-22.5 20.5 -22.5 51.5t22.5 51.5t54.5 20.5q33 0 55 -20.5t22 -51.5t-22 -51.5t-55 -20.5q-32 0 -54.5 20.5z" />
    <glyph glyph-name="uni0308" unicode="&#x308;" 
d="M-348.5 651.5q-22.5 20.5 -22.5 51.5t22.5 51.5t54.5 20.5q33 0 55 -20.5t22 -51.5t-22 -51.5t-55 -20.5q-32 0 -54.5 20.5zM-141 651.5q-22 20.5 -22 51.5t22 51.5t55 20.5q32 0 54.5 -20.5t22.5 -51.5t-22.5 -51.5t-54.5 -20.5q-33 0 -55 20.5z" />
    <glyph glyph-name="uni030A" unicode="&#x30a;" 
d="M-197.5 594q-28.5 17 -45 46t-16.5 62q0 52 36.5 88t87.5 36t88 -36t37 -88t-36.5 -88.5t-88.5 -36.5q-34 0 -62.5 17zM-96 663.5q15 15.5 15 40.5q0 22 -14.5 37t-39.5 15q-23 0 -38 -15t-15 -37q0 -25 15 -40.5t38 -15.5q24 0 39 15.5z" />
    <glyph glyph-name="uni030B" unicode="&#x30b;" 
d="M-447 614l117 149h119l-141 -149h-95zM-254 614l118 149h127l-149 -149h-96z" />
    <glyph glyph-name="uni030C" unicode="&#x30c;" 
d="M-353 764h111l27 -35q27 -32 27 -55h14q0 23 27 55l27 35h111l-165 -173h-14z" />
    <glyph glyph-name="uni030F" unicode="&#x30f;" 
d="M-279 602l-125 141q-5 5 -5 10q0 4 4 7t10 3h71q12 0 19 -10l98 -141q3 -6 3 -10q0 -9 -13 -9h-42q-13 0 -20 9zM-86 602l-117 141q-4 4 -4 10q0 10 13 10h63q12 0 19 -10l99 -141q4 -4 4 -9q0 -10 -14 -10h-43q-13 0 -20 9z" />
    <glyph glyph-name="uni0312" unicode="&#x312;" 
d="M-100.5 621q-20.5 25 -20.5 66q0 49 33.5 86t103.5 42v-44q-44 -4 -66 -27t-17 -60h9q6 16 29 16q20 0 35 -14t15 -36q0 -24 -17.5 -39t-46.5 -15q-37 0 -57.5 25z" />
    <glyph glyph-name="uni031B" unicode="&#x31b;" 
d="M-101 634q20 28 20 73v40q0 16 16 16h40q16 0 16 -16v-33q0 -79 -39 -125t-119 -46v63q46 0 66 28z" />
    <glyph glyph-name="uni0326" unicode="&#x326;" 
d="M-57 -136q0 2 0.5 5t-0.5 7h-9q-2 -8 -9.5 -12.5t-18.5 -4.5q-19 0 -31 12.5t-12 33.5q0 23 16 37t41 14q33 0 51.5 -20t18.5 -54q0 -86 -119 -86v32q66 0 72 36z" />
    <glyph glyph-name="uni0327" unicode="&#x327;" 
d="M-231 -201v46q53 -19 88 -19q29 0 45.5 12t16.5 33q0 33 -35.5 45.5t-101.5 11.5l74 90h72q-17 -20 -30 -32.5t-37 -28.5l6 -9q12 2 31 2q29 0 45 -8q48 -20 48 -68q0 -43 -35.5 -66t-92.5 -23q-46 0 -94 14z" />
    <glyph glyph-name="uni0328" unicode="&#x328;" 
d="M-153.5 -191.5q-29.5 23.5 -29.5 64.5q0 38 24.5 64t78.5 46v17h71q-55 -44 -71.5 -61t-16.5 -40q0 -19 11.5 -29.5t33.5 -10.5t43 9v-74q-35 -9 -63 -9q-52 0 -81.5 23.5z" />
    <glyph glyph-name="uni0337" unicode="&#x337;" 
d="M-241 277v81l232 120v-81z" />
    <glyph glyph-name="uni0338" unicode="&#x338;" 
d="M-515 17l-55 54l506 505l54 -55z" />
    <glyph glyph-name="uni0394" unicode="&#x394;" horiz-adv-x="704" 
d="M9 0l273 763h140l273 -763h-686zM250 113h204q35 0 72 -12l8 11q-20 37 -30 71l-125 365q-19 57 -19 91h-16q0 -37 -18 -91l-125 -365q-12 -37 -31 -71l9 -11q36 12 71 12z" />
    <glyph glyph-name="pi" unicode="&#x3c0;" horiz-adv-x="605" 
d="M94 456h-69v103h545v-103h-94v-293q0 -41 10 -53.5t41 -12.5h43v-97h-69q-70 0 -105 31.5t-35 104.5v320h-152v-456h-115v456z" />
    <glyph glyph-name="Wgrave" unicode="&#x1e80;" horiz-adv-x="1100" 
d="M16 763h133l143 -541q10 -33 13.5 -50.5t3.5 -37.5h16q0 21 3 39t11 49l135 541h151l135 -541q8 -30 11.5 -48.5t3.5 -39.5h16q0 20 3.5 37t12.5 51l143 541h133l-208 -763h-171l-138 545q-8 37 -8 75h-16q0 -40 -9 -75l-138 -545h-170zM604 818h-95l-148 149h127z" />
    <glyph glyph-name="wgrave" unicode="&#x1e81;" horiz-adv-x="836" 
d="M19 559h126l86 -321q5 -20 7.5 -40t3.5 -43h12q1 27 3.5 44.5t8.5 38.5l99 321h104l100 -321q9 -33 11 -83h13q1 29 2.5 46t7.5 37l88 321h126l-171 -559h-111l-98 329q-7 22 -9 38t-4 45h-12q-2 -26 -4.5 -43t-9.5 -40l-100 -329h-111zM473 614h-95l-148 149h127z" />
    <glyph glyph-name="Wacute" unicode="&#x1e82;" horiz-adv-x="1100" 
d="M16 763h133l143 -541q10 -33 13.5 -50.5t3.5 -37.5h16q0 21 3 39t11 49l135 541h151l135 -541q8 -30 11.5 -48.5t3.5 -39.5h16q0 20 3.5 37t12.5 51l143 541h133l-208 -763h-171l-138 545q-8 37 -8 75h-16q0 -40 -9 -75l-138 -545h-170zM494 818l116 149h127l-148 -149
h-95z" />
    <glyph glyph-name="wacute" unicode="&#x1e83;" horiz-adv-x="836" 
d="M19 559h126l86 -321q5 -20 7.5 -40t3.5 -43h12q1 27 3.5 44.5t8.5 38.5l99 321h104l100 -321q9 -33 11 -83h13q1 29 2.5 46t7.5 37l88 321h126l-171 -559h-111l-98 329q-7 22 -9 38t-4 45h-12q-2 -26 -4.5 -43t-9.5 -40l-100 -329h-111zM362 614l116 149h127l-148 -149
h-95z" />
    <glyph glyph-name="Wdieresis" unicode="&#x1e84;" horiz-adv-x="1100" 
d="M16 763h133l143 -541q10 -33 13.5 -50.5t3.5 -37.5h16q0 21 3 39t11 49l135 541h151l135 -541q8 -30 11.5 -48.5t3.5 -39.5h16q0 20 3.5 37t12.5 51l143 541h133l-208 -763h-171l-138 545q-8 37 -8 75h-16q0 -40 -9 -75l-138 -545h-170zM393 826.5q-21 19.5 -21 49.5
t21.5 50t51.5 20t51.5 -20t21.5 -50q0 -29 -21.5 -49t-51.5 -20q-31 0 -52 19.5zM600.5 826.5q-21.5 19.5 -21.5 49.5t21.5 50t52.5 20q30 0 51 -20t21 -50t-21 -49.5t-51 -19.5q-31 0 -52.5 19.5z" />
    <glyph glyph-name="wdieresis" unicode="&#x1e85;" horiz-adv-x="836" 
d="M19 559h126l86 -321q5 -20 7.5 -40t3.5 -43h12q1 27 3.5 44.5t8.5 38.5l99 321h104l100 -321q9 -33 11 -83h13q1 29 2.5 46t7.5 37l88 321h126l-171 -559h-111l-98 329q-7 22 -9 38t-4 45h-12q-2 -26 -4.5 -43t-9.5 -40l-100 -329h-111zM258.5 651.5
q-22.5 20.5 -22.5 51.5t22.5 51.5t54.5 20.5q33 0 55 -20.5t22 -51.5t-22 -51.5t-55 -20.5q-32 0 -54.5 20.5zM466 651.5q-22 20.5 -22 51.5t22 51.5t55 20.5q32 0 54.5 -20.5t22.5 -51.5t-22.5 -51.5t-54.5 -20.5q-33 0 -55 20.5z" />
    <glyph glyph-name="uni1E9E" unicode="&#x1e9e;" horiz-adv-x="695" 
d="M90.5 621.5q19.5 56.5 60.5 92.5q67 61 195 61q75 0 132.5 -24.5t107.5 -71.5v-105l-82 -81q-26 -26 -62 -50l4 -14q18 2 25 2q29 0 57 -11q57 -20 90 -72.5t33 -124.5q0 -130 -85.5 -176.5t-184.5 -46.5h-99v114h96q57 0 102 23.5t45 91.5t-40.5 90.5t-96.5 22.5h-55
v127l99 98q18 18 34.5 26t36.5 8v16q-13 0 -24 4.5t-21.5 10t-15.5 8.5q-42 22 -96 22q-69 0 -106 -36q-21 -20 -31.5 -53.5t-10.5 -88.5v-484h-127v484q0 81 19.5 137.5z" />
    <glyph glyph-name="Ygrave" unicode="&#x1ef2;" horiz-adv-x="692" 
d="M280 296l-281 467h148l162 -280q17 -29 23 -44t6 -38h16q0 23 5.5 38.5t22.5 44.5l163 279h147l-279 -467v-296h-133v296zM400 818h-95l-148 149h127z" />
    <glyph glyph-name="ygrave" unicode="&#x1ef3;" horiz-adv-x="560" 
d="M70 -103h59q31 0 46.5 9.5t28.5 41.5l20 54l-210 557h128l122 -352q9 -26 14 -67h12q3 35 14 67l112 352h128l-228 -640q-25 -70 -59 -96.5t-97 -26.5h-90v101zM332 614h-95l-148 149h127z" />
    <glyph glyph-name="endash" unicode="&#x2013;" horiz-adv-x="546" 
d="M22 284v87h501v-87h-501z" />
    <glyph glyph-name="emdash" unicode="&#x2014;" horiz-adv-x="1106" 
d="M0 284v87h1106v-87h-1106z" />
    <glyph glyph-name="uni2015" unicode="&#x2015;" horiz-adv-x="799" 
d="M67 296v72h665v-72h-665z" />
    <glyph glyph-name="quoteleft" unicode="&#x2018;" horiz-adv-x="303" 
d="M83.5 503q-25.5 35 -25.5 92q0 70 41.5 121.5t129.5 57.5v-61q-51 -4 -78.5 -31.5t-27.5 -72.5q0 -12 1 -18h12q6 23 36 23q25 0 43.5 -19.5t18.5 -50.5q0 -34 -21.5 -55t-57.5 -21q-46 0 -71.5 35z" />
    <glyph glyph-name="quoteright" unicode="&#x2019;" horiz-adv-x="303" 
d="M151.5 560.5q27.5 27.5 27.5 71.5q0 12 -1 19h-12q-6 -23 -35 -23q-25 0 -43.5 19.5t-18.5 50.5q0 34 21.5 55t57.5 21q46 0 71.5 -35t25.5 -92q0 -70 -41.5 -121.5t-129.5 -57.5v61q50 4 77.5 31.5z" />
    <glyph glyph-name="quotesinglbase" unicode="&#x201a;" horiz-adv-x="272" 
d="M131.5 -77.5q27.5 27.5 27.5 72.5q0 11 -1 17h-12q-6 -22 -36 -22q-25 0 -43.5 19t-18.5 51q0 33 21.5 54t57.5 21q46 0 71.5 -34.5t25.5 -92.5q0 -69 -41.5 -120.5t-128.5 -58.5v62q50 4 77.5 31.5z" />
    <glyph glyph-name="quotedblleft" unicode="&#x201c;" horiz-adv-x="519" 
d="M150.5 681q-27.5 -27 -27.5 -72q0 -12 1 -18h12q6 23 36 23q25 0 43.5 -19.5t18.5 -51.5q0 -33 -21.5 -54t-57.5 -21q-46 0 -71.5 35t-25.5 92q0 69 41.5 120.5t129.5 58.5v-62q-51 -4 -78.5 -31zM367.5 681q-27.5 -27 -27.5 -71q0 -12 1 -19h12q6 23 35 23
q25 0 43.5 -19.5t18.5 -51.5q0 -33 -21.5 -54t-57.5 -21q-46 0 -71.5 35t-25.5 92q0 69 41.5 120.5t129.5 58.5v-62q-50 -4 -77.5 -31z" />
    <glyph glyph-name="quotedblright" unicode="&#x201d;" horiz-adv-x="520" 
d="M151.5 560.5q27.5 27.5 27.5 71.5q0 12 -1 19h-12q-6 -23 -35 -23q-25 0 -43.5 19.5t-18.5 50.5q0 34 21.5 55t57.5 21q46 0 71.5 -35t25.5 -92q0 -70 -41.5 -121.5t-129.5 -57.5v61q50 4 77.5 31.5zM367.5 560.5q27.5 27.5 27.5 71.5q0 12 -1 19h-12q-6 -23 -35 -23
q-25 0 -43.5 19.5t-18.5 50.5q0 34 21.5 55t57.5 21q46 0 71.5 -35t25.5 -92q0 -70 -41.5 -121.5t-129.5 -57.5v61q50 4 77.5 31.5z" />
    <glyph glyph-name="quotedblbase" unicode="&#x201e;" horiz-adv-x="489" 
d="M140.5 -78.5q27.5 27.5 27.5 71.5q0 12 -1 19h-12q-6 -23 -35 -23q-25 0 -43.5 19.5t-18.5 50.5q0 34 21.5 55t57.5 21q46 0 71.5 -35t25.5 -92q0 -70 -41.5 -121.5t-129.5 -57.5v61q50 4 77.5 31.5zM356.5 -78.5q27.5 27.5 27.5 71.5q0 12 -1 19h-12q-6 -23 -35 -23
q-25 0 -43.5 19.5t-18.5 50.5q0 34 21.5 55t57.5 21q46 0 71.5 -35t25.5 -92q0 -70 -41.5 -121.5t-129.5 -57.5v61q50 4 77.5 31.5z" />
    <glyph glyph-name="dagger" unicode="&#x2020;" horiz-adv-x="613" 
d="M261 -204v642h-234v91h234v234h91v-234h234v-91h-234v-642h-91z" />
    <glyph glyph-name="bullet" unicode="&#x2022;" horiz-adv-x="403" 
d="M137.5 149q-29.5 17 -47 46.5t-17.5 64.5t17.5 64.5t47 46.5t63.5 17q35 0 64.5 -17t47 -46.5t17.5 -64.5t-17.5 -64.5t-47 -46.5t-64.5 -17q-34 0 -63.5 17z" />
    <glyph glyph-name="uni2023" unicode="&#x2023;" horiz-adv-x="440" 
d="M105 97v363l315 -181z" />
    <glyph glyph-name="ellipsis" unicode="&#x2026;" horiz-adv-x="688" 
d="M70 10.5q-22 21.5 -22 51.5t22 51.5t53 21.5q29 0 50 -21.5t21 -51.5t-21 -51.5t-50 -21.5q-31 0 -53 21.5zM292.5 10.5q-21.5 21.5 -21.5 51.5t21.5 51.5t52.5 21.5q30 0 51.5 -21.5t21.5 -51.5t-22 -51.5t-51 -21.5q-31 0 -52.5 21.5zM515.5 10.5
q-21.5 21.5 -21.5 51.5t21.5 51.5t51.5 21.5q29 0 51 -21.5t22 -51.5t-22 -51.5t-51 -21.5q-30 0 -51.5 21.5z" />
    <glyph glyph-name="perthousand" unicode="&#x2030;" horiz-adv-x="1137" 
d="M122.5 444.5q-36.5 22.5 -56.5 63t-20 91.5q0 77 43.5 126.5t112.5 49.5q44 0 80 -23t56 -63.5t20 -89.5t-20 -89.5t-55 -64t-78 -23.5q-46 0 -82.5 22.5zM108 0l461 763h101l-462 -763h-100zM251 537.5q18 24.5 18 61.5q0 38 -19 62.5t-48 24.5q-30 0 -48 -24t-18 -63
q0 -40 18.5 -63t50.5 -23q28 0 46 24.5zM500 9.5q-36 22.5 -56.5 63t-20.5 91.5q0 50 20 90.5t55.5 63t80.5 22.5q44 0 80 -23.5t56.5 -64t20.5 -89.5t-20 -89t-55.5 -63.5t-78.5 -23.5q-46 0 -82 22.5zM855.5 9.5q-36.5 22.5 -57 63t-20.5 91.5q0 50 20 90.5t56 63t81 22.5
q44 0 80 -23.5t56 -64t20 -89.5t-20 -89t-55 -63.5t-78 -23.5q-46 0 -82.5 22.5zM628.5 101q18.5 25 18.5 62q0 39 -19 63t-49 24t-47.5 -23t-17.5 -63q0 -41 18.5 -64.5t49.5 -23.5q28 0 46.5 25zM983.5 101q18.5 25 18.5 62q0 39 -19 63t-48 24q-31 0 -48.5 -23t-17.5 -63
q0 -41 18.5 -64.5t50.5 -23.5q27 0 45.5 25z" />
    <glyph glyph-name="guilsinglleft" unicode="&#x2039;" horiz-adv-x="307" 
d="M9 276l227 190v-101l-60 -50q-29 -24 -60 -32v-14q31 -9 60 -32l60 -50v-101z" />
    <glyph glyph-name="guilsinglright" unicode="&#x203a;" horiz-adv-x="307" 
d="M71 187l60 50q29 23 60 32v14q-31 8 -60 32l-60 50v101l227 -190l-227 -190v101z" />
    <glyph glyph-name="fraction" unicode="&#x2044;" horiz-adv-x="163" 
d="M-172 0l440 763h67l-440 -763h-67z" />
    <glyph glyph-name="Euro" unicode="&#x20ac;" horiz-adv-x="600" 
d="M239.5 60q-87.5 73 -119.5 194h-72v78h68q-2 36 -2 53q0 18 2 52h-68v80h75q35 118 121 188t226 70q32 0 70 -5v-118q-33 9 -70 9q-107 0 -167 -73l-15 -20q-19 -25 -41 -49l8 -12q26 7 41.5 8.5t34.5 1.5h178v-80h-269q-2 -34 -2 -53q0 -20 2 -52h269v-78h-178
q-20 0 -36.5 1.5t-43.5 8.5l-7 -11q18 -19 41 -51l14 -19q63 -84 171 -84q28 0 70 8v-115q-55 -5 -70 -5q-143 0 -230.5 73z" />
    <glyph glyph-name="uni2116" unicode="&#x2116;" horiz-adv-x="1281" 
d="M881.5 322.5q-53.5 30.5 -83 86t-29.5 127.5q0 69 29.5 123.5t83 85t121.5 30.5t121.5 -30.5t83.5 -85t30 -123.5q0 -71 -29.5 -126.5t-83 -86.5t-122.5 -31q-68 0 -121.5 30.5zM71 763h154l272 -497q14 -25 22.5 -44.5t18.5 -53.5l16 3q-6 42 -6 94v498h126v-763h-153
l-274 500q-13 23 -21.5 42.5t-17.5 52.5l-16 -4q6 -42 6 -93v-498h-127v763zM1099 422q38 45 38 114q0 67 -37.5 110.5t-96.5 43.5t-96.5 -43.5t-37.5 -110.5q0 -70 38 -114.5t96 -44.5t96 45zM799 127v88h410v-88h-410z" />
    <glyph glyph-name="trademark" unicode="&#x2122;" horiz-adv-x="650" 
d="M89 458v241h-86v64h244v-64h-86v-241h-72zM293 763h116l40 -175q1 -4 3.5 -19t2.5 -37h6q0 26 7 56l40 175h116v-305h-71v192q0 26 3 52h-6l-11 -51l-45 -193h-70l-46 193q-7 30 -10 51h-6q3 -26 3 -52v-192h-72v305z" />
    <glyph glyph-name="minus" unicode="&#x2212;" horiz-adv-x="653" 
d="M107 294v91h438v-91h-438z" />
    <glyph glyph-name="lozenge" unicode="&#x25ca;" horiz-adv-x="654" 
d="M238 0l-206 382l206 381h178l206 -382l-206 -381h-178zM327 58l164 325l-164 322l-163 -322z" />
    <glyph glyph-name="uniF8FF" unicode="&#xf8ff;" horiz-adv-x="906" 
d="M71 10v743q0 10 9 10h744q10 0 10 -10v-743q0 -10 -10 -10h-744q-9 0 -9 10zM247 94q11 11 17 22.5t14 31.5q13 36 33 69t67 82l25 26q4 4 8 4q5 0 9 -3q7 -4 17 -6q10 -3 10 -13v-36q0 -43 -5.5 -67t-15.5 -47q-10 -20 -10 -37q0 -14 11 -25t25 -11q15 0 26 11t11 25
q0 17 -10 37q-10 23 -15.5 47t-5.5 67v36q0 10 10 13q13 4 15 6q5 3 8 3q5 0 9 -4l26 -26q48 -48 68 -81.5t33 -69.5q6 -19 12 -30.5t18 -23.5q17 -15 40 -15q26 0 41 15q17 17 17 42t-16 40q-12 12 -23.5 18t-30.5 12q-37 13 -70 32.5t-81 67.5l-26 26q-4 4 -4 9q0 3 3 7
q6 12 7 18q3 11 12 11h36q44 0 68.5 -6t46.5 -16q2 -1 13 -5.5t24 -4.5q14 0 25 11t11 26q0 14 -11 25.5t-25 11.5q-13 0 -24 -4.5t-13 -5.5q-22 -10 -46.5 -16t-68.5 -6h-36q-9 0 -12 11q-4 10 -7 15t-3 8q0 4 4 8l26 26q48 48 82 68.5t69 31.5q4 2 16 6.5t21 10t16 13.5
q17 19 17 41q0 24 -17 41q-16 16 -41 16t-40 -15q-11 -11 -17 -22.5t-14 -32.5q-13 -37 -32.5 -70t-67.5 -81l-25 -24q-3 -4 -9 -4q-4 0 -7 2q-5 3 -17 7q-10 3 -10 13v36q0 43 5.5 67t15.5 47q10 20 10 37q0 14 -11 25t-25 11q-15 0 -26 -11t-11 -25q0 -17 10 -37
q10 -23 15.5 -47t5.5 -67v-36q0 -10 -10 -13q-2 -1 -7.5 -2.5t-9.5 -4.5q-3 -2 -7 -2q-6 0 -10 4l-25 24q-49 49 -69.5 83t-31.5 69q-7 19 -13 31t-17 23q-16 16 -40 16q-22 0 -40 -16q-17 -17 -17 -42t16 -41q11 -11 22.5 -17t30.5 -13q36 -13 69 -33t82 -67l26 -25
q4 -4 4 -8q0 -3 -3 -8q-2 -3 -7 -16q-3 -11 -12 -11h-36q-44 0 -68.5 6t-46.5 16q-2 1 -13 5.5t-24 4.5q-14 0 -25 -11.5t-11 -25.5q0 -15 11 -26t25 -11q13 0 24 4.5t13 5.5q22 10 46.5 16t68.5 6h36q9 0 12 -11q5 -12 8 -17q2 -6 2 -7q0 -5 -4 -9l-26 -27
q-48 -49 -81.5 -68.5t-69.5 -31.5q-20 -7 -31.5 -13t-22.5 -17q-16 -15 -16 -40q0 -24 16 -41q16 -16 42 -16q25 0 40 15zM414 343.5q-16 16.5 -16 38.5t16 38t38 16t38 -16t16 -38q0 -23 -16 -39t-38 -16t-38 16.5zM484 354l-6 6q-10 -13 -26 -13q-14 0 -24 10.5t-10 24.5
t10.5 24t23.5 10q16 0 27 -13l5 6q-10 15 -32 15q-17 0 -30 -12.5t-13 -29.5t13 -30t30 -13q22 0 32 15z" />
    <glyph glyph-name="i.loclTRK" horiz-adv-x="247" 
d="M65 0v559h118v-559h-118zM69.5 651.5q-22.5 20.5 -22.5 51.5t22.5 51.5t54.5 20.5q33 0 55 -20.5t22 -51.5t-22 -51.5t-55 -20.5q-32 0 -54.5 20.5z" />
    <glyph glyph-name="uni030C.alt" 
d="M-93.5 560.5q27.5 27.5 27.5 71.5q0 12 -1 19h-12q-6 -23 -35 -23q-25 0 -43.5 19.5t-18.5 50.5q0 34 21.5 55t57.5 21q46 0 71.5 -35t25.5 -92q0 -70 -41.5 -121.5t-129.5 -57.5v61q50 4 77.5 31.5z" />
    <glyph glyph-name="uni0308.case" 
d="M-385 826.5q-21 19.5 -21 49.5t21.5 50t51.5 20t51.5 -20t21.5 -50q0 -29 -21.5 -49t-51.5 -20q-31 0 -52 19.5zM-177.5 826.5q-21.5 19.5 -21.5 49.5t21.5 50t52.5 20q30 0 51 -20t21 -50t-21 -49.5t-51 -19.5q-31 0 -52.5 19.5z" />
    <glyph glyph-name="uni0307.case" 
d="M-177 826.5q-21 19.5 -21 49.5t21.5 50t51.5 20t51.5 -20t21.5 -50q0 -29 -21.5 -49t-51.5 -20q-31 0 -52 19.5z" />
    <glyph glyph-name="uni0328.case" 
d="M-153.5 -191.5q-29.5 23.5 -29.5 64.5q0 38 24.5 64t78.5 46v17h71q-55 -44 -71.5 -61t-16.5 -40q0 -19 11.5 -29.5t33.5 -10.5t43 9v-74q-35 -9 -63 -9q-52 0 -81.5 23.5z" />
    <glyph glyph-name="uni0335.case" 
d="M-487 294v91h414v-91h-414z" />
    <glyph glyph-name="uni0337.case" 
d="M-399 230v93l377 194v-92z" />
    <glyph glyph-name="uni0338.case" 
d="M-646 17l-55 54l667 666l55 -55z" />
    <glyph glyph-name="base_No" horiz-adv-x="491" 
d="M0 0v105h491v-105h-491z" />
    </font>
</defs>
</svg>
