<?xml version="1.0" standalone="no"?>
<!DOCTYPE svg PUBLIC "-//W3C//DTD SVG 1.1//EN" "http://www.w3.org/Graphics/SVG/1.1/DTD/svg11.dtd" >
<svg xmlns="http://www.w3.org/2000/svg" xmlns:xlink="http://www.w3.org/1999/xlink" version="1.1">
<metadata>
Created by FontForge 20170731 at Wed Apr  8 16:31:30 2020
 By Aleksey,,,
Copyright (c) 2020 by Alfredo Marco Pradil. All rights reserved.
</metadata>
<defs>
<font id="OpenSauceSans-BlackItalic" horiz-adv-x="0" >
  <font-face 
    font-family="Open Sauce Sans Black Italic"
    font-weight="900"
    font-style="italic"
    font-stretch="normal"
    units-per-em="1000"
    panose-1="0 0 10 0 0 0 0 0 0 0"
    ascent="763"
    descent="-237"
    x-height="567"
    cap-height="763"
    bbox="-796 -237 1310 1030"
    underline-thickness="50"
    underline-position="-150"
    slope="-10"
    unicode-range="U+0020-FB02"
  />
<missing-glyph horiz-adv-x="594" 
d="M-1 0l100 567h460l-100 -567h-460zM46 40h380l86 487h-380z" />
    <glyph glyph-name="fi" unicode="fi" horiz-adv-x="692" 
d="M128 437h-81l23 130h81l10 55q12 67 60.5 104t126.5 37h93l-23 -129h-52q-33 0 -40 -36q-1 -9 -4 -16.5t-11 -13.5l8 -10q8 6 18 7.5t25 1.5h44l-23 -130h-85l-77 -437h-170zM404 0l100 567h168l-100 -567h-168zM536.5 625q-22.5 19 -22.5 51q0 45 33 74t78 29
q36 0 58.5 -19t22.5 -52q0 -46 -33 -74t-78 -28q-36 0 -58.5 19z" />
    <glyph glyph-name="fl" unicode="fl" horiz-adv-x="707" 
d="M128 437h-81l23 130h81l10 55q12 67 60.5 104t126.5 37h93l-23 -129h-52q-33 0 -40 -36q-1 -9 -4 -16.5t-11 -13.5l8 -10q8 6 18 7.5t25 1.5h44l-23 -130h-85l-77 -437h-170zM436.5 22.5q-28.5 22.5 -28.5 65.5q0 16 2 25l115 650h168l-105 -592q-1 -3 -1 -9
q0 -26 28 -26h42l-24 -136h-113q-55 0 -83.5 22.5z" />
    <glyph glyph-name="s_a_u_c_e_l_o_g_o.liga" unicode="saucelogo" horiz-adv-x="897" 
d="M1 10l131 743q2 10 11 10h744q10 0 8 -10l-131 -743q-1 -4 -4 -7t-8 -3h-744q-9 0 -7 10zM192 94q13 11 22.5 25t17.5 28q19 36 45 69.5t82 82.5l29 26q5 4 9 4q5 0 8 -3q7 -4 16 -6q9 -3 8 -13l-6 -36q-8 -43 -17.5 -66t-23.5 -48q-14 -21 -17 -37q-2 -14 7 -25t23 -11
q15 0 28 11t15 25q1 4 1 12q0 7 -4 25q-7 28 -7 51q0 32 6 63l6 36q1 9 12 13q13 4 16 6q6 3 9 3q5 0 8 -4l22 -26q40 -48 54 -81.5t20 -69.5q4 -20 8 -31.5t13 -22.5q14 -15 37 -15q26 0 44 15q25 22 25 53q0 19 -10 29q-9 12 -19.5 18t-29.5 12q-35 14 -64.5 33t-68.5 67
l-21 26q-3 3 -3 9l4 7q8 12 11 18q5 11 13 11h36q45 0 68.5 -6t42.5 -16q3 -1 13 -5.5t23 -4.5q16 0 29.5 13.5t13.5 30.5q0 12 -8.5 21t-21.5 9t-25 -4.5t-14 -5.5q-22 -10 -48 -16t-71 -6h-36q-8 0 -10 11q-2 10 -4 15q-2 3 -2 8q3 6 6 8l30 26q57 48 94.5 68.5t74.5 31.5
q4 2 16.5 6.5t22.5 10t19 13.5q25 23 25 52q0 19 -10 30q-13 16 -39 16q-24 0 -42 -15q-13 -11 -21 -22.5t-20 -32.5q-19 -37 -44.5 -70t-82.5 -81l-29 -24q-3 -4 -9 -4q-4 0 -7 2q-6 4 -16 7q-9 3 -8 13l7 36q7 44 17 68t24 45q2 3 8 14.5t8 23.5q3 14 -6 25t-23 11
q-15 0 -28 -11t-16 -25q-1 -4 -1 -11q0 -8 4 -26q8 -24 8 -53q0 -22 -6 -61l-7 -36q-1 -9 -12 -13q-2 -1 -8 -2.5t-10 -4.5q-3 -2 -8 -2q-6 0 -9 4l-21 24q-40 48 -54.5 82.5t-19.5 69.5q-3 19 -7 31t-13 23q-13 16 -37 16q-22 0 -43 -16q-26 -23 -26 -52q0 -20 10 -31
q9 -11 19.5 -17t28.5 -13q33 -13 63 -33t70 -67l22 -25q3 -5 2 -8q0 -4 -4 -8q-2 -2 -10 -16q-5 -11 -14 -11h-36q-44 0 -68 6t-43 16q-2 1 -12 5.5t-23 4.5q-16 0 -29.5 -13t-13.5 -29q0 -14 8.5 -23t21.5 -9q12 0 23.5 4.5t15.5 5.5q22 10 47.5 16t70.5 6h36q9 0 11 -11
q2 -12 5 -17v-5q0 -6 -5 -11l-31 -27q-56 -49 -93 -68.5t-76 -31.5q-21 -7 -33.5 -13t-25.5 -17q-11 -9 -17.5 -23t-6.5 -28q0 -17 10 -30q13 -16 39 -16q25 0 43 15zM405.5 340.5q-13.5 13.5 -13.5 32.5q0 24 20.5 43.5t44.5 19.5q20 0 32.5 -13t12.5 -32
q0 -25 -19.5 -44.5t-44.5 -19.5q-19 0 -32.5 13.5zM474 354l-5 6q-11 -13 -28 -13q-12 0 -20 8.5t-8 21.5q0 15 12.5 27t27.5 12t25 -13l6 6q-7 15 -29 15q-19 0 -35.5 -15t-16.5 -34q0 -15 10.5 -25.5t26.5 -10.5q22 0 34 15z" />
    <glyph glyph-name=".notdef" horiz-adv-x="594" 
d="M-1 0l100 567h460l-100 -567h-460zM46 40h380l86 487h-380z" />
    <glyph glyph-name=".null" 
 />
    <glyph glyph-name="nonmarkingreturn" horiz-adv-x="333" 
 />
    <glyph glyph-name="space" unicode=" " horiz-adv-x="280" 
 />
    <glyph glyph-name="exclam" unicode="!" horiz-adv-x="308" 
d="M62 269q14 142 26 213l50 281h168l-50 -281q-10 -58 -25.5 -120.5t-18.5 -73.5l-12 -49h-141zM28.5 10q-22.5 22 -22.5 55q0 29 16 54.5t42 41t55 15.5q34 0 56 -22t22 -55q0 -29 -16 -54.5t-41.5 -41t-53.5 -15.5q-35 0 -57.5 22z" />
    <glyph glyph-name="quotedbl" unicode="&#x22;" horiz-adv-x="375" 
d="M51 468l52 295h110l-52 -295h-110zM239 468l52 295h110l-52 -295h-110z" />
    <glyph glyph-name="numbersign" unicode="#" horiz-adv-x="752" 
d="M47 0l87 219h-121l20 113h145l42 109h-125l21 118h150l84 204h126l-84 -210h108l81 210h127l-87 -210h121l-20 -112h-144l-45 -109h126l-20 -113h-149l-87 -219h-124l86 219h-109l-84 -219h-125zM304 332h107l42 109h-109z" />
    <glyph glyph-name="dollar" unicode="$" horiz-adv-x="716" 
d="M72.5 68q-69.5 70 -60.5 191h184q6 -48 30 -77q9 -11 36 -34l32 -28l13 8q-2 20 -2 28q0 11 4 41l20 116q-129 30 -189.5 72.5t-60.5 121.5q0 83 45 145t121 95t167 33l20 116h60l-21 -119q102 -19 159.5 -83t51.5 -169h-178q-3 31 -16 58q-8 12 -13 18q-12 16 -26 37
l-14 -7q3 -15 3 -32q0 -8 -2 -22l-20 -111q123 -25 182.5 -70t59.5 -124q0 -84 -43 -148.5t-117.5 -101t-166.5 -39.5l-22 -125h-60l22 126q-129 14 -198.5 84zM366 496q0 26 4 46l8 49q4 22 20 53l-10 9q-26 -15 -47 -23t-29 -12q-49 -21 -49 -63q0 -32 37 -52
q3 -2 18 -9.5t37 -29.5l12 9q-1 7 -1 23zM403 143q18 9 30 17q40 24 40 68q0 26 -19 43q-7 5 -25 16t-38 29l-13 -8q2 -22 2 -29q0 -13 -4 -39l-9 -51q-4 -18 -7.5 -29.5t-13.5 -32.5l10 -9q28 16 47 25z" />
    <glyph glyph-name="percent" unicode="%" horiz-adv-x="777" 
d="M114 455q-40 37 -40 103q0 59 26 110t72.5 81t103.5 30q62 0 100.5 -41t38.5 -104q0 -55 -27.5 -105t-73 -80.5t-98.5 -30.5q-62 0 -102 37zM11 0l621 763h129l-622 -763h-128zM275.5 563q16.5 22 16.5 52q0 21 -10.5 31.5t-26.5 10.5q-28 0 -42.5 -23.5t-14.5 -53.5
q0 -39 39 -39q22 0 38.5 22zM402 20q-40 37 -40 103q0 59 26.5 109.5t72.5 80.5t103 30q62 0 101 -40.5t39 -104.5q0 -54 -27.5 -104t-73.5 -80.5t-99 -30.5q-62 0 -102 37zM563.5 126q17.5 22 17.5 51q0 22 -11 33t-27 11q-29 0 -43 -23t-14 -54q0 -40 39 -40q21 0 38.5 22
z" />
    <glyph glyph-name="ampersand" unicode="&#x26;" horiz-adv-x="766" 
d="M119 2.5q-53 19.5 -84.5 58t-31.5 92.5q0 61 37.5 118.5t93.5 94.5q48 34 100 44l4 14q-31 14 -47 35q-32 37 -32 92q0 65 35 117t94.5 81.5t129.5 29.5q82 0 133.5 -35t51.5 -105q0 -60 -36.5 -119.5t-88.5 -94.5q-5 -3 -17 -11t-19.5 -11.5t-17.5 -4.5l-4 -14
q18 -5 24.5 -11t18.5 -27l9 -16q2 -3 7.5 -13t9.5 -21t6 -23l14 -3q17 29 28 55t20 60h154q-33 -138 -125 -239l90 -146h-202q-1 2 -5 8.5t-4 18.5q0 13 4 30l-13 6q-34 -34 -86 -57q-56 -23 -135 -23q-63 0 -116 19.5zM440 605q0 18 -11.5 30t-33.5 12q-30 0 -49.5 -21
t-19.5 -54q0 -21 7.5 -37.5t22.5 -38.5q84 54 84 109zM324.5 133.5q31.5 8.5 56.5 22.5l-95 156q-53 -31 -83.5 -61t-30.5 -66q0 -29 26.5 -44.5t66.5 -15.5q28 0 59.5 8.5z" />
    <glyph glyph-name="quotesingle" unicode="'" horiz-adv-x="205" 
d="M60 468l52 295h110l-52 -295h-110z" />
    <glyph glyph-name="parenleft" unicode="(" horiz-adv-x="300" 
d="M33 186q0 107 28.5 231.5t83.5 244t131 210.5h107q-106 -140 -164.5 -331.5t-58.5 -377.5q0 -150 50 -273h-117q-60 118 -60 296z" />
    <glyph glyph-name="parenright" unicode=")" horiz-adv-x="300" 
d="M302 577q0 -107 -28.5 -231.5t-83.5 -244t-131 -210.5h-107q106 140 164.5 331.5t58.5 377.5q0 150 -50 273h117q60 -118 60 -296z" />
    <glyph glyph-name="asterisk" unicode="*" horiz-adv-x="430" 
d="M129 526.5q27 19.5 75 44.5l-2 13q-36 -2 -48 -2q-38 0 -64 4t-31 5l56 104q32 -15 53 -28.5t50 -43.5l12 9q-11 54 -11 98l1 33h119q-10 -33 -21 -60t-34 -70l9 -9q40 30 67.5 44.5t59.5 26.5l18 -104q-50 -8 -89 -8q-13 0 -55 2l-6 -13q38 -25 57.5 -44.5t38.5 -45.5
l-107 -64q-11 35 -17.5 63.5t-11.5 66.5h-14q-18 -38 -34 -65t-40 -65l-85 64q27 25 54 44.5z" />
    <glyph glyph-name="plus" unicode="+" horiz-adv-x="636" 
d="M249 56v221h-220v121h220v221h123v-221h221v-121h-221v-221h-123z" />
    <glyph glyph-name="comma" unicode="," horiz-adv-x="317" 
d="M87.5 -59.5q36.5 24.5 43.5 71.5h-12q-8 -12 -18 -17.5t-26 -5.5q-26 0 -44.5 19t-18.5 51q0 51 34.5 84t86.5 33q46 0 69.5 -28t23.5 -76q0 -68 -31.5 -122t-88 -85.5t-128.5 -34.5l15 86q58 0 94.5 24.5z" />
    <glyph glyph-name="hyphen" unicode="-" horiz-adv-x="387" 
d="M7 247l25 143h327l-25 -143h-327z" />
    <glyph glyph-name="period" unicode="." horiz-adv-x="288" 
d="M36 10q-23 22 -23 56q0 28 16.5 53.5t42.5 41t55 15.5q33 0 55 -23t22 -56q0 -26 -16 -51.5t-41.5 -41.5t-52.5 -16q-35 0 -58 22z" />
    <glyph glyph-name="slash" unicode="/" horiz-adv-x="505" 
d="M-105 -111l510 874h148l-509 -874h-149z" />
    <glyph glyph-name="zero" unicode="0" horiz-adv-x="679" 
d="M96.5 43q-60.5 60 -60.5 194q0 65 15 147q37 210 127 302.5t230 92.5q114 0 174 -60.5t60 -194.5q0 -68 -14 -145q-37 -210 -127 -303t-230 -93q-114 0 -174.5 60zM358 161q27 18 50.5 70.5t40.5 149.5q13 74 13 123q0 66 -21.5 90.5t-62.5 24.5q-36 0 -62 -18.5t-48 -70
t-39 -148.5q-14 -77 -14 -131q0 -63 20 -85.5t60 -22.5q36 0 63 18z" />
    <glyph glyph-name="one" unicode="1" horiz-adv-x="478" 
d="M272 554l-11 5q-25 -28 -52 -49q-39 -30 -83 -48t-85 -22l28 161q158 30 236 162h173l-135 -763h-179l82 463q9 50 26 91z" />
    <glyph glyph-name="two" unicode="2" horiz-adv-x="656" 
d="M22 158l228 180q80 63 120.5 101.5t55.5 65.5t15 56q0 31 -19.5 49.5t-62.5 18.5q-50 0 -78 -40t-36 -102h-179q30 144 112 218t208 74q107 0 168.5 -50.5t61.5 -145.5q0 -64 -25 -116t-65.5 -94t-106.5 -97l-103 -86q-24 -20 -61 -40l5 -12q5 2 20.5 9.5t29.5 10t32 2.5
h232l-28 -160h-552z" />
    <glyph glyph-name="three" unicode="3" horiz-adv-x="667" 
d="M82.5 43q-67.5 60 -67.5 167q0 12 2 38h180q-3 -57 21 -86t79 -29q58 0 91 35.5t33 89.5q0 71 -107 71h-46l25 140h39q48 0 78 28.5t30 72.5q0 59 -72 59q-79 0 -110 -88h-158q25 109 106.5 173.5t192.5 64.5q65 0 114 -22.5t75 -63t26 -92.5q0 -45 -17.5 -85.5t-49 -65
t-71.5 -24.5l-3 -16q68 -2 98.5 -39t30.5 -94q0 -84 -45 -151t-122 -105t-168 -38q-117 0 -184.5 60z" />
    <glyph glyph-name="four" unicode="4" horiz-adv-x="655" 
d="M284 0l29 165h-313l30 170l396 428h172l-78 -438h85l-28 -160h-85l-29 -165h-179zM220.5 323.5q13.5 1.5 34.5 1.5h86l24 136q5 28 9 41.5t15 35.5l-11 4q-25 -32 -43 -52l-100 -115q-20 -24 -55 -48l4 -12q23 7 36.5 8.5z" />
    <glyph glyph-name="five" unicode="5" horiz-adv-x="668" 
d="M294 557q-8 -23 -33 -69l10 -7q24 23 57.5 35.5t71.5 12.5q94 0 148 -55.5t54 -149.5q0 -96 -43.5 -174t-121 -122.5t-174.5 -44.5q-78 0 -134.5 30t-85 85t-24.5 128h179q5 -42 28 -62.5t66 -20.5q38 0 67.5 20.5t45 54.5t15.5 72q0 42 -23 67.5t-62 25.5
q-38 0 -67.5 -16.5t-54.5 -53.5h-167l165 450h440l-29 -160h-311z" />
    <glyph glyph-name="six" unicode="6" horiz-adv-x="674" 
d="M99.5 49.5q-62.5 66.5 -62.5 197.5q0 137 45.5 259t133 197.5t205.5 75.5t177.5 -64t51.5 -177h-158q-1 44 -26.5 67.5t-70.5 23.5q-54 0 -89.5 -27.5t-58.5 -79.5q-3 -8 -11.5 -32t-20.5 -43l12 -6q71 70 170 70q95 0 151.5 -51t56.5 -143q0 -91 -43.5 -167.5
t-118.5 -121.5t-167 -45q-114 0 -176.5 66.5zM365.5 155.5q28.5 22.5 43.5 59t15 77.5q0 40 -21 62.5t-61 22.5q-59 0 -93.5 -44t-34.5 -107q0 -43 22 -68t63 -25q38 0 66.5 22.5z" />
    <glyph glyph-name="seven" unicode="7" horiz-adv-x="591" 
d="M395.5 576.5q15.5 18.5 48.5 46.5l-8 11q-29 -20 -54 -25.5t-61 -5.5h-249l27 160h522l-34 -189l-362 -574h-215l356 536q14 22 29.5 40.5z" />
    <glyph glyph-name="eight" unicode="8" horiz-adv-x="683" 
d="M136 8q-58 25 -88.5 70.5t-30.5 104.5q0 81 46 142.5t127 87.5l2 13q-78 28 -78 112q0 70 41 125t109.5 85.5t147.5 30.5q104 0 165 -47.5t61 -125.5q0 -64 -34.5 -112.5t-95.5 -67.5l-2 -13q107 -39 107 -148q0 -81 -46.5 -145.5t-125 -100.5t-169.5 -36q-78 0 -136 25z
M434.5 501.5q29.5 31.5 29.5 72.5q0 30 -19.5 47.5t-56.5 17.5q-48 0 -77 -28.5t-29 -70.5q0 -31 19.5 -50.5t56.5 -19.5q47 0 76.5 31.5zM369 151.5q31 18.5 48.5 49t17.5 64.5q0 40 -25.5 64.5t-72.5 24.5q-39 0 -70 -18t-48.5 -49t-17.5 -67q0 -38 25.5 -62.5t71.5 -24.5
q40 0 71 18.5z" />
    <glyph glyph-name="nine" unicode="9" horiz-adv-x="674" 
d="M571.5 713.5q62.5 -66.5 62.5 -197.5q0 -137 -45.5 -259t-133 -197.5t-205.5 -75.5t-177.5 64t-51.5 177h158q1 -44 26.5 -67.5t70.5 -23.5q54 0 89.5 27.5t58.5 79.5q3 8 11.5 32t20.5 43l-12 6q-71 -70 -170 -70q-95 0 -151.5 51t-56.5 143q0 91 43.5 167.5
t118.5 121.5t167 45q114 0 176.5 -66.5zM305.5 607.5q-28.5 -22.5 -43.5 -59t-15 -77.5q0 -40 21 -62.5t61 -22.5q59 0 93.5 44t34.5 107q0 43 -22 68t-63 25q-38 0 -66.5 -22.5z" />
    <glyph glyph-name="colon" unicode=":" horiz-adv-x="288" 
d="M97.5 361q-22.5 23 -22.5 56q0 28 16 53.5t42.5 41t54.5 15.5q33 0 55 -22.5t22 -55.5q0 -28 -15.5 -54t-41 -41.5t-53.5 -15.5q-35 0 -57.5 23zM35.5 10q-22.5 22 -22.5 55q0 29 16 54.5t42 41t55 15.5q34 0 56 -22t22 -55q0 -29 -16 -54.5t-41.5 -41t-53.5 -15.5
q-35 0 -57.5 22z" />
    <glyph glyph-name="semicolon" unicode=";" horiz-adv-x="317" 
d="M97.5 361q-22.5 23 -22.5 56q0 28 16 53.5t42 41t54 15.5q34 0 56.5 -22t22.5 -55q0 -29 -16 -55t-42 -41.5t-54 -15.5q-34 0 -56.5 23zM87.5 -59.5q36.5 24.5 43.5 71.5h-12q-8 -12 -18 -17.5t-26 -5.5q-26 0 -44.5 19t-18.5 51q0 51 34.5 84t86.5 33q46 0 69.5 -28
t23.5 -76q0 -68 -31.5 -122t-88 -85.5t-128.5 -34.5l15 86q58 0 94.5 24.5z" />
    <glyph glyph-name="less" unicode="&#x3c;" horiz-adv-x="603" 
d="M49 265v174l485 169v-159l-240 -78q-29 -9 -49.5 -11t-24.5 -3v-12q4 -1 24.5 -3t49.5 -11l240 -78v-159z" />
    <glyph glyph-name="equal" unicode="=" horiz-adv-x="592" 
d="M60 413v137h460v-137h-460zM60 155v138h460v-138h-460z" />
    <glyph glyph-name="greater" unicode="&#x3e;" horiz-adv-x="603" 
d="M69 253l240 78q29 9 49.5 11t24.5 3v12q-4 1 -24.5 3t-49.5 11l-240 78v159l485 -169v-174l-485 -171v159z" />
    <glyph glyph-name="question" unicode="?" horiz-adv-x="564" 
d="M212 378q21 35 44.5 54.5t60.5 41.5q44 26 65 50t21 63q0 30 -21.5 45t-54.5 15q-45 0 -79 -31.5t-49 -91.5h-151q18 81 62.5 138.5t108 87t136.5 29.5q92 0 150 -43.5t58 -128.5q0 -75 -29.5 -122.5t-94.5 -90.5q-38 -24 -61.5 -46.5t-37.5 -59.5l-19 -51h-148l9 52
q9 54 30 89zM145 10.5q-22 22.5 -22 55.5q0 28 16 53.5t42 41t54 15.5q34 0 56 -22t22 -55q0 -29 -16 -54.5t-41.5 -41t-53.5 -15.5q-35 0 -57 22.5z" />
    <glyph glyph-name="at" unicode="@" horiz-adv-x="1015" 
d="M192.5 -140.5q-89.5 46.5 -137.5 131t-48 195.5q0 155 77.5 290t210 215.5t287.5 80.5q118 0 207.5 -47.5t138 -134t48.5 -198.5q0 -109 -41.5 -209t-114.5 -162.5t-165 -62.5q-107 0 -107 98q0 26 5 47l-10 3q-80 -88 -182 -88q-65 0 -105.5 43t-40.5 120q0 92 49 184.5
t129.5 152t167.5 59.5q42 0 68.5 -18.5t42.5 -63.5l14 2l-1 23q0 17 6 30h99l-14 -36q-67 -170 -97.5 -255t-37.5 -130q-2 -10 -2 -27q0 -27 11.5 -38.5t34.5 -11.5q53 0 96.5 51t68 127t24.5 147q0 89 -37.5 156t-106.5 103.5t-163 36.5q-126 0 -232 -64.5t-167 -173
t-61 -232.5q0 -87 37.5 -152.5t108.5 -101.5t168 -36q71 0 131 20l-18 -103q-59 -17 -132 -17q-120 0 -209.5 46.5zM499.5 162q53.5 45 86.5 112t33 128q0 76 -73 76q-60 0 -113.5 -43.5t-85.5 -110t-32 -128.5q0 -79 74 -79q57 0 110.5 45z" />
    <glyph glyph-name="A" unicode="A" horiz-adv-x="726" 
d="M-56 0l396 763h194l126 -763h-177l-19 137h-261l-66 -137h-193zM443 292l-26 186q-5 33 -5 63q0 28 4 39h-19q-4 -29 -11 -54t-24 -60l-84 -174h165z" />
    <glyph glyph-name="B" unicode="B" horiz-adv-x="710" 
d="M134 763h306q233 0 233 -176q0 -43 -19 -84.5t-54 -67.5t-80 -26l-3 -16q34 0 64.5 -18t49.5 -51t19 -76q0 -121 -81 -184.5t-218 -63.5h-352zM488 541q0 36 -27.5 49t-76.5 13h-100l-26 -148h113q117 0 117 86zM437 179q40 19 40 71q0 34 -25.5 49.5t-75.5 15.5h-142
l-28 -155h119q72 0 112 19z" />
    <glyph glyph-name="C" unicode="C" horiz-adv-x="784" 
d="M169.5 27.5q-71.5 44.5 -107 119t-35.5 163.5q0 115 55 223t160 177t247 69q88 0 153 -34.5t99 -97t33 -142.5h-186q-2 52 -35 83t-92 31q-77 0 -135.5 -43t-89 -109.5t-30.5 -135.5q0 -81 42.5 -134.5t124.5 -53.5q113 0 171 116h186q-45 -137 -138.5 -206.5
t-246.5 -69.5q-104 0 -175.5 44.5z" />
    <glyph glyph-name="D" unicode="D" horiz-adv-x="736" 
d="M134 763h225q173 0 260.5 -80t87.5 -238q0 -133 -58.5 -233.5t-165 -156t-247.5 -55.5h-237zM390.5 194q65.5 34 101.5 95t36 140q0 83 -51.5 128.5t-146.5 45.5h-46l-78 -443h35q84 0 149.5 34z" />
    <glyph glyph-name="E" unicode="E" horiz-adv-x="637" 
d="M-1 0l135 763h521l-29 -160h-342l-25 -142h309l-28 -159h-309l-25 -142h342l-28 -160h-521z" />
    <glyph glyph-name="F" unicode="F" horiz-adv-x="619" 
d="M-1 0l135 763h521l-29 -160h-342l-25 -142h309l-28 -159h-309l-53 -302h-179z" />
    <glyph glyph-name="G" unicode="G" horiz-adv-x="829" 
d="M169.5 27.5q-71.5 44.5 -107 119t-35.5 163.5q0 114 54.5 222.5t159 177.5t244.5 69q101 0 171 -34.5t105.5 -96t34.5 -143.5h-191q-5 60 -40 87t-104 27q-77 0 -135.5 -43t-89 -109.5t-30.5 -135.5q0 -81 42.5 -134.5t124.5 -53.5q70 0 120 26.5t73 72.5q4 9 8 19.5
t8.5 18t13.5 14.5l-5 6q-14 -12 -25.5 -15t-34.5 -3h-107l25 144h338l-75 -426h-163l18 95h-18q-12 -57 -63 -84.5t-141 -27.5q-104 0 -175.5 44.5z" />
    <glyph glyph-name="H" unicode="H" horiz-adv-x="781" 
d="M-1 0l135 763h179l-54 -302h290l54 302h179l-135 -763h-179l53 301h-290l-53 -301h-179z" />
    <glyph glyph-name="I" unicode="I" horiz-adv-x="312" 
d="M-1 0l135 763h179l-135 -763h-179z" />
    <glyph glyph-name="J" unicode="J" horiz-adv-x="416" 
d="M-24 160h93q29 0 50 17t27 49l95 537h180l-98 -551q-15 -86 -46 -131.5t-83.5 -63t-141.5 -17.5h-104z" />
    <glyph glyph-name="K" unicode="K" horiz-adv-x="712" 
d="M134 763h179l-63 -350h18q4 29 17.5 51t34.5 51l227 248h220l-348 -370l213 -393h-213l-135 267q-31 66 -41 102l-25 -10q11 -28 11 -51q0 -18 -6 -53l-45 -255h-179z" />
    <glyph glyph-name="L" unicode="L" horiz-adv-x="563" 
d="M-1 0l135 763h179l-107 -603h311l-28 -160h-490z" />
    <glyph glyph-name="M" unicode="M" horiz-adv-x="962" 
d="M134 763h286l23 -449q1 -9 1 -37q0 -51 -8 -92h19q10 65 37 141l179 437h291l-135 -763h-179l86 486q6 37 11.5 60.5t18.5 63.5h-17q-19 -67 -46 -136l-200 -474h-174l-29 486q-3 48 -3 81q0 29 1 43h-20q-3 -50 -5.5 -75.5t-8.5 -60.5l-84 -474h-179z" />
    <glyph glyph-name="N" unicode="N" horiz-adv-x="787" 
d="M134 763h179l173 -387q10 -21 16 -40.5t10 -54.5h23q-1 36 0.5 56t6.5 49l67 377h179l-135 -763h-180l-174 393q-1 3 -7 16.5t-10.5 32.5t-7.5 42h-22q1 -36 -0.5 -55.5t-6.5 -48.5l-67 -380h-179z" />
    <glyph glyph-name="O" unicode="O" horiz-adv-x="834" 
d="M169.5 27.5q-71.5 44.5 -107 119t-35.5 163.5q0 114 55 222.5t160 177.5t247 69q104 0 175.5 -44.5t107 -119t35.5 -163.5q0 -114 -55 -222.5t-160 -177.5t-247 -69q-104 0 -175.5 44.5zM508.5 186q58.5 43 89 109.5t30.5 135.5q0 81 -42.5 134.5t-124.5 53.5
q-77 0 -135.5 -43t-89 -109.5t-30.5 -135.5q0 -81 42.5 -134.5t124.5 -53.5q77 0 135.5 43z" />
    <glyph glyph-name="P" unicode="P" horiz-adv-x="698" 
d="M134 763h355q70 0 118 -27.5t71.5 -73t23.5 -99.5q0 -68 -30 -129.5t-94.5 -100.5t-160.5 -39h-186l-52 -294h-179zM496.5 476q25.5 27 25.5 66q0 27 -19 44t-56 17h-162l-27 -154h150q63 0 88.5 27z" />
    <glyph glyph-name="Q" unicode="Q" horiz-adv-x="834" 
d="M487 -2q0 19 4 39h-9q-14 -28 -41 -40q-29 -14 -96 -14q-104 0 -175.5 44.5t-107 119t-35.5 163.5q0 114 55 222.5t160 177.5t247 69q104 0 175.5 -44.5t107 -119t35.5 -163.5q0 -104 -46 -204.5t-130 -168.5l54 -166h-178l-13 39q-7 23 -7 46zM508.5 186
q58.5 43 89 109.5t30.5 135.5q0 81 -42.5 134.5t-124.5 53.5q-77 0 -135.5 -43t-89 -109.5t-30.5 -135.5q0 -81 42.5 -134.5t124.5 -53.5q77 0 135.5 43z" />
    <glyph glyph-name="R" unicode="R" horiz-adv-x="719" 
d="M134 763h355q70 0 118 -27.5t71.5 -73t23.5 -99.5q0 -56 -21 -108t-54 -84t-67 -32q-10 0 -21 3l-10 -18q14 -16 19.5 -30t14.5 -52l59 -242h-186l-59 294h-146l-52 -294h-179zM496.5 476q25.5 27 25.5 66q0 27 -19 44t-56 17h-162l-27 -154h150q63 0 88.5 27z" />
    <glyph glyph-name="S" unicode="S" horiz-adv-x="717" 
d="M95.5 54q-88.5 71 -83.5 205h182q4 -73 42 -99.5t105 -26.5q58 0 96 25t38 72q0 33 -33 50t-109 36q-37 10 -47 13q-61 17 -104 38t-72.5 60t-29.5 100q0 76 39.5 133t109 88t156.5 31q88 0 156.5 -29.5t106.5 -86.5t37 -138h-179q-8 104 -129 104q-52 0 -84 -20t-32 -58
q0 -34 43 -55t129 -40q66 -15 113 -35.5t78.5 -61.5t31.5 -107q0 -81 -41 -142t-114 -94t-167 -33q-150 0 -238.5 71z" />
    <glyph glyph-name="T" unicode="T" horiz-adv-x="629" 
d="M154 0l106 603h-215l28 160h609l-28 -160h-215l-106 -603h-179z" />
    <glyph glyph-name="U" unicode="U" horiz-adv-x="761" 
d="M101 46q-70 63 -70 172q0 29 7 73l83 472h180l-85 -484q-5 -27 -5 -46q0 -44 26 -67t89 -23q84 0 126.5 41t54.5 107l83 472h180l-85 -484q-25 -140 -113 -218t-252 -78q-149 0 -219 63z" />
    <glyph glyph-name="V" unicode="V" horiz-adv-x="728" 
d="M68 763h180l56 -478q5 -47 5 -61q0 -9 -4 -41h19q4 29 11 54t24 60l225 466h200l-396 -763h-194z" />
    <glyph glyph-name="W" unicode="W" horiz-adv-x="1142" 
d="M74 763h180l19 -543q2 -24 2 -38q0 -22 -5 -45h19q5 32 10 50.5t14 44.5l188 531h245v-543q0 -6 0.5 -28t-6.5 -55h19q5 33 11 52.5t15 42.5l210 531h195l-317 -763h-270l-3 540q0 33 8 78h-15q-15 -68 -22 -90l-179 -528h-270z" />
    <glyph glyph-name="X" unicode="X" horiz-adv-x="771" 
d="M262 379l-180 384h209l85 -205q13 -28 18 -46t2 -39h19q2 30 10 50t26 46l158 194h217l-318 -384l178 -379h-208l-87 194q-13 28 -18.5 46t-2.5 39h-19q-2 -30 -10.5 -49.5t-26.5 -45.5l-153 -184h-215z" />
    <glyph glyph-name="Y" unicode="Y" horiz-adv-x="732" 
d="M254 301l-195 462h196l84 -232q9 -23 13 -38t4 -33q0 -6 -2 -24h18q5 40 13 63t22 43l166 221h223l-354 -460l-55 -303h-188z" />
    <glyph glyph-name="Z" unicode="Z" horiz-adv-x="639" 
d="M-14 121l366 422q22 25 40.5 41.5t44.5 27.5l-3 9q-24 -9 -51 -13.5t-46 -4.5h-243l28 160h544l-20 -127l-364 -421q-21 -24 -39.5 -40.5t-41.5 -25.5l4 -8q39 19 87 19h270l-28 -160h-567z" />
    <glyph glyph-name="bracketleft" unicode="[" horiz-adv-x="277" 
d="M-18 -110l173 982h249l-19 -107h-121l-136 -768h121l-18 -107h-249z" />
    <glyph glyph-name="backslash" unicode="\" horiz-adv-x="455" 
d="M274 -111l-199 874h128l200 -874h-129z" />
    <glyph glyph-name="bracketright" unicode="]" horiz-adv-x="277" 
d="M-127 -110l18 107h121l136 768h-121l19 107h249l-173 -982h-249z" />
    <glyph glyph-name="asciicircum" unicode="^" horiz-adv-x="592" 
d="M233 763h174l169 -485h-159l-73 224q-13 42 -19 90h-12q-5 -43 -20 -90l-72 -224h-159z" />
    <glyph glyph-name="underscore" unicode="_" horiz-adv-x="472" 
d="M-81 -121l21 121h470l-21 -121h-470z" />
    <glyph glyph-name="grave" unicode="`" horiz-adv-x="286" 
d="M233 618h-121l-181 145h162z" />
    <glyph glyph-name="a" unicode="a" horiz-adv-x="608" 
d="M58 23q-44 35 -44 100q0 55 25.5 100t72.5 73q30 17 64.5 27t77.5 18l152 26q1 6 1 18q0 31 -13 48q-14 20 -53 20q-31 0 -58 -20t-39 -55h-167q32 100 112.5 150.5t174.5 50.5q52 0 95.5 -14t70.5 -42q23 -23 32.5 -52t9.5 -66q0 -43 -17 -136l-47 -269h-168l2 9
q4 27 24 51l-14 9q-17 -31 -50 -52q-49 -29 -129 -29q-71 0 -115 35zM308 129q30 13 45 31.5t29 53.5q4 11 8.5 15.5t13.5 5.5v16l-89 -17l-34 -6q-28 -5 -44.5 -11t-29.5 -16q-22 -20 -22 -45q0 -21 16.5 -31t42.5 -10q30 0 64 14z" />
    <glyph glyph-name="b" unicode="b" horiz-adv-x="658" 
d="M240 5q-32 17 -52 61l-16 -10q10 -16 10 -32q0 -4 -2 -18l-1 -6h-168l135 763h168l-36 -202q-3 -16 -8.5 -27t-17.5 -23l12 -10q36 44 74 61t88 17q92 0 147 -61.5t55 -162.5q0 -93 -40 -178t-110 -137t-156 -52q-50 0 -82 17zM381 158.5q35 27.5 54.5 72t19.5 92.5
q0 52 -27 82.5t-74 30.5q-46 0 -81 -27.5t-54.5 -71.5t-19.5 -92q0 -53 27 -83.5t74 -30.5q46 0 81 27.5z" />
    <glyph glyph-name="c" unicode="c" horiz-adv-x="635" 
d="M150 18q-58 30 -89 84.5t-31 128.5q0 99 43.5 178.5t120.5 124.5t175 45q106 0 173.5 -53.5t76.5 -141.5h-178q-5 34 -22 48t-51 14q-51 0 -89.5 -31.5t-59.5 -81.5t-21 -106q0 -50 23.5 -77.5t66.5 -27.5q80 0 115 68h188q-38 -97 -119 -149.5t-185 -52.5q-79 0 -137 30
z" />
    <glyph glyph-name="d" unicode="d" horiz-adv-x="662" 
d="M87 49.5q-55 61.5 -55 162.5q0 93 40 178t110 137t156 52q50 0 82 -17t52 -61l16 10q-10 16 -10 32q0 4 2 18l35 202h168l-134 -763h-168l1 6q3 16 8.5 27t17.5 23l-12 10q-36 -44 -74 -61t-88 -17q-92 0 -147 61.5zM387 158.5q35 27.5 54.5 71.5t19.5 92q0 53 -27 83.5
t-74 30.5q-45 0 -80.5 -27.5t-55 -72t-19.5 -92.5q0 -52 27 -82.5t74 -30.5q46 0 81 27.5z" />
    <glyph glyph-name="e" unicode="e" horiz-adv-x="652" 
d="M143.5 17q-56.5 29 -86 82t-29.5 122q0 96 46 178.5t126.5 131t176.5 48.5q107 0 177 -56.5t70 -172.5q0 -37 -7 -73l-5 -29h-331q-66 0 -83 4l-7 -15q8 -2 11 -8.5t5 -18.5q1 -3 4 -14.5t9 -20.5q27 -43 92 -43q36 0 66 18t47 46h169q-43 -92 -123 -150t-193 -58
q-78 0 -134.5 29zM256.5 365q12.5 2 27.5 2h124q15 0 26.5 -2t28.5 -10l9 15q-7 2 -9 5.5t-3 10.5q-5 19 -15 32q-27 33 -84 33t-96 -33q-15 -14 -27 -32q-3 -7 -6.5 -10.5t-11.5 -5.5l5 -15q19 8 31.5 10z" />
    <glyph glyph-name="f" unicode="f" horiz-adv-x="384" 
d="M128 437h-81l23 130h81l10 55q12 67 60.5 104t126.5 37h93l-23 -129h-52q-33 0 -40 -36q-1 -9 -4 -16.5t-11 -13.5l8 -10q8 6 18 7.5t25 1.5h44l-23 -130h-85l-77 -437h-170z" />
    <glyph glyph-name="g" unicode="g" horiz-adv-x="655" 
d="M63.5 -166.5q-66.5 41.5 -65.5 146.5h168q7 -35 28.5 -49t60.5 -14q54 0 84.5 25t37.5 63l4 21q2 15 8 26.5t17 23.5l-12 10q-36 -44 -74 -61t-88 -17q-61 0 -107 28t-70.5 78t-24.5 115q0 89 40 170t109.5 130.5t153.5 49.5q50 0 82 -17t52 -61l16 10q-10 16 -10 32
q0 4 2 18l1 6h168l-92 -519q-24 -141 -108 -198.5t-210 -57.5q-104 0 -170.5 41.5zM383 176q35 25 54.5 65t19.5 84q0 50 -27.5 80.5t-74.5 30.5q-43 0 -78 -25t-54.5 -65.5t-19.5 -84.5q0 -49 27 -79.5t75 -30.5q43 0 78 25z" />
    <glyph glyph-name="h" unicode="h" horiz-adv-x="632" 
d="M146 763h168l-36 -202q-3 -16 -8.5 -27t-17.5 -23l12 -10q36 44 74 61t88 17q140 0 166 -98q7 -25 7 -53q0 -22 -4 -50.5t-10 -60.5l-56 -317h-168l56 319q6 36 6 58q0 30 -11 46q-17 21 -59 21q-51 0 -80 -29q-26 -29 -38 -96l-56 -319h-168z" />
    <glyph glyph-name="i" unicode="i" horiz-adv-x="308" 
d="M20 0l100 567h168l-100 -567h-168zM152.5 625q-22.5 19 -22.5 51q0 45 33 74t78 29q36 0 58.5 -19t22.5 -52q0 -46 -33 -74t-78 -28q-36 0 -58.5 19z" />
    <glyph glyph-name="j" unicode="j" horiz-adv-x="278" 
d="M-93 -59h52q35 0 42 35l104 591h168l-114 -649q-10 -54 -49.5 -84t-101.5 -30h-126zM137.5 625q-22.5 19 -22.5 51q0 45 33 74t78 29q36 0 58.5 -19t22.5 -52q0 -46 -33 -74t-78 -28q-36 0 -58.5 19z" />
    <glyph glyph-name="k" unicode="k" horiz-adv-x="637" 
d="M145 763h168l-54 -304q-4 -23 -9 -42.5t-17 -48.5l11 -5q25 30 61 63l153 141h216l-239 -214q-16 -15 -52 -36l-2 -14q21 -19 37 -46l155 -257h-195l-113 201q-20 36 -36 74l-13 -4q1 -29 -0.5 -47.5t-5.5 -41.5l-32 -182h-168z" />
    <glyph glyph-name="l" unicode="l" horiz-adv-x="323" 
d="M52.5 22.5q-28.5 22.5 -28.5 65.5q0 16 2 25l115 650h168l-105 -592q-1 -3 -1 -9q0 -26 28 -26h42l-24 -136h-113q-55 0 -83.5 22.5z" />
    <glyph glyph-name="m" unicode="m" horiz-adv-x="912" 
d="M110 567h168l-1 -6q-3 -16 -8.5 -27t-17.5 -23l12 -10q36 44 74 61t88 17q46 0 83 -20t43 -62h13q23 47 68 64.5t94 17.5q78 0 116 -38.5t38 -109.5q0 -32 -5 -57l-66 -374h-168l63 359q3 17 3 29q0 30 -15 43t-45 13q-33 0 -56 -20q-15 -14 -24 -37t-15 -59l-58 -328
h-168l63 359q3 17 3 29q0 30 -15.5 43t-46.5 13q-32 0 -55 -21q-14 -14 -23 -35.5t-16 -59.5l-58 -328h-168z" />
    <glyph glyph-name="n" unicode="n" horiz-adv-x="631" 
d="M110 567h168l-1 -6q-3 -16 -8.5 -27t-17.5 -23l12 -10q36 44 74 61t88 17q140 0 166 -98q7 -25 7 -53q0 -22 -4 -50.5t-10 -60.5l-56 -317h-168l56 319q6 36 6 58q0 30 -11 46q-17 21 -59 21q-51 0 -80 -29q-26 -29 -38 -96l-56 -319h-168z" />
    <glyph glyph-name="o" unicode="o" horiz-adv-x="649" 
d="M135.5 21q-54.5 33 -80.5 87.5t-26 121.5q0 85 41 165.5t120 132t187 51.5q123 0 183 -68.5t60 -173.5q0 -85 -40.5 -165.5t-119.5 -132t-187 -51.5q-83 0 -137.5 33zM379 160q35 28 54 72.5t19 92.5q0 51 -26 81t-74 30q-46 0 -81.5 -27t-54.5 -71t-19 -93q0 -53 27 -83
t74 -30q46 0 81 28z" />
    <glyph glyph-name="p" unicode="p" horiz-adv-x="662" 
d="M575 517.5q55 -61.5 55 -162.5q0 -93 -40 -178t-110 -137t-156 -52q-50 0 -82 17t-52 61l-16 -10q10 -16 10 -32q0 -4 -2 -18l-35 -202h-168l134 763h168l-1 -6q-3 -16 -8.5 -27t-17.5 -23l12 -10q36 44 74 61t88 17q92 0 147 -61.5zM275 408.5q-35 -27.5 -54.5 -71.5
t-19.5 -92q0 -53 27 -83.5t74 -30.5q45 0 80.5 27.5t55 72t19.5 92.5q0 52 -27 82.5t-74 30.5q-46 0 -81 -27.5z" />
    <glyph glyph-name="q" unicode="q" horiz-adv-x="659" 
d="M392.5 -173q-28.5 23 -28.5 66q0 6 2 24l16 89q3 16 8.5 27t17.5 23l-12 10q-36 -44 -74 -61t-88 -17q-92 0 -147 61.5t-55 162.5q0 93 40 178t110 137t156 52q50 0 82 -17t52 -61l16 10q-10 16 -10 32q0 4 2 18l1 6h168l-104 -591q-1 -4 -1 -10q0 -25 29 -25h41
l-25 -137h-113q-55 0 -83.5 23zM387 158.5q35 27.5 54.5 71.5t19.5 92q0 53 -27 83.5t-74 30.5q-46 0 -81 -27.5t-54.5 -72t-19.5 -92.5q0 -52 27 -82.5t74 -30.5q46 0 81 27.5z" />
    <glyph glyph-name="r" unicode="r" horiz-adv-x="419" 
d="M110 567h168l-1 -6q-3 -16 -8.5 -27t-17.5 -23l12 -10q36 44 74 61t88 17h25l-28 -160h-32q-65 0 -101 -30q-26 -21 -42.5 -56.5t-26.5 -93.5l-42 -239h-168z" />
    <glyph glyph-name="s" unicode="s" horiz-adv-x="593" 
d="M83.5 36.5q-72.5 48.5 -66.5 159.5h163q13 -81 106 -81q37 0 61 16t24 42q0 22 -24.5 32t-78.5 21l-44 9q-68 16 -109 49t-41 103q0 59 32.5 102.5t90 66.5t128.5 23q105 0 167 -52t68 -148h-159q-5 38 -29.5 56t-59.5 18q-33 0 -55 -13.5t-22 -35.5q0 -23 28 -33.5
t84 -20.5l26 -5q48 -10 83 -24.5t59.5 -46.5t24.5 -85q0 -65 -36.5 -110.5t-96 -68t-128.5 -22.5q-123 0 -195.5 48.5z" />
    <glyph glyph-name="t" unicode="t" horiz-adv-x="404" 
d="M95 23q-29 23 -29 65q0 16 2 25l57 323h-78l23 131h78l35 196h168l-35 -196h98l-23 -131h-98l-47 -266q-1 -3 -1 -10q0 -24 29 -24h63l-24 -136h-134q-55 0 -84 23z" />
    <glyph glyph-name="u" unicode="u" horiz-adv-x="631" 
d="M39 86q-7 25 -7 53q0 22 4 50.5t10 60.5l56 317h168l-56 -319q-6 -36 -6 -58q0 -30 11 -46q17 -21 59 -21q51 0 80 29q26 29 38 96l56 319h168l-100 -567h-168l1 6q3 16 8.5 27t17.5 23l-12 10q-36 -44 -74 -61t-88 -17q-140 0 -166 98z" />
    <glyph glyph-name="v" unicode="v" horiz-adv-x="572" 
d="M56 567h168l32 -251q2 -24 2 -32q0 -11 -1 -25.5t-2 -22.5l-3 -25h12l6 24q7 28 11.5 44t15.5 37l123 251h188l-310 -567h-133z" />
    <glyph glyph-name="w" unicode="w" horiz-adv-x="865" 
d="M58 567h169l17 -290q1 -27 -5 -79h12q1 5 7.5 31.5t15.5 47.5l121 290h144l20 -290q1 -27 -5 -78h12q13 53 23 78l122 290h188l-281 -567h-159l-25 259q-2 15 -2 38q0 14 4 52h-12q-10 -40 -30 -90l-99 -259h-160z" />
    <glyph glyph-name="x" unicode="x" horiz-adv-x="625" 
d="M207 287l-139 280h180l50 -115q12 -27 15 -60h14q7 16 16.5 30.5t20.5 29.5l91 115h204l-242 -280l141 -287h-182l-52 121q-11 26 -14 60h-14q-13 -31 -35 -60l-93 -121h-199z" />
    <glyph glyph-name="y" unicode="y" horiz-adv-x="591" 
d="M1 -88h66q25 0 42.5 8t31.5 32l24 40l-100 575h172l29 -320q2 -30 1 -67h12q9 32 24 67l133 320h189l-322 -632q-44 -87 -94.5 -123.5t-130.5 -36.5h-101z" />
    <glyph glyph-name="z" unicode="z" horiz-adv-x="580" 
d="M3 101l269 258q45 43 88 74l-3 12q-25 -7 -39.5 -8.5t-31.5 -1.5h-208l23 132h491l-19 -109l-257 -249q-45 -43 -89 -75l4 -12q25 7 39.5 8.5t31.5 1.5h213l-23 -132h-507z" />
    <glyph glyph-name="braceleft" unicode="{" horiz-adv-x="334" 
d="M76.5 -80.5q-25.5 29.5 -25.5 81.5q0 21 5 49l31 176q3 15 3 27q0 31 -15.5 46t-43.5 24l20 116q38 11 60 30.5t31 66.5l31 176q13 75 52 117.5t101 42.5h97l-18 -102h-40q-28 0 -40 -17t-17 -44l-31 -176q-12 -67 -46.5 -101t-95.5 -42l-3 -18q48 -6 71.5 -30.5
t23.5 -70.5q0 -22 -4 -42l-31 -176q-2 -16 -2 -23q0 -38 38 -38h40l-18 -102h-97q-51 0 -76.5 29.5z" />
    <glyph glyph-name="bar" unicode="|" horiz-adv-x="338" 
d="M36 -110l173 982h128l-173 -982h-128z" />
    <glyph glyph-name="braceright" unicode="}" horiz-adv-x="332" 
d="M-72 -8h40q28 0 39.5 16.5t16.5 44.5l31 176q12 67 47 101t96 42l3 18q-48 6 -72 31t-24 71q0 21 4 41l31 176q2 16 2 24q0 37 -37 37h-40l18 102h97q51 0 76.5 -29.5t25.5 -81.5q0 -21 -5 -49l-31 -176q-3 -15 -3 -28q0 -31 15 -45t43 -24l-20 -116q-37 -11 -59.5 -31
t-30.5 -66l-31 -176q-13 -75 -52 -117.5t-101 -42.5h-97z" />
    <glyph glyph-name="asciitilde" unicode="~" horiz-adv-x="427" 
d="M197.5 213.5q-19.5 12.5 -39.5 34.5q-11 12 -17 17t-14 5q-24 0 -40 -68h-89q17 76 57.5 120.5t94.5 44.5q30 0 49.5 -13t38.5 -34q8 -9 16 -15.5t15 -6.5q11 0 21 16.5t17 48.5h92q-20 -83 -55 -122.5t-93 -39.5q-34 0 -53.5 12.5z" />
    <glyph glyph-name="uni00A0" unicode="&#xa0;" horiz-adv-x="240" 
 />
    <glyph glyph-name="exclamdown" unicode="&#xa1;" horiz-adv-x="387" 
d="M284.5 557q22.5 -22 22.5 -55q0 -29 -16 -54.5t-42 -41t-55 -15.5q-33 0 -55.5 22.5t-22.5 54.5q0 29 16 54.5t41.5 41t53.5 15.5q35 0 57.5 -22zM251 298q-14 -142 -26 -213l-50 -281h-168l50 281q10 58 25.5 120.5t18.5 73.5l12 49h141z" />
    <glyph glyph-name="cent" unicode="&#xa2;" horiz-adv-x="635" 
d="M84 65q-56 62 -56 159q0 91 40.5 169.5t112.5 128t163 57.5l16 88h60l-16 -86q96 -10 154 -64.5t64 -138.5h-182q-7 25 -19 40q-4 4 -14 13t-13 20l-13 -3l-58 -329l11 -3q7 12 30 28q20 15 24 21q8 10 21 31h183q-36 -91 -113.5 -145.5t-178.5 -61.5l-16 -89h-60l16 90
q-100 13 -156 75zM264 124l57 322l-12 2q-4 -10 -15.5 -19t-13.5 -11q-14 -10 -18 -14q-29 -30 -44 -74t-15 -88q0 -43 16 -70q4 -6 14 -18q7 -8 12.5 -16.5t5.5 -16.5z" />
    <glyph glyph-name="sterling" unicode="&#xa3;" horiz-adv-x="639" 
d="M126 188.5q43 32.5 43 91.5q0 39 -18 81h-97l18 106h21q14 0 24.5 -2.5t23.5 -7.5l11 11q-15 20 -15 53q0 70 38.5 129.5t103 94t138.5 34.5q62 0 110.5 -25.5t75 -76t23.5 -122.5h-160q1 42 -19 61.5t-52 19.5q-54 0 -81.5 -34t-27.5 -90q0 -15 4 -45h192l-18 -106h-84
q-19 0 -33 1.5t-33 8.5l-10 -12q15 -51 15 -84q0 -41 -16.5 -68t-53.5 -56l5 -18q34 14 52 17t48 3h198l-27 -153h-540l27 152q71 4 114 36.5z" />
    <glyph glyph-name="currency" unicode="&#xa4;" horiz-adv-x="728" 
d="M84 141l65 64q-37 61 -37 134q0 74 37 135l-61 65l83 90l69 -68q56 39 134 39q73 0 134 -37l66 64l88 -86l-66 -65q38 -64 38 -136q0 -74 -38 -136l66 -65l-86 -88l-68 66q-61 -37 -135 -37q-73 0 -135 37l-68 -66zM424 211.5q25 10.5 46 31.5q19 20 29.5 45.5t10.5 51.5
t-10 51t-30 44q-20 20 -45.5 30.5t-52.5 10.5t-52 -10.5t-44 -30.5q-40 -41 -40 -98q0 -26 10 -51t29 -44t45 -30t53 -11q26 0 51 10.5z" />
    <glyph glyph-name="yen" unicode="&#xa5;" horiz-adv-x="732" 
d="M223 130h-157l21 118h157l9 50h-157l20 117h19q27 0 40 -1.5t34 -8.5l10 12q-15 13 -21 21.5t-10 18.5l-129 306h210l85 -227q8 -19 11 -30t3 -26t-2 -24h16q5 25 13 39.5t27 40.5l165 227h209l-236 -306q-16 -20 -45 -40l4 -12q24 7 37.5 8.5t40.5 1.5h19l-20 -117h-155
l-9 -50h155l-21 -118h-155l-23 -130h-188z" />
    <glyph glyph-name="brokenbar" unicode="&#xa6;" horiz-adv-x="338" 
d="M133 440l76 432h128l-76 -432h-128zM36 -110l76 432h128l-76 -432h-128z" />
    <glyph glyph-name="section" unicode="&#xa7;" horiz-adv-x="735" 
d="M88 -185.5q-86 51.5 -86 167.5q0 10 2 32h183q1 -55 37 -79t88 -24q53 0 91 21.5t38 58.5q0 35 -38 53t-114 36l-44 11q-82 22 -130.5 57.5t-48.5 104.5q0 15 3 33q19 101 106 132l3 21q-33 6 -48 30t-15 59q0 17 3 35q12 68 59 116.5t116 74t146 25.5t138 -27.5
t94 -81.5t28 -129h-172q-2 43 -32.5 65.5t-79.5 22.5q-43 0 -73.5 -16.5t-35.5 -43.5q-4 -22 13.5 -36.5t44.5 -23t75 -19.5q7 -2 29 -7q96 -22 153.5 -61t57.5 -118q0 -18 -3 -38q-8 -46 -33 -83t-72 -49l-4 -20q64 -13 64 -87q0 -13 -4 -37q-12 -68 -56.5 -119.5
t-115.5 -79.5t-161 -28q-120 0 -206 51.5zM476 228.5q14 17.5 14 40.5t-18.5 39t-53.5 28l-48 14q-5 1 -16 1q-34 0 -63 -16t-33 -42q-1 -4 -1 -12q0 -20 22.5 -33t82.5 -28q32 -8 75 -17q25 8 39 25.5z" />
    <glyph glyph-name="dieresis" unicode="&#xa8;" horiz-adv-x="419" 
d="M87.5 625q-22.5 19 -22.5 51q0 45 33 74t78 29q36 0 58.5 -19t22.5 -52q0 -46 -33 -74t-78 -28q-36 0 -58.5 19zM306.5 625q-22.5 19 -22.5 51q0 45 33 74t78 29q36 0 58.5 -19t22.5 -52q0 -46 -33 -74t-78 -28q-36 0 -58.5 19z" />
    <glyph glyph-name="copyright" unicode="&#xa9;" horiz-adv-x="869" 
d="M239.5 45.5q-88.5 51.5 -140.5 140t-52 194.5q0 108 51.5 197.5t140 141.5t195.5 52t195.5 -52t140 -141.5t51.5 -197.5q0 -106 -52 -194.5t-140.5 -140t-194.5 -51.5t-194.5 51.5zM579 132q66 38 104 104t38 144q0 81 -38 147.5t-103.5 105t-145.5 38.5t-145.5 -38.5
t-103.5 -105t-38 -147.5q0 -78 38 -144t104 -104t145 -38t145 38zM329.5 198q-47.5 28 -75.5 76t-28 106t28 106t75.5 76t104.5 28q45 0 89 -21t73 -56l-81 -62q-16 19 -39.5 29t-47.5 10q-45 0 -77 -32t-32 -78t32 -78t77 -32q24 0 47.5 10t39.5 29l81 -62
q-28 -35 -72.5 -56t-89.5 -21q-57 0 -104.5 28z" />
    <glyph glyph-name="ordfeminine" unicode="&#xaa;" horiz-adv-x="450" 
d="M102.5 386q-30.5 24 -30.5 70q0 38 17.5 70t50.5 51q34 19 100 32l106 18q1 4 1 13q0 21 -9 33q-10 14 -37 14q-22 0 -41 -14t-27 -38h-117q23 70 79 105t122 35q36 0 66 -9.5t50 -29.5q29 -29 29 -82q0 -32 -11 -96l-33 -188h-118l1 6q4 19 17 36l-10 6q-12 -21 -35 -36
q-33 -20 -90 -20q-50 0 -80.5 24zM278 460q21 10 31.5 23t19.5 37q3 8 6.5 11t9.5 4v11q-27 -6 -40.5 -8.5t-21.5 -3.5l-24 -4q-35 -7 -52 -19q-15 -15 -15 -32q0 -14 11.5 -21t29.5 -7q21 0 45 9z" />
    <glyph glyph-name="guillemotleft" unicode="&#xab;" horiz-adv-x="616" 
d="M-9 275l274 197l-27 -147l-33 -22q-20 -13 -31.5 -19t-26.5 -7l-3 -14q15 -1 25.5 -6.5t24.5 -17.5l26 -22l-24 -137zM299 275l274 197l-27 -147l-33 -22q-20 -13 -31.5 -19t-26.5 -7l-3 -14q15 -1 25.5 -6.5t24.5 -17.5l26 -22l-24 -137z" />
    <glyph glyph-name="uni00AD" unicode="&#xad;" horiz-adv-x="425" 
d="M0 258l21 120h404l-21 -120h-404z" />
    <glyph glyph-name="registered" unicode="&#xae;" horiz-adv-x="474" 
d="M165.5 400q-46.5 27 -73.5 73.5t-27 102.5t27 102.5t73.5 73.5t102.5 27t102.5 -27t73.5 -73.5t27 -102.5t-27 -102.5t-73.5 -73.5t-102.5 -27t-102.5 27zM351 432.5q38 22.5 60.5 60.5t22.5 83t-22.5 83t-60.5 60.5t-83 22.5t-83 -22.5t-60.5 -60.5t-22.5 -83t22.5 -83
t60.5 -60.5t83 -22.5t83 22.5zM181 694h111q34 0 54.5 -17.5t20.5 -53.5q0 -13 -4 -26t-10 -21q-4 -4 -10.5 -8t-13.5 -4l-1 -4q6 -6 9 -11t6 -14l31 -77h-59l-34 91h-45v-91h-55v236zM312 621q0 11 -7.5 17.5t-20.5 6.5h-48v-48h48q28 0 28 24z" />
    <glyph glyph-name="macron" unicode="&#xaf;" horiz-adv-x="312" 
d="M53 619l14 78h302l-14 -78h-302z" />
    <glyph glyph-name="degree" unicode="&#xb0;" horiz-adv-x="447" 
d="M203.5 482.5q-36.5 21.5 -58 58t-21.5 79.5q0 44 21.5 80.5t58.5 57.5t79 21q43 0 79.5 -21.5t57.5 -58t21 -79.5t-21 -79.5t-57.5 -58t-79.5 -21.5t-79.5 21.5zM328.5 575.5q18.5 18.5 18.5 44.5t-18.5 44.5t-45.5 18.5t-45.5 -18.5t-18.5 -44.5t18.5 -44.5t45.5 -18.5
t45.5 18.5z" />
    <glyph glyph-name="plusminus" unicode="&#xb1;" horiz-adv-x="716" 
d="M287 164v141h-220v121h220v141h123v-141h221v-121h-221v-141h-123zM67 0v121h564v-121h-564z" />
    <glyph glyph-name="acute" unicode="&#xb4;" horiz-adv-x="286" 
d="M53 618l140 145h162l-181 -145h-121z" />
    <glyph glyph-name="paragraph" unicode="&#xb6;" horiz-adv-x="673" 
d="M167 360.5q-48 22.5 -76 62t-28 91.5q0 69 40 126.5t106 90t140 32.5h112l-154 -873h-112l78 445q-58 3 -106 25.5zM406 -110l154 873h113l-154 -873h-113z" />
    <glyph glyph-name="periodcentered" unicode="&#xb7;" horiz-adv-x="312" 
d="M111 336q-19 20 -19 49q0 40 30.5 70t68.5 30q31 0 51 -19.5t20 -49.5q0 -39 -31 -69.5t-70 -30.5q-31 0 -50 20z" />
    <glyph glyph-name="cedilla" unicode="&#xb8;" horiz-adv-x="243" 
d="M-90 -193l11 61q49 -20 83 -20q24 0 38 11t14 31q0 25 -31.5 34t-85.5 9l97 90h100q-38 -32 -78 -55l4 -9q7 1 19 1q36 0 56.5 -13.5t20.5 -42.5q0 -54 -44.5 -83t-110.5 -29q-48 0 -93 15z" />
    <glyph glyph-name="ordmasculine" unicode="&#xba;" horiz-adv-x="474" 
d="M122.5 410q-42.5 48 -42.5 121q0 59 28.5 115.5t84 92.5t131.5 36q86 0 128 -47.5t42 -121.5q0 -59 -28.5 -115.5t-83.5 -92.5t-131 -36q-86 0 -128.5 48zM325 481.5q24 19.5 37.5 51t13.5 65.5q0 35 -18 56t-52 21q-48 0 -78 -40t-30 -93q0 -37 19 -58.5t52 -21.5
q32 0 56 19.5z" />
    <glyph glyph-name="guillemotright" unicode="&#xbb;" horiz-adv-x="579" 
d="M65 225l34 24q18 12 30.5 18.5t27.5 7.5l3 14q-15 1 -25.5 6.5t-24.5 17.5l-26 22l24 137l205 -195l-274 -197zM333 225l34 24q18 12 30.5 18.5t27.5 7.5l3 14q-15 1 -25.5 6.5t-24.5 17.5l-26 22l24 137l205 -195l-274 -197z" />
    <glyph glyph-name="questiondown" unicode="&#xbf;" horiz-adv-x="530" 
d="M384 556.5q22 -22.5 22 -55.5q0 -28 -16 -53.5t-42 -41t-54 -15.5q-34 0 -56 22t-22 55q0 29 16 54.5t41.5 41t53.5 15.5q35 0 57 -22.5zM317 189q-21 -35 -44.5 -54.5t-60.5 -41.5q-44 -26 -65 -50t-21 -63q0 -30 21.5 -45t54.5 -15q45 0 79 31.5t49 91.5h151
q-18 -81 -62.5 -138.5t-108 -87t-136.5 -29.5q-92 0 -150 43.5t-58 128.5q0 75 29.5 122.5t94.5 90.5q38 24 61.5 46.5t37.5 59.5l19 51h148l-9 -52q-9 -54 -30 -89z" />
    <glyph glyph-name="Agrave" unicode="&#xc0;" horiz-adv-x="726" 
d="M-56 0l396 763h194l126 -763h-177l-19 137h-261l-66 -137h-193zM443 292l-26 186q-5 33 -5 63q0 28 4 39h-19q-4 -29 -11 -54t-24 -60l-84 -174h165zM499 814h-121l-181 145h162z" />
    <glyph glyph-name="Aacute" unicode="&#xc1;" horiz-adv-x="726" 
d="M-56 0l396 763h194l126 -763h-177l-19 137h-261l-66 -137h-193zM443 292l-26 186q-5 33 -5 63q0 28 4 39h-19q-4 -29 -11 -54t-24 -60l-84 -174h165zM379 814l140 145h162l-181 -145h-121z" />
    <glyph glyph-name="Acircumflex" unicode="&#xc2;" horiz-adv-x="726" 
d="M-56 0l396 763h194l126 -763h-177l-19 137h-261l-66 -137h-193zM443 292l-26 186q-5 33 -5 63q0 28 4 39h-19q-4 -29 -11 -54t-24 -60l-84 -174h165zM472 992h14l138 -178h-131l-11 21q-18 31 -14 52h-14q-4 -21 -32 -52l-19 -21h-131z" />
    <glyph glyph-name="Atilde" unicode="&#xc3;" horiz-adv-x="726" 
d="M-56 0l396 763h194l126 -763h-177l-19 137h-261l-66 -137h-193zM443 292l-26 186q-5 33 -5 63q0 28 4 39h-19q-4 -29 -11 -54t-24 -60l-84 -174h165zM457.5 809.5q-19.5 12.5 -39.5 34.5q-11 12 -17 17t-14 5q-24 0 -40 -68h-89q17 76 57.5 120.5t94.5 44.5
q30 0 49.5 -13t38.5 -34q8 -9 16 -15.5t15 -6.5q11 0 21 16.5t17 48.5h92q-20 -83 -55 -122.5t-93 -39.5q-34 0 -53.5 12.5z" />
    <glyph glyph-name="Adieresis" unicode="&#xc4;" horiz-adv-x="726" 
d="M-56 0l396 763h194l126 -763h-177l-19 137h-261l-66 -137h-193zM443 292l-26 186q-5 33 -5 63q0 28 4 39h-19q-4 -29 -11 -54t-24 -60l-84 -174h165zM276.5 820.5q-22.5 18.5 -22.5 50.5q0 46 33.5 75t78.5 29q36 0 58.5 -19t22.5 -52q0 -11 -1 -16q-7 -39 -39 -62.5
t-72 -23.5q-36 0 -58.5 18.5zM495.5 820.5q-22.5 18.5 -22.5 50.5q0 46 33.5 75t78.5 29q36 0 58.5 -19t22.5 -52q0 -11 -1 -16q-7 -39 -39 -62.5t-72 -23.5q-36 0 -58.5 18.5z" />
    <glyph glyph-name="Aring" unicode="&#xc5;" horiz-adv-x="726" 
d="M315 798q0 37 19.5 72t56.5 57t87 22t76.5 -30t26.5 -74q0 -27 -10.5 -54t-30.5 -49l120 -742h-187l-16 137h-254l-66 -137h-193l387 740q-16 25 -16 58zM482.5 791.5q16.5 18.5 16.5 40.5q0 17 -10.5 28.5t-29.5 11.5q-28 0 -45.5 -18t-17.5 -41q0 -17 11.5 -28.5
t33.5 -11.5q25 0 41.5 18.5zM437 292l-20 186q-5 47 -5 68q0 18 4 34h-19q-4 -29 -11 -54t-24 -60l-85 -174h160z" />
    <glyph glyph-name="AE" unicode="&#xc6;" horiz-adv-x="1034" 
d="M-56 0l396 763h501l28 -160h-306l23 -142h307l26 -159h-306l23 -142h307l25 -160h-495l-16 137h-254l-66 -137h-193zM437 292l-20 186q-5 47 -5 68q0 18 4 34h-19q-4 -29 -11 -54t-24 -60l-85 -174h160z" />
    <glyph glyph-name="Ccedilla" unicode="&#xc7;" horiz-adv-x="784" 
d="M325.5 576q-58.5 -43 -89 -109.5t-30.5 -135.5q0 -81 42.5 -134.5t124.5 -53.5q113 0 171 116h186q-43 -131 -131 -200.5t-230 -75.5l-25 -15l4 -9q7 1 19 1q36 0 56.5 -13.5t20.5 -42.5q0 -54 -44.5 -83t-110.5 -29q-48 0 -93 15l11 61q49 -20 83 -20q24 0 38 11t14 31
q0 25 -31.5 34t-85.5 9l59 54q-84 13 -142 59.5t-86.5 115t-28.5 148.5q0 115 55 223t160 177t247 69q88 0 153 -34.5t99 -97t33 -142.5h-186q-2 52 -35 83t-92 31q-77 0 -135.5 -43z" />
    <glyph glyph-name="Egrave" unicode="&#xc8;" horiz-adv-x="637" 
d="M-1 0l135 763h521l-29 -160h-342l-25 -142h309l-28 -159h-309l-25 -142h342l-28 -160h-521zM455 814h-121l-181 145h162z" />
    <glyph glyph-name="Eacute" unicode="&#xc9;" horiz-adv-x="637" 
d="M-1 0l135 763h521l-29 -160h-342l-25 -142h309l-28 -159h-309l-25 -142h342l-28 -160h-521zM335 814l140 145h162l-181 -145h-121z" />
    <glyph glyph-name="Ecircumflex" unicode="&#xca;" horiz-adv-x="637" 
d="M-1 0l135 763h521l-29 -160h-342l-25 -142h309l-28 -159h-309l-25 -142h342l-28 -160h-521zM428 992h14l138 -178h-131l-11 21q-18 31 -14 52h-14q-4 -21 -32 -52l-19 -21h-131z" />
    <glyph glyph-name="Edieresis" unicode="&#xcb;" horiz-adv-x="637" 
d="M-1 0l135 763h521l-29 -160h-342l-25 -142h309l-28 -159h-309l-25 -142h342l-28 -160h-521zM232.5 820.5q-22.5 18.5 -22.5 50.5q0 46 33.5 75t78.5 29q36 0 58.5 -19t22.5 -52q0 -11 -1 -16q-7 -39 -39 -62.5t-72 -23.5q-36 0 -58.5 18.5zM451.5 820.5
q-22.5 18.5 -22.5 50.5q0 46 33.5 75t78.5 29q36 0 58.5 -19t22.5 -52q0 -11 -1 -16q-7 -39 -39 -62.5t-72 -23.5q-36 0 -58.5 18.5z" />
    <glyph glyph-name="Igrave" unicode="&#xcc;" horiz-adv-x="312" 
d="M-1 0l135 763h179l-135 -763h-179zM284 814h-121l-181 145h162z" />
    <glyph glyph-name="Iacute" unicode="&#xcd;" horiz-adv-x="312" 
d="M-1 0l135 763h179l-135 -763h-179zM164 814l140 145h162l-181 -145h-121z" />
    <glyph glyph-name="Icircumflex" unicode="&#xce;" horiz-adv-x="312" 
d="M-1 0l135 763h179l-135 -763h-179zM257 992h14l138 -178h-131l-11 21q-18 31 -14 52h-14q-4 -21 -32 -52l-19 -21h-131z" />
    <glyph glyph-name="Idieresis" unicode="&#xcf;" horiz-adv-x="312" 
d="M-1 0l135 763h179l-135 -763h-179zM61.5 820.5q-22.5 18.5 -22.5 50.5q0 46 33.5 75t78.5 29q36 0 58.5 -19t22.5 -52q0 -11 -1 -16q-7 -39 -39 -62.5t-72 -23.5q-36 0 -58.5 18.5zM280.5 820.5q-22.5 18.5 -22.5 50.5q0 46 33.5 75t78.5 29q36 0 58.5 -19t22.5 -52
q0 -11 -1 -16q-7 -39 -39 -62.5t-72 -23.5q-36 0 -58.5 18.5z" />
    <glyph glyph-name="Eth" unicode="&#xd0;" horiz-adv-x="736" 
d="M619.5 683q87.5 -80 87.5 -238q0 -133 -58.5 -233.5t-165 -156t-247.5 -55.5h-237l57 321h-60l22 121h59l57 321h225q173 0 260.5 -80zM390.5 194q65.5 34 101.5 95t36 140q0 83 -51.5 128.5t-146.5 45.5h-46l-28 -161h183l-22 -121h-183l-28 -161h35q84 0 149.5 34z" />
    <glyph glyph-name="Ntilde" unicode="&#xd1;" horiz-adv-x="787" 
d="M134 763h179l173 -387q10 -21 16 -40.5t10 -54.5h23q-1 36 0.5 56t6.5 49l67 377h179l-135 -763h-180l-174 393q-1 3 -7 16.5t-10.5 32.5t-7.5 42h-22q1 -36 -0.5 -55.5t-6.5 -48.5l-67 -380h-179zM479.5 809.5q-19.5 12.5 -39.5 34.5q-11 12 -17 17t-14 5q-24 0 -40 -68
h-89q17 76 57.5 120.5t94.5 44.5q30 0 49.5 -13t38.5 -34q8 -9 16 -15.5t15 -6.5q11 0 21 16.5t17 48.5h92q-20 -83 -55 -122.5t-93 -39.5q-34 0 -53.5 12.5z" />
    <glyph glyph-name="Ograve" unicode="&#xd2;" horiz-adv-x="834" 
d="M169.5 27.5q-71.5 44.5 -107 119t-35.5 163.5q0 114 55 222.5t160 177.5t247 69q104 0 175.5 -44.5t107 -119t35.5 -163.5q0 -114 -55 -222.5t-160 -177.5t-247 -69q-104 0 -175.5 44.5zM508.5 186q58.5 43 89 109.5t30.5 135.5q0 81 -42.5 134.5t-124.5 53.5
q-77 0 -135.5 -43t-89 -109.5t-30.5 -135.5q0 -81 42.5 -134.5t124.5 -53.5q77 0 135.5 43zM544 814h-121l-181 145h162z" />
    <glyph glyph-name="Oacute" unicode="&#xd3;" horiz-adv-x="834" 
d="M169.5 27.5q-71.5 44.5 -107 119t-35.5 163.5q0 114 55 222.5t160 177.5t247 69q104 0 175.5 -44.5t107 -119t35.5 -163.5q0 -114 -55 -222.5t-160 -177.5t-247 -69q-104 0 -175.5 44.5zM508.5 186q58.5 43 89 109.5t30.5 135.5q0 81 -42.5 134.5t-124.5 53.5
q-77 0 -135.5 -43t-89 -109.5t-30.5 -135.5q0 -81 42.5 -134.5t124.5 -53.5q77 0 135.5 43zM424 814l140 145h162l-181 -145h-121z" />
    <glyph glyph-name="Ocircumflex" unicode="&#xd4;" horiz-adv-x="834" 
d="M169.5 27.5q-71.5 44.5 -107 119t-35.5 163.5q0 114 55 222.5t160 177.5t247 69q104 0 175.5 -44.5t107 -119t35.5 -163.5q0 -114 -55 -222.5t-160 -177.5t-247 -69q-104 0 -175.5 44.5zM508.5 186q58.5 43 89 109.5t30.5 135.5q0 81 -42.5 134.5t-124.5 53.5
q-77 0 -135.5 -43t-89 -109.5t-30.5 -135.5q0 -81 42.5 -134.5t124.5 -53.5q77 0 135.5 43zM517 992h14l138 -178h-131l-11 21q-18 31 -14 52h-14q-4 -21 -32 -52l-19 -21h-131z" />
    <glyph glyph-name="Otilde" unicode="&#xd5;" horiz-adv-x="834" 
d="M169.5 27.5q-71.5 44.5 -107 119t-35.5 163.5q0 114 55 222.5t160 177.5t247 69q104 0 175.5 -44.5t107 -119t35.5 -163.5q0 -114 -55 -222.5t-160 -177.5t-247 -69q-104 0 -175.5 44.5zM508.5 186q58.5 43 89 109.5t30.5 135.5q0 81 -42.5 134.5t-124.5 53.5
q-77 0 -135.5 -43t-89 -109.5t-30.5 -135.5q0 -81 42.5 -134.5t124.5 -53.5q77 0 135.5 43zM502.5 809.5q-19.5 12.5 -39.5 34.5q-11 12 -17 17t-14 5q-24 0 -40 -68h-89q17 76 57.5 120.5t94.5 44.5q30 0 49.5 -13t38.5 -34q8 -9 16 -15.5t15 -6.5q11 0 21 16.5t17 48.5h92
q-20 -83 -55 -122.5t-93 -39.5q-34 0 -53.5 12.5z" />
    <glyph glyph-name="Odieresis" unicode="&#xd6;" horiz-adv-x="834" 
d="M169.5 27.5q-71.5 44.5 -107 119t-35.5 163.5q0 114 55 222.5t160 177.5t247 69q104 0 175.5 -44.5t107 -119t35.5 -163.5q0 -114 -55 -222.5t-160 -177.5t-247 -69q-104 0 -175.5 44.5zM508.5 186q58.5 43 89 109.5t30.5 135.5q0 81 -42.5 134.5t-124.5 53.5
q-77 0 -135.5 -43t-89 -109.5t-30.5 -135.5q0 -81 42.5 -134.5t124.5 -53.5q77 0 135.5 43zM321.5 820.5q-22.5 18.5 -22.5 50.5q0 46 33.5 75t78.5 29q36 0 58.5 -19t22.5 -52q0 -11 -1 -16q-7 -39 -39 -62.5t-72 -23.5q-36 0 -58.5 18.5zM540.5 820.5
q-22.5 18.5 -22.5 50.5q0 46 33.5 75t78.5 29q36 0 58.5 -19t22.5 -52q0 -11 -1 -16q-7 -39 -39 -62.5t-72 -23.5q-36 0 -58.5 18.5z" />
    <glyph glyph-name="multiply" unicode="&#xd7;" horiz-adv-x="583" 
d="M144 95l-87 87l156 157l-155 155l85 86l156 -156l156 156l87 -87l-156 -156l156 -156l-85 -86l-157 157z" />
    <glyph glyph-name="Oslash" unicode="&#xd8;" horiz-adv-x="834" 
d="M768 622q39 -75 39 -170q0 -114 -55 -222.5t-160 -177.5t-247 -69q-73 0 -130.5 22.5t-97.5 63.5l-66 -56l-58 67l72 61q-38 73 -38 169q0 114 55 222.5t160 177.5t247 69q141 0 228 -85l67 57l57 -67zM214 267l363 308q-46 44 -116 44q-77 0 -135.5 -43t-89 -109.5
t-30.5 -135.5q0 -32 8 -64zM620 496l-363 -308q43 -45 116 -45q77 0 135.5 43t89 109.5t30.5 135.5q0 33 -8 65z" />
    <glyph glyph-name="Ugrave" unicode="&#xd9;" horiz-adv-x="761" 
d="M101 46q-70 63 -70 172q0 29 7 73l83 472h180l-85 -484q-5 -27 -5 -46q0 -44 26 -67t89 -23q84 0 126.5 41t54.5 107l83 472h180l-85 -484q-25 -140 -113 -218t-252 -78q-149 0 -219 63zM506 814h-121l-181 145h162z" />
    <glyph glyph-name="Uacute" unicode="&#xda;" horiz-adv-x="761" 
d="M101 46q-70 63 -70 172q0 29 7 73l83 472h180l-85 -484q-5 -27 -5 -46q0 -44 26 -67t89 -23q84 0 126.5 41t54.5 107l83 472h180l-85 -484q-25 -140 -113 -218t-252 -78q-149 0 -219 63zM386 814l140 145h162l-181 -145h-121z" />
    <glyph glyph-name="Ucircumflex" unicode="&#xdb;" horiz-adv-x="761" 
d="M101 46q-70 63 -70 172q0 29 7 73l83 472h180l-85 -484q-5 -27 -5 -46q0 -44 26 -67t89 -23q84 0 126.5 41t54.5 107l83 472h180l-85 -484q-25 -140 -113 -218t-252 -78q-149 0 -219 63zM479 992h14l138 -178h-131l-11 21q-18 31 -14 52h-14q-4 -21 -32 -52l-19 -21h-131
z" />
    <glyph glyph-name="Udieresis" unicode="&#xdc;" horiz-adv-x="761" 
d="M101 46q-70 63 -70 172q0 29 7 73l83 472h180l-85 -484q-5 -27 -5 -46q0 -44 26 -67t89 -23q84 0 126.5 41t54.5 107l83 472h180l-85 -484q-25 -140 -113 -218t-252 -78q-149 0 -219 63zM283.5 820.5q-22.5 18.5 -22.5 50.5q0 46 33.5 75t78.5 29q36 0 58.5 -19t22.5 -52
q0 -11 -1 -16q-7 -39 -39 -62.5t-72 -23.5q-36 0 -58.5 18.5zM502.5 820.5q-22.5 18.5 -22.5 50.5q0 46 33.5 75t78.5 29q36 0 58.5 -19t22.5 -52q0 -11 -1 -16q-7 -39 -39 -62.5t-72 -23.5q-36 0 -58.5 18.5z" />
    <glyph glyph-name="Yacute" unicode="&#xdd;" horiz-adv-x="732" 
d="M254 301l-195 462h196l84 -232q9 -23 13 -38t4 -33q0 -6 -2 -24h18q5 40 13 63t22 43l166 221h223l-354 -460l-55 -303h-188zM365 814l140 145h162l-181 -145h-121z" />
    <glyph glyph-name="Thorn" unicode="&#xde;" horiz-adv-x="668" 
d="M134 763h178l-18 -100h176q70 0 118 -27.5t71.5 -73t23.5 -99.5q0 -68 -30 -129.5t-94.5 -100.5t-160.5 -39h-186l-34 -194h-178zM477.5 376q25.5 27 25.5 66q0 27 -19 44t-56 17h-162l-27 -154h150q63 0 88.5 27z" />
    <glyph glyph-name="germandbls" unicode="&#xdf;" horiz-adv-x="698" 
d="M219 698.5q90 76.5 233 76.5q81 0 134 -24.5t77.5 -64t24.5 -84.5q0 -38 -16 -77t-42 -63q-30 -29 -79 -42l-2 -12q47 -10 75 -33q44 -35 44 -104q0 -92 -45 -152.5t-119 -89.5t-162 -29h-71l26 150h61q65 0 103.5 27.5t38.5 78.5q0 64 -104 64h-69l24 136h37
q57 0 91.5 26.5t34.5 74.5q0 32 -22.5 50t-64.5 18q-61 0 -102 -37.5t-53 -105.5l-85 -482h-168l83 472q27 150 117 226.5z" />
    <glyph glyph-name="agrave" unicode="&#xe0;" horiz-adv-x="608" 
d="M58 23q-44 35 -44 100q0 55 25.5 100t72.5 73q30 17 64.5 27t77.5 18l152 26q1 6 1 18q0 31 -13 48q-14 20 -53 20q-31 0 -58 -20t-39 -55h-167q32 100 112.5 150.5t174.5 50.5q52 0 95.5 -14t70.5 -42q23 -23 32.5 -52t9.5 -66q0 -43 -17 -136l-47 -269h-168l2 9
q4 27 24 51l-14 9q-17 -31 -50 -52q-49 -29 -129 -29q-71 0 -115 35zM308 129q30 13 45 31.5t29 53.5q4 11 8.5 15.5t13.5 5.5v16l-89 -17l-34 -6q-28 -5 -44.5 -11t-29.5 -16q-22 -20 -22 -45q0 -21 16.5 -31t42.5 -10q30 0 64 14zM423 618h-121l-181 145h162z" />
    <glyph glyph-name="aacute" unicode="&#xe1;" horiz-adv-x="608" 
d="M58 23q-44 35 -44 100q0 55 25.5 100t72.5 73q30 17 64.5 27t77.5 18l152 26q1 6 1 18q0 31 -13 48q-14 20 -53 20q-31 0 -58 -20t-39 -55h-167q32 100 112.5 150.5t174.5 50.5q52 0 95.5 -14t70.5 -42q23 -23 32.5 -52t9.5 -66q0 -43 -17 -136l-47 -269h-168l2 9
q4 27 24 51l-14 9q-17 -31 -50 -52q-49 -29 -129 -29q-71 0 -115 35zM308 129q30 13 45 31.5t29 53.5q4 11 8.5 15.5t13.5 5.5v16l-89 -17l-34 -6q-28 -5 -44.5 -11t-29.5 -16q-22 -20 -22 -45q0 -21 16.5 -31t42.5 -10q30 0 64 14zM303 618l140 145h162l-181 -145h-121z
" />
    <glyph glyph-name="acircumflex" unicode="&#xe2;" horiz-adv-x="608" 
d="M58 23q-44 35 -44 100q0 55 25.5 100t72.5 73q30 17 64.5 27t77.5 18l152 26q1 6 1 18q0 31 -13 48q-14 20 -53 20q-31 0 -58 -20t-39 -55h-167q32 100 112.5 150.5t174.5 50.5q52 0 95.5 -14t70.5 -42q23 -23 32.5 -52t9.5 -66q0 -43 -17 -136l-47 -269h-168l2 9
q4 27 24 51l-14 9q-17 -31 -50 -52q-49 -29 -129 -29q-71 0 -115 35zM308 129q30 13 45 31.5t29 53.5q4 11 8.5 15.5t13.5 5.5v16l-89 -17l-34 -6q-28 -5 -44.5 -11t-29.5 -16q-22 -20 -22 -45q0 -21 16.5 -31t42.5 -10q30 0 64 14zM396 796h14l138 -178h-131l-11 21
q-18 31 -14 52h-14q-4 -21 -32 -52l-19 -21h-131z" />
    <glyph glyph-name="atilde" unicode="&#xe3;" horiz-adv-x="608" 
d="M58 23q-44 35 -44 100q0 55 25.5 100t72.5 73q30 17 64.5 27t77.5 18l152 26q1 6 1 18q0 31 -13 48q-14 20 -53 20q-31 0 -58 -20t-39 -55h-167q32 100 112.5 150.5t174.5 50.5q52 0 95.5 -14t70.5 -42q23 -23 32.5 -52t9.5 -66q0 -43 -17 -136l-47 -269h-168l2 9
q4 27 24 51l-14 9q-17 -31 -50 -52q-49 -29 -129 -29q-71 0 -115 35zM308 129q30 13 45 31.5t29 53.5q4 11 8.5 15.5t13.5 5.5v16l-89 -17l-34 -6q-28 -5 -44.5 -11t-29.5 -16q-22 -20 -22 -45q0 -21 16.5 -31t42.5 -10q30 0 64 14zM381.5 613.5q-19.5 12.5 -39.5 34.5
q-11 12 -17 17t-14 5q-24 0 -40 -68h-89q17 76 57.5 120.5t94.5 44.5q30 0 49.5 -13t38.5 -34q8 -9 16 -15.5t15 -6.5q11 0 21 16.5t17 48.5h92q-20 -83 -55 -122.5t-93 -39.5q-34 0 -53.5 12.5z" />
    <glyph glyph-name="adieresis" unicode="&#xe4;" horiz-adv-x="608" 
d="M58 23q-44 35 -44 100q0 55 25.5 100t72.5 73q30 17 64.5 27t77.5 18l152 26q1 6 1 18q0 31 -13 48q-14 20 -53 20q-31 0 -58 -20t-39 -55h-167q32 100 112.5 150.5t174.5 50.5q52 0 95.5 -14t70.5 -42q23 -23 32.5 -52t9.5 -66q0 -43 -17 -136l-47 -269h-168l2 9
q4 27 24 51l-14 9q-17 -31 -50 -52q-49 -29 -129 -29q-71 0 -115 35zM308 129q30 13 45 31.5t29 53.5q4 11 8.5 15.5t13.5 5.5v16l-89 -17l-34 -6q-28 -5 -44.5 -11t-29.5 -16q-22 -20 -22 -45q0 -21 16.5 -31t42.5 -10q30 0 64 14zM201.5 625q-22.5 19 -22.5 51q0 45 33 74
t78 29q36 0 58.5 -19t22.5 -52q0 -46 -33 -74t-78 -28q-36 0 -58.5 19zM420.5 625q-22.5 19 -22.5 51q0 45 33 74t78 29q36 0 58.5 -19t22.5 -52q0 -46 -33 -74t-78 -28q-36 0 -58.5 19z" />
    <glyph glyph-name="aring" unicode="&#xe5;" horiz-adv-x="608" 
d="M562.5 471q9.5 -29 9.5 -66q0 -43 -17 -136l-47 -269h-168l2 9q4 27 24 51l-14 9q-17 -31 -50 -52q-49 -29 -129 -29q-71 0 -115 35t-44 100q0 55 25.5 100t72.5 73q30 17 64.5 27t77.5 18l152 26q1 6 1 18q0 31 -13 48q-14 20 -53 20q-31 0 -58 -20t-39 -55h-167
q28 87 93 136.5t147 61.5q-31 12 -48.5 40t-17.5 63q0 8 2 22q10 57 53 95t104 38q49 0 80 -31t31 -79q0 -7 -2 -23q-8 -44 -35.5 -78t-68.5 -48q76 -12 115 -52q23 -23 32.5 -52zM349.5 663q12.5 -12 28.5 -12q22 0 37.5 14t20.5 38q3 20 -8.5 33.5t-32.5 13.5
q-25 0 -41.5 -17t-16.5 -40q0 -18 12.5 -30zM404 251l-89 -17l-34 -6q-28 -5 -44.5 -11t-29.5 -16q-22 -20 -22 -45q0 -21 16.5 -31t42.5 -10q30 0 64 14q30 13 45 31.5t29 53.5q4 11 8.5 15.5t13.5 5.5v16z" />
    <glyph glyph-name="ae" unicode="&#xe6;" horiz-adv-x="1260" 
d="M58 23q-44 35 -44 100q0 55 25.5 100t72.5 73q30 17 64.5 27t77.5 18l152 26q1 6 1 18q0 31 -13 48q-14 20 -53 20q-31 0 -58 -20t-39 -55h-167q32 100 112.5 150.5t174.5 50.5q52 0 95.5 -14t70.5 -42q23 -23 32.5 -52t9.5 -66q0 -43 -17 -136l-47 -269h-168l2 9
q4 27 24 51l-14 9q-17 -31 -50 -52q-49 -29 -129 -29q-71 0 -115 35zM308 129q30 13 45 31.5t29 53.5q4 11 8.5 15.5t13.5 5.5v16l-89 -17l-34 -6q-28 -5 -44.5 -11t-29.5 -16q-22 -20 -22 -45q0 -21 16.5 -31t42.5 -10q30 0 64 14zM751.5 17q-56.5 29 -86 82t-29.5 122
q0 96 46 178.5t126.5 131t176.5 48.5q107 0 177 -56.5t70 -172.5q0 -37 -7 -73l-5 -29h-331q-66 0 -83 4l-7 -15q8 -2 11 -8.5t5 -18.5q1 -3 4 -14.5t9 -20.5q27 -43 92 -43q36 0 66 18t47 46h169q-43 -92 -123 -150t-193 -58q-78 0 -134.5 29zM864.5 365q12.5 2 27.5 2h124
q15 0 26.5 -2t28.5 -10l9 15q-7 2 -9 5.5t-3 10.5q-5 19 -15 32q-27 33 -84 33t-96 -33q-15 -14 -27 -32q-3 -7 -6.5 -10.5t-11.5 -5.5l5 -15q19 8 31.5 10z" />
    <glyph glyph-name="ccedilla" unicode="&#xe7;" horiz-adv-x="635" 
d="M403 190h188q-37 -94 -114.5 -146.5t-177.5 -55.5q-5 -3 -13 -8t-20 -12l4 -9q7 1 19 1q36 0 56.5 -13.5t20.5 -42.5q0 -54 -44.5 -83t-110.5 -29q-48 0 -93 15l11 61q49 -20 83 -20q24 0 38 11t14 31q0 25 -31.5 34t-85.5 9l67 62q-87 19 -135.5 81t-48.5 155
q0 99 43.5 178.5t120.5 124.5t175 45q106 0 173.5 -53.5t76.5 -141.5h-178q-5 34 -22 48t-51 14q-51 0 -89.5 -31.5t-59.5 -81.5t-21 -106q0 -50 23.5 -77.5t66.5 -27.5q80 0 115 68z" />
    <glyph glyph-name="egrave" unicode="&#xe8;" horiz-adv-x="652" 
d="M143.5 17q-56.5 29 -86 82t-29.5 122q0 96 46 178.5t126.5 131t176.5 48.5q107 0 177 -56.5t70 -172.5q0 -37 -7 -73l-5 -29h-331q-66 0 -83 4l-7 -15q8 -2 11 -8.5t5 -18.5q1 -3 4 -14.5t9 -20.5q27 -43 92 -43q36 0 66 18t47 46h169q-43 -92 -123 -150t-193 -58
q-78 0 -134.5 29zM256.5 365q12.5 2 27.5 2h124q15 0 26.5 -2t28.5 -10l9 15q-7 2 -9 5.5t-3 10.5q-5 19 -15 32q-27 33 -84 33t-96 -33q-15 -14 -27 -32q-3 -7 -6.5 -10.5t-11.5 -5.5l5 -15q19 8 31.5 10zM437 618h-121l-181 145h162z" />
    <glyph glyph-name="eacute" unicode="&#xe9;" horiz-adv-x="652" 
d="M143.5 17q-56.5 29 -86 82t-29.5 122q0 96 46 178.5t126.5 131t176.5 48.5q107 0 177 -56.5t70 -172.5q0 -37 -7 -73l-5 -29h-331q-66 0 -83 4l-7 -15q8 -2 11 -8.5t5 -18.5q1 -3 4 -14.5t9 -20.5q27 -43 92 -43q36 0 66 18t47 46h169q-43 -92 -123 -150t-193 -58
q-78 0 -134.5 29zM256.5 365q12.5 2 27.5 2h124q15 0 26.5 -2t28.5 -10l9 15q-7 2 -9 5.5t-3 10.5q-5 19 -15 32q-27 33 -84 33t-96 -33q-15 -14 -27 -32q-3 -7 -6.5 -10.5t-11.5 -5.5l5 -15q19 8 31.5 10zM317 618l140 145h162l-181 -145h-121z" />
    <glyph glyph-name="ecircumflex" unicode="&#xea;" horiz-adv-x="652" 
d="M143.5 17q-56.5 29 -86 82t-29.5 122q0 96 46 178.5t126.5 131t176.5 48.5q107 0 177 -56.5t70 -172.5q0 -37 -7 -73l-5 -29h-331q-66 0 -83 4l-7 -15q8 -2 11 -8.5t5 -18.5q1 -3 4 -14.5t9 -20.5q27 -43 92 -43q36 0 66 18t47 46h169q-43 -92 -123 -150t-193 -58
q-78 0 -134.5 29zM256.5 365q12.5 2 27.5 2h124q15 0 26.5 -2t28.5 -10l9 15q-7 2 -9 5.5t-3 10.5q-5 19 -15 32q-27 33 -84 33t-96 -33q-15 -14 -27 -32q-3 -7 -6.5 -10.5t-11.5 -5.5l5 -15q19 8 31.5 10zM410 796h14l138 -178h-131l-11 21q-18 31 -14 52h-14
q-4 -21 -32 -52l-19 -21h-131z" />
    <glyph glyph-name="edieresis" unicode="&#xeb;" horiz-adv-x="652" 
d="M143.5 17q-56.5 29 -86 82t-29.5 122q0 96 46 178.5t126.5 131t176.5 48.5q107 0 177 -56.5t70 -172.5q0 -37 -7 -73l-5 -29h-331q-66 0 -83 4l-7 -15q8 -2 11 -8.5t5 -18.5q1 -3 4 -14.5t9 -20.5q27 -43 92 -43q36 0 66 18t47 46h169q-43 -92 -123 -150t-193 -58
q-78 0 -134.5 29zM256.5 365q12.5 2 27.5 2h124q15 0 26.5 -2t28.5 -10l9 15q-7 2 -9 5.5t-3 10.5q-5 19 -15 32q-27 33 -84 33t-96 -33q-15 -14 -27 -32q-3 -7 -6.5 -10.5t-11.5 -5.5l5 -15q19 8 31.5 10zM215.5 625q-22.5 19 -22.5 51q0 45 33 74t78 29q36 0 58.5 -19
t22.5 -52q0 -46 -33 -74t-78 -28q-36 0 -58.5 19zM434.5 625q-22.5 19 -22.5 51q0 45 33 74t78 29q36 0 58.5 -19t22.5 -52q0 -46 -33 -74t-78 -28q-36 0 -58.5 19z" />
    <glyph glyph-name="igrave" unicode="&#xec;" horiz-adv-x="308" 
d="M20 0l100 567h168l-100 -567h-168zM264 618h-121l-181 145h162z" />
    <glyph glyph-name="iacute" unicode="&#xed;" horiz-adv-x="308" 
d="M20 0l100 567h168l-100 -567h-168zM144 618l140 145h162l-181 -145h-121z" />
    <glyph glyph-name="icircumflex" unicode="&#xee;" horiz-adv-x="308" 
d="M20 0l100 567h168l-100 -567h-168zM237 796h14l138 -178h-131l-11 21q-18 31 -14 52h-14q-4 -21 -32 -52l-19 -21h-131z" />
    <glyph glyph-name="idieresis" unicode="&#xef;" horiz-adv-x="308" 
d="M20 0l100 567h168l-100 -567h-168zM42.5 625q-22.5 19 -22.5 51q0 45 33 74t78 29q36 0 58.5 -19t22.5 -52q0 -46 -33 -74t-78 -28q-36 0 -58.5 19zM261.5 625q-22.5 19 -22.5 51q0 45 33 74t78 29q36 0 58.5 -19t22.5 -52q0 -46 -33 -74t-78 -28q-36 0 -58.5 19z" />
    <glyph glyph-name="eth" unicode="&#xf0;" horiz-adv-x="623" 
d="M121.5 11q-54.5 28 -84.5 79.5t-30 120.5q0 85 35.5 153.5t100 107.5t148.5 39q45 0 86.5 -16t69.5 -47q9 32 9 59q0 59 -40 97l-107 -59l-24 55l64 31q-11 3 -30 3q-55 0 -98 -14l-56 137q69 22 156 22q117 0 189 -61l82 45l25 -55l-62 -36q53 -79 53 -201
q0 -130 -41.5 -241.5t-123 -179t-195.5 -67.5q-72 0 -126.5 28zM343.5 159q32.5 21 50 53.5t17.5 66.5q0 42 -26 70t-75 28q-43 0 -75.5 -21t-50 -54t-17.5 -67q0 -41 26 -69t75 -28q43 0 75.5 21z" />
    <glyph glyph-name="ntilde" unicode="&#xf1;" horiz-adv-x="631" 
d="M110 567h168l-1 -6q-3 -16 -8.5 -27t-17.5 -23l12 -10q36 44 74 61t88 17q140 0 166 -98q7 -25 7 -53q0 -22 -4 -50.5t-10 -60.5l-56 -317h-168l56 319q6 36 6 58q0 30 -11 46q-17 21 -59 21q-51 0 -80 -29q-26 -29 -38 -96l-56 -319h-168zM385.5 613.5
q-19.5 12.5 -39.5 34.5q-11 12 -17 17t-14 5q-24 0 -40 -68h-89q17 76 57.5 120.5t94.5 44.5q30 0 49.5 -13t38.5 -34q8 -9 16 -15.5t15 -6.5q11 0 21 16.5t17 48.5h92q-20 -83 -55 -122.5t-93 -39.5q-34 0 -53.5 12.5z" />
    <glyph glyph-name="ograve" unicode="&#xf2;" horiz-adv-x="649" 
d="M135.5 21q-54.5 33 -80.5 87.5t-26 121.5q0 85 41 165.5t120 132t187 51.5q123 0 183 -68.5t60 -173.5q0 -85 -40.5 -165.5t-119.5 -132t-187 -51.5q-83 0 -137.5 33zM379 160q35 28 54 72.5t19 92.5q0 51 -26 81t-74 30q-46 0 -81.5 -27t-54.5 -71t-19 -93q0 -53 27 -83
t74 -30q46 0 81 28zM435 618h-121l-181 145h162z" />
    <glyph glyph-name="oacute" unicode="&#xf3;" horiz-adv-x="649" 
d="M135.5 21q-54.5 33 -80.5 87.5t-26 121.5q0 85 41 165.5t120 132t187 51.5q123 0 183 -68.5t60 -173.5q0 -85 -40.5 -165.5t-119.5 -132t-187 -51.5q-83 0 -137.5 33zM379 160q35 28 54 72.5t19 92.5q0 51 -26 81t-74 30q-46 0 -81.5 -27t-54.5 -71t-19 -93q0 -53 27 -83
t74 -30q46 0 81 28zM315 618l140 145h162l-181 -145h-121z" />
    <glyph glyph-name="ocircumflex" unicode="&#xf4;" horiz-adv-x="649" 
d="M135.5 21q-54.5 33 -80.5 87.5t-26 121.5q0 85 41 165.5t120 132t187 51.5q123 0 183 -68.5t60 -173.5q0 -85 -40.5 -165.5t-119.5 -132t-187 -51.5q-83 0 -137.5 33zM379 160q35 28 54 72.5t19 92.5q0 51 -26 81t-74 30q-46 0 -81.5 -27t-54.5 -71t-19 -93q0 -53 27 -83
t74 -30q46 0 81 28zM408 796h14l138 -178h-131l-11 21q-18 31 -14 52h-14q-4 -21 -32 -52l-19 -21h-131z" />
    <glyph glyph-name="otilde" unicode="&#xf5;" horiz-adv-x="649" 
d="M135.5 21q-54.5 33 -80.5 87.5t-26 121.5q0 85 41 165.5t120 132t187 51.5q123 0 183 -68.5t60 -173.5q0 -85 -40.5 -165.5t-119.5 -132t-187 -51.5q-83 0 -137.5 33zM379 160q35 28 54 72.5t19 92.5q0 51 -26 81t-74 30q-46 0 -81.5 -27t-54.5 -71t-19 -93q0 -53 27 -83
t74 -30q46 0 81 28zM393.5 613.5q-19.5 12.5 -39.5 34.5q-11 12 -17 17t-14 5q-24 0 -40 -68h-89q17 76 57.5 120.5t94.5 44.5q30 0 49.5 -13t38.5 -34q8 -9 16 -15.5t15 -6.5q11 0 21 16.5t17 48.5h92q-20 -83 -55 -122.5t-93 -39.5q-34 0 -53.5 12.5z" />
    <glyph glyph-name="odieresis" unicode="&#xf6;" horiz-adv-x="649" 
d="M135.5 21q-54.5 33 -80.5 87.5t-26 121.5q0 85 41 165.5t120 132t187 51.5q123 0 183 -68.5t60 -173.5q0 -85 -40.5 -165.5t-119.5 -132t-187 -51.5q-83 0 -137.5 33zM379 160q35 28 54 72.5t19 92.5q0 51 -26 81t-74 30q-46 0 -81.5 -27t-54.5 -71t-19 -93q0 -53 27 -83
t74 -30q46 0 81 28zM213.5 625q-22.5 19 -22.5 51q0 45 33 74t78 29q36 0 58.5 -19t22.5 -52q0 -46 -33 -74t-78 -28q-36 0 -58.5 19zM432.5 625q-22.5 19 -22.5 51q0 45 33 74t78 29q36 0 58.5 -19t22.5 -52q0 -46 -33 -74t-78 -28q-36 0 -58.5 19z" />
    <glyph glyph-name="divide" unicode="&#xf7;" horiz-adv-x="570" 
d="M188 438v155h178v-155h-178zM30 279v121h495v-121h-495zM188 77v155h178v-155h-178z" />
    <glyph glyph-name="oslash" unicode="&#xf8;" horiz-adv-x="649" 
d="M596 456q24 -54 24 -119q0 -85 -40.5 -165.5t-119.5 -132t-187 -51.5q-103 0 -166 52l-74 -63l-58 67l79 67q-25 53 -25 119q0 85 41 165.5t120 132t187 51.5q103 0 166 -53l75 64l57 -67zM197 233l217 184q-25 19 -62 19q-46 0 -81.5 -27t-54.5 -71t-19 -93v-12z
M452 333l-215 -183q24 -18 61 -18q46 0 81 28t54 72.5t19 92.5v8z" />
    <glyph glyph-name="ugrave" unicode="&#xf9;" horiz-adv-x="631" 
d="M39 86q-7 25 -7 53q0 22 4 50.5t10 60.5l56 317h168l-56 -319q-6 -36 -6 -58q0 -30 11 -46q17 -21 59 -21q51 0 80 29q26 29 38 96l56 319h168l-100 -567h-168l1 6q3 16 8.5 27t17.5 23l-12 10q-36 -44 -74 -61t-88 -17q-140 0 -166 98zM423 618h-121l-181 145h162z" />
    <glyph glyph-name="uacute" unicode="&#xfa;" horiz-adv-x="631" 
d="M39 86q-7 25 -7 53q0 22 4 50.5t10 60.5l56 317h168l-56 -319q-6 -36 -6 -58q0 -30 11 -46q17 -21 59 -21q51 0 80 29q26 29 38 96l56 319h168l-100 -567h-168l1 6q3 16 8.5 27t17.5 23l-12 10q-36 -44 -74 -61t-88 -17q-140 0 -166 98zM303 618l140 145h162l-181 -145
h-121z" />
    <glyph glyph-name="ucircumflex" unicode="&#xfb;" horiz-adv-x="631" 
d="M39 86q-7 25 -7 53q0 22 4 50.5t10 60.5l56 317h168l-56 -319q-6 -36 -6 -58q0 -30 11 -46q17 -21 59 -21q51 0 80 29q26 29 38 96l56 319h168l-100 -567h-168l1 6q3 16 8.5 27t17.5 23l-12 10q-36 -44 -74 -61t-88 -17q-140 0 -166 98zM396 796h14l138 -178h-131l-11 21
q-18 31 -14 52h-14q-4 -21 -32 -52l-19 -21h-131z" />
    <glyph glyph-name="udieresis" unicode="&#xfc;" horiz-adv-x="631" 
d="M39 86q-7 25 -7 53q0 22 4 50.5t10 60.5l56 317h168l-56 -319q-6 -36 -6 -58q0 -30 11 -46q17 -21 59 -21q51 0 80 29q26 29 38 96l56 319h168l-100 -567h-168l1 6q3 16 8.5 27t17.5 23l-12 10q-36 -44 -74 -61t-88 -17q-140 0 -166 98zM201.5 625q-22.5 19 -22.5 51
q0 45 33 74t78 29q36 0 58.5 -19t22.5 -52q0 -46 -33 -74t-78 -28q-36 0 -58.5 19zM420.5 625q-22.5 19 -22.5 51q0 45 33 74t78 29q36 0 58.5 -19t22.5 -52q0 -46 -33 -74t-78 -28q-36 0 -58.5 19z" />
    <glyph glyph-name="yacute" unicode="&#xfd;" horiz-adv-x="591" 
d="M1 -88h66q25 0 42.5 8t31.5 32l24 40l-100 575h172l29 -320q2 -30 1 -67h12q9 32 24 67l133 320h189l-322 -632q-44 -87 -94.5 -123.5t-130.5 -36.5h-101zM280 618l140 145h162l-181 -145h-121z" />
    <glyph glyph-name="thorn" unicode="&#xfe;" horiz-adv-x="661" 
d="M148 763h168l-36 -202q-3 -16 -8.5 -27t-17.5 -23l12 -10q36 44 74 61t88 17q93 0 147.5 -61.5t54.5 -163.5q0 -27 -7 -71q-15 -86 -58.5 -153t-106 -104.5t-134.5 -37.5q-50 0 -82 17t-52 61l-16 -10q10 -16 10 -32q0 -4 -2 -18l-36 -202h-168zM399.5 173.5
q41.5 42.5 53.5 109.5q4 28 4 39q0 52 -27 83t-74 31q-56 0 -97.5 -42t-53.5 -111q-4 -28 -4 -39q0 -52 27 -82.5t74 -30.5q56 0 97.5 42.5z" />
    <glyph glyph-name="ydieresis" unicode="&#xff;" horiz-adv-x="591" 
d="M1 -88h66q25 0 42.5 8t31.5 32l24 40l-100 575h172l29 -320q2 -30 1 -67h12q9 32 24 67l133 320h189l-322 -632q-44 -87 -94.5 -123.5t-130.5 -36.5h-101zM178.5 625q-22.5 19 -22.5 51q0 45 33 74t78 29q36 0 58.5 -19t22.5 -52q0 -46 -33 -74t-78 -28q-36 0 -58.5 19z
M397.5 625q-22.5 19 -22.5 51q0 45 33 74t78 29q36 0 58.5 -19t22.5 -52q0 -46 -33 -74t-78 -28q-36 0 -58.5 19z" />
    <glyph glyph-name="Amacron" unicode="&#x100;" horiz-adv-x="726" 
d="M-56 0l396 763h194l126 -763h-177l-19 137h-261l-66 -137h-193zM443 292l-26 186q-5 33 -5 63q0 28 4 39h-19q-4 -29 -11 -54t-24 -60l-84 -174h165zM297 815l14 78h302l-14 -78h-302z" />
    <glyph glyph-name="amacron" unicode="&#x101;" horiz-adv-x="608" 
d="M58 23q-44 35 -44 100q0 55 25.5 100t72.5 73q30 17 64.5 27t77.5 18l152 26q1 6 1 18q0 31 -13 48q-14 20 -53 20q-31 0 -58 -20t-39 -55h-167q32 100 112.5 150.5t174.5 50.5q52 0 95.5 -14t70.5 -42q23 -23 32.5 -52t9.5 -66q0 -43 -17 -136l-47 -269h-168l2 9
q4 27 24 51l-14 9q-17 -31 -50 -52q-49 -29 -129 -29q-71 0 -115 35zM308 129q30 13 45 31.5t29 53.5q4 11 8.5 15.5t13.5 5.5v16l-89 -17l-34 -6q-28 -5 -44.5 -11t-29.5 -16q-22 -20 -22 -45q0 -21 16.5 -31t42.5 -10q30 0 64 14zM221 619l14 78h302l-14 -78h-302z" />
    <glyph glyph-name="Abreve" unicode="&#x102;" horiz-adv-x="726" 
d="M-56 0l396 763h194l126 -763h-177l-19 137h-261l-66 -137h-193zM443 292l-26 186q-5 33 -5 63q0 28 4 39h-19q-4 -29 -11 -54t-24 -60l-84 -174h165zM336.5 835q-35.5 33 -35.5 94q0 10 2 30h91q-1 -34 18 -51t50 -17q32 0 56 17.5t35 50.5h92q-17 -73 -68 -115t-131 -42
q-74 0 -109.5 33z" />
    <glyph glyph-name="abreve" unicode="&#x103;" horiz-adv-x="608" 
d="M58 23q-44 35 -44 100q0 55 25.5 100t72.5 73q30 17 64.5 27t77.5 18l152 26q1 6 1 18q0 31 -13 48q-14 20 -53 20q-31 0 -58 -20t-39 -55h-167q32 100 112.5 150.5t174.5 50.5q52 0 95.5 -14t70.5 -42q23 -23 32.5 -52t9.5 -66q0 -43 -17 -136l-47 -269h-168l2 9
q4 27 24 51l-14 9q-17 -31 -50 -52q-49 -29 -129 -29q-71 0 -115 35zM308 129q30 13 45 31.5t29 53.5q4 11 8.5 15.5t13.5 5.5v16l-89 -17l-34 -6q-28 -5 -44.5 -11t-29.5 -16q-22 -20 -22 -45q0 -21 16.5 -31t42.5 -10q30 0 64 14zM260.5 639q-35.5 33 -35.5 94q0 10 2 30
h91q-1 -34 18 -51t50 -17q32 0 56 17.5t35 50.5h92q-17 -73 -68 -115t-131 -42q-74 0 -109.5 33z" />
    <glyph glyph-name="Aogonek" unicode="&#x104;" horiz-adv-x="726" 
d="M-56 0l396 763h194l126 -763h-177l-19 137h-261l-66 -137h-193zM443 292l-26 186q-5 33 -5 63q0 28 4 39h-19q-4 -29 -11 -54t-24 -60l-84 -174h165zM433 -143q0 49 31.5 76.5t90.5 46.5l4 20h101q-61 -34 -80.5 -49.5t-19.5 -33.5q0 -23 29 -23q24 0 55 14l-18 -103
q-42 -13 -84 -13q-109 0 -109 65z" />
    <glyph glyph-name="aogonek" unicode="&#x105;" horiz-adv-x="608" 
d="M562.5 471q9.5 -29 9.5 -66q0 -43 -17 -136l-47 -269q-61 -34 -80.5 -49.5t-19.5 -33.5q0 -23 29 -23q24 0 55 14l-18 -103q-42 -13 -84 -13q-109 0 -109 65q0 49 31.5 76.5t90.5 46.5l4 20h-67l2 9q4 27 24 51l-14 9q-17 -31 -50 -52q-49 -29 -129 -29q-71 0 -115 35
t-44 100q0 55 25.5 100t72.5 73q30 17 64.5 27t77.5 18l152 26q1 6 1 18q0 31 -13 48q-14 20 -53 20q-31 0 -58 -20t-39 -55h-167q32 100 112.5 150.5t174.5 50.5q52 0 95.5 -14t70.5 -42q23 -23 32.5 -52zM404 251l-89 -17l-34 -6q-28 -5 -44.5 -11t-29.5 -16
q-22 -20 -22 -45q0 -21 16.5 -31t42.5 -10q30 0 64 14q30 13 45 31.5t29 53.5q4 11 8.5 15.5t13.5 5.5v16z" />
    <glyph glyph-name="Cacute" unicode="&#x106;" horiz-adv-x="784" 
d="M169.5 27.5q-71.5 44.5 -107 119t-35.5 163.5q0 115 55 223t160 177t247 69q88 0 153 -34.5t99 -97t33 -142.5h-186q-2 52 -35 83t-92 31q-77 0 -135.5 -43t-89 -109.5t-30.5 -135.5q0 -81 42.5 -134.5t124.5 -53.5q113 0 171 116h186q-45 -137 -138.5 -206.5
t-246.5 -69.5q-104 0 -175.5 44.5zM421 814l140 145h162l-181 -145h-121z" />
    <glyph glyph-name="cacute" unicode="&#x107;" horiz-adv-x="635" 
d="M150 18q-58 30 -89 84.5t-31 128.5q0 99 43.5 178.5t120.5 124.5t175 45q106 0 173.5 -53.5t76.5 -141.5h-178q-5 34 -22 48t-51 14q-51 0 -89.5 -31.5t-59.5 -81.5t-21 -106q0 -50 23.5 -77.5t66.5 -27.5q80 0 115 68h188q-38 -97 -119 -149.5t-185 -52.5q-79 0 -137 30
zM308 618l140 145h162l-181 -145h-121z" />
    <glyph glyph-name="Cdotaccent" unicode="&#x10a;" horiz-adv-x="784" 
d="M169.5 27.5q-71.5 44.5 -107 119t-35.5 163.5q0 115 55 223t160 177t247 69q88 0 153 -34.5t99 -97t33 -142.5h-186q-2 52 -35 83t-92 31q-77 0 -135.5 -43t-89 -109.5t-30.5 -135.5q0 -81 42.5 -134.5t124.5 -53.5q113 0 171 116h186q-45 -137 -138.5 -206.5
t-246.5 -69.5q-104 0 -175.5 44.5zM428.5 820.5q-22.5 18.5 -22.5 50.5q0 46 33.5 75t78.5 29q36 0 58.5 -19t22.5 -52q0 -11 -1 -16q-7 -39 -39 -62.5t-72 -23.5q-36 0 -58.5 18.5z" />
    <glyph glyph-name="cdotaccent" unicode="&#x10b;" horiz-adv-x="635" 
d="M150 18q-58 30 -89 84.5t-31 128.5q0 99 43.5 178.5t120.5 124.5t175 45q106 0 173.5 -53.5t76.5 -141.5h-178q-5 34 -22 48t-51 14q-51 0 -89.5 -31.5t-59.5 -81.5t-21 -106q0 -50 23.5 -77.5t66.5 -27.5q80 0 115 68h188q-38 -97 -119 -149.5t-185 -52.5q-79 0 -137 30
zM316.5 625q-22.5 19 -22.5 51q0 45 33 74t78 29q36 0 58.5 -19t22.5 -52q0 -46 -33 -74t-78 -28q-36 0 -58.5 19z" />
    <glyph glyph-name="Ccaron" unicode="&#x10c;" horiz-adv-x="784" 
d="M169.5 27.5q-71.5 44.5 -107 119t-35.5 163.5q0 115 55 223t160 177t247 69q88 0 153 -34.5t99 -97t33 -142.5h-186q-2 52 -35 83t-92 31q-77 0 -135.5 -43t-89 -109.5t-30.5 -135.5q0 -81 42.5 -134.5t124.5 -53.5q113 0 171 116h186q-45 -137 -138.5 -206.5
t-246.5 -69.5q-104 0 -175.5 44.5zM340 959h131l11 -21q17 -31 14 -52h14q3 21 32 52l19 21h131l-201 -177h-14z" />
    <glyph glyph-name="ccaron" unicode="&#x10d;" horiz-adv-x="635" 
d="M150 18q-58 30 -89 84.5t-31 128.5q0 99 43.5 178.5t120.5 124.5t175 45q106 0 173.5 -53.5t76.5 -141.5h-178q-5 34 -22 48t-51 14q-51 0 -89.5 -31.5t-59.5 -81.5t-21 -106q0 -50 23.5 -77.5t66.5 -27.5q80 0 115 68h188q-38 -97 -119 -149.5t-185 -52.5q-79 0 -137 30
zM227 763h131l11 -21q17 -31 14 -52h14q3 21 32 52l19 21h131l-201 -177h-14z" />
    <glyph glyph-name="Dcaron" unicode="&#x10e;" horiz-adv-x="736" 
d="M134 763h225q173 0 260.5 -80t87.5 -238q0 -133 -58.5 -233.5t-165 -156t-247.5 -55.5h-237zM390.5 194q65.5 34 101.5 95t36 140q0 83 -51.5 128.5t-146.5 45.5h-46l-78 -443h35q84 0 149.5 34zM281 959h131l11 -21q17 -31 14 -52h14q3 21 32 52l19 21h131l-201 -177
h-14z" />
    <glyph glyph-name="dcaron" unicode="&#x10f;" horiz-adv-x="662" 
d="M87 49.5q-55 61.5 -55 162.5q0 93 40 178t110 137t156 52q50 0 82 -17t52 -61l16 10q-10 16 -10 32q0 4 2 18l35 202h168l-134 -763h-168l1 6q3 16 8.5 27t17.5 23l-12 10q-36 -44 -74 -61t-88 -17q-92 0 -147 61.5zM387 158.5q35 27.5 54.5 71.5t19.5 92q0 53 -27 83.5
t-74 30.5q-45 0 -80.5 -27.5t-55 -72t-19.5 -92.5q0 -52 27 -82.5t74 -30.5q46 0 81 27.5zM769.5 539.5q36.5 24.5 43.5 71.5h-12q-8 -12 -18 -17.5t-26 -5.5q-26 0 -44.5 19t-18.5 51q0 51 34.5 84t86.5 33q46 0 69.5 -28t23.5 -76q0 -12 -4 -40q-15 -81 -75 -139t-169 -63
l15 86q58 0 94.5 24.5z" />
    <glyph glyph-name="Dcroat" unicode="&#x110;" horiz-adv-x="736" 
d="M619.5 683q87.5 -80 87.5 -238q0 -133 -58.5 -233.5t-165 -156t-247.5 -55.5h-237l57 321h-60l22 121h59l57 321h225q173 0 260.5 -80zM390.5 194q65.5 34 101.5 95t36 140q0 83 -51.5 128.5t-146.5 45.5h-46l-28 -161h183l-22 -121h-183l-28 -161h35q84 0 149.5 34z" />
    <glyph glyph-name="Emacron" unicode="&#x112;" horiz-adv-x="637" 
d="M-1 0l135 763h521l-29 -160h-342l-25 -142h309l-28 -159h-309l-25 -142h342l-28 -160h-521zM253 815l14 78h302l-14 -78h-302z" />
    <glyph glyph-name="emacron" unicode="&#x113;" horiz-adv-x="652" 
d="M143.5 17q-56.5 29 -86 82t-29.5 122q0 96 46 178.5t126.5 131t176.5 48.5q107 0 177 -56.5t70 -172.5q0 -37 -7 -73l-5 -29h-331q-66 0 -83 4l-7 -15q8 -2 11 -8.5t5 -18.5q1 -3 4 -14.5t9 -20.5q27 -43 92 -43q36 0 66 18t47 46h169q-43 -92 -123 -150t-193 -58
q-78 0 -134.5 29zM256.5 365q12.5 2 27.5 2h124q15 0 26.5 -2t28.5 -10l9 15q-7 2 -9 5.5t-3 10.5q-5 19 -15 32q-27 33 -84 33t-96 -33q-15 -14 -27 -32q-3 -7 -6.5 -10.5t-11.5 -5.5l5 -15q19 8 31.5 10zM235 619l14 78h302l-14 -78h-302z" />
    <glyph glyph-name="Edotaccent" unicode="&#x116;" horiz-adv-x="637" 
d="M-1 0l135 763h521l-29 -160h-342l-25 -142h309l-28 -159h-309l-25 -142h342l-28 -160h-521zM342.5 820.5q-22.5 18.5 -22.5 50.5q0 46 33.5 75t78.5 29q36 0 58.5 -19t22.5 -52q0 -11 -1 -16q-7 -39 -39 -62.5t-72 -23.5q-36 0 -58.5 18.5z" />
    <glyph glyph-name="edotaccent" unicode="&#x117;" horiz-adv-x="652" 
d="M143.5 17q-56.5 29 -86 82t-29.5 122q0 96 46 178.5t126.5 131t176.5 48.5q107 0 177 -56.5t70 -172.5q0 -37 -7 -73l-5 -29h-331q-66 0 -83 4l-7 -15q8 -2 11 -8.5t5 -18.5q1 -3 4 -14.5t9 -20.5q27 -43 92 -43q36 0 66 18t47 46h169q-43 -92 -123 -150t-193 -58
q-78 0 -134.5 29zM256.5 365q12.5 2 27.5 2h124q15 0 26.5 -2t28.5 -10l9 15q-7 2 -9 5.5t-3 10.5q-5 19 -15 32q-27 33 -84 33t-96 -33q-15 -14 -27 -32q-3 -7 -6.5 -10.5t-11.5 -5.5l5 -15q19 8 31.5 10zM325.5 625q-22.5 19 -22.5 51q0 45 33 74t78 29q36 0 58.5 -19
t22.5 -52q0 -46 -33 -74t-78 -28q-36 0 -58.5 19z" />
    <glyph glyph-name="Eogonek" unicode="&#x118;" horiz-adv-x="637" 
d="M-1 0l135 763h521l-29 -160h-342l-25 -142h309l-28 -159h-309l-25 -142h342l-28 -160h-521zM293 -143q0 49 31.5 76.5t90.5 46.5l4 20h101q-61 -34 -80.5 -49.5t-19.5 -33.5q0 -23 29 -23q24 0 55 14l-18 -103q-42 -13 -84 -13q-109 0 -109 65z" />
    <glyph glyph-name="eogonek" unicode="&#x119;" horiz-adv-x="652" 
d="M554 522.5q70 -56.5 70 -172.5q0 -37 -7 -73l-5 -29h-331q-66 0 -83 4l-7 -15q8 -2 11 -8.5t5 -18.5q1 -3 4 -14.5t9 -20.5q27 -43 92 -43q36 0 66 18t47 46h169q-45 -98 -126 -152q-25 -16 -44 -25q-32 -19 -44 -31.5t-12 -26.5q0 -23 29 -23q24 0 55 14l-18 -103
q-42 -13 -84 -13q-109 0 -109 65q0 54 44 87h-7q-78 0 -134.5 29t-86 82t-29.5 122q0 96 46 178.5t126.5 131t176.5 48.5q107 0 177 -56.5zM472 370q-7 2 -9 5.5t-3 10.5q-5 19 -15 32q-27 33 -84 33t-96 -33q-15 -14 -27 -32q-3 -7 -6.5 -10.5t-11.5 -5.5l5 -15
q19 8 31.5 10t27.5 2h124q15 0 26.5 -2t28.5 -10z" />
    <glyph glyph-name="Ecaron" unicode="&#x11a;" horiz-adv-x="637" 
d="M-1 0l135 763h521l-29 -160h-342l-25 -142h309l-28 -159h-309l-25 -142h342l-28 -160h-521zM254 959h131l11 -21q17 -31 14 -52h14q3 21 32 52l19 21h131l-201 -177h-14z" />
    <glyph glyph-name="ecaron" unicode="&#x11b;" horiz-adv-x="652" 
d="M143.5 17q-56.5 29 -86 82t-29.5 122q0 96 46 178.5t126.5 131t176.5 48.5q107 0 177 -56.5t70 -172.5q0 -37 -7 -73l-5 -29h-331q-66 0 -83 4l-7 -15q8 -2 11 -8.5t5 -18.5q1 -3 4 -14.5t9 -20.5q27 -43 92 -43q36 0 66 18t47 46h169q-43 -92 -123 -150t-193 -58
q-78 0 -134.5 29zM256.5 365q12.5 2 27.5 2h124q15 0 26.5 -2t28.5 -10l9 15q-7 2 -9 5.5t-3 10.5q-5 19 -15 32q-27 33 -84 33t-96 -33q-15 -14 -27 -32q-3 -7 -6.5 -10.5t-11.5 -5.5l5 -15q19 8 31.5 10zM236 763h131l11 -21q17 -31 14 -52h14q3 21 32 52l19 21h131
l-201 -177h-14z" />
    <glyph glyph-name="Gbreve" unicode="&#x11e;" horiz-adv-x="829" 
d="M169.5 27.5q-71.5 44.5 -107 119t-35.5 163.5q0 114 54.5 222.5t159 177.5t244.5 69q101 0 171 -34.5t105.5 -96t34.5 -143.5h-191q-5 60 -40 87t-104 27q-77 0 -135.5 -43t-89 -109.5t-30.5 -135.5q0 -81 42.5 -134.5t124.5 -53.5q70 0 120 26.5t73 72.5q4 9 8 19.5
t8.5 18t13.5 14.5l-5 6q-14 -12 -25.5 -15t-34.5 -3h-107l25 144h338l-75 -426h-163l18 95h-18q-12 -57 -63 -84.5t-141 -27.5q-104 0 -175.5 44.5zM380.5 835q-35.5 33 -35.5 94q0 10 2 30h91q-1 -34 18 -51t50 -17q32 0 56 17.5t35 50.5h92q-17 -73 -68 -115t-131 -42
q-74 0 -109.5 33z" />
    <glyph glyph-name="gbreve" unicode="&#x11f;" horiz-adv-x="655" 
d="M63.5 -166.5q-66.5 41.5 -65.5 146.5h168q7 -35 28.5 -49t60.5 -14q54 0 84.5 25t37.5 63l4 21q2 15 8 26.5t17 23.5l-12 10q-36 -44 -74 -61t-88 -17q-61 0 -107 28t-70.5 78t-24.5 115q0 89 40 170t109.5 130.5t153.5 49.5q50 0 82 -17t52 -61l16 10q-10 16 -10 32
q0 4 2 18l1 6h168l-92 -519q-24 -141 -108 -198.5t-210 -57.5q-104 0 -170.5 41.5zM383 176q35 25 54.5 65t19.5 84q0 50 -27.5 80.5t-74.5 30.5q-43 0 -78 -25t-54.5 -65.5t-19.5 -84.5q0 -49 27 -79.5t75 -30.5q43 0 78 25zM271.5 639q-35.5 33 -35.5 94q0 10 2 30h91
q-1 -34 18 -51t50 -17q32 0 56 17.5t35 50.5h92q-17 -73 -68 -115t-131 -42q-74 0 -109.5 33z" />
    <glyph glyph-name="Gdotaccent" unicode="&#x120;" horiz-adv-x="829" 
d="M169.5 27.5q-71.5 44.5 -107 119t-35.5 163.5q0 114 54.5 222.5t159 177.5t244.5 69q101 0 171 -34.5t105.5 -96t34.5 -143.5h-191q-5 60 -40 87t-104 27q-77 0 -135.5 -43t-89 -109.5t-30.5 -135.5q0 -81 42.5 -134.5t124.5 -53.5q70 0 120 26.5t73 72.5q4 9 8 19.5
t8.5 18t13.5 14.5l-5 6q-14 -12 -25.5 -15t-34.5 -3h-107l25 144h338l-75 -426h-163l18 95h-18q-12 -57 -63 -84.5t-141 -27.5q-104 0 -175.5 44.5zM430.5 820.5q-22.5 18.5 -22.5 50.5q0 46 33.5 75t78.5 29q36 0 58.5 -19t22.5 -52q0 -11 -1 -16q-7 -39 -39 -62.5
t-72 -23.5q-36 0 -58.5 18.5z" />
    <glyph glyph-name="gdotaccent" unicode="&#x121;" horiz-adv-x="655" 
d="M63.5 -166.5q-66.5 41.5 -65.5 146.5h168q7 -35 28.5 -49t60.5 -14q54 0 84.5 25t37.5 63l4 21q2 15 8 26.5t17 23.5l-12 10q-36 -44 -74 -61t-88 -17q-61 0 -107 28t-70.5 78t-24.5 115q0 89 40 170t109.5 130.5t153.5 49.5q50 0 82 -17t52 -61l16 10q-10 16 -10 32
q0 4 2 18l1 6h168l-92 -519q-24 -141 -108 -198.5t-210 -57.5q-104 0 -170.5 41.5zM383 176q35 25 54.5 65t19.5 84q0 50 -27.5 80.5t-74.5 30.5q-43 0 -78 -25t-54.5 -65.5t-19.5 -84.5q0 -49 27 -79.5t75 -30.5q43 0 78 25zM322.5 625q-22.5 19 -22.5 51q0 45 33 74t78 29
q36 0 58.5 -19t22.5 -52q0 -46 -33 -74t-78 -28q-36 0 -58.5 19z" />
    <glyph glyph-name="uni0122" unicode="&#x122;" horiz-adv-x="829" 
d="M169.5 27.5q-71.5 44.5 -107 119t-35.5 163.5q0 114 54.5 222.5t159 177.5t244.5 69q101 0 171 -34.5t105.5 -96t34.5 -143.5h-191q-5 60 -40 87t-104 27q-77 0 -135.5 -43t-89 -109.5t-30.5 -135.5q0 -81 42.5 -134.5t124.5 -53.5q70 0 120 26.5t73 72.5q4 9 8 19.5
t8.5 18t13.5 14.5l-5 6q-14 -12 -25.5 -15t-34.5 -3h-107l25 144h338l-75 -426h-163l18 95h-18q-12 -57 -63 -84.5t-141 -27.5q-104 0 -175.5 44.5zM309.5 -152q18.5 7 26.5 21q4 5 6 15h-8q-12 -15 -35 -15q-17 0 -26.5 8t-9.5 25q0 29 21 47t54 18q30 0 45.5 -15.5
t15.5 -40.5q0 -52 -38.5 -79.5t-102.5 -27.5l7 37q26 0 44.5 7z" />
    <glyph glyph-name="uni0123" unicode="&#x123;" horiz-adv-x="655" 
d="M63.5 -166.5q-66.5 41.5 -65.5 146.5h168q7 -35 28.5 -49t60.5 -14q54 0 84.5 25t37.5 63l4 21q2 15 8 26.5t17 23.5l-12 10q-36 -44 -74 -61t-88 -17q-61 0 -107 28t-70.5 78t-24.5 115q0 89 40 170t109.5 130.5t153.5 49.5q50 0 82 -17t52 -61l16 10q-10 16 -10 32
q0 4 2 18l1 6h168l-92 -519q-24 -141 -108 -198.5t-210 -57.5q-104 0 -170.5 41.5zM383 176q35 25 54.5 65t19.5 84q0 50 -27.5 80.5t-74.5 30.5q-43 0 -78 -25t-54.5 -65.5t-19.5 -84.5q0 -49 27 -79.5t75 -30.5q43 0 78 25zM325.5 611q-18.5 20 -18.5 55q0 13 3 28
q12 58 60.5 100t135.5 45l-12 -62q-47 0 -76.5 -17.5t-34.5 -51.5h10q6 9 14 13t21 4q21 0 35.5 -13.5t14.5 -37.5q0 -36 -27.5 -59.5t-69.5 -23.5q-37 0 -55.5 20z" />
    <glyph glyph-name="Imacron" unicode="&#x12a;" horiz-adv-x="312" 
d="M-1 0l135 763h179l-135 -763h-179zM82 815l14 78h302l-14 -78h-302z" />
    <glyph glyph-name="imacron" unicode="&#x12b;" horiz-adv-x="308" 
d="M20 0l100 567h168l-100 -567h-168zM62 619l14 78h302l-14 -78h-302z" />
    <glyph glyph-name="Iogonek" unicode="&#x12e;" horiz-adv-x="312" 
d="M-1 0l135 763h179l-135 -763h-179zM-49 -143q0 49 31.5 76.5t90.5 46.5l4 20h101q-61 -34 -80.5 -49.5t-19.5 -33.5q0 -23 29 -23q24 0 55 14l-18 -103q-42 -13 -84 -13q-109 0 -109 65z" />
    <glyph glyph-name="iogonek" unicode="&#x12f;" horiz-adv-x="308" 
d="M20 0l100 567h168l-100 -567h-168zM152.5 625q-22.5 19 -22.5 51q0 45 33 74t78 29q36 0 58.5 -19t22.5 -52q0 -46 -33 -74t-78 -28q-36 0 -58.5 19zM-39 -143q0 49 31.5 76.5t90.5 46.5l4 20h101q-61 -34 -80.5 -49.5t-19.5 -33.5q0 -23 29 -23q24 0 55 14l-18 -103
q-42 -13 -84 -13q-109 0 -109 65z" />
    <glyph glyph-name="Idotaccent" unicode="&#x130;" horiz-adv-x="312" 
d="M-1 0l135 763h179l-135 -763h-179zM171.5 820.5q-22.5 18.5 -22.5 50.5q0 46 33.5 75t78.5 29q36 0 58.5 -19t22.5 -52q0 -11 -1 -16q-7 -39 -39 -62.5t-72 -23.5q-36 0 -58.5 18.5z" />
    <glyph glyph-name="dotlessi" unicode="&#x131;" horiz-adv-x="308" 
d="M20 0l100 567h168l-100 -567h-168z" />
    <glyph glyph-name="uni0136" unicode="&#x136;" horiz-adv-x="712" 
d="M134 763h179l-63 -350h18q4 29 17.5 51t34.5 51l227 248h220l-348 -370l213 -393h-213l-135 267q-31 66 -41 102l-25 -10q11 -28 11 -51q0 -18 -6 -53l-45 -255h-179zM248.5 -152q18.5 7 26.5 21q4 5 6 15h-8q-12 -15 -35 -15q-17 0 -26.5 8t-9.5 25q0 29 21 47t54 18
q30 0 45.5 -15.5t15.5 -40.5q0 -52 -38.5 -79.5t-102.5 -27.5l7 37q26 0 44.5 7z" />
    <glyph glyph-name="uni0137" unicode="&#x137;" horiz-adv-x="637" 
d="M145 763h168l-54 -304q-4 -23 -9 -42.5t-17 -48.5l11 -5q25 30 61 63l153 141h216l-239 -214q-16 -15 -52 -36l-2 -14q21 -19 37 -46l155 -257h-195l-113 201q-20 36 -36 74l-13 -4q1 -29 -0.5 -47.5t-5.5 -41.5l-32 -182h-168zM224.5 -152q18.5 7 26.5 21q4 5 6 15h-8
q-12 -15 -35 -15q-17 0 -26.5 8t-9.5 25q0 29 21 47t54 18q30 0 45.5 -15.5t15.5 -40.5q0 -52 -38.5 -79.5t-102.5 -27.5l7 37q26 0 44.5 7z" />
    <glyph glyph-name="kgreenlandic" unicode="&#x138;" horiz-adv-x="637" 
d="M110 567h168l-19 -108q-4 -23 -9 -42.5t-17 -48.5l11 -5q25 30 61 63l153 141h216l-236 -209q-16 -15 -52 -36l-2 -14q21 -19 37 -46l152 -262h-195l-113 201q-20 36 -36 74l-13 -4q1 -29 -0.5 -47.5t-5.5 -41.5l-32 -182h-168z" />
    <glyph glyph-name="Lacute" unicode="&#x139;" horiz-adv-x="563" 
d="M-1 0l135 763h179l-107 -603h311l-28 -160h-490zM164 814l140 145h162l-181 -145h-121z" />
    <glyph glyph-name="lacute" unicode="&#x13a;" horiz-adv-x="323" 
d="M52.5 22.5q-28.5 22.5 -28.5 65.5q0 16 2 25l115 650h168l-105 -592q-1 -3 -1 -9q0 -26 28 -26h42l-24 -136h-113q-55 0 -83.5 22.5zM165 814l140 145h162l-181 -145h-121z" />
    <glyph glyph-name="uni013B" unicode="&#x13b;" horiz-adv-x="563" 
d="M-1 0l135 763h179l-107 -603h311l-28 -160h-490zM205.5 -152q18.5 7 26.5 21q4 5 6 15h-8q-12 -15 -35 -15q-17 0 -26.5 8t-9.5 25q0 29 21 47t54 18q30 0 45.5 -15.5t15.5 -40.5q0 -52 -38.5 -79.5t-102.5 -27.5l7 37q26 0 44.5 7z" />
    <glyph glyph-name="uni013C" unicode="&#x13c;" horiz-adv-x="323" 
d="M52.5 22.5q-28.5 22.5 -28.5 65.5q0 16 2 25l115 650h168l-105 -592q-1 -3 -1 -9q0 -26 28 -26h42l-24 -136h-113q-55 0 -83.5 22.5zM68.5 -152q18.5 7 26.5 21q4 5 6 15h-8q-12 -15 -35 -15q-17 0 -26.5 8t-9.5 25q0 29 21 47t54 18q30 0 45.5 -15.5t15.5 -40.5
q0 -52 -38.5 -79.5t-102.5 -27.5l7 37q26 0 44.5 7z" />
    <glyph glyph-name="Lcaron" unicode="&#x13d;" horiz-adv-x="563" 
d="M-1 0l135 763h179l-107 -603h311l-28 -160h-490zM465.5 539.5q36.5 24.5 43.5 71.5h-12q-8 -12 -18 -17.5t-26 -5.5q-26 0 -44.5 19t-18.5 51q0 51 34.5 84t86.5 33q46 0 69.5 -28t23.5 -76q0 -12 -4 -40q-15 -81 -75 -139t-169 -63l15 86q58 0 94.5 24.5z" />
    <glyph glyph-name="lcaron" unicode="&#x13e;" horiz-adv-x="323" 
d="M52.5 22.5q-28.5 22.5 -28.5 65.5q0 16 2 25l115 650h168l-105 -592q-1 -3 -1 -9q0 -26 28 -26h42l-24 -136h-113q-55 0 -83.5 22.5zM425.5 539.5q36.5 24.5 43.5 71.5h-12q-8 -12 -18 -17.5t-26 -5.5q-26 0 -44.5 19t-18.5 51q0 51 34.5 84t86.5 33q46 0 69.5 -28
t23.5 -76q0 -12 -4 -40q-15 -81 -75 -139t-169 -63l15 86q58 0 94.5 24.5z" />
    <glyph glyph-name="Lslash" unicode="&#x141;" horiz-adv-x="599" 
d="M57 0l50 279l-80 -36l22 138l81 38l62 344h179l-46 -252l154 73l-22 -138l-154 -73l-39 -213h311l-28 -160h-490z" />
    <glyph glyph-name="lslash" unicode="&#x142;" horiz-adv-x="323" 
d="M204 171q-1 -3 -1 -9q0 -26 28 -26h42l-24 -136h-113q-55 0 -83.5 22.5t-28.5 65.5q0 16 2 25l44 247l-37 -17l20 112l37 17l51 291h168l-36 -203l51 24l-19 -112l-52 -25z" />
    <glyph glyph-name="Nacute" unicode="&#x143;" horiz-adv-x="787" 
d="M134 763h179l173 -387q10 -21 16 -40.5t10 -54.5h23q-1 36 0.5 56t6.5 49l67 377h179l-135 -763h-180l-174 393q-1 3 -7 16.5t-10.5 32.5t-7.5 42h-22q1 -36 -0.5 -55.5t-6.5 -48.5l-67 -380h-179zM401 814l140 145h162l-181 -145h-121z" />
    <glyph glyph-name="nacute" unicode="&#x144;" horiz-adv-x="631" 
d="M110 567h168l-1 -6q-3 -16 -8.5 -27t-17.5 -23l12 -10q36 44 74 61t88 17q140 0 166 -98q7 -25 7 -53q0 -22 -4 -50.5t-10 -60.5l-56 -317h-168l56 319q6 36 6 58q0 30 -11 46q-17 21 -59 21q-51 0 -80 -29q-26 -29 -38 -96l-56 -319h-168zM307 618l140 145h162
l-181 -145h-121z" />
    <glyph glyph-name="uni0145" unicode="&#x145;" horiz-adv-x="787" 
d="M134 763h179l173 -387q10 -21 16 -40.5t10 -54.5h23q-1 36 0.5 56t6.5 49l67 377h179l-135 -763h-180l-174 393q-1 3 -7 16.5t-10.5 32.5t-7.5 42h-22q1 -36 -0.5 -55.5t-6.5 -48.5l-67 -380h-179zM287.5 -152q18.5 7 26.5 21q4 5 6 15h-8q-12 -15 -35 -15q-17 0 -26.5 8
t-9.5 25q0 29 21 47t54 18q30 0 45.5 -15.5t15.5 -40.5q0 -52 -38.5 -79.5t-102.5 -27.5l7 37q26 0 44.5 7z" />
    <glyph glyph-name="uni0146" unicode="&#x146;" horiz-adv-x="631" 
d="M110 567h168l-1 -6q-3 -16 -8.5 -27t-17.5 -23l12 -10q36 44 74 61t88 17q140 0 166 -98q7 -25 7 -53q0 -22 -4 -50.5t-10 -60.5l-56 -317h-168l56 319q6 36 6 58q0 30 -11 46q-17 21 -59 21q-51 0 -80 -29q-26 -29 -38 -96l-56 -319h-168zM228.5 -152q18.5 7 26.5 21
q4 5 6 15h-8q-12 -15 -35 -15q-17 0 -26.5 8t-9.5 25q0 29 21 47t54 18q30 0 45.5 -15.5t15.5 -40.5q0 -52 -38.5 -79.5t-102.5 -27.5l7 37q26 0 44.5 7z" />
    <glyph glyph-name="Ncaron" unicode="&#x147;" horiz-adv-x="787" 
d="M134 763h179l173 -387q10 -21 16 -40.5t10 -54.5h23q-1 36 0.5 56t6.5 49l67 377h179l-135 -763h-180l-174 393q-1 3 -7 16.5t-10.5 32.5t-7.5 42h-22q1 -36 -0.5 -55.5t-6.5 -48.5l-67 -380h-179zM320 959h131l11 -21q17 -31 14 -52h14q3 21 32 52l19 21h131l-201 -177
h-14z" />
    <glyph glyph-name="ncaron" unicode="&#x148;" horiz-adv-x="631" 
d="M110 567h168l-1 -6q-3 -16 -8.5 -27t-17.5 -23l12 -10q36 44 74 61t88 17q140 0 166 -98q7 -25 7 -53q0 -22 -4 -50.5t-10 -60.5l-56 -317h-168l56 319q6 36 6 58q0 30 -11 46q-17 21 -59 21q-51 0 -80 -29q-26 -29 -38 -96l-56 -319h-168zM226 763h131l11 -21
q17 -31 14 -52h14q3 21 32 52l19 21h131l-201 -177h-14z" />
    <glyph glyph-name="Omacron" unicode="&#x14c;" horiz-adv-x="834" 
d="M169.5 27.5q-71.5 44.5 -107 119t-35.5 163.5q0 114 55 222.5t160 177.5t247 69q104 0 175.5 -44.5t107 -119t35.5 -163.5q0 -114 -55 -222.5t-160 -177.5t-247 -69q-104 0 -175.5 44.5zM508.5 186q58.5 43 89 109.5t30.5 135.5q0 81 -42.5 134.5t-124.5 53.5
q-77 0 -135.5 -43t-89 -109.5t-30.5 -135.5q0 -81 42.5 -134.5t124.5 -53.5q77 0 135.5 43zM342 815l14 78h302l-14 -78h-302z" />
    <glyph glyph-name="omacron" unicode="&#x14d;" horiz-adv-x="649" 
d="M135.5 21q-54.5 33 -80.5 87.5t-26 121.5q0 85 41 165.5t120 132t187 51.5q123 0 183 -68.5t60 -173.5q0 -85 -40.5 -165.5t-119.5 -132t-187 -51.5q-83 0 -137.5 33zM379 160q35 28 54 72.5t19 92.5q0 51 -26 81t-74 30q-46 0 -81.5 -27t-54.5 -71t-19 -93q0 -53 27 -83
t74 -30q46 0 81 28zM233 619l14 78h302l-14 -78h-302z" />
    <glyph glyph-name="Ohungarumlaut" unicode="&#x150;" horiz-adv-x="834" 
d="M169.5 27.5q-71.5 44.5 -107 119t-35.5 163.5q0 114 55 222.5t160 177.5t247 69q104 0 175.5 -44.5t107 -119t35.5 -163.5q0 -114 -55 -222.5t-160 -177.5t-247 -69q-104 0 -175.5 44.5zM508.5 186q58.5 43 89 109.5t30.5 135.5q0 81 -42.5 134.5t-124.5 53.5
q-77 0 -135.5 -43t-89 -109.5t-30.5 -135.5q0 -81 42.5 -134.5t124.5 -53.5q77 0 135.5 43zM327 814l143 145h141l-163 -145h-121zM537 814l143 145h153l-175 -145h-121z" />
    <glyph glyph-name="ohungarumlaut" unicode="&#x151;" horiz-adv-x="649" 
d="M135.5 21q-54.5 33 -80.5 87.5t-26 121.5q0 85 41 165.5t120 132t187 51.5q123 0 183 -68.5t60 -173.5q0 -85 -40.5 -165.5t-119.5 -132t-187 -51.5q-83 0 -137.5 33zM379 160q35 28 54 72.5t19 92.5q0 51 -26 81t-74 30q-46 0 -81.5 -27t-54.5 -71t-19 -93q0 -53 27 -83
t74 -30q46 0 81 28zM218 618l143 145h141l-163 -145h-121zM428 618l143 145h153l-175 -145h-121z" />
    <glyph glyph-name="OE" unicode="&#x152;" horiz-adv-x="1180" 
d="M165 24.5q-70 41.5 -104 113t-34 163.5q0 131 54.5 240.5t152.5 173.5t222 64q75 0 129.5 -29t69.5 -69l21 16q-5 34 -3 48l3 18h521l-28 -160h-342l-25 -142h309l-28 -159h-309l-25 -142h342l-28 -160h-521l4 25q3 17 6.5 28.5t10.5 23.5l-7 -5q-31 -44 -89 -66.5
t-129 -22.5q-103 0 -173 41.5zM493.5 188q57.5 45 88.5 117.5t31 153.5q0 76 -37.5 118t-108.5 42q-75 0 -133 -44.5t-89 -117t-31 -152.5q0 -77 38 -119.5t109 -42.5q75 0 132.5 45z" />
    <glyph glyph-name="oe" unicode="&#x153;" horiz-adv-x="1301" 
d="M135.5 21q-54.5 33 -80.5 87.5t-26 121.5q0 85 41 165.5t120 132t187 51.5q123 0 183 -68.5t60 -173.5q0 -85 -40.5 -165.5t-119.5 -132t-187 -51.5q-83 0 -137.5 33zM379 160q35 28 54 72.5t19 92.5q0 51 -26 81t-74 30q-46 0 -81.5 -27t-54.5 -71t-19 -93q0 -53 27 -83
t74 -30q46 0 81 28zM792.5 17q-56.5 29 -86 82t-29.5 122q0 96 46 178.5t126.5 131t176.5 48.5q107 0 177 -56.5t70 -172.5q0 -37 -7 -73l-5 -29h-331q-66 0 -83 4l-7 -15q8 -2 11 -8.5t5 -18.5q1 -3 4 -14.5t9 -20.5q27 -43 92 -43q36 0 66 18t47 46h169q-43 -92 -123 -150
t-193 -58q-78 0 -134.5 29zM905.5 365q12.5 2 27.5 2h124q15 0 26.5 -2t28.5 -10l9 15q-7 2 -9 5.5t-3 10.5q-5 19 -15 32q-27 33 -84 33t-96 -33q-15 -14 -27 -32q-3 -7 -6.5 -10.5t-11.5 -5.5l5 -15q19 8 31.5 10z" />
    <glyph glyph-name="Racute" unicode="&#x154;" horiz-adv-x="719" 
d="M134 763h355q70 0 118 -27.5t71.5 -73t23.5 -99.5q0 -56 -21 -108t-54 -84t-67 -32q-10 0 -21 3l-10 -18q14 -16 19.5 -30t14.5 -52l59 -242h-186l-59 294h-146l-52 -294h-179zM496.5 476q25.5 27 25.5 66q0 27 -19 44t-56 17h-162l-27 -154h150q63 0 88.5 27zM356 814
l140 145h162l-181 -145h-121z" />
    <glyph glyph-name="racute" unicode="&#x155;" horiz-adv-x="419" 
d="M110 567h168l-1 -6q-3 -16 -8.5 -27t-17.5 -23l12 -10q36 44 74 61t88 17h25l-28 -160h-32q-65 0 -101 -30q-26 -21 -42.5 -56.5t-26.5 -93.5l-42 -239h-168zM181 618l140 145h162l-181 -145h-121z" />
    <glyph glyph-name="uni0156" unicode="&#x156;" horiz-adv-x="719" 
d="M134 763h355q70 0 118 -27.5t71.5 -73t23.5 -99.5q0 -56 -21 -108t-54 -84t-67 -32q-10 0 -21 3l-10 -18q14 -16 19.5 -30t14.5 -52l59 -242h-186l-59 294h-146l-52 -294h-179zM496.5 476q25.5 27 25.5 66q0 27 -19 44t-56 17h-162l-27 -154h150q63 0 88.5 27z
M268.5 -152q18.5 7 26.5 21q4 5 6 15h-8q-12 -15 -35 -15q-17 0 -26.5 8t-9.5 25q0 29 21 47t54 18q30 0 45.5 -15.5t15.5 -40.5q0 -52 -38.5 -79.5t-102.5 -27.5l7 37q26 0 44.5 7z" />
    <glyph glyph-name="uni0157" unicode="&#x157;" horiz-adv-x="419" 
d="M110 567h168l-1 -6q-3 -16 -8.5 -27t-17.5 -23l12 -10q36 44 74 61t88 17h25l-28 -160h-32q-65 0 -101 -30q-26 -21 -42.5 -56.5t-26.5 -93.5l-42 -239h-168zM55.5 -152q18.5 7 26.5 21q4 5 6 15h-8q-12 -15 -35 -15q-17 0 -26.5 8t-9.5 25q0 29 21 47t54 18
q30 0 45.5 -15.5t15.5 -40.5q0 -52 -38.5 -79.5t-102.5 -27.5l7 37q26 0 44.5 7z" />
    <glyph glyph-name="Rcaron" unicode="&#x158;" horiz-adv-x="719" 
d="M134 763h355q70 0 118 -27.5t71.5 -73t23.5 -99.5q0 -56 -21 -108t-54 -84t-67 -32q-10 0 -21 3l-10 -18q14 -16 19.5 -30t14.5 -52l59 -242h-186l-59 294h-146l-52 -294h-179zM496.5 476q25.5 27 25.5 66q0 27 -19 44t-56 17h-162l-27 -154h150q63 0 88.5 27zM275 959
h131l11 -21q17 -31 14 -52h14q3 21 32 52l19 21h131l-201 -177h-14z" />
    <glyph glyph-name="rcaron" unicode="&#x159;" horiz-adv-x="419" 
d="M110 567h168l-1 -6q-3 -16 -8.5 -27t-17.5 -23l12 -10q36 44 74 61t88 17h25l-28 -160h-32q-65 0 -101 -30q-26 -21 -42.5 -56.5t-26.5 -93.5l-42 -239h-168zM100 763h131l11 -21q17 -31 14 -52h14q3 21 32 52l19 21h131l-201 -177h-14z" />
    <glyph glyph-name="Sacute" unicode="&#x15a;" horiz-adv-x="717" 
d="M95.5 54q-88.5 71 -83.5 205h182q4 -73 42 -99.5t105 -26.5q58 0 96 25t38 72q0 33 -33 50t-109 36q-37 10 -47 13q-61 17 -104 38t-72.5 60t-29.5 100q0 76 39.5 133t109 88t156.5 31q88 0 156.5 -29.5t106.5 -86.5t37 -138h-179q-8 104 -129 104q-52 0 -84 -20t-32 -58
q0 -34 43 -55t129 -40q66 -15 113 -35.5t78.5 -61.5t31.5 -107q0 -81 -41 -142t-114 -94t-167 -33q-150 0 -238.5 71zM365 814l140 145h162l-181 -145h-121z" />
    <glyph glyph-name="sacute" unicode="&#x15b;" horiz-adv-x="593" 
d="M83.5 36.5q-72.5 48.5 -66.5 159.5h163q13 -81 106 -81q37 0 61 16t24 42q0 22 -24.5 32t-78.5 21l-44 9q-68 16 -109 49t-41 103q0 59 32.5 102.5t90 66.5t128.5 23q105 0 167 -52t68 -148h-159q-5 38 -29.5 56t-59.5 18q-33 0 -55 -13.5t-22 -35.5q0 -23 28 -33.5
t84 -20.5l26 -5q48 -10 83 -24.5t59.5 -46.5t24.5 -85q0 -65 -36.5 -110.5t-96 -68t-128.5 -22.5q-123 0 -195.5 48.5zM286 618l140 145h162l-181 -145h-121z" />
    <glyph glyph-name="Scedilla" unicode="&#x15e;" horiz-adv-x="717" 
d="M293 609q-32 -20 -32 -58q0 -34 43 -55t129 -40q66 -15 113 -35.5t78.5 -61.5t31.5 -107q0 -81 -41 -142t-114 -94t-167 -33h-20q-4 -2 -10 -6t-15 -9l4 -9q7 1 19 1q36 0 56.5 -13.5t20.5 -42.5q0 -54 -44.5 -83t-110.5 -29q-48 0 -93 15l11 61q49 -20 83 -20
q24 0 38 11t14 31q0 25 -31.5 34t-85.5 9l64 59q-107 22 -166.5 89.5t-55.5 177.5h182q4 -73 42 -99.5t105 -26.5q58 0 96 25t38 72q0 33 -33 50t-109 36q-37 10 -47 13q-61 17 -104 38t-72.5 60t-29.5 100q0 76 39.5 133t109 88t156.5 31q88 0 156.5 -29.5t106.5 -86.5
t37 -138h-179q-8 104 -129 104q-52 0 -84 -20z" />
    <glyph glyph-name="scedilla" unicode="&#x15f;" horiz-adv-x="593" 
d="M456 320.5q35 -14.5 59.5 -46.5t24.5 -85q0 -65 -36.5 -110.5t-96 -68t-128.5 -22.5h-3q-22 -14 -32 -20l4 -9q7 1 19 1q36 0 56.5 -13.5t20.5 -42.5q0 -54 -44.5 -83t-110.5 -29q-48 0 -93 15l11 61q49 -20 83 -20q24 0 38 11t14 31q0 25 -31.5 34t-85.5 9l67 62
q-85 15 -132.5 63.5t-42.5 137.5h163q13 -81 106 -81q37 0 61 16t24 42q0 22 -24.5 32t-78.5 21l-44 9q-68 16 -109 49t-41 103q0 59 32.5 102.5t90 66.5t128.5 23q105 0 167 -52t68 -148h-159q-5 38 -29.5 56t-59.5 18q-33 0 -55 -13.5t-22 -35.5q0 -23 28 -33.5t84 -20.5
l26 -5q48 -10 83 -24.5z" />
    <glyph glyph-name="Scaron" unicode="&#x160;" horiz-adv-x="717" 
d="M95.5 54q-88.5 71 -83.5 205h182q4 -73 42 -99.5t105 -26.5q58 0 96 25t38 72q0 33 -33 50t-109 36q-37 10 -47 13q-61 17 -104 38t-72.5 60t-29.5 100q0 76 39.5 133t109 88t156.5 31q88 0 156.5 -29.5t106.5 -86.5t37 -138h-179q-8 104 -129 104q-52 0 -84 -20t-32 -58
q0 -34 43 -55t129 -40q66 -15 113 -35.5t78.5 -61.5t31.5 -107q0 -81 -41 -142t-114 -94t-167 -33q-150 0 -238.5 71zM284 959h131l11 -21q17 -31 14 -52h14q3 21 32 52l19 21h131l-201 -177h-14z" />
    <glyph glyph-name="scaron" unicode="&#x161;" horiz-adv-x="593" 
d="M83.5 36.5q-72.5 48.5 -66.5 159.5h163q13 -81 106 -81q37 0 61 16t24 42q0 22 -24.5 32t-78.5 21l-44 9q-68 16 -109 49t-41 103q0 59 32.5 102.5t90 66.5t128.5 23q105 0 167 -52t68 -148h-159q-5 38 -29.5 56t-59.5 18q-33 0 -55 -13.5t-22 -35.5q0 -23 28 -33.5
t84 -20.5l26 -5q48 -10 83 -24.5t59.5 -46.5t24.5 -85q0 -65 -36.5 -110.5t-96 -68t-128.5 -22.5q-123 0 -195.5 48.5zM205 763h131l11 -21q17 -31 14 -52h14q3 21 32 52l19 21h131l-201 -177h-14z" />
    <glyph glyph-name="uni0162" unicode="&#x162;" horiz-adv-x="629" 
d="M682 763l-28 -160h-215l-106 -603h-42q-22 -17 -49 -32l4 -9q7 1 19 1q36 0 56.5 -13.5t20.5 -42.5q0 -54 -44.5 -83t-110.5 -29q-48 0 -93 15l11 61q49 -20 83 -20q24 0 38 11t14 31q0 25 -31.5 34t-85.5 9l72 67h-41l106 603h-215l28 160h609z" />
    <glyph glyph-name="uni0163" unicode="&#x163;" horiz-adv-x="404" 
d="M246 170q-1 -3 -1 -10q0 -24 29 -24h63l-24 -136h-90q-22 -17 -49 -32l4 -9q7 1 19 1q36 0 56.5 -13.5t20.5 -42.5q0 -54 -44.5 -83t-110.5 -29q-48 0 -93 15l11 61q49 -20 83 -20q24 0 38 11t14 31q0 25 -31.5 34t-85.5 9l78 72q-33 8 -50 29.5t-17 53.5q0 16 2 25
l57 323h-78l23 131h78l35 196h168l-35 -196h98l-23 -131h-98z" />
    <glyph glyph-name="Tcaron" unicode="&#x164;" horiz-adv-x="629" 
d="M154 0l106 603h-215l28 160h609l-28 -160h-215l-106 -603h-179zM237 959h131l11 -21q17 -31 14 -52h14q3 21 32 52l19 21h131l-201 -177h-14z" />
    <glyph glyph-name="tcaron" unicode="&#x165;" horiz-adv-x="404" 
d="M95 23q-29 23 -29 65q0 16 2 25l57 323h-78l23 131h78l35 196h168l-35 -196h98l-23 -131h-98l-47 -266q-1 -3 -1 -10q0 -24 29 -24h63l-24 -136h-134q-55 0 -84 23zM478.5 728.5q36.5 24.5 43.5 71.5h-12q-8 -12 -18 -17.5t-26 -5.5q-26 0 -44.5 19t-18.5 51
q0 51 34.5 84t86.5 33q46 0 69.5 -28t23.5 -76q0 -12 -4 -40q-15 -81 -75 -139t-169 -63l15 86q58 0 94.5 24.5z" />
    <glyph glyph-name="Umacron" unicode="&#x16a;" horiz-adv-x="761" 
d="M101 46q-70 63 -70 172q0 29 7 73l83 472h180l-85 -484q-5 -27 -5 -46q0 -44 26 -67t89 -23q84 0 126.5 41t54.5 107l83 472h180l-85 -484q-25 -140 -113 -218t-252 -78q-149 0 -219 63zM304 815l14 78h302l-14 -78h-302z" />
    <glyph glyph-name="umacron" unicode="&#x16b;" horiz-adv-x="631" 
d="M39 86q-7 25 -7 53q0 22 4 50.5t10 60.5l56 317h168l-56 -319q-6 -36 -6 -58q0 -30 11 -46q17 -21 59 -21q51 0 80 29q26 29 38 96l56 319h168l-100 -567h-168l1 6q3 16 8.5 27t17.5 23l-12 10q-36 -44 -74 -61t-88 -17q-140 0 -166 98zM221 619l14 78h302l-14 -78h-302z
" />
    <glyph glyph-name="Uring" unicode="&#x16e;" horiz-adv-x="761" 
d="M101 46q-70 63 -70 172q0 29 7 73l83 472h180l-85 -484q-5 -27 -5 -46q0 -44 26 -67t89 -23q84 0 126.5 41t54.5 107l83 472h180l-85 -484q-25 -140 -113 -218t-252 -78q-149 0 -219 63zM365 795q-31 32 -31 80q0 6 2 22q10 57 53 95t104 38q48 0 79.5 -31t31.5 -79
q0 -7 -2 -23q-10 -58 -52 -96t-104 -38q-50 0 -81 32zM498.5 861q15.5 14 20.5 38q3 20 -8.5 33.5t-32.5 13.5q-25 0 -41.5 -17t-16.5 -40q0 -18 12.5 -30t28.5 -12q22 0 37.5 14z" />
    <glyph glyph-name="uring" unicode="&#x16f;" horiz-adv-x="631" 
d="M39 86q-7 25 -7 53q0 22 4 50.5t10 60.5l56 317h168l-56 -319q-6 -36 -6 -58q0 -30 11 -46q17 -21 59 -21q51 0 80 29q26 29 38 96l56 319h168l-100 -567h-168l1 6q3 16 8.5 27t17.5 23l-12 10q-36 -44 -74 -61t-88 -17q-140 0 -166 98zM282 599q-31 32 -31 80q0 6 2 22
q10 57 53 95t104 38q48 0 79.5 -31t31.5 -79q0 -7 -2 -23q-10 -58 -52 -96t-104 -38q-50 0 -81 32zM415.5 665q15.5 14 20.5 38q3 20 -8.5 33.5t-32.5 13.5q-25 0 -41.5 -17t-16.5 -40q0 -18 12.5 -30t28.5 -12q22 0 37.5 14z" />
    <glyph glyph-name="Uhungarumlaut" unicode="&#x170;" horiz-adv-x="761" 
d="M101 46q-70 63 -70 172q0 29 7 73l83 472h180l-85 -484q-5 -27 -5 -46q0 -44 26 -67t89 -23q84 0 126.5 41t54.5 107l83 472h180l-85 -484q-25 -140 -113 -218t-252 -78q-149 0 -219 63zM289 814l143 145h141l-163 -145h-121zM499 814l143 145h153l-175 -145h-121z" />
    <glyph glyph-name="uhungarumlaut" unicode="&#x171;" horiz-adv-x="631" 
d="M39 86q-7 25 -7 53q0 22 4 50.5t10 60.5l56 317h168l-56 -319q-6 -36 -6 -58q0 -30 11 -46q17 -21 59 -21q51 0 80 29q26 29 38 96l56 319h168l-100 -567h-168l1 6q3 16 8.5 27t17.5 23l-12 10q-36 -44 -74 -61t-88 -17q-140 0 -166 98zM206 618l143 145h141l-163 -145
h-121zM416 618l143 145h153l-175 -145h-121z" />
    <glyph glyph-name="Uogonek" unicode="&#x172;" horiz-adv-x="761" 
d="M770 763l-85 -484q-45 -250 -275 -289q-48 -27 -65 -41.5t-17 -31.5q0 -23 29 -23q24 0 55 14l-18 -103q-42 -13 -84 -13q-109 0 -109 65q0 49 31.5 76.5t90.5 46.5l1 3h-4q-149 0 -219 63t-70 172q0 29 7 73l83 472h180l-85 -484q-5 -27 -5 -46q0 -44 26 -67t89 -23
q84 0 126.5 41t54.5 107l83 472h180z" />
    <glyph glyph-name="uogonek" unicode="&#x173;" horiz-adv-x="631" 
d="M439.5 -49.5q-19.5 -15.5 -19.5 -33.5q0 -23 29 -23q24 0 55 14l-18 -103q-42 -13 -84 -13q-109 0 -109 65q0 49 31.5 76.5t90.5 46.5l4 20h-67l1 6q3 16 8.5 27t17.5 23l-12 10q-36 -44 -74 -61t-88 -17q-140 0 -166 98q-7 25 -7 53q0 22 4 50.5t10 60.5l56 317h168
l-56 -319q-6 -36 -6 -58q0 -30 11 -46q17 -21 59 -21q51 0 80 29q26 29 38 96l56 319h168l-100 -567q-61 -34 -80.5 -49.5z" />
    <glyph glyph-name="Wcircumflex" unicode="&#x174;" horiz-adv-x="1142" 
d="M74 763h180l19 -543q2 -24 2 -38q0 -22 -5 -45h19q5 32 10 50.5t14 44.5l188 531h245v-543q0 -6 0.5 -28t-6.5 -55h19q5 33 11 52.5t15 42.5l210 531h195l-317 -763h-270l-3 540q0 33 8 78h-15q-15 -68 -22 -90l-179 -528h-270zM664 992h14l138 -178h-131l-11 21
q-18 31 -14 52h-14q-4 -21 -32 -52l-19 -21h-131z" />
    <glyph glyph-name="wcircumflex" unicode="&#x175;" horiz-adv-x="865" 
d="M58 567h169l17 -290q1 -27 -5 -79h12q1 5 7.5 31.5t15.5 47.5l121 290h144l20 -290q1 -27 -5 -78h12q13 53 23 78l122 290h188l-281 -567h-159l-25 259q-2 15 -2 38q0 14 4 52h-12q-10 -40 -30 -90l-99 -259h-160zM511 796h14l138 -178h-131l-11 21q-18 31 -14 52h-14
q-4 -21 -32 -52l-19 -21h-131z" />
    <glyph glyph-name="Ycircumflex" unicode="&#x176;" horiz-adv-x="732" 
d="M254 301l-195 462h196l84 -232q9 -23 13 -38t4 -33q0 -6 -2 -24h18q5 40 13 63t22 43l166 221h223l-354 -460l-55 -303h-188zM458 992h14l138 -178h-131l-11 21q-18 31 -14 52h-14q-4 -21 -32 -52l-19 -21h-131z" />
    <glyph glyph-name="ycircumflex" unicode="&#x177;" horiz-adv-x="591" 
d="M1 -88h66q25 0 42.5 8t31.5 32l24 40l-100 575h172l29 -320q2 -30 1 -67h12q9 32 24 67l133 320h189l-322 -632q-44 -87 -94.5 -123.5t-130.5 -36.5h-101zM373 796h14l138 -178h-131l-11 21q-18 31 -14 52h-14q-4 -21 -32 -52l-19 -21h-131z" />
    <glyph glyph-name="Ydieresis" unicode="&#x178;" horiz-adv-x="732" 
d="M254 301l-195 462h196l84 -232q9 -23 13 -38t4 -33q0 -6 -2 -24h18q5 40 13 63t22 43l166 221h223l-354 -460l-55 -303h-188zM262.5 820.5q-22.5 18.5 -22.5 50.5q0 46 33.5 75t78.5 29q36 0 58.5 -19t22.5 -52q0 -11 -1 -16q-7 -39 -39 -62.5t-72 -23.5
q-36 0 -58.5 18.5zM481.5 820.5q-22.5 18.5 -22.5 50.5q0 46 33.5 75t78.5 29q36 0 58.5 -19t22.5 -52q0 -11 -1 -16q-7 -39 -39 -62.5t-72 -23.5q-36 0 -58.5 18.5z" />
    <glyph glyph-name="Zacute" unicode="&#x179;" horiz-adv-x="639" 
d="M-14 121l366 422q22 25 40.5 41.5t44.5 27.5l-3 9q-24 -9 -51 -13.5t-46 -4.5h-243l28 160h544l-20 -127l-364 -421q-21 -24 -39.5 -40.5t-41.5 -25.5l4 -8q39 19 87 19h270l-28 -160h-567zM329 814l140 145h162l-181 -145h-121z" />
    <glyph glyph-name="zacute" unicode="&#x17a;" horiz-adv-x="580" 
d="M3 101l269 258q45 43 88 74l-3 12q-25 -7 -39.5 -8.5t-31.5 -1.5h-208l23 132h491l-19 -109l-257 -249q-45 -43 -89 -75l4 -12q25 7 39.5 8.5t31.5 1.5h213l-23 -132h-507zM283 618l140 145h162l-181 -145h-121z" />
    <glyph glyph-name="Zdotaccent" unicode="&#x17b;" horiz-adv-x="639" 
d="M-14 121l366 422q22 25 40.5 41.5t44.5 27.5l-3 9q-24 -9 -51 -13.5t-46 -4.5h-243l28 160h544l-20 -127l-364 -421q-21 -24 -39.5 -40.5t-41.5 -25.5l4 -8q39 19 87 19h270l-28 -160h-567zM336.5 820.5q-22.5 18.5 -22.5 50.5q0 46 33.5 75t78.5 29q36 0 58.5 -19
t22.5 -52q0 -11 -1 -16q-7 -39 -39 -62.5t-72 -23.5q-36 0 -58.5 18.5z" />
    <glyph glyph-name="zdotaccent" unicode="&#x17c;" horiz-adv-x="580" 
d="M3 101l269 258q45 43 88 74l-3 12q-25 -7 -39.5 -8.5t-31.5 -1.5h-208l23 132h491l-19 -109l-257 -249q-45 -43 -89 -75l4 -12q25 7 39.5 8.5t31.5 1.5h213l-23 -132h-507zM291.5 625q-22.5 19 -22.5 51q0 45 33 74t78 29q36 0 58.5 -19t22.5 -52q0 -46 -33 -74t-78 -28
q-36 0 -58.5 19z" />
    <glyph glyph-name="Zcaron" unicode="&#x17d;" horiz-adv-x="639" 
d="M-14 121l366 422q22 25 40.5 41.5t44.5 27.5l-3 9q-24 -9 -51 -13.5t-46 -4.5h-243l28 160h544l-20 -127l-364 -421q-21 -24 -39.5 -40.5t-41.5 -25.5l4 -8q39 19 87 19h270l-28 -160h-567zM248 959h131l11 -21q17 -31 14 -52h14q3 21 32 52l19 21h131l-201 -177h-14z
" />
    <glyph glyph-name="zcaron" unicode="&#x17e;" horiz-adv-x="580" 
d="M3 101l269 258q45 43 88 74l-3 12q-25 -7 -39.5 -8.5t-31.5 -1.5h-208l23 132h491l-19 -109l-257 -249q-45 -43 -89 -75l4 -12q25 7 39.5 8.5t31.5 1.5h213l-23 -132h-507zM202 763h131l11 -21q17 -31 14 -52h14q3 21 32 52l19 21h131l-201 -177h-14z" />
    <glyph glyph-name="florin" unicode="&#x192;" horiz-adv-x="449" 
d="M-12 -105h55q33 0 39 32l89 505h-88l24 135h88l11 61q11 66 56.5 100.5t120.5 34.5h99l-23 -130h-59q-33 0 -39 -32l-6 -34h92l-24 -135h-92l-94 -533q-11 -65 -56.5 -100t-121.5 -35h-94z" />
    <glyph glyph-name="Oslashacute" unicode="&#x1fe;" horiz-adv-x="834" 
d="M768 622q39 -75 39 -170q0 -114 -55 -222.5t-160 -177.5t-247 -69q-73 0 -130.5 22.5t-97.5 63.5l-66 -56l-58 67l72 61q-38 73 -38 169q0 114 55 222.5t160 177.5t247 69q141 0 228 -85l67 57l57 -67zM214 267l363 308q-46 44 -116 44q-77 0 -135.5 -43t-89 -109.5
t-30.5 -135.5q0 -32 8 -64zM620 496l-363 -308q43 -45 116 -45q77 0 135.5 43t89 109.5t30.5 135.5q0 33 -8 65zM424 814l140 145h162l-181 -145h-121z" />
    <glyph glyph-name="oslashacute" unicode="&#x1ff;" horiz-adv-x="649" 
d="M596 456q24 -54 24 -119q0 -85 -40.5 -165.5t-119.5 -132t-187 -51.5q-103 0 -166 52l-74 -63l-58 67l79 67q-25 53 -25 119q0 85 41 165.5t120 132t187 51.5q103 0 166 -53l75 64l57 -67zM197 233l217 184q-25 19 -62 19q-46 0 -81.5 -27t-54.5 -71t-19 -93v-12z
M452 333l-215 -183q24 -18 61 -18q46 0 81 28t54 72.5t19 92.5v8zM315 618l140 145h162l-181 -145h-121z" />
    <glyph glyph-name="uni0218" unicode="&#x218;" horiz-adv-x="717" 
d="M95.5 54q-88.5 71 -83.5 205h182q4 -73 42 -99.5t105 -26.5q58 0 96 25t38 72q0 33 -33 50t-109 36q-37 10 -47 13q-61 17 -104 38t-72.5 60t-29.5 100q0 76 39.5 133t109 88t156.5 31q88 0 156.5 -29.5t106.5 -86.5t37 -138h-179q-8 104 -129 104q-52 0 -84 -20t-32 -58
q0 -34 43 -55t129 -40q66 -15 113 -35.5t78.5 -61.5t31.5 -107q0 -81 -41 -142t-114 -94t-167 -33q-150 0 -238.5 71zM252.5 -152q18.5 7 26.5 21q4 5 6 15h-8q-12 -15 -35 -15q-17 0 -26.5 8t-9.5 25q0 29 21 47t54 18q30 0 45.5 -15.5t15.5 -40.5q0 -52 -38.5 -79.5
t-102.5 -27.5l7 37q26 0 44.5 7z" />
    <glyph glyph-name="uni0219" unicode="&#x219;" horiz-adv-x="593" 
d="M83.5 36.5q-72.5 48.5 -66.5 159.5h163q13 -81 106 -81q37 0 61 16t24 42q0 22 -24.5 32t-78.5 21l-44 9q-68 16 -109 49t-41 103q0 59 32.5 102.5t90 66.5t128.5 23q105 0 167 -52t68 -148h-159q-5 38 -29.5 56t-59.5 18q-33 0 -55 -13.5t-22 -35.5q0 -23 28 -33.5
t84 -20.5l26 -5q48 -10 83 -24.5t59.5 -46.5t24.5 -85q0 -65 -36.5 -110.5t-96 -68t-128.5 -22.5q-123 0 -195.5 48.5zM207.5 -152q18.5 7 26.5 21q4 5 6 15h-8q-12 -15 -35 -15q-17 0 -26.5 8t-9.5 25q0 29 21 47t54 18q30 0 45.5 -15.5t15.5 -40.5q0 -52 -38.5 -79.5
t-102.5 -27.5l7 37q26 0 44.5 7z" />
    <glyph glyph-name="uni021A" unicode="&#x21a;" horiz-adv-x="629" 
d="M154 0l106 603h-215l28 160h609l-28 -160h-215l-106 -603h-179zM205.5 -152q18.5 7 26.5 21q4 5 6 15h-8q-12 -15 -35 -15q-17 0 -26.5 8t-9.5 25q0 29 21 47t54 18q30 0 45.5 -15.5t15.5 -40.5q0 -52 -38.5 -79.5t-102.5 -27.5l7 37q26 0 44.5 7z" />
    <glyph glyph-name="uni021B" unicode="&#x21b;" horiz-adv-x="404" 
d="M95 23q-29 23 -29 65q0 16 2 25l57 323h-78l23 131h78l35 196h168l-35 -196h98l-23 -131h-98l-47 -266q-1 -3 -1 -10q0 -24 29 -24h63l-24 -136h-134q-55 0 -84 23zM137.5 -152q18.5 7 26.5 21q4 5 6 15h-8q-12 -15 -35 -15q-17 0 -26.5 8t-9.5 25q0 29 21 47t54 18
q30 0 45.5 -15.5t15.5 -40.5q0 -52 -38.5 -79.5t-102.5 -27.5l7 37q26 0 44.5 7z" />
    <glyph glyph-name="uni0237" unicode="&#x237;" horiz-adv-x="278" 
d="M-93 -59h52q35 0 42 35l104 591h168l-114 -649q-10 -54 -49.5 -84t-101.5 -30h-126z" />
    <glyph glyph-name="circumflex" unicode="&#x2c6;" horiz-adv-x="362" 
d="M253 796h14l138 -178h-131l-11 21q-18 31 -14 52h-14q-4 -21 -32 -52l-19 -21h-131z" />
    <glyph glyph-name="caron" unicode="&#x2c7;" horiz-adv-x="362" 
d="M79 763h131l11 -21q17 -31 14 -52h14q3 21 32 52l19 21h131l-201 -177h-14z" />
    <glyph glyph-name="breve" unicode="&#x2d8;" horiz-adv-x="352" 
d="M112.5 639q-35.5 33 -35.5 94q0 10 2 30h91q-1 -34 18 -51t50 -17q32 0 56 17.5t35 50.5h92q-17 -73 -68 -115t-131 -42q-74 0 -109.5 33z" />
    <glyph glyph-name="dotaccent" unicode="&#x2d9;" horiz-adv-x="200" 
d="M87.5 625q-22.5 19 -22.5 51q0 45 33 74t78 29q36 0 58.5 -19t22.5 -52q0 -46 -33 -74t-78 -28q-36 0 -58.5 19z" />
    <glyph glyph-name="ring" unicode="&#x2da;" horiz-adv-x="276" 
d="M97 603q-31 32 -31 80q0 6 2 22q10 57 53 95t104 38q48 0 79.5 -31t31.5 -79q0 -7 -2 -23q-10 -58 -52 -96t-104 -38q-50 0 -81 32zM230.5 669q15.5 14 20.5 38q3 20 -8.5 33.5t-32.5 13.5q-25 0 -41.5 -17t-16.5 -40q0 -18 12.5 -30t28.5 -12q22 0 37.5 14z" />
    <glyph glyph-name="ogonek" unicode="&#x2db;" horiz-adv-x="214" 
d="M-79 -143q0 49 31.5 76.5t90.5 46.5l4 20h101q-61 -34 -80.5 -49.5t-19.5 -33.5q0 -23 29 -23q24 0 55 14l-18 -103q-42 -13 -84 -13q-109 0 -109 65z" />
    <glyph glyph-name="tilde" unicode="&#x2dc;" horiz-adv-x="382" 
d="M249.5 613.5q-19.5 12.5 -39.5 34.5q-11 12 -17 17t-14 5q-24 0 -40 -68h-89q17 76 57.5 120.5t94.5 44.5q30 0 49.5 -13t38.5 -34q8 -9 16 -15.5t15 -6.5q11 0 21 16.5t17 48.5h92q-20 -83 -55 -122.5t-93 -39.5q-34 0 -53.5 12.5z" />
    <glyph glyph-name="hungarumlaut" unicode="&#x2dd;" horiz-adv-x="490" 
d="M53 618l143 145h141l-163 -145h-121zM263 618l143 145h153l-175 -145h-121z" />
    <glyph glyph-name="gravecomb" unicode="&#x300;" 
d="M-53 618h-121l-181 145h162z" />
    <glyph glyph-name="acutecomb" unicode="&#x301;" 
d="M-233 618l140 145h162l-181 -145h-121z" />
    <glyph glyph-name="uni0302" unicode="&#x302;" 
d="M-109 796h14l138 -178h-131l-11 21q-18 31 -14 52h-14q-4 -21 -32 -52l-19 -21h-131z" />
    <glyph glyph-name="tildecomb" unicode="&#x303;" 
d="M-132.5 613.5q-19.5 12.5 -39.5 34.5q-11 12 -17 17t-14 5q-24 0 -40 -68h-89q17 76 57.5 120.5t94.5 44.5q30 0 49.5 -13t38.5 -34q8 -9 16 -15.5t15 -6.5q11 0 21 16.5t17 48.5h92q-20 -83 -55 -122.5t-93 -39.5q-34 0 -53.5 12.5z" />
    <glyph glyph-name="uni0304" unicode="&#x304;" 
d="M-259 619l14 78h302l-14 -78h-302z" />
    <glyph glyph-name="uni0306" unicode="&#x306;" 
d="M-239.5 639q-35.5 33 -35.5 94q0 10 2 30h91q-1 -34 18 -51t50 -17q32 0 56 17.5t35 50.5h92q-17 -73 -68 -115t-131 -42q-74 0 -109.5 33z" />
    <glyph glyph-name="uni0307" unicode="&#x307;" 
d="M-112.5 625q-22.5 19 -22.5 51q0 45 33 74t78 29q36 0 58.5 -19t22.5 -52q0 -46 -33 -74t-78 -28q-36 0 -58.5 19z" />
    <glyph glyph-name="uni0308" unicode="&#x308;" 
d="M-331.5 625q-22.5 19 -22.5 51q0 45 33 74t78 29q36 0 58.5 -19t22.5 -52q0 -46 -33 -74t-78 -28q-36 0 -58.5 19zM-112.5 625q-22.5 19 -22.5 51q0 45 33 74t78 29q36 0 58.5 -19t22.5 -52q0 -46 -33 -74t-78 -28q-36 0 -58.5 19z" />
    <glyph glyph-name="uni030A" unicode="&#x30a;" 
d="M-179 603q-31 32 -31 80q0 6 2 22q10 57 53 95t104 38q48 0 79.5 -31t31.5 -79q0 -7 -2 -23q-10 -58 -52 -96t-104 -38q-50 0 -81 32zM-45.5 669q15.5 14 20.5 38q3 20 -8.5 33.5t-32.5 13.5q-25 0 -41.5 -17t-16.5 -40q0 -18 12.5 -30t28.5 -12q22 0 37.5 14z" />
    <glyph glyph-name="uni030B" unicode="&#x30b;" 
d="M-437 618l143 145h141l-163 -145h-121zM-227 618l143 145h153l-175 -145h-121z" />
    <glyph glyph-name="uni030C" unicode="&#x30c;" 
d="M-283 763h131l11 -21q17 -31 14 -52h14q3 21 32 52l19 21h131l-201 -177h-14z" />
    <glyph glyph-name="uni030F" unicode="&#x30f;" 
d="M-277 594l-114 149q-3 5 -3 8q0 5 4.5 8.5t11.5 3.5h113q11 0 17 -10l75 -149q2 -6 2 -7q0 -5 -4.5 -8.5t-11.5 -3.5h-72q-12 0 -18 9zM-67 594l-104 149q-3 5 -3 9q0 5 4.5 8t11.5 3h103q11 0 17 -10l75 -149q2 -6 2 -7q0 -5 -4.5 -8.5t-11.5 -3.5h-72q-12 0 -18 9z" />
    <glyph glyph-name="uni0312" unicode="&#x312;" 
d="M-101.5 611q-18.5 20 -18.5 55q0 13 3 28q12 58 60.5 100t135.5 45l-12 -62q-47 0 -76.5 -17.5t-34.5 -51.5h10q6 9 14 13t21 4q21 0 35.5 -13.5t14.5 -37.5q0 -36 -27.5 -59.5t-69.5 -23.5q-37 0 -55.5 20z" />
    <glyph glyph-name="uni031B" unicode="&#x31b;" 
d="M-67 651.5q20 25.5 26 58.5l10 53h100l-8 -43q-14 -79 -65 -129.5t-138 -50.5l15 86q40 0 60 25.5z" />
    <glyph glyph-name="uni0326" unicode="&#x326;" 
d="M-173.5 -152q18.5 7 26.5 21q4 5 6 15h-8q-12 -15 -35 -15q-17 0 -26.5 8t-9.5 25q0 29 21 47t54 18q30 0 45.5 -15.5t15.5 -40.5q0 -52 -38.5 -79.5t-102.5 -27.5l7 37q26 0 44.5 7z" />
    <glyph glyph-name="uni0327" unicode="&#x327;" 
d="M-333 -193l11 61q49 -20 83 -20q24 0 38 11t14 31q0 25 -31.5 34t-85.5 9l97 90h100q-38 -32 -78 -55l4 -9q7 1 19 1q36 0 56.5 -13.5t20.5 -42.5q0 -54 -44.5 -83t-110.5 -29q-48 0 -93 15z" />
    <glyph glyph-name="uni0328" unicode="&#x328;" 
d="M-293 -143q0 49 31.5 76.5t90.5 46.5l4 20h101q-61 -34 -80.5 -49.5t-19.5 -33.5q0 -23 29 -23q24 0 55 14l-18 -103q-42 -13 -84 -13q-109 0 -109 65z" />
    <glyph glyph-name="uni0337" unicode="&#x337;" 
d="M-266 277l20 112l271 129l-19 -112z" />
    <glyph glyph-name="uni0338" unicode="&#x338;" 
d="M-612 0l-58 67l643 546l57 -67z" />
    <glyph glyph-name="uni0394" unicode="&#x394;" horiz-adv-x="726" 
d="M-56 0l396 763h194l126 -763h-716zM248.5 153.5q12.5 1.5 28.5 1.5h124q16 0 28 -1.5t29 -8.5l11 11q-11 27 -15 60l-32 256q-4 32 -4 61q0 23 4 47h-16q-7 -44 -38 -108l-122 -256q-15 -31 -35 -60l7 -11q18 7 30.5 8.5z" />
    <glyph glyph-name="pi" unicode="&#x3c0;" horiz-adv-x="576" 
d="M95 422h-58l26 145h577l-26 -145h-82l-45 -259q-1 -4 -1 -10q0 -22 29 -22h48l-23 -131h-88q-66 0 -99.5 26.5t-33.5 76.5q0 16 3 32l50 287h-116l-74 -422h-161z" />
    <glyph glyph-name="Wgrave" unicode="&#x1e80;" horiz-adv-x="1142" 
d="M74 763h180l19 -543q2 -24 2 -38q0 -22 -5 -45h19q5 32 10 50.5t14 44.5l188 531h245v-543q0 -6 0.5 -28t-6.5 -55h19q5 33 11 52.5t15 42.5l210 531h195l-317 -763h-270l-3 540q0 33 8 78h-15q-15 -68 -22 -90l-179 -528h-270zM691 814h-121l-181 145h162z" />
    <glyph glyph-name="wgrave" unicode="&#x1e81;" horiz-adv-x="865" 
d="M58 567h169l17 -290q1 -27 -5 -79h12q1 5 7.5 31.5t15.5 47.5l121 290h144l20 -290q1 -27 -5 -78h12q13 53 23 78l122 290h188l-281 -567h-159l-25 259q-2 15 -2 38q0 14 4 52h-12q-10 -40 -30 -90l-99 -259h-160zM538 618h-121l-181 145h162z" />
    <glyph glyph-name="Wacute" unicode="&#x1e82;" horiz-adv-x="1142" 
d="M74 763h180l19 -543q2 -24 2 -38q0 -22 -5 -45h19q5 32 10 50.5t14 44.5l188 531h245v-543q0 -6 0.5 -28t-6.5 -55h19q5 33 11 52.5t15 42.5l210 531h195l-317 -763h-270l-3 540q0 33 8 78h-15q-15 -68 -22 -90l-179 -528h-270zM571 814l140 145h162l-181 -145h-121z" />
    <glyph glyph-name="wacute" unicode="&#x1e83;" horiz-adv-x="865" 
d="M58 567h169l17 -290q1 -27 -5 -79h12q1 5 7.5 31.5t15.5 47.5l121 290h144l20 -290q1 -27 -5 -78h12q13 53 23 78l122 290h188l-281 -567h-159l-25 259q-2 15 -2 38q0 14 4 52h-12q-10 -40 -30 -90l-99 -259h-160zM418 618l140 145h162l-181 -145h-121z" />
    <glyph glyph-name="Wdieresis" unicode="&#x1e84;" horiz-adv-x="1142" 
d="M74 763h180l19 -543q2 -24 2 -38q0 -22 -5 -45h19q5 32 10 50.5t14 44.5l188 531h245v-543q0 -6 0.5 -28t-6.5 -55h19q5 33 11 52.5t15 42.5l210 531h195l-317 -763h-270l-3 540q0 33 8 78h-15q-15 -68 -22 -90l-179 -528h-270zM468.5 820.5q-22.5 18.5 -22.5 50.5
q0 46 33.5 75t78.5 29q36 0 58.5 -19t22.5 -52q0 -11 -1 -16q-7 -39 -39 -62.5t-72 -23.5q-36 0 -58.5 18.5zM687.5 820.5q-22.5 18.5 -22.5 50.5q0 46 33.5 75t78.5 29q36 0 58.5 -19t22.5 -52q0 -11 -1 -16q-7 -39 -39 -62.5t-72 -23.5q-36 0 -58.5 18.5z" />
    <glyph glyph-name="wdieresis" unicode="&#x1e85;" horiz-adv-x="865" 
d="M58 567h169l17 -290q1 -27 -5 -79h12q1 5 7.5 31.5t15.5 47.5l121 290h144l20 -290q1 -27 -5 -78h12q13 53 23 78l122 290h188l-281 -567h-159l-25 259q-2 15 -2 38q0 14 4 52h-12q-10 -40 -30 -90l-99 -259h-160zM316.5 625q-22.5 19 -22.5 51q0 45 33 74t78 29
q36 0 58.5 -19t22.5 -52q0 -46 -33 -74t-78 -28q-36 0 -58.5 19zM535.5 625q-22.5 19 -22.5 51q0 45 33 74t78 29q36 0 58.5 -19t22.5 -52q0 -46 -33 -74t-78 -28q-36 0 -58.5 19z" />
    <glyph glyph-name="uni1E9E" unicode="&#x1e9e;" horiz-adv-x="709" 
d="M139.5 640.5q40.5 70.5 109.5 104.5t175 34q76 0 133.5 -27t96.5 -70l-20 -147l-58 -53q-11 -10 -25.5 -19t-45.5 -24v-8q22 1 49 -6q45 -15 71.5 -58t26.5 -100q0 -90 -43.5 -150t-116.5 -88.5t-162 -28.5h-92l28 160h89q49 0 84.5 30.5t35.5 76.5q0 25 -21 36.5
t-67 11.5h-71l22 137l110 98q15 13 30 18.5t43 5.5v14q-10 0 -16.5 2.5t-11 5.5t-6.5 4q-12 9 -26.5 14t-42.5 5q-74 0 -110.5 -45t-51.5 -130l-78 -444h-179l80 456q20 114 60.5 184.5z" />
    <glyph glyph-name="Ygrave" unicode="&#x1ef2;" horiz-adv-x="732" 
d="M254 301l-195 462h196l84 -232q9 -23 13 -38t4 -33q0 -6 -2 -24h18q5 40 13 63t22 43l166 221h223l-354 -460l-55 -303h-188zM485 814h-121l-181 145h162z" />
    <glyph glyph-name="ygrave" unicode="&#x1ef3;" horiz-adv-x="591" 
d="M1 -88h66q25 0 42.5 8t31.5 32l24 40l-100 575h172l29 -320q2 -30 1 -67h12q9 32 24 67l133 320h189l-322 -632q-44 -87 -94.5 -123.5t-130.5 -36.5h-101zM400 618h-121l-181 145h162z" />
    <glyph glyph-name="endash" unicode="&#x2013;" horiz-adv-x="635" 
d="M63 258l21 120h501l-21 -120h-501z" />
    <glyph glyph-name="emdash" unicode="&#x2014;" horiz-adv-x="1106" 
d="M-4 258l21 120h1106l-21 -120h-1106z" />
    <glyph glyph-name="uni2015" unicode="&#x2015;" horiz-adv-x="812" 
d="M64 274l18 100h680l-18 -100h-680z" />
    <glyph glyph-name="quoteleft" unicode="&#x2018;" horiz-adv-x="326" 
d="M117.5 459q-23.5 28 -23.5 76q0 68 31.5 122t88 85.5t128.5 34.5l-15 -86q-58 0 -94.5 -24.5t-43.5 -71.5h12q8 12 18 17.5t26 5.5q26 0 44.5 -19t18.5 -51q0 -51 -34.5 -84t-86.5 -33q-46 0 -69.5 28z" />
    <glyph glyph-name="quoteright" unicode="&#x2019;" horiz-adv-x="326" 
d="M205.5 539.5q36.5 24.5 43.5 71.5h-12q-8 -12 -18 -17.5t-26 -5.5q-26 0 -44.5 19t-18.5 51q0 51 34.5 84t86.5 33q46 0 69.5 -28t23.5 -76q0 -68 -31.5 -122t-88 -85.5t-128.5 -34.5l15 86q58 0 94.5 24.5z" />
    <glyph glyph-name="quotesinglbase" unicode="&#x201a;" horiz-adv-x="317" 
d="M87.5 -59.5q36.5 24.5 43.5 71.5h-12q-8 -12 -18 -17.5t-26 -5.5q-26 0 -44.5 19t-18.5 51q0 51 34.5 84t86.5 33q46 0 69.5 -28t23.5 -76q0 -68 -31.5 -122t-88 -85.5t-128.5 -34.5l15 86q58 0 94.5 24.5z" />
    <glyph glyph-name="quotedblleft" unicode="&#x201c;" horiz-adv-x="572" 
d="M233.5 667.5q-36.5 -24.5 -43.5 -71.5h12q8 12 18 17.5t26 5.5q26 0 44.5 -19t18.5 -51q0 -51 -34.5 -84t-86.5 -33q-46 0 -69.5 28t-23.5 76q0 68 31.5 122t88 85.5t128.5 34.5l-15 -86q-58 0 -94.5 -24.5zM478.5 667.5q-36.5 -24.5 -43.5 -71.5h12q8 12 18 17.5t26 5.5
q26 0 44.5 -19t18.5 -51q0 -51 -34.5 -84t-86.5 -33q-46 0 -69.5 28t-23.5 76q0 68 31.5 122t88 85.5t128.5 34.5l-15 -86q-58 0 -94.5 -24.5z" />
    <glyph glyph-name="quotedblright" unicode="&#x201d;" horiz-adv-x="571" 
d="M205.5 539.5q36.5 24.5 43.5 71.5h-12q-8 -12 -18 -17.5t-26 -5.5q-26 0 -44.5 19t-18.5 51q0 51 34.5 84t86.5 33q46 0 69.5 -28t23.5 -76q0 -68 -31.5 -122t-88 -85.5t-128.5 -34.5l15 86q58 0 94.5 24.5zM450.5 539.5q36.5 24.5 43.5 71.5h-12q-8 -12 -18 -17.5
t-26 -5.5q-26 0 -44.5 19t-18.5 51q0 51 34.5 84t86.5 33q46 0 69.5 -28t23.5 -76q0 -68 -31.5 -122t-88 -85.5t-128.5 -34.5l15 86q58 0 94.5 24.5z" />
    <glyph glyph-name="quotedblbase" unicode="&#x201e;" horiz-adv-x="563" 
d="M87.5 -60.5q36.5 24.5 43.5 71.5h-12q-8 -12 -18 -17.5t-26 -5.5q-26 0 -44.5 19t-18.5 51q0 51 34.5 84t86.5 33q46 0 69.5 -28t23.5 -76q0 -68 -31.5 -122t-88 -85.5t-128.5 -34.5l15 86q58 0 94.5 24.5zM332.5 -60.5q36.5 24.5 43.5 71.5h-12q-8 -12 -18 -17.5
t-26 -5.5q-26 0 -44.5 19t-18.5 51q0 51 34.5 84t86.5 33q46 0 69.5 -28t23.5 -76q0 -68 -31.5 -122t-88 -85.5t-128.5 -34.5l15 86q58 0 94.5 24.5z" />
    <glyph glyph-name="dagger" unicode="&#x2020;" horiz-adv-x="584" 
d="M138 -237l116 658h-220l22 121h220l39 221h123l-39 -221h221l-22 -121h-221l-116 -658h-123z" />
    <glyph glyph-name="bullet" unicode="&#x2022;" horiz-adv-x="384" 
d="M88 162q-30 30 -30 75q0 40 21.5 74.5t56.5 55.5t74 21q48 0 78 -30t30 -76q0 -39 -22 -74t-57 -55.5t-74 -20.5q-47 0 -77 30z" />
    <glyph glyph-name="uni2023" unicode="&#x2023;" horiz-adv-x="466" 
d="M99 77v421l360 -210z" />
    <glyph glyph-name="ellipsis" unicode="&#x2026;" horiz-adv-x="732" 
d="M36 10.5q-23 22.5 -23 56.5q0 28 16 53t42.5 40.5t55.5 15.5q33 0 54.5 -22.5t21.5 -55.5q0 -29 -16 -54t-41 -40.5t-52 -15.5q-35 0 -58 22.5zM258 10.5q-22 22.5 -22 55.5q0 28 16 53.5t42 41t54 15.5q34 0 56 -22.5t22 -55.5q0 -29 -16 -54.5t-41.5 -40.5t-53.5 -15
q-35 0 -57 22.5zM480 10.5q-22 22.5 -22 55.5q0 28 16 53.5t42 41t54 15.5q34 0 56 -22.5t22 -55.5q0 -29 -16 -54.5t-41.5 -40.5t-53.5 -15q-35 0 -57 22.5z" />
    <glyph glyph-name="perthousand" unicode="&#x2030;" horiz-adv-x="1149" 
d="M114 455q-40 37 -40 103q0 59 26 110t72.5 81t103.5 30q62 0 100.5 -41t38.5 -104q0 -55 -27.5 -105t-73 -80.5t-98.5 -30.5q-62 0 -102 37zM11 0l621 763h129l-622 -763h-128zM275.5 563q16.5 22 16.5 52q0 21 -10.5 31.5t-26.5 10.5q-28 0 -42.5 -23.5t-14.5 -53.5
q0 -39 39 -39q22 0 38.5 22zM402 20q-40 37 -40 103q0 59 26.5 109.5t72.5 80.5t103 30q62 0 101 -40.5t39 -104.5q0 -54 -27.5 -104t-73.5 -80.5t-99 -30.5q-62 0 -102 37zM774 20q-40 37 -40 103q0 59 26.5 109.5t72.5 80.5t103 30q62 0 101 -40.5t39 -104.5
q0 -54 -27.5 -104t-73.5 -80.5t-99 -30.5q-62 0 -102 37zM563.5 126q17.5 22 17.5 51q0 22 -11 33t-27 11q-29 0 -43 -23t-14 -54q0 -40 39 -40q21 0 38.5 22zM935.5 126q17.5 22 17.5 51q0 22 -11 33t-27 11q-29 0 -43 -23t-14 -54q0 -40 39 -40q21 0 38.5 22z" />
    <glyph glyph-name="guilsinglleft" unicode="&#x2039;" horiz-adv-x="308" 
d="M-9 275l274 197l-27 -147l-33 -22q-20 -13 -31.5 -19t-26.5 -7l-3 -14q15 -1 25.5 -6.5t24.5 -17.5l26 -22l-24 -137z" />
    <glyph glyph-name="guilsinglright" unicode="&#x203a;" horiz-adv-x="311" 
d="M66 227l33 22q20 13 31.5 19t26.5 7l3 14q-15 1 -25.5 6.5t-24.5 17.5l-26 22l24 137l205 -195l-274 -197z" />
    <glyph glyph-name="fraction" unicode="&#x2044;" horiz-adv-x="154" 
d="M-162 0l459 763h92l-459 -763h-92z" />
    <glyph glyph-name="Euro" unicode="&#x20ac;" horiz-adv-x="637" 
d="M196 52.5q-76 69.5 -92 186.5h-64l19 108h53l8 42l6 34h-53l19 111h67q62 114 158 179.5t243 65.5q33 0 70 -5l-29 -166q-29 10 -69 10q-68 0 -123 -37q-31 -24 -61 -45l4 -12q36 10 63 10h142l-19 -111h-232q-3 -12 -7 -36l-7 -40h232l-19 -108h-142q-16 0 -29 1.5
t-36 8.5l-8 -12q10 -10 31 -37q13 -17 18 -21q42 -39 109 -39q37 0 73 11l-29 -163q-38 -5 -72 -5q-148 0 -224 69.5z" />
    <glyph glyph-name="uni2116" unicode="&#x2116;" horiz-adv-x="1295" 
d="M860 338.5q-56 52.5 -56 143.5q0 82 39 150t106.5 107.5t150.5 39.5q97 0 153.5 -52.5t56.5 -140.5q0 -83 -38.5 -151.5t-106.5 -108.5t-152 -40q-97 0 -153 52.5zM134 763h182l174 -382q10 -23 15.5 -42.5t10.5 -59.5l17 4q-1 28 1 47.5t7 49.5l68 383h179l-135 -763
h-182l-176 388q-9 22 -14.5 40.5t-9.5 57.5l-17 -4q1 -28 -1 -47t-7 -49l-68 -386h-179zM1102.5 429q29.5 23 45 60.5t15.5 77.5q0 42 -22.5 67t-61.5 25q-37 0 -66.5 -22t-46 -58t-16.5 -78q0 -44 22.5 -69.5t62.5 -25.5q38 0 67.5 23zM774 127l22 123h422l-22 -123h-422z
" />
    <glyph glyph-name="trademark" unicode="&#x2122;" horiz-adv-x="710" 
d="M106 458l39 221h-75l15 84h244l-15 -84h-75l-39 -221h-94zM380 763h150l-7 -144q0 -29 -5 -59h6q3 16 9 34.5t7 24.5l44 144h151l-54 -305h-95l29 163q2 15 5 28t10 31h-7l-20 -58l-54 -164h-91l5 164v58h-7q0 -30 -5 -59l-29 -163h-96z" />
    <glyph glyph-name="minus" unicode="&#x2212;" horiz-adv-x="687" 
d="M113 279v121h481v-121h-481z" />
    <glyph glyph-name="lozenge" unicode="&#x25ca;" horiz-adv-x="706" 
d="M178 0l-144 382l278 381h251l143 -382l-277 -381h-251zM318 93l195 289l-92 288l-193 -288z" />
    <glyph glyph-name="uniF8FF" unicode="&#xf8ff;" horiz-adv-x="897" 
d="M1 10l131 743q2 10 11 10h744q10 0 8 -10l-131 -743q-1 -4 -4 -7t-8 -3h-744q-9 0 -7 10zM192 94q13 11 22.5 25t17.5 28q19 36 45 69.5t82 82.5l29 26q5 4 9 4q5 0 8 -3q7 -4 16 -6q9 -3 8 -13l-6 -36q-8 -43 -17.5 -66t-23.5 -48q-14 -21 -17 -37q-2 -14 7 -25t23 -11
q15 0 28 11t15 25q1 4 1 12q0 7 -4 25q-7 28 -7 51q0 32 6 63l6 36q1 9 12 13q13 4 16 6q6 3 9 3q5 0 8 -4l22 -26q40 -48 54 -81.5t20 -69.5q4 -20 8 -31.5t13 -22.5q14 -15 37 -15q26 0 44 15q25 22 25 53q0 19 -10 29q-9 12 -19.5 18t-29.5 12q-35 14 -64.5 33t-68.5 67
l-21 26q-3 3 -3 9l4 7q8 12 11 18q5 11 13 11h36q45 0 68.5 -6t42.5 -16q3 -1 13 -5.5t23 -4.5q16 0 29.5 13.5t13.5 30.5q0 12 -8.5 21t-21.5 9t-25 -4.5t-14 -5.5q-22 -10 -48 -16t-71 -6h-36q-8 0 -10 11q-2 10 -4 15q-2 3 -2 8q3 6 6 8l30 26q57 48 94.5 68.5t74.5 31.5
q4 2 16.5 6.5t22.5 10t19 13.5q25 23 25 52q0 19 -10 30q-13 16 -39 16q-24 0 -42 -15q-13 -11 -21 -22.5t-20 -32.5q-19 -37 -44.5 -70t-82.5 -81l-29 -24q-3 -4 -9 -4q-4 0 -7 2q-6 4 -16 7q-9 3 -8 13l7 36q7 44 17 68t24 45q2 3 8 14.5t8 23.5q3 14 -6 25t-23 11
q-15 0 -28 -11t-16 -25q-1 -4 -1 -11q0 -8 4 -26q8 -24 8 -53q0 -22 -6 -61l-7 -36q-1 -9 -12 -13q-2 -1 -8 -2.5t-10 -4.5q-3 -2 -8 -2q-6 0 -9 4l-21 24q-40 48 -54.5 82.5t-19.5 69.5q-3 19 -7 31t-13 23q-13 16 -37 16q-22 0 -43 -16q-26 -23 -26 -52q0 -20 10 -31
q9 -11 19.5 -17t28.5 -13q33 -13 63 -33t70 -67l22 -25q3 -5 2 -8q0 -4 -4 -8q-2 -2 -10 -16q-5 -11 -14 -11h-36q-44 0 -68 6t-43 16q-2 1 -12 5.5t-23 4.5q-16 0 -29.5 -13t-13.5 -29q0 -14 8.5 -23t21.5 -9q12 0 23.5 4.5t15.5 5.5q22 10 47.5 16t70.5 6h36q9 0 11 -11
q2 -12 5 -17v-5q0 -6 -5 -11l-31 -27q-56 -49 -93 -68.5t-76 -31.5q-21 -7 -33.5 -13t-25.5 -17q-11 -9 -17.5 -23t-6.5 -28q0 -17 10 -30q13 -16 39 -16q25 0 43 15zM405.5 340.5q-13.5 13.5 -13.5 32.5q0 24 20.5 43.5t44.5 19.5q20 0 32.5 -13t12.5 -32
q0 -25 -19.5 -44.5t-44.5 -19.5q-19 0 -32.5 13.5zM474 354l-5 6q-11 -13 -28 -13q-12 0 -20 8.5t-8 21.5q0 15 12.5 27t27.5 12t25 -13l6 6q-7 15 -29 15q-19 0 -35.5 -15t-16.5 -34q0 -15 10.5 -25.5t26.5 -10.5q22 0 34 15z" />
    <glyph glyph-name="i.loclTRK" horiz-adv-x="308" 
d="M20 0l100 567h168l-100 -567h-168zM152.5 625q-22.5 19 -22.5 51q0 45 33 74t78 29q36 0 58.5 -19t22.5 -52q0 -46 -33 -74t-78 -28q-36 0 -58.5 19z" />
    <glyph glyph-name="uni030C.alt" 
d="M-89.5 539.5q36.5 24.5 43.5 71.5h-12q-8 -12 -18 -17.5t-26 -5.5q-26 0 -44.5 19t-18.5 51q0 51 34.5 84t86.5 33q46 0 69.5 -28t23.5 -76q0 -12 -4 -40q-15 -81 -75 -139t-169 -63l15 86q58 0 94.5 24.5z" />
    <glyph glyph-name="uni0308.case" 
d="M-297.5 820.5q-22.5 18.5 -22.5 50.5q0 46 33.5 75t78.5 29q36 0 58.5 -19t22.5 -52q0 -11 -1 -16q-7 -39 -39 -62.5t-72 -23.5q-36 0 -58.5 18.5zM-78.5 820.5q-22.5 18.5 -22.5 50.5q0 46 33.5 75t78.5 29q36 0 58.5 -19t22.5 -52q0 -11 -1 -16q-7 -39 -39 -62.5
t-72 -23.5q-36 0 -58.5 18.5z" />
    <glyph glyph-name="uni0307.case" 
d="M-78.5 820.5q-22.5 18.5 -22.5 50.5q0 46 33.5 75t78.5 29q36 0 58.5 -19t22.5 -52q0 -11 -1 -16q-7 -39 -39 -62.5t-72 -23.5q-36 0 -58.5 18.5z" />
    <glyph glyph-name="uni0328.case" 
d="M-293 -143q0 49 31.5 76.5t90.5 46.5l4 20h101q-61 -34 -80.5 -49.5t-19.5 -33.5q0 -23 29 -23q24 0 55 14l-18 -103q-42 -13 -84 -13q-109 0 -109 65z" />
    <glyph glyph-name="uni0335.case" 
d="M-438 279l22 121h421l-22 -121h-421z" />
    <glyph glyph-name="uni0337.case" 
d="M-421 219l22 129l430 203l-22 -128z" />
    <glyph glyph-name="uni0338.case" 
d="M-738 0l-58 67l791 671l57 -67z" />
    <glyph glyph-name="base_No" horiz-adv-x="532" 
d="M-24 0v148h506v-148h-506z" />
    </font>
</defs>
</svg>
